<svg width="25" height="24" viewBox="0 0 25 24" fill="none" xmlns="http://www.w3.org/2000/svg">
<g clip-path="url(#clip0_697_15453)">
<path fill-rule="evenodd" clip-rule="evenodd" d="M14.35 5.19687C14.35 2.84459 16.1477 1.04688 18.5 1.04688C20.8523 1.04688 22.65 2.84459 22.65 5.19687C22.65 6.63615 22.0521 8.00624 21.6917 8.7126C21.5618 8.96707 21.5 9.20507 21.5 9.41491V10.0003C21.5 11.6572 20.1569 13.0003 18.5 13.0003C16.8431 13.0003 15.5 11.6572 15.5 10.0003V9.41493C15.5 9.20509 15.4382 8.96708 15.3083 8.71261C14.9479 8.00624 14.35 6.63615 14.35 5.19687ZM18.5 3.04688C17.2523 3.04688 16.35 3.94916 16.35 5.19687C16.35 5.81049 16.5232 6.45272 16.7322 7.00031H20.2678C20.4768 6.45272 20.65 5.81049 20.65 5.19687C20.65 3.94916 19.7477 3.04688 18.5 3.04688ZM19.5275 9.00031H17.4725C17.4903 9.13552 17.5 9.27389 17.5 9.41493V10.0003C17.5 10.5526 17.9477 11.0003 18.5 11.0003C19.0523 11.0003 19.5 10.5526 19.5 10.0003V9.41491C19.5 9.27388 19.5097 9.13552 19.5275 9.00031Z" fill="#2E6270"/>
<path fill-rule="evenodd" clip-rule="evenodd" d="M6.82526 1.90024C6.03332 1.89964 5.41784 1.89918 4.8664 2.07482C4.03475 2.3397 3.32352 2.89005 2.85841 3.6286C2.55 4.11832 2.39599 4.71421 2.19782 5.48096L1.67861 7.48391C1.37263 8.66411 1.93346 9.89757 3.02396 10.4428C4.0828 10.9722 5.366 10.7142 6.1379 9.81666L6.62268 9.25296C6.84251 8.99734 7.16288 8.85031 7.50001 8.85031C7.83715 8.85031 8.15752 8.99734 8.37735 9.25296L8.86213 9.81666C9.63403 10.7142 10.9172 10.9722 11.9761 10.4428C13.0666 9.89757 13.6274 8.66411 13.3214 7.48391L12.8022 5.48096C12.604 4.71421 12.45 4.11832 12.1416 3.6286C11.6765 2.89005 10.9653 2.3397 10.1336 2.07482C9.58219 1.89918 8.96671 1.89964 8.17477 1.90024H6.82526ZM5.47336 3.98049C5.68895 3.91182 5.96498 3.90031 6.96749 3.90031H8.03253C9.03505 3.90031 9.31108 3.91182 9.52667 3.98049C9.90877 4.10219 10.2356 4.35506 10.4493 4.69439C10.5698 4.88585 10.6502 5.15015 10.9018 6.12059L11.3854 7.98584C11.4545 8.25233 11.3279 8.53085 11.0816 8.65397C10.8425 8.77351 10.5528 8.71525 10.3785 8.51258L9.89372 7.94888C9.29395 7.25147 8.41985 6.85031 7.50001 6.85031C6.58018 6.85031 5.70608 7.25147 5.10631 7.94888L4.62153 8.51258C4.44723 8.71525 4.15748 8.77351 3.91839 8.65397C3.67215 8.53085 3.54552 8.25233 3.61461 7.98584L4.09819 6.12058C4.34978 5.15015 4.4302 4.88585 4.55077 4.69439C4.76447 4.35506 5.09125 4.10219 5.47336 3.98049Z" fill="#2E6270"/>
<path fill-rule="evenodd" clip-rule="evenodd" d="M13.6852 15.0003C13.5132 15.0003 13.4271 15.0003 13.3551 15.0109C12.9179 15.0749 12.5746 15.4182 12.5106 15.8554C12.5 15.9275 12.5 16.0135 12.5 16.1855V19.0003C12.5 21.2095 14.2909 23.0003 16.5 23.0003C17.9806 23.0003 19.2733 22.1959 19.9649 21.0003H21.5C23.1569 21.0003 24.5 19.6572 24.5 18.0003C24.5 16.3435 23.1569 15.0003 21.5 15.0003H13.6852ZM14.5 19.0003V17.0003H18.5V19.0003C18.5 20.1049 17.6046 21.0003 16.5 21.0003C15.3954 21.0003 14.5 20.1049 14.5 19.0003ZM21.5 19.0003H20.5V17.0003H21.5C22.0523 17.0003 22.5 17.448 22.5 18.0003C22.5 18.5526 22.0523 19.0003 21.5 19.0003Z" fill="#2E6270"/>
<path d="M10.5 13.3907C10.5 12.4148 9.58292 11.6988 8.6362 11.9355L4.6362 12.9355C3.96844 13.1024 3.5 13.7024 3.5 14.3907V19.4952C3.30575 19.5195 3.11026 19.5771 2.92016 19.6722L2.48541 19.8896C1.88149 20.1915 1.5 20.8088 1.5 21.484C1.5 22.8092 2.89457 23.6711 4.07984 23.0784L4.51459 22.8611C4.84315 22.6968 5.10588 22.4392 5.27715 22.1297C5.4165 21.9578 5.5 21.7388 5.5 21.5003V16.0311L8.5 15.2811V18.7452C8.30575 18.7695 8.11026 18.8271 7.92016 18.9222L7.48541 19.1396C6.88149 19.4415 6.5 20.0588 6.5 20.734C6.5 22.0592 7.89457 22.9211 9.07984 22.3284L9.51459 22.1111C10.1185 21.8091 10.5 21.1918 10.5 20.5166L10.5 20.5072L10.5 20.5003V13.3907Z" fill="#2E6270"/>
</g>
<defs>
<clipPath id="clip0_697_15453">
<rect width="24" height="24" fill="white" transform="translate(0.5)"/>
</clipPath>
</defs>
</svg>
