<svg width="24" height="24" viewBox="0 0 24 24" fill="none" xmlns="http://www.w3.org/2000/svg">
<path d="M10.9341 13.7544C10.9546 14.4585 11.3032 14.8687 12.0005 14.8687C12.6909 14.8687 13.0464 14.4585 13.0669 13.7544L13.1899 9.50246C13.1967 9.39309 13.2036 9.27004 13.2036 9.18118C13.2036 8.42239 12.7592 7.97805 12.0073 7.97805C11.2485 7.97805 10.7973 8.42239 10.7973 9.18118C10.7973 9.2233 10.7989 9.27311 10.8005 9.32551C10.8023 9.38363 10.8042 9.44494 10.8042 9.50246L10.9341 13.7544Z" fill="#2E6270"/>
<path d="M10.7016 16.9947C10.7016 17.6851 11.2827 18.2251 12.0005 18.2251C12.7114 18.2251 13.2924 17.6851 13.2924 16.9947C13.2924 16.3111 12.7114 15.771 12.0005 15.771C11.2827 15.771 10.7016 16.3111 10.7016 16.9947Z" fill="#2E6270"/>
<path fill-rule="evenodd" clip-rule="evenodd" d="M21.5586 17.3193L14.8375 4.43726C13.9191 2.67692 13.4599 1.79675 12.845 1.51032C12.3096 1.26088 11.6913 1.26088 11.1559 1.51032C10.541 1.79675 10.0818 2.67692 9.16338 4.43726L2.4423 17.3193C1.6358 18.8651 1.23255 19.638 1.31787 20.268C1.39235 20.8179 1.69195 21.3121 2.14504 21.6325C2.66408 21.9995 3.53584 21.9995 5.27937 21.9995H18.7215C20.4651 21.9995 21.3368 21.9995 21.8559 21.6325C22.309 21.3121 22.6086 20.8179 22.683 20.268C22.7684 19.638 22.3651 18.8651 21.5586 17.3193ZM13.0644 5.36239L19.7854 18.2445C20.2068 19.0521 20.4571 19.5362 20.6051 19.8966C20.6137 19.9176 20.6216 19.9373 20.6287 19.9557C20.6092 19.9578 20.5881 19.9599 20.5654 19.962C20.1775 19.9975 19.6324 19.9995 18.7215 19.9995H5.27937C4.36846 19.9995 3.82339 19.9975 3.43549 19.962C3.41283 19.9599 3.39175 19.9578 3.37216 19.9557C3.37933 19.9373 3.38719 19.9176 3.39584 19.8966C3.54375 19.5362 3.79411 19.0521 4.21547 18.2445L10.9366 5.36239C11.4142 4.44693 11.7099 3.88451 11.955 3.50393C11.9711 3.47891 11.9862 3.45589 12.0005 3.43476C12.0147 3.45589 12.0298 3.47891 12.0459 3.50393C12.291 3.88451 12.5867 4.44693 13.0644 5.36239Z" fill="#2E6270"/>
</svg>
