<svg width="19" height="18" viewBox="0 0 19 18" fill="none" xmlns="http://www.w3.org/2000/svg">
<path d="M8.33321 16.5C8.4727 16.7537 8.67775 16.9653 8.92695 17.1127C9.17616 17.2601 9.46036 17.3378 9.74988 17.3378C10.0394 17.3378 10.3236 17.2601 10.5728 17.1127C10.822 16.9653 11.0271 16.7537 11.1665 16.5M3.08317 0.666687C2.08317 2.08335 1.4165 3.75002 1.4165 5.66669M18.0832 5.66669C18.0832 3.75002 17.4165 2.08335 16.4165 0.666687M4.74984 5.66669C4.74984 4.3406 5.27662 3.06883 6.2143 2.13115C7.15199 1.19347 8.42375 0.666687 9.74984 0.666687C11.0759 0.666687 12.3477 1.19347 13.2854 2.13115C14.2231 3.06883 14.7498 4.3406 14.7498 5.66669C14.7498 11.5 17.2498 13.1667 17.2498 13.1667H2.24984C2.24984 13.1667 4.74984 11.5 4.74984 5.66669Z" stroke="black" stroke-linecap="round" stroke-linejoin="round"/>
</svg>
