<svg width="21" height="20" viewBox="0 0 21 20" fill="none" xmlns="http://www.w3.org/2000/svg">
<path d="M17.75 8.33335H2.75M13.5833 1.66669V5.00002M6.91667 1.66669V5.00002M9 11.6667L10.25 10.8334V15M9.20833 15H11.2917M6.75 18.3334H13.75C15.1501 18.3334 15.8502 18.3334 16.385 18.0609C16.8554 17.8212 17.2378 17.4387 17.4775 16.9683C17.75 16.4335 17.75 15.7335 17.75 14.3334V7.33335C17.75 5.93322 17.75 5.23316 17.4775 4.69838C17.2378 4.22797 16.8554 3.84552 16.385 3.60584C15.8502 3.33335 15.1501 3.33335 13.75 3.33335H6.75C5.34987 3.33335 4.6498 3.33335 4.11502 3.60584C3.64462 3.84552 3.26217 4.22797 3.02248 4.69838C2.75 5.23316 2.75 5.93322 2.75 7.33335V14.3334C2.75 15.7335 2.75 16.4335 3.02248 16.9683C3.26217 17.4387 3.64462 17.8212 4.11502 18.0609C4.6498 18.3334 5.34987 18.3334 6.75 18.3334Z" stroke="black" stroke-linecap="round" stroke-linejoin="round"/>
</svg>
