<svg width="25" height="24" viewBox="0 0 25 24" fill="none" xmlns="http://www.w3.org/2000/svg">
<path d="M21.4998 3C21.4998 4.10457 20.6044 5 19.4998 5C18.3952 5 17.4998 4.10457 17.4998 3C17.4998 1.89543 18.3952 1 19.4998 1C20.6044 1 21.4998 1.89543 21.4998 3Z" fill="#3993A1"/>
<path d="M3.49951 8V14C3.49951 14.5523 3.0518 15 2.49951 15C1.94723 15 1.49951 14.5523 1.49951 14V8C1.49951 6.89543 2.39494 6 3.49951 6H6.77875C7.63961 6 8.40389 6.55086 8.67612 7.36754L10.0732 11.5587L10.9784 10.7062C11.3453 10.2742 11.8925 10 12.5037 10C13.1304 10 13.6898 10.2883 14.0565 10.7395L14.9268 11.5574L16.3234 7.36754C16.5957 6.55086 17.36 6 18.2208 6H21.5001C22.6046 6 23.5001 6.89543 23.5001 8V14C23.5001 14.5523 23.0523 15 22.5001 15C21.9478 15 21.5001 14.5523 21.5001 14V8L21.4998 21C21.4998 21.465 21.4998 21.6975 21.4487 21.8882C21.31 22.4059 20.9056 22.8102 20.388 22.9489C20.1973 23 19.9648 23 19.4998 23C19.0348 23 18.8023 23 18.6116 22.9489C18.0939 22.8102 17.6896 22.4059 17.5509 21.8882C17.4998 21.6975 17.4998 21.465 17.4998 21V10.1631L16.4538 13.3009C16.4359 13.3578 16.4131 13.4125 16.3858 13.4645C16.3253 13.5801 16.2442 13.6801 16.1485 13.7614C15.9739 13.9104 15.7474 14.0004 15.4998 14.0004C15.1514 14.0004 14.811 13.9198 14.5037 13.7687V15C14.5037 15.0997 14.4964 15.1977 14.4823 15.2935C14.4912 15.336 14.4974 15.3795 14.5008 15.4239L14.9969 21.9239C15.039 22.4746 14.6266 22.9551 14.0759 22.9971C13.5252 23.0392 13.0448 22.6268 13.0027 22.0761L12.6151 16.997C12.5782 16.999 12.5411 17 12.5037 17C12.4657 17 12.428 16.9989 12.3906 16.9969L11.9967 22.0773C11.9541 22.628 11.4731 23.0397 10.9224 22.9971C10.3718 22.9544 9.96004 22.4734 10.0027 21.9228L10.5066 15.4228C10.51 15.3787 10.5163 15.3356 10.5251 15.2935C10.511 15.1977 10.5037 15.0997 10.5037 15V13.765C10.2082 13.9111 9.88202 13.9921 9.54746 13.9991C9.11087 14.0203 8.69584 13.7513 8.55083 13.3162L7.49978 10.1631V21C7.49978 21.465 7.49978 21.6975 7.44867 21.8882C7.30997 22.4059 6.90565 22.8102 6.38801 22.9489C6.19726 23 5.96477 23 5.49978 23C5.0348 23 4.8023 23 4.61155 22.9489C4.09392 22.8102 3.68959 22.4059 3.55089 21.8882C3.49978 21.6975 3.49978 21.465 3.49978 21L3.49951 8Z" fill="#3993A1"/>
<path d="M5.49978 5C6.60435 5 7.49978 4.10457 7.49978 3C7.49978 1.89543 6.60435 1 5.49978 1C4.39521 1 3.49978 1.89543 3.49978 3C3.49978 4.10457 4.39521 5 5.49978 5Z" fill="#3993A1"/>
<path d="M14.4998 7C14.4998 8.10457 13.6044 9 12.4998 9C11.3952 9 10.4998 8.10457 10.4998 7C10.4998 5.89543 11.3952 5 12.4998 5C13.6044 5 14.4998 5.89543 14.4998 7Z" fill="#3993A1"/>
</svg>
