<svg width="22" height="22" viewBox="0 0 22 22" fill="none" xmlns="http://www.w3.org/2000/svg">
<path fill-rule="evenodd" clip-rule="evenodd" d="M20.8322 1.71744C20.6682 0.508462 19.293 0.0909511 18.4344 0.730911C17.4083 1.49577 15.5209 2.72846 13.8329 3.01453C13.2593 3.11174 12.6086 3.16574 11.8597 3.22789L11.6206 3.24779C10.7903 3.31728 9.86911 3.4011 8.93535 3.57209C7.05963 3.91556 5.04987 4.62478 3.42622 6.36496C0.791241 9.18904 0.382173 13.3798 2.31028 16.5283C0.543998 18.7269 -0.2346 20.6921 0.999904 21.0005C2.09749 21.2746 2.86157 20.2017 4.00485 18.5963C4.02386 18.5696 4.04298 18.5428 4.0622 18.5158C5.80252 19.8096 8.42847 20.194 10.9509 19.7998C13.8421 19.348 16.8829 17.8401 18.8192 15.0739C20.3343 12.9095 20.8924 10.1075 21.0562 7.6495C21.2216 5.16935 20.9934 2.9062 20.8322 1.71744ZM5.25136 16.9066C6.4032 17.7616 8.39513 18.1749 10.6421 17.8238C13.11 17.4381 15.6171 16.1608 17.1808 13.927C18.3872 12.2035 18.9061 9.83426 19.0607 7.51645C19.1814 5.70542 19.075 4.00544 18.9503 2.81982C17.7805 3.62025 15.9667 4.68143 14.1671 4.98641C13.5037 5.09883 12.7639 5.15999 12.0345 5.2203L11.7874 5.24082C10.959 5.31014 10.1241 5.38767 9.29559 5.53937C7.64682 5.84129 6.10757 6.42285 4.88854 7.72936C3.00238 9.7509 2.61964 12.6403 3.72259 14.9409C4.55858 14.0851 5.50422 13.2448 6.50151 12.5005C10.5078 9.51031 13.9986 9.00047 14 9.50047C14.0006 9.7257 13.4935 10.0524 12.616 10.6176C11.5454 11.3072 9.92372 12.3518 8.00034 14.0005C6.87084 14.9686 5.9845 15.9716 5.25136 16.9066Z" fill="#3993A1"/>
</svg>
