<svg width="24" height="24" viewBox="0 0 24 24" fill="none" xmlns="http://www.w3.org/2000/svg">
<path fill-rule="evenodd" clip-rule="evenodd" d="M10 10H4.2C3.60695 10 3.28244 10.0016 3.04927 10.0206C3.03998 10.0214 3.0312 10.0221 3.0229 10.0229C3.02213 10.0312 3.02136 10.04 3.02061 10.0493C3.00156 10.2824 3 10.6069 3 11.2V12.8C3 13.3931 3.00156 13.7176 3.02061 13.9507C3.02136 13.96 3.02213 13.9688 3.0229 13.9771C3.0312 13.9779 3.03998 13.9786 3.04927 13.9794C3.28244 13.9984 3.60695 14 4.2 14H10V19.8C10 20.3931 10.0016 20.7176 10.0206 20.9507C10.0214 20.96 10.0221 20.9688 10.0229 20.9771C10.0312 20.9779 10.04 20.9786 10.0493 20.9794C10.2824 20.9984 10.6069 21 11.2 21H12.8C13.3931 21 13.7176 20.9984 13.9507 20.9794C13.96 20.9786 13.9688 20.9779 13.9771 20.9771C13.9779 20.9688 13.9786 20.96 13.9794 20.9507C13.9984 20.7176 14 20.3931 14 19.8V14H19.8C20.3931 14 20.7176 13.9984 20.9507 13.9794C20.96 13.9786 20.9688 13.9779 20.9771 13.9771C20.9779 13.9688 20.9786 13.96 20.9794 13.9507C20.9984 13.7176 21 13.3931 21 12.8V11.2C21 10.6069 20.9984 10.2824 20.9794 10.0493C20.9786 10.04 20.9779 10.0312 20.9771 10.0229C20.9688 10.0221 20.96 10.0214 20.9507 10.0206C20.7176 10.0016 20.3931 10 19.8 10H14V4.2C14 3.60695 13.9984 3.28244 13.9794 3.04927C13.9786 3.03998 13.9779 3.0312 13.9771 3.0229C13.9688 3.02213 13.96 3.02136 13.9507 3.02061C13.7176 3.00156 13.3931 3 12.8 3H11.2C10.6069 3 10.2824 3.00156 10.0493 3.02061C10.04 3.02136 10.0312 3.02213 10.0229 3.0229C10.0221 3.0312 10.0214 3.03998 10.0206 3.04927C10.0016 3.28244 10 3.60695 10 4.2V10ZM16 8V4.2C16 3.0799 16 2.51984 15.782 2.09202C15.5903 1.71569 15.2843 1.40973 14.908 1.21799C14.4802 1 13.9201 1 12.8 1H11.2C10.0799 1 9.51984 1 9.09202 1.21799C8.71569 1.40973 8.40973 1.71569 8.21799 2.09202C8 2.51984 8 3.0799 8 4.2V8H4.2C3.0799 8 2.51984 8 2.09202 8.21799C1.71569 8.40973 1.40973 8.71569 1.21799 9.09202C1 9.51984 1 10.0799 1 11.2V12.8C1 13.9201 1 14.4802 1.21799 14.908C1.40973 15.2843 1.71569 15.5903 2.09202 15.782C2.51984 16 3.0799 16 4.2 16H8V19.8C8 20.9201 8 21.4802 8.21799 21.908C8.40973 22.2843 8.71569 22.5903 9.09202 22.782C9.51984 23 10.0799 23 11.2 23H12.8C13.9201 23 14.4802 23 14.908 22.782C15.2843 22.5903 15.5903 22.2843 15.782 21.908C16 21.4802 16 20.9201 16 19.8V16H19.8C20.9201 16 21.4802 16 21.908 15.782C22.2843 15.5903 22.5903 15.2843 22.782 14.908C23 14.4802 23 13.9201 23 12.8V11.2C23 10.0799 23 9.51984 22.782 9.09202C22.5903 8.71569 22.2843 8.40973 21.908 8.21799C21.4802 8 20.9201 8 19.8 8H16Z" fill="#3993A1"/>
</svg>
