<svg width="25" height="24" viewBox="0 0 25 24" fill="none" xmlns="http://www.w3.org/2000/svg">
<path fill-rule="evenodd" clip-rule="evenodd" d="M6.5 11C9.26142 11 11.5 8.76142 11.5 6C11.5 3.23858 9.26142 1 6.5 1C3.73858 1 1.5 3.23858 1.5 6C1.5 8.76142 3.73858 11 6.5 11ZM8.64671 3.51936C9.07827 3.76597 9.22821 4.31574 8.9816 4.74731L6.9816 8.24731C6.82896 8.51442 6.55045 8.68507 6.24315 8.69976C5.93585 8.71444 5.64233 8.57114 5.46491 8.3198L3.96491 6.1948C3.67827 5.78872 3.77509 5.22715 4.18117 4.94051C4.58725 4.65387 5.14881 4.75069 5.43546 5.15677L6.12018 6.12679L7.41877 3.85426C7.66537 3.42269 8.21514 3.27275 8.64671 3.51936Z" fill="#3993A1"/>
<path d="M14.4453 5C13.893 5 13.4453 5.44772 13.4453 6C13.4453 6.55228 13.893 7 14.4453 7H22.4468C22.9991 7 23.4468 6.55228 23.4468 6C23.4468 5.44772 22.9991 5 22.4468 5H14.4453Z" fill="#3993A1"/>
<path d="M13.4453 18C13.4453 17.4477 13.893 17 14.4453 17H22.4468C22.9991 17 23.4468 17.4477 23.4468 18C23.4468 18.5523 22.9991 19 22.4468 19H14.4453C13.893 19 13.4453 18.5523 13.4453 18Z" fill="#3993A1"/>
<path fill-rule="evenodd" clip-rule="evenodd" d="M11.5 18C11.5 20.7614 9.26142 23 6.5 23C3.73858 23 1.5 20.7614 1.5 18C1.5 15.2386 3.73858 13 6.5 13C9.26142 13 11.5 15.2386 11.5 18ZM8.73659 15.7636C9.08806 16.1151 9.08806 16.6849 8.73659 17.0364L7.7734 17.9996L8.73664 18.9628C9.08811 19.3143 9.08811 19.8841 8.73664 20.2356C8.38517 20.5871 7.81532 20.5871 7.46385 20.2356L6.50061 19.2724L5.53737 20.2356C5.1859 20.5871 4.61605 20.5871 4.26458 20.2356C3.91311 19.8841 3.91311 19.3143 4.26458 18.9628L5.22782 17.9996L4.26463 17.0364C3.91316 16.6849 3.91316 16.1151 4.26463 15.7636C4.6161 15.4121 5.18595 15.4121 5.53742 15.7636L6.50061 16.7268L7.4638 15.7636C7.81527 15.4121 8.38512 15.4121 8.73659 15.7636Z" fill="#3993A1"/>
</svg>
