<svg width="24" height="24" viewBox="0 0 24 24" fill="none" xmlns="http://www.w3.org/2000/svg">
<path d="M12 1C5.92487 1 1 5.92487 1 12V17C1 20.866 4.13401 24 8 24H10.5C11.0523 24 11.5 23.5523 11.5 23C11.5 22.4477 11.0523 22 10.5 22H8C5.23858 22 3 19.7614 3 17V12C3 7.02944 7.02944 3 12 3C16.9706 3 21 7.02944 21 12V15C21 15.5523 21.4477 16 22 16C22.5523 16 23 15.5523 23 15V12C23 5.92487 18.0751 1 12 1Z" fill="#2E6270"/>
<path d="M5 12C5 10.8954 5.89543 10 7 10C8.10457 10 9 10.8954 9 12V17C9 18.1046 8.10457 19 7 19C5.89543 19 5 18.1046 5 17V12Z" fill="#2E6270"/>
<path d="M15 12C15 10.8954 15.8954 10 17 10C18.1046 10 19 10.8954 19 12V17C19 18.1046 18.1046 19 17 19C15.8954 19 15 18.1046 15 17V12Z" fill="#2E6270"/>
</svg>
