<svg width="411" height="177" viewBox="0 0 411 177" fill="none" xmlns="http://www.w3.org/2000/svg">
<path d="M320.585 13.0272C323.704 13.0287 326.822 13.0241 329.941 13.0328C337.294 13.0535 344.526 14.098 351.691 15.6645C359.036 17.2703 366.187 19.5522 372.947 22.8116C378.057 25.2757 383.053 28.0558 387.823 31.1257C392.373 34.0541 396.707 37.3677 400.867 40.8357C404.038 43.4802 406.788 46.6313 409.726 49.5556C410.094 49.9218 410.47 50.2797 410.921 50.6787C411 55.0529 411 59.3898 410.905 63.8386C406.83 62.5406 402.907 60.9271 398.851 59.7904C396.022 58.9973 393.02 58.7252 390.074 58.4673C387.682 58.2578 385.251 58.2983 382.849 58.4421C380.297 58.5949 377.76 58.9999 375.081 59.3104C375.533 57.5814 375.969 55.9169 376.477 53.9759C369.074 57.8543 361.971 61.5756 354.552 65.4625C354.278 64.1174 353.912 63.015 353.849 61.8957C353.614 57.7215 353.629 53.5281 353.25 49.3691C353.014 46.7684 351.747 44.5174 349.431 43.0377C346.011 40.8531 342.268 41.0519 338.544 41.758C332.654 42.8749 327.887 46.5209 322.541 49.0802C321.9 49.0096 321.358 48.9465 320.818 48.8903C320.819 48.8971 320.832 48.8937 320.786 48.8117C320.489 48.6944 320.238 48.6591 319.902 48.5907C317.888 47.571 315.959 46.5843 314.029 45.4893C313.532 42.7819 313.045 40.181 311.504 37.9331C311.424 37.8176 311.495 37.5996 311.605 37.4188C312.101 37.4632 312.484 37.5306 312.871 37.571C314.982 37.7924 317.009 37.5397 318.884 36.4697C320.398 35.606 320.715 34.1739 320.537 32.2232C321.289 32.6091 321.78 32.8034 322.208 33.0915C323.746 34.126 325.402 34.4652 327.115 33.7276C327.614 33.5131 328.089 32.8438 328.205 32.3038C328.267 32.0139 327.609 31.3713 327.159 31.2074C325.671 30.6649 325.209 29.4961 324.953 28.116C324.797 27.2697 324.677 26.3963 324.367 25.6029C323.743 24.0056 322.726 22.7673 320.903 22.4285C319.467 22.1614 319.168 21.6319 319.651 20.2483C319.936 19.4334 320.261 18.6324 320.559 17.8222C321.147 16.228 321.262 14.6292 320.585 13.0272Z" fill="#D7EFFA"/>
<path d="M313.283 176.242C306.348 176.242 299.412 176.242 292.318 176.162C288.793 173.621 285.426 171.159 282.07 168.576C282.272 163.483 282.464 158.51 282.721 153.493C282.996 153.295 283.196 153.128 283.414 152.989C293.644 146.453 303.836 139.856 314.126 133.415C318.18 130.878 322.453 128.691 326.681 126.421C327.679 127.51 328.577 128.569 329.571 129.528C332.434 132.286 335.335 135.003 338.243 137.825C342.163 141.812 346.066 145.704 349.957 149.61C350.925 150.582 351.851 151.596 352.806 152.681C352.976 153.021 353.116 153.287 353.301 153.519C357.249 158.478 360.581 163.817 363.016 169.676C363.902 171.807 364.52 174.05 365.261 176.242C351.481 176.242 337.702 176.242 323.77 176.188C323.569 176.065 323.506 176.014 323.39 175.901C322.458 174.667 321.502 173.554 320.679 172.35C318.253 168.799 315.88 165.211 313.459 161.558C312.344 159.643 311.257 157.808 310.148 155.968C310.127 155.964 310.127 155.945 310.127 155.945C310.127 155.945 310.18 155.964 310.17 156.078C310.517 158.186 310.873 160.18 311.219 162.289C311.589 164.992 311.957 167.583 312.352 170.169C312.65 172.115 312.983 174.055 313.292 176.059C313.283 176.119 313.283 176.242 313.283 176.242Z" fill="#F2CE38"/>
<path d="M282.059 168.697C285.425 171.159 288.792 173.621 292.195 176.162C289.974 176.242 287.716 176.242 285.299 176.162C284.144 175.45 283.147 174.818 282.106 174.106C281.818 173.786 281.604 173.501 281.324 173.315C277.499 170.761 273.682 168.192 269.823 165.689C268.17 164.617 266.423 163.69 264.676 162.623C264.387 162.426 264.14 162.301 263.838 162.11C260.737 160.428 257.698 158.798 254.638 157.21C254.117 156.939 253.503 156.846 252.923 156.588C252.214 156.149 251.515 155.793 250.817 155.342C251.043 154.908 251.267 154.568 251.468 154.264C250.834 154.412 250.341 154.612 249.854 154.598C249.664 154.592 249.488 154.104 249.149 153.604C250.152 153.604 250.825 153.604 251.503 153.604C251.57 152.548 251.135 151.906 250.21 151.923C249.234 151.94 248.78 152.629 248.827 153.603C248.844 153.948 248.902 154.291 248.858 154.573C248.454 154.383 248.135 154.255 247.816 154.035C248.03 153.331 248.243 152.719 248.457 152.107C248.029 152.281 247.896 152.568 247.756 152.853C247.599 153.173 247.435 153.491 247.168 154.021C246.858 153.519 246.659 153.254 246.519 152.96C245.916 151.702 244.784 151.531 243.615 152.49C243.37 152.401 243.222 152.372 243.007 152.286C242.492 152.092 242.045 151.954 241.521 151.759C241.195 151.665 240.946 151.628 240.656 151.51C239.349 151.028 238.099 150.569 236.817 150.238C234.334 149.599 231.833 149.031 229.251 148.39C226.463 147.861 223.765 147.375 220.959 146.87C217.561 146.514 214.277 146.035 210.978 145.875C207.373 145.699 203.748 145.696 200.142 145.842C196.105 146.005 192.078 146.42 187.996 146.704C187.808 146.733 187.672 146.783 187.419 146.842C185.129 147.16 182.925 147.335 180.786 147.806C175.402 148.991 170.047 150.309 164.664 151.484C164.56 151.243 164.473 151.09 164.386 150.938C164.287 151.232 164.188 151.527 163.997 151.829C163.609 151.927 163.313 152.017 162.93 152.086C161.918 151.708 161.26 152.023 160.715 152.871C160.056 153.04 159.497 153.21 158.875 153.298C158.363 153.169 157.913 153.122 157.464 153.075C157.452 153.147 157.44 153.219 157.428 153.291C157.719 153.375 158.01 153.458 158.301 153.541C158.312 153.67 158.323 153.799 158.334 153.927C157.656 154.011 156.977 154.094 156.299 154.177C156.288 153.475 156.031 152.645 156.316 152.097C156.995 150.793 157.914 151.848 158.803 151.975C158.215 151.508 157.483 151.003 156.925 151.151C156.374 151.297 155.801 152.039 155.603 152.639C155.425 153.18 155.742 153.884 155.738 154.551C153.032 155.528 150.429 156.471 147.721 157.44C147.369 157.538 147.118 157.601 146.874 157.685C138.765 160.49 130.656 163.298 122.546 166.104C121.339 166.522 120.128 166.93 118.919 167.343C116.09 167.912 113.256 168.461 110.432 169.054C102.385 170.744 94.2288 171.242 86.0639 170.706C72.8508 169.839 60.2801 166.456 48.6148 160.058C43.0574 157.01 37.9287 153.308 33.3168 148.976C26.9474 142.993 20.7468 136.83 14.4818 130.737C13.0887 129.382 11.7062 128.014 10.3629 126.61C9.80411 126.026 9.36073 125.332 8.78082 124.578C7.3486 125.808 5.89242 127.058 4.25389 128.465C2.84726 122.692 1.47866 117.075 0 111.005C5.69852 113.248 11.066 115.359 16.6454 117.555C15.0226 119.001 13.579 120.287 12.0093 121.685C12.9322 123.047 13.6873 124.587 14.8224 125.76C19.1879 130.27 23.6301 134.708 28.1273 139.087C35.1567 145.932 42.6603 152.149 51.6229 156.384C59.3685 160.044 67.4708 162.488 75.9366 163.803C81.5961 164.683 87.2822 165.018 92.9875 164.762C98.6289 164.51 104.242 163.899 109.908 162.476C110.495 162.373 110.929 162.372 111.343 162.283C119.799 160.463 127.913 157.527 136.155 154.655C136.963 154.322 137.671 154.016 138.456 153.695C139.345 153.814 139.801 153.132 140.523 152.855C140.848 152.714 141.083 152.574 141.366 152.414C141.478 152.36 141.544 152.338 141.72 152.341C142.224 152.255 142.624 152.154 143.055 152.15C142.793 152.62 142.51 153.003 142.204 153.365C141.804 153.839 141.386 154.297 140.78 154.983C142.013 154.983 142.798 154.983 143.584 154.983C143.583 154.909 143.583 154.835 143.583 154.762C142.981 154.71 142.379 154.659 141.575 154.591C142.274 153.504 143.988 153.382 143.682 151.807C144.098 151.706 144.416 151.623 144.689 151.633C144.565 152.556 144.289 153.428 144.454 154.207C144.679 155.274 146.153 155.581 146.644 154.675C147.01 154 147.095 153.01 146.908 152.259C146.799 151.818 145.913 151.571 145.448 151.179C158.278 146.298 171.325 142.572 184.933 140.798C185.13 140.758 185.273 140.7 185.534 140.645C186.68 140.554 187.71 140.449 188.741 140.367C191.835 140.121 194.927 139.772 198.026 139.674C201.088 139.577 204.162 139.651 207.223 139.804C211.097 139.997 214.964 140.346 218.915 140.679C221.791 141.216 224.588 141.703 227.476 142.208C227.812 142.305 228.056 142.387 228.302 142.462C233.435 144.038 238.577 145.584 243.696 147.203C245.615 147.81 247.48 148.586 249.391 149.368C249.729 149.636 250.04 149.832 250.363 150.005C251.499 150.611 252.639 151.21 253.685 151.842C252.259 152.202 251.845 152.831 252.156 154.07C252.568 155.713 253.721 154.949 254.614 154.943C254.757 153.957 254.884 153.083 255.096 152.257C256.989 153.211 258.797 154.117 260.649 155.088C263.425 156.744 266.157 158.334 268.931 159.991C269.206 160.181 269.439 160.304 269.724 160.492C270.178 160.807 270.587 161.047 270.982 161.31C274.676 163.77 278.367 166.234 282.059 168.697ZM153.572 153.42C153.556 153.22 153.47 152.991 153.538 152.824C153.854 152.05 153.59 151.522 152.834 151.33C152.088 151.141 151.422 151.298 151.197 152.022C151.876 152.022 152.497 152.022 153.118 152.022C152.871 152.426 152.624 152.829 152.493 153.044C152.73 153.504 152.952 153.935 153.173 154.366C152.501 154.366 151.829 154.366 151.133 154.366C151.301 155.113 151.978 155.26 152.75 155.125C153.591 154.979 153.886 154.424 153.572 153.42ZM148.815 154.697C148.727 154.527 148.535 154.233 148.569 154.204C148.992 153.841 149.531 153.583 149.868 153.161C150.115 152.85 150.326 152.195 150.165 151.949C149.938 151.603 149.345 151.321 148.919 151.334C148.547 151.345 148.188 151.802 147.982 151.95C148.601 151.95 149.463 151.727 149.656 151.992C150.218 152.764 149.311 153.004 148.865 153.418C148.417 153.833 148.051 154.335 147.453 155.024C148.674 155.024 149.441 155.024 150.207 155.024C150.21 154.936 150.214 154.848 150.217 154.76C149.817 154.739 149.417 154.719 148.815 154.697Z" fill="#FAE488"/>
<path d="M322.641 49.0878C327.887 46.521 332.653 42.875 338.543 41.758C342.267 41.0519 346.01 40.8531 349.43 43.0378C351.747 44.5175 353.013 46.7684 353.25 49.3692C353.628 53.5282 353.614 57.7216 353.849 61.8957C353.912 63.0151 354.277 64.1175 354.552 65.4625C361.97 61.5757 369.073 57.8544 376.476 53.976C375.968 55.917 375.533 57.5815 375.08 59.3105C377.759 59 380.296 58.5949 382.849 58.4421C385.25 58.2984 387.681 58.2579 390.074 58.4673C393.02 58.7253 396.021 58.9974 398.851 59.7904C402.907 60.9272 406.829 62.5406 410.904 63.9604C410.999 65.8816 410.999 67.7929 410.899 69.8255C407.763 68.9964 404.773 67.8457 401.681 67.1402C396.479 65.9534 391.213 65.3619 385.826 65.7345C381.07 66.0634 376.431 66.7448 371.911 68.2737C370.923 68.6076 370.528 69.1108 370.631 70.1108C374.441 70.6865 378.042 71.7569 381.513 73.3649C388.616 76.6556 394.465 81.6789 400.335 86.6932C403.869 89.7118 407.443 92.6837 410.999 95.6766C410.999 96.1221 410.999 96.5677 410.931 97.1798C410.718 98.0149 410.321 97.9354 409.809 97.759C407.73 97.0438 405.644 96.347 403.551 95.6709C398.113 93.9138 392.781 91.8885 388.059 88.6045C381.598 84.11 374.61 80.686 367.26 77.9435C362.531 76.179 357.826 74.3492 353.089 72.6066C350.794 71.7625 348.451 71.0516 346.09 70.1967C344.039 63.1472 340.088 57.5564 334.199 53.319C330.734 50.8257 326.714 49.8946 322.641 49.0878Z" fill="white"/>
<path d="M346.13 70.2803C348.451 71.0516 350.795 71.7625 353.089 72.6066C357.826 74.3492 362.531 76.179 367.26 77.9435C374.611 80.686 381.598 84.11 388.06 88.6044C392.782 91.8885 398.114 93.9138 403.552 95.6709C405.644 96.3469 407.73 97.0438 409.809 97.759C410.322 97.9354 410.718 98.0149 410.932 97.2912C411 104.085 411 110.934 410.921 117.867C409.098 116.829 407.381 115.663 405.606 114.592C398.701 110.425 391.511 106.879 383.643 104.91C377.77 103.44 371.88 102.954 365.956 105.069C365.472 104.163 365.069 103.306 364.749 102.407C365.491 101.982 366.149 101.599 366.907 101.158C365.631 100.334 364.465 99.6211 363.341 98.846C360.838 97.1196 359.512 94.7975 359.8 91.6773C359.86 91.0327 359.828 90.3801 359.862 89.7325C359.993 87.2844 358.849 85.5717 356.72 84.5312C355.093 83.7359 353.394 83.0877 351.726 82.376C349.028 81.2246 347.524 79.1568 347.067 76.2924C346.747 74.2895 346.442 72.2844 346.13 70.2803Z" fill="#D7EFFA"/>
<path d="M119.012 167.367C120.129 166.93 121.34 166.522 122.547 166.104C130.657 163.298 138.765 160.49 146.875 157.685C147.118 157.601 147.369 157.538 147.797 157.49C156.786 161.754 166.176 163.087 175.834 163.108C183.944 163.125 191.964 162.182 200.059 160.912C200.873 161.175 201.6 161.382 202.287 161.68C206.449 163.484 210.601 165.308 214.671 167.165C212.586 167.902 210.589 168.609 208.586 169.297C203.36 171.091 198.333 173.471 192.858 174.53C190.194 175.045 187.551 175.668 184.899 176.242C172.245 176.242 159.592 176.242 146.73 176.196C138.712 174.805 131.175 172.523 123.835 169.565C122.258 168.84 120.68 168.115 119.012 167.367Z" fill="#633393"/>
<path d="M410.919 154.504C410.999 146.106 410.999 137.784 410.999 129.462L410.976 129.447C408.053 127.583 405.131 125.72 402.136 123.795C398.5 122.878 394.97 121.828 391.366 121.211C385.836 120.265 380.255 119.612 374.694 118.852C374.184 118.782 373.658 118.836 373.034 118.867C374.685 121.977 376.396 125.081 378.224 128.115C378.811 129.09 379.595 130.017 380.477 130.733C383.78 133.414 387.274 135.806 391.484 136.862C392.59 137.139 393.739 137.247 394.866 137.635C391.855 139.064 388.735 139.397 385.387 138.8C385.277 138.81 385.263 138.827 385.256 138.835C386.501 141.035 386.501 141.035 386.259 142.375C385.783 142.037 385.36 141.709 384.911 141.423C382.804 140.083 380.74 138.663 378.562 137.449C376.56 136.332 375.061 134.894 374.085 132.782C373.58 131.689 372.74 130.669 371.834 129.858C368.104 126.519 364.29 123.274 360.433 119.965C358.524 124.725 359.026 129.599 359.924 134.46C360.313 136.569 360.94 138.634 361.502 140.8C366.094 141.811 370.643 142.742 375.278 143.721L376.496 143.916C377.206 144.183 377.962 144.361 378.818 144.597L382.78 145.489C390.679 148.032 398.591 150.453 406.489 152.919C407.968 153.381 409.39 154.022 410.919 154.504Z" fill="#D7EFFA"/>
<path d="M406.49 152.919C398.592 150.453 390.68 148.032 382.772 145.595C379.424 144.795 382.673 145.652 378.878 144.638C377.963 144.361 377.206 144.183 376.45 144.005L375.236 143.795C370.644 142.742 366.095 141.811 361.546 140.88C363.003 146.279 364.72 151.569 368.072 156.242C377.61 159.183 386.758 162.83 395.259 167.907C399.483 170.43 403.476 173.338 407.722 176.157C408.904 176.242 409.939 176.242 411 176.242C411 169.051 411 161.861 410.919 154.626C409.391 154.022 407.968 153.381 406.49 152.919Z" fill="#643593"/>
<path d="M411 95.5548C407.443 92.6837 403.869 89.7118 400.335 86.6932C394.465 81.6789 388.616 76.6556 381.513 73.3649C378.043 71.7569 374.442 70.6865 370.631 70.1107C370.529 69.1108 370.924 68.6076 371.911 68.2737C376.432 66.7448 381.071 66.0634 385.826 65.7345C391.213 65.3619 396.479 65.9533 401.681 67.1402C404.773 67.8456 407.764 68.9964 410.9 69.9473C411 78.4428 411 86.9379 411 95.5548Z" fill="#D7EFFA"/>
<path d="M366.037 105.119C371.881 102.954 377.77 103.44 383.643 104.91C391.511 106.879 398.702 110.425 405.607 114.592C407.381 115.663 409.099 116.828 410.921 117.989C411.001 120.545 411.001 123.062 410.912 125.672C410.18 125.52 409.548 125.245 408.893 125.038C405.574 123.992 402.25 122.964 398.851 121.87C395.78 120.279 392.849 118.602 389.776 117.246C383.573 114.509 377.145 112.833 370.225 113.861C369.35 112.133 368.494 110.503 367.694 108.846C367.104 107.622 366.587 106.363 366.037 105.119Z" fill="#F26526"/>
<path d="M264.719 162.696C266.423 163.69 268.17 164.617 269.823 165.689C273.682 168.192 277.499 170.761 281.324 173.315C281.604 173.501 281.818 173.786 282.101 174.215C282.155 174.84 282.172 175.275 282.157 175.796C282.116 176.001 282.106 176.121 282.096 176.242C267.363 176.242 252.631 176.242 237.753 176.147C236.974 174.031 236.339 172.009 235.825 169.968C246.014 169.423 255.532 166.718 264.719 162.696Z" fill="#D7EFFA"/>
<path d="M368.161 156.274C377.61 159.183 386.758 162.83 395.259 167.907C399.483 170.43 403.477 173.338 407.598 176.157C397.481 176.242 387.34 176.242 377.083 176.143C374.17 169.889 371.37 163.734 368.582 157.574C368.395 157.162 368.299 156.709 368.161 156.274Z" fill="#D7EEF9"/>
<path d="M185.021 176.242C187.551 175.668 190.194 175.045 192.858 174.53C198.333 173.471 203.36 171.091 208.586 169.297C210.589 168.609 212.586 167.902 214.773 167.181C219.279 168.026 223.598 168.894 227.946 169.861C228.603 172.054 229.231 174.148 229.859 176.242C214.954 176.242 200.048 176.242 185.021 176.242Z" fill="#D7EEF9"/>
<path d="M368.072 156.242C368.299 156.709 368.395 157.162 368.581 157.574C371.37 163.734 374.17 169.889 376.961 176.143C376.082 176.242 375.208 176.242 374.213 176.146C370.802 169.284 367.516 162.516 364.209 155.759C364.054 155.442 363.702 155.222 363.524 154.915C363.53 154.557 363.499 154.22 363.371 153.925C362.206 151.253 361.005 148.596 359.856 145.917C359.031 143.994 358.271 142.045 357.484 140.006C357.355 139.452 357.234 138.996 357.091 138.548C355.064 132.203 353.457 125.803 354.543 119.008C355.131 118.911 355.633 118.876 356.127 118.797C357.094 118.641 358.057 118.462 359.092 118.342C359.561 118.905 359.96 119.42 360.36 119.935C358.525 124.725 359.027 129.599 359.925 134.46C360.314 136.569 360.941 138.634 361.503 140.8C363.004 146.279 364.72 151.569 368.072 156.242Z" fill="#F16628"/>
<path d="M363.442 154.956C363.702 155.222 364.054 155.442 364.209 155.759C367.517 162.516 370.802 169.284 374.094 176.146C371.232 176.242 368.368 176.242 365.382 176.242C364.52 174.05 363.902 171.807 363.016 169.676C360.58 163.817 357.248 158.478 353.3 153.519C353.116 153.287 352.975 153.021 352.911 152.69C356.486 153.392 359.964 154.174 363.442 154.956Z" fill="#D7EEF9"/>
<path d="M123.845 169.661C131.175 172.523 138.712 174.805 146.608 176.196C139.672 176.242 132.65 176.242 125.506 176.242C124.875 174.08 124.365 171.919 123.845 169.661Z" fill="#D6EDF7"/>
<path d="M229.981 176.242C229.231 174.148 228.604 172.054 228.076 169.85C230.686 169.822 233.196 169.905 235.706 169.988C236.34 172.01 236.975 174.031 237.632 176.147C235.138 176.242 232.621 176.242 229.981 176.242Z" fill="#F26526"/>
<path d="M398.926 121.93C402.249 122.964 405.573 123.992 408.892 125.038C409.547 125.245 410.179 125.52 410.911 125.794C410.999 125.939 410.999 126.054 410.904 126.242C407.894 125.454 404.979 124.593 402.064 123.733C398.5 122.878 394.97 121.828 391.366 121.211C385.836 120.265 380.255 119.612 374.694 118.852C374.184 118.782 373.658 118.836 372.988 118.829C372.74 118.573 372.643 118.32 372.661 118.059C379.427 118.956 386.081 119.835 392.726 120.779C394.805 121.074 396.86 121.541 398.926 121.93Z" fill="#A965A6"/>
<path d="M402.137 123.795C404.98 124.593 407.895 125.454 410.905 126.328C411 127.303 411 128.263 411 129.342C408.07 127.593 405.139 125.725 402.137 123.795Z" fill="#F16628"/>
<path d="M282.188 175.711C282.172 175.275 282.155 174.84 282.145 174.295C283.147 174.818 284.144 175.45 285.178 176.162C284.341 176.242 283.468 176.242 282.474 176.169C282.298 175.968 282.243 175.84 282.188 175.711Z" fill="#F2CE38"/>
<path d="M323.427 175.981C323.505 176.014 323.568 176.065 323.648 176.188C320.294 176.242 316.91 176.242 313.404 176.242C313.282 176.242 313.282 176.119 313.411 176.057C316.835 175.99 320.131 175.985 323.427 175.981Z" fill="#D8E9C8"/>
<path d="M282.157 175.796C282.243 175.84 282.298 175.968 282.355 176.169C282.356 176.242 282.226 176.242 282.161 176.242C282.106 176.121 282.116 176.001 282.157 175.796Z" fill="#FAE488"/>
<path d="M140.434 152.857C139.801 153.132 139.345 153.814 138.364 153.684C136.536 154.505 136.276 154.319 136.349 152.325C136.357 152.315 136.325 152.319 136.221 152.391C136.116 153.199 136.085 153.94 136.054 154.681C127.913 157.527 119.799 160.463 111.343 162.283C110.929 162.372 110.495 162.373 109.968 162.386C101.597 157.493 95.2994 150.422 88.8867 143.504C79.8063 133.709 71.4338 123.344 64.2365 112.066C60.6933 106.514 57.4532 100.797 54.9506 94.5474C52.0697 95.2122 49.2192 95.8699 46.1152 96.5861C49.7754 78.8009 53.3978 61.1994 57.0548 43.4296C71.891 51.9962 86.6036 60.4914 101.469 69.075C101.114 69.3064 100.87 69.5019 100.596 69.639C98.2727 70.8014 95.9512 71.967 93.6133 73.0985C93.0242 73.3835 92.7812 73.6587 92.9745 74.3831C98.8567 96.4275 108.792 116.45 122.954 134.549C123.423 135.154 123.785 135.636 124.167 136.102C129.119 142.143 134.249 148.012 140.434 152.857ZM136.999 151.937C137.104 151.97 137.209 152.009 137.316 152.031C137.339 152.036 137.374 151.982 137.403 151.954C137.298 151.922 137.193 151.889 136.999 151.937Z" fill="#633393"/>
<path d="M346.092 70.1966C346.442 72.2844 346.748 74.2895 347.068 76.2924C347.524 79.1568 349.029 81.2245 351.727 82.376C353.395 83.0877 355.094 83.7359 356.721 84.5312C358.85 85.5717 359.993 87.2844 359.863 89.7325C359.829 90.3801 359.86 91.0327 359.801 91.6773C359.513 94.7975 360.838 97.1196 363.342 98.846C364.465 99.6211 365.632 100.334 366.908 101.158C366.149 101.599 365.492 101.982 364.68 102.356C364.088 102.498 363.611 102.582 363.217 102.81C359.322 105.059 355.441 107.333 351.472 109.656C350.024 110.459 348.625 111.152 347.306 111.972C346.433 112.515 345.935 112.302 345.405 111.522C342.225 106.838 339.021 102.171 335.821 97.5006C332.626 92.836 330.506 87.7272 329.496 82.1635C329.057 79.7451 328.651 77.3207 328.209 74.7797C328.011 75.0454 327.895 75.1754 327.807 75.3222C323.792 82.0362 319.777 88.75 315.769 95.4678C314.804 97.0849 314.977 98.6887 315.903 100.255C317.178 102.412 319.158 103.805 321.227 105.083C322.329 105.764 323.482 106.363 324.877 107.147C321.673 107.848 318.78 108.48 315.773 109.123C315.273 109.173 314.882 109.189 314.5 109.258C309.174 110.222 303.819 110.884 298.395 110.71C295.834 110.628 293.318 110.248 291.029 108.779C290.596 105.499 290.435 102.279 289.747 99.1755C286.8 85.8682 281.573 73.5205 273.754 62.3113C268.844 55.2726 264.697 47.7984 261.065 40.0319C259.285 34.8609 257.36 29.7336 255.785 24.5007C254.973 21.8013 254.785 18.9142 254.417 16.0304C255.51 16.3622 256.466 16.9676 257.498 17.1544C261.326 17.8476 265.175 18.4398 269.029 18.9822C269.892 19.1038 270.806 18.8702 271.77 18.8825C274.326 18.861 276.809 18.7571 279.292 18.6534C277.164 21.9722 276.844 22.7785 276.866 24.8399C277.156 25.7257 277.283 26.6544 277.793 27.2596C279.196 28.9245 280.76 30.4538 282.295 32.1216C284.048 34.3414 285.176 36.6606 285.296 39.505C285.39 41.7505 286.698 43.1671 288.962 43.392C291.393 43.6333 293.869 43.4262 296.308 43.5029C295.498 44.8185 294.804 46.1246 293.894 47.2573C291.863 49.785 292.116 51.6481 294.935 53.2435C300.413 56.3443 306.244 57.0333 312.309 55.4862C315.344 54.712 318.189 53.4683 320.35 51.0552C320.91 50.43 321.441 49.7746 320.818 48.8834C321.359 48.9465 321.901 49.0096 322.542 49.0802C326.715 49.8946 330.735 50.8257 334.2 53.3189C340.089 57.5564 344.04 63.1472 346.092 70.1966Z" fill="#A155A1"/>
<path d="M261.048 40.1241C264.697 47.7984 268.844 55.2726 273.754 62.3113C281.573 73.5205 286.8 85.8682 289.747 99.1755C290.435 102.279 290.596 105.499 290.995 108.895C289.884 119.716 287.493 130.053 284.748 140.351C278.444 141.896 272.237 143.407 266.043 144.972C260.478 146.379 254.927 147.845 249.37 149.285C247.481 148.586 245.616 147.81 243.697 147.203C238.578 145.584 233.436 144.038 228.303 142.462C228.057 142.387 227.813 142.305 227.45 142.105C227.238 141.652 227.154 141.318 227.049 140.99C225.486 136.104 223.92 131.219 222.354 126.334C224.861 126.688 227.375 127.001 229.873 127.406C233.388 127.976 236.826 127.502 240.241 126.733C244.316 125.816 247.979 124.146 250.788 120.896C252.96 118.384 254.132 115.398 255.025 112.28C256.394 107.498 256.556 102.577 256.327 97.6628C256.057 91.8559 254.895 86.1674 253.722 80.4788C252.585 74.9672 252.511 69.3812 252.935 63.7589C253.315 58.7208 254.438 53.875 256.367 49.258C257.67 46.139 259.459 43.2231 261.048 40.1241Z" fill="#D7EFFA"/>
<path d="M146.825 150.773L141.627 152.592L138.639 156.23L144.226 158.569L160.469 152.982L161.119 150.643L146.825 150.773Z" fill="#FAE488"/>
<path d="M140.523 152.855C134.249 148.012 129.119 142.143 124.167 136.102C123.785 135.636 123.422 135.154 123.03 134.599C123.569 132.18 124.011 129.805 124.715 127.51C125.899 123.656 127.733 120.099 130.225 116.916C133.323 112.961 137.228 110.006 141.895 108.191C144.604 107.137 147.414 106.229 150.26 105.668C154.435 104.844 158.684 104.376 162.958 105.026C167.494 105.715 172.045 106.33 176.558 107.149C178.618 107.523 180.603 108.309 182.728 109.032C182.588 112.464 182.226 115.769 182.12 119.083C181.884 126.452 182.699 133.707 184.88 140.778C171.325 142.572 158.278 146.298 145.379 151.202C145.07 151.368 144.902 151.454 144.734 151.54C144.416 151.623 144.098 151.706 143.607 151.743C142.15 150.913 141.377 151.182 141.317 152.434C141.083 152.574 140.848 152.714 140.523 152.855Z" fill="#D7EFFA"/>
<path d="M320.818 48.8903C321.44 49.7746 320.909 50.43 320.349 51.0552C318.188 53.4683 315.343 54.712 312.308 55.4862C306.243 57.0333 300.413 56.3442 294.935 53.2434C292.116 51.6481 291.863 49.7849 293.894 47.2573C294.804 46.1245 295.498 44.8185 296.345 43.4132C298.117 39.2019 298.175 34.968 297.92 30.6031C297.05 29.4935 296.264 28.3736 295.269 27.4878C294.281 26.6075 293.505 25.6541 293.511 24.3391C293.522 22.2095 293.692 20.0807 293.845 17.8746C294.456 16.2392 295.016 14.6809 295.647 12.9253C293.393 13.645 291.37 14.3353 289.321 14.9364C283.537 16.6333 277.755 18.3481 271.697 18.8001C270.806 18.8702 269.892 19.1038 269.028 18.9822C265.175 18.4398 261.326 17.8476 257.497 17.1543C256.466 16.9675 255.51 16.3622 254.435 15.9204C254.357 14.1343 254.112 12.3305 254.423 10.6287C255.046 7.22679 257.564 5.51741 261.864 4.94221C265.895 4.40289 269.788 5.25752 273.702 5.90527C281.744 7.23653 289.829 7.89443 298.156 7.68181C302.351 7.3435 306.372 6.98409 310.647 6.60204C309.028 8.99778 306.459 9.45334 303.996 10.7048C309.417 11.3871 312.025 14.513 312.588 19.5158C313.002 19.4061 313.256 19.2646 313.492 19.2899C314.303 19.377 315.558 19.2616 315.816 19.7046C316.239 20.4347 316.275 21.6202 316.011 22.4703C315.514 24.0733 314.048 24.665 312.503 24.9763C311.057 25.2678 310.072 26.1194 309.638 27.4993C308.728 30.3921 308.718 33.3541 309.103 36.4531C309.267 40.3853 310.855 43.4262 314.03 45.5977C315.959 46.5843 317.888 47.571 319.968 48.6581C320.356 48.8036 320.595 48.8487 320.833 48.8938C320.833 48.8938 320.819 48.8971 320.818 48.8903Z" fill="#F79525"/>
<path d="M222.304 126.253C223.92 131.219 225.486 136.104 227.049 140.99C227.154 141.318 227.237 141.652 227.358 142.087C224.588 141.703 221.792 141.216 218.884 140.581C216.297 134.349 213.821 128.266 211.334 122.093C208.999 117.377 206.804 112.681 204.325 108.139C199.885 100.007 194.743 92.3386 188.524 85.3294C189.96 80.6045 191.397 75.9796 192.841 71.3568C192.862 71.2878 192.967 71.2449 193.033 71.1898C198.493 77.6537 203.117 84.6892 207.252 92.0547C213.255 102.749 217.949 114.021 222.02 125.568C222.091 125.772 222.176 125.97 222.304 126.253Z" fill="#F26526"/>
<path d="M187.851 84.7399C183.25 79.6789 178.182 75.2047 172.062 72.024C171.23 71.5918 170.692 71.5971 170.136 72.4263C169.562 73.2828 168.852 74.0474 168.071 75.0124C164.347 66.6006 160.687 58.3326 156.899 49.7777C166.049 51.6879 174.913 53.5387 183.932 55.4217C183.009 56.5881 182.184 57.6298 181.444 58.5651C185.079 62.4693 188.67 66.3279 192.33 70.3239C190.882 75.2208 189.366 79.9803 187.851 84.7399Z" fill="#F26526"/>
<path d="M309.119 36.3326C308.717 33.3541 308.727 30.3921 309.637 27.4993C310.072 26.1194 311.056 25.2678 312.502 24.9763C314.047 24.665 315.513 24.0733 316.01 22.4703C316.274 21.6202 316.239 20.4347 315.815 19.7047C315.557 19.2616 314.303 19.377 313.491 19.2899C313.255 19.2646 313.001 19.4061 312.587 19.5159C312.024 14.513 309.416 11.3871 303.995 10.7048C306.458 9.45336 309.027 8.9978 310.646 6.60206C306.371 6.98411 302.35 7.34352 298.264 7.66892C298.568 5.71888 299.66 5.10282 301.469 5.78943C303.314 6.48994 303.314 6.48985 304.168 4.73247C304.262 4.53822 304.359 4.34524 304.454 4.15092C306.632 -0.340632 309.772 -0.997932 314.594 1.27028C315.277 1.59139 315.91 2.4438 316.155 3.1859C316.77 5.05485 317.696 6.61528 319.288 7.80965C319.64 8.07445 319.729 8.69118 319.939 9.14585C319.383 9.10632 318.766 9.20245 318.287 8.98929C317.805 8.77477 317.497 8.19837 317.044 7.87941C316.487 7.48752 315.857 7.1981 315.005 6.72251C315.157 8.44125 316.164 9.06302 317.018 9.80696C318.182 10.8215 319.323 11.8621 320.53 12.9595C321.261 14.6293 321.147 16.228 320.559 17.8223C320.26 18.6324 319.936 19.4334 319.651 20.2483C319.167 21.6319 319.466 22.1615 320.903 22.4285C322.725 22.7674 323.743 24.0056 324.366 25.6029C324.676 26.3963 324.796 27.2697 324.953 28.116C325.209 29.4962 325.671 30.665 327.159 31.2074C327.608 31.3713 328.266 32.014 328.204 32.3038C328.089 32.8439 327.613 33.5132 327.115 33.7277C325.402 34.4652 323.746 34.126 322.207 33.0915C321.779 32.8035 321.288 32.6091 320.536 32.2232C320.714 34.174 320.397 35.606 318.884 36.4697C317.009 37.5398 314.982 37.7925 312.87 37.5711C312.484 37.5306 312.1 37.4632 311.603 37.4218C311.491 37.4356 311.488 37.4373 311.447 37.3687C311.251 37.2739 311.097 37.2478 310.862 37.1788C310.228 36.8681 309.673 36.6003 309.119 36.3326Z" fill="#643593"/>
<path d="M187.825 84.8407C189.367 79.9804 190.882 75.2209 192.408 70.3676C194.847 64.188 197.249 58.0915 199.718 52.0219C200.61 49.8267 201.661 47.6956 202.693 45.4038C202.731 45.2062 202.715 45.1401 202.699 45.074C202.649 45.1272 202.598 45.1803 202.548 45.2334C201.611 45.8754 200.674 46.5174 199.737 47.1594C199.615 46.9886 199.492 46.8178 199.369 46.647C200.747 45.5909 202.125 44.5349 203.799 43.2518C204.044 45.2291 204.253 46.9148 204.461 48.6005C204.326 48.6239 204.19 48.6474 204.055 48.6708C203.888 47.7447 203.722 46.8186 203.523 45.7117C203.318 46.0049 203.171 46.1512 203.097 46.328C199.813 54.2518 196.534 62.1777 193.262 70.1066C193.149 70.3817 193.115 70.6895 193.038 71.0859C192.966 71.2449 192.862 71.2878 192.84 71.3568C191.396 75.9796 189.959 80.6045 188.444 85.3963C187.334 89.783 186.173 93.9764 185.307 98.2299C184.553 101.932 184.133 105.703 183.513 109.537C183.303 111.391 183.121 113.15 182.989 114.912C182.34 123.625 182.706 132.245 185.417 140.642C185.273 140.7 185.13 140.758 184.933 140.798C182.7 133.707 181.884 126.452 182.12 119.083C182.226 115.769 182.588 112.464 182.826 109.043C183.772 103.728 184.663 98.5123 185.704 93.3269C186.271 90.5053 187.092 87.735 187.825 84.8407Z" fill="#A965A6"/>
<path d="M309.103 36.4531C309.674 36.6004 310.228 36.8681 310.91 37.242C311.188 37.3778 311.338 37.4076 311.488 37.4373C311.488 37.4373 311.491 37.4356 311.493 37.4325C311.494 37.5997 311.424 37.8177 311.503 37.9331C313.044 40.1811 313.532 42.7819 314.029 45.4893C310.854 43.4262 309.266 40.3853 309.103 36.4531Z" fill="#FDFEFE"/>
<path d="M320.787 48.8118C320.594 48.8487 320.356 48.8037 320.053 48.6913C320.239 48.6592 320.49 48.6945 320.787 48.8118Z" fill="#A155A1"/>
<path d="M354.453 119.05C353.457 125.803 355.064 132.203 357.09 138.548C357.233 138.996 357.355 139.452 357.378 139.995C350.919 139.303 344.57 138.52 338.22 137.737C335.334 135.003 332.433 132.286 329.57 129.528C328.575 128.569 327.677 127.51 326.754 126.35C328.562 125.445 330.325 124.618 332.143 123.94C339.346 121.258 346.781 119.607 354.453 119.05Z" fill="#D7EEF9"/>
<path d="M338.242 137.825C344.57 138.52 350.92 139.303 357.376 140.097C358.271 142.044 359.031 143.994 359.856 145.917C361.005 148.596 362.206 151.253 363.37 153.925C363.499 154.22 363.53 154.557 363.524 154.915C359.964 154.174 356.486 153.392 352.902 152.6C351.851 151.596 350.924 150.583 349.956 149.61C346.066 145.704 342.162 141.812 338.242 137.825Z" fill="#643593"/>
<path d="M282.069 168.576C278.366 166.234 274.675 163.77 270.981 161.309C270.587 161.047 270.177 160.807 269.807 160.459C270.65 159.953 271.47 159.562 272.27 159.132C275.734 157.273 279.193 155.403 282.654 153.537C282.462 158.51 282.271 163.482 282.069 168.576Z" fill="#D7EEF9"/>
<path d="M323.389 175.901C320.131 175.985 316.836 175.99 313.42 175.996C312.982 174.055 312.649 172.115 312.352 170.169C311.956 167.583 311.588 164.992 311.312 162.272C312.106 161.973 312.795 161.805 313.485 161.638C315.879 165.211 318.252 168.799 320.679 172.35C321.501 173.554 322.457 174.667 323.389 175.901Z" fill="#FAE488"/>
<path d="M282.721 153.493C279.194 155.403 275.736 157.273 272.271 159.132C271.471 159.562 270.651 159.953 269.756 160.394C269.44 160.304 269.207 160.181 269.019 159.961C273.659 157.351 278.255 154.837 282.938 152.299C285.086 151.009 287.15 149.749 289.207 148.477C301.47 140.892 313.173 132.408 326.012 125.601C326.257 125.53 326.425 125.486 326.58 125.415C335.486 121.285 344.876 119.049 354.735 118.233C355.987 118.138 357.133 118.037 358.36 117.958C358.634 118.084 358.828 118.188 359.022 118.292C358.058 118.462 357.095 118.641 356.128 118.797C355.633 118.876 355.132 118.911 354.543 119.008C346.782 119.607 339.347 121.258 332.144 123.94C330.326 124.618 328.563 125.445 326.7 126.274C322.453 128.691 318.179 130.878 314.125 133.415C303.835 139.856 293.643 146.453 283.414 152.989C283.196 153.128 282.996 153.295 282.721 153.493Z" fill="#A965A6"/>
<path d="M313.459 161.558C312.796 161.805 312.106 161.973 311.323 162.157C310.873 160.18 310.517 158.186 310.166 156.079C310.171 155.966 310.168 155.973 310.168 155.973C311.256 157.808 312.344 159.643 313.459 161.558Z" fill="#D6EDF7"/>
<path d="M310.175 155.965C310.179 155.964 310.126 155.945 310.126 155.945C310.126 155.945 310.126 155.964 310.147 155.968C310.168 155.973 310.171 155.966 310.175 155.965Z" fill="#D6EDF7"/>
<path d="M185.534 140.645C182.706 132.245 182.341 123.625 182.99 114.912C183.122 113.15 183.304 111.391 183.623 109.538C185.332 109.946 186.948 110.299 188.418 110.973C193.691 113.393 198.928 115.89 204.149 118.421C206.584 119.601 208.949 120.924 211.346 122.183C213.821 128.266 216.297 134.349 218.804 140.53C214.965 140.346 211.098 139.997 207.224 139.804C204.163 139.651 201.089 139.577 198.027 139.674C194.928 139.772 191.836 140.121 188.742 140.367C187.711 140.449 186.681 140.553 185.534 140.645Z" fill="#D7EFFA"/>
<path d="M199.952 160.898C191.963 162.182 183.942 163.125 175.832 163.108C166.175 163.087 156.785 161.754 147.901 157.464C150.429 156.471 153.032 155.528 155.813 154.617C156.927 154.81 157.862 154.973 158.846 155.144C158.885 154.388 158.911 153.884 158.937 153.38C159.496 153.21 160.055 153.04 160.7 152.975C160.671 153.969 160.825 154.803 161.776 155.067C162.178 155.179 163.042 154.94 163.111 154.695C163.313 153.982 163.228 153.185 163.231 152.421C163.232 152.317 163.092 152.212 163.017 152.107C163.313 152.017 163.608 151.927 164.016 151.947C164.128 153.037 164.128 154.017 164.128 155.037C164.417 155.019 164.54 154.994 164.659 155.007C166.237 155.176 166.738 154.868 166.825 153.668C166.912 152.462 166.485 152.108 164.917 152.029C164.831 152.024 164.759 151.732 164.68 151.574C170.047 150.309 175.402 148.991 180.786 147.806C182.925 147.335 185.128 147.16 187.451 146.928C188.618 148.614 189.637 150.222 190.594 151.897C190.217 152.019 189.901 152.074 189.649 152.117C189.649 153.118 189.649 154.064 189.649 155.011C189.753 155.017 189.857 155.024 189.96 155.03C189.986 154.557 189.923 154.056 190.062 153.619C190.206 153.167 190.547 152.777 190.801 152.36C191.031 152.76 191.335 153.137 191.47 153.567C191.611 154.018 191.589 154.52 191.638 155.001C191.731 154.992 191.824 154.983 191.916 154.975C191.951 154.581 191.986 154.186 192.021 153.792C192.155 153.81 192.214 153.8 192.234 153.823C192.594 154.242 192.95 154.664 193.253 155.141C193.162 155.232 193.125 155.267 193.017 155.324C192.926 156.347 193.317 156.561 194.811 156.4C196.391 157.651 197.919 158.82 199.414 160.027C199.665 160.23 199.776 160.604 199.952 160.898ZM183.39 152.197C183.244 152.194 183.098 152.19 182.952 152.186C182.952 153.138 182.952 154.089 182.952 155.041C183.028 155.033 183.104 155.026 183.18 155.018C183.353 154.166 183.527 153.314 183.861 152.408C184.084 152.329 184.308 152.25 184.531 152.171C184.481 152.063 184.432 151.955 184.382 151.847C184.109 151.995 183.835 152.143 183.39 152.197ZM168.051 152.684C168.618 152.181 169.078 152.119 169.269 152.704C168.553 153.301 167.391 153.879 167.448 154.288C167.692 156.042 169.125 154.546 170.048 155.071C169.993 154.252 170.059 153.5 169.852 152.833C169.733 152.446 169.189 151.973 168.808 151.946C168.411 151.918 167.979 152.381 167.563 152.629C167.696 152.7 167.829 152.771 168.051 152.684ZM182.053 154.608C182.036 154.005 182.19 153.32 181.95 152.825C181.744 152.401 181.115 152.039 180.62 151.953C180.33 151.902 179.936 152.445 179.589 152.72C179.667 152.802 179.746 152.883 179.825 152.965C180.838 152.093 180.986 152.098 181.44 153.062C181.061 153.156 180.622 153.155 180.337 153.364C179.981 153.625 179.753 154.059 179.47 154.418C179.913 154.656 180.335 155.007 180.805 155.095C181.188 155.166 181.629 154.92 182.053 154.608ZM178.331 154.368C177.459 155.005 176.956 154.742 176.663 153.591C177.463 153.591 178.166 153.591 178.946 153.591C178.873 153.201 178.912 152.837 178.765 152.732C178.318 152.41 177.703 151.884 177.332 152.002C176.854 152.154 176.268 152.837 176.243 153.317C176.214 153.873 176.617 154.64 177.079 154.965C177.39 155.184 178.128 154.794 178.675 154.677C178.595 154.526 178.514 154.376 178.331 154.368ZM186.977 154.63C187.142 154.627 187.444 154.653 187.452 154.617C187.914 152.429 187.24 151.765 185.072 152.201C185.072 153.151 185.072 154.085 185.072 155.019C185.198 155.02 185.325 155.022 185.451 155.023C185.451 154.411 185.357 153.778 185.489 153.196C185.563 152.87 186.013 152.631 186.294 152.352C186.519 152.653 186.835 152.924 186.945 153.262C187.058 153.613 186.972 154.03 186.977 154.63ZM175.491 154.704C174.944 154.674 174.397 154.643 173.626 154.599C173.626 153.417 173.626 152.292 173.626 151.167C173.53 151.178 173.434 151.188 173.338 151.199C173.338 152.49 173.338 153.781 173.338 155.305C174.215 155.118 174.945 154.962 175.491 154.704Z" fill="#D6EDF7"/>
<path d="M188.048 146.725C192.079 146.42 196.105 146.005 200.142 145.842C203.749 145.696 207.373 145.699 210.978 145.875C214.277 146.035 217.561 146.514 220.961 146.965C221.831 149.24 222.59 151.403 223.354 153.675C223.486 154.236 223.613 154.688 223.75 155.22C223.781 155.509 223.803 155.719 223.729 155.945C223.186 156.063 222.739 156.166 222.319 156.16C222.467 154.748 222.587 153.445 222.705 152.162C220.162 151.728 219.629 152.33 220.24 154.615C220.422 155.298 220.468 156.018 220.468 156.73C217.501 157.373 214.648 158.039 211.781 158.633C208.378 159.339 204.962 159.984 201.47 160.618C199.3 159.118 197.213 157.655 195.132 156.074C195.202 154.654 195.266 153.351 195.327 152.102C193.975 151.847 192.801 151.62 192.58 153.383C192.038 152.788 191.595 152.301 191.113 151.733C190.066 150.01 189.057 148.368 188.048 146.725ZM211.166 154.124C211.543 154.432 211.919 154.74 212.296 155.048C212.361 155.003 212.427 154.958 212.492 154.913C211.938 153.607 211.384 152.302 210.83 150.996C210.695 151.026 210.561 151.056 210.427 151.086C209.909 152.376 209.391 153.666 208.946 154.775C209.681 154.536 210.316 154.329 211.166 154.124ZM200.807 155.065C201.461 155.02 202.116 154.974 202.859 154.922C202.624 153.809 203.478 152.381 201.785 151.951C201.389 151.851 200.839 152.362 200.36 152.591C200.42 152.745 200.481 152.899 200.541 153.053C201.119 152.498 201.698 151.897 202.412 152.983C201.926 153.124 201.573 153.235 201.216 153.327C200.217 153.585 199.878 154.075 200.807 155.065ZM205.574 152.04C205.126 152.012 204.677 151.985 204.22 151.957C204.156 151.627 204.086 151.267 204.016 150.907C203.94 150.909 203.863 150.912 203.787 150.914C203.787 152.248 203.787 153.581 203.787 155.277C204.595 155.012 205.595 154.977 206.052 154.461C206.609 153.831 206.518 152.827 205.574 152.04ZM197.36 153.001C197.36 153.676 197.36 154.352 197.36 154.993C198.293 154.993 199.041 154.993 199.79 154.993C199.789 154.915 199.789 154.837 199.789 154.759C199.176 154.698 198.563 154.636 197.763 154.556C197.763 153.378 197.763 152.27 197.763 151.162C197.629 151.161 197.494 151.161 197.36 151.16C197.36 151.692 197.36 152.224 197.36 153.001ZM213.467 151.351C213.38 151.198 213.293 151.045 213.143 150.782C213.143 152.304 213.143 153.658 213.143 155.011C213.252 155.007 213.361 155.002 213.47 154.998C213.47 153.856 213.47 152.715 213.467 151.351ZM214.261 152.982C214.261 153.663 214.261 154.343 214.261 155.023C214.369 155.013 214.476 155.004 214.584 154.994C214.584 153.644 214.584 152.294 214.584 150.943C214.476 150.947 214.369 150.951 214.261 150.954C214.261 151.55 214.261 152.145 214.261 152.982Z" fill="#D6EDF7"/>
<path d="M249.392 149.368C254.927 147.845 260.477 146.379 266.043 144.972C272.237 143.407 278.444 141.896 284.759 140.453C284.633 141.55 284.346 142.547 284.162 143.563C283.688 146.188 283.259 148.823 282.7 151.464C275.261 152.657 267.934 153.84 260.606 155.023C258.798 154.117 256.99 153.211 255.06 152.189C254.766 151.717 254.594 151.361 254.356 150.869C254.313 151.294 254.286 151.569 254.177 151.818C253.986 151.795 253.875 151.797 253.765 151.806C253.764 151.813 253.778 151.812 253.778 151.812C252.64 151.21 251.5 150.611 250.364 150.005C250.041 149.832 249.73 149.636 249.392 149.368Z" fill="#643593"/>
<path d="M252.933 156.671C253.504 156.846 254.117 156.939 254.638 157.21C257.699 158.798 260.738 160.428 263.751 162.145C256.561 165.371 249.152 167.644 241.396 168.669C239.402 168.933 237.373 168.927 235.341 168.942C234.64 166.388 233.96 163.938 233.379 161.467C239.964 159.855 246.449 158.263 252.933 156.671Z" fill="#D7EEF9"/>
<path d="M233.279 161.487C233.96 163.938 234.641 166.388 235.251 169.003C232.657 169.096 230.134 169.024 227.597 168.848C227.099 167.012 226.616 165.281 226.141 163.452C225.374 160.878 224.599 158.403 223.825 155.929C223.803 155.719 223.781 155.509 223.79 155.132C223.821 153.634 223.821 152.304 223.821 150.973C223.664 150.969 223.507 150.965 223.35 150.96C223.35 151.829 223.35 152.697 223.35 153.566C222.59 151.403 221.831 149.24 221.069 146.983C223.765 147.375 226.463 147.861 229.261 148.489C229.692 149.879 230.024 151.128 230.278 152.329C229.515 151.702 228.741 151.66 228.346 152.462C227.865 153.441 228.804 153.546 229.45 153.749C229.533 153.774 229.644 153.779 229.691 153.835C229.833 154.009 229.951 154.203 230.078 154.389C229.866 154.498 229.618 154.736 229.448 154.69C229.017 154.574 228.621 154.33 228.135 154.101C228.394 155.044 229.069 155.387 229.734 155.075C230.169 154.871 230.349 154.122 230.729 153.644C230.886 153.836 230.956 154.003 231.028 154.261C231.779 156.731 232.529 159.109 233.279 161.487ZM226.884 154.762C227.115 154.886 227.346 155.01 227.509 155.097C227.509 154.054 227.509 153.091 227.509 152.041C227.443 151.947 227.23 151.641 227.018 151.335C226.894 151.36 226.769 151.384 226.645 151.409C226.693 152.465 226.742 153.522 226.884 154.762Z" fill="#F16628"/>
<path d="M233.378 161.467C232.528 159.109 231.779 156.731 231.112 154.231C231.555 154.029 231.914 153.949 232.326 153.941C232.451 154.337 232.524 154.663 232.597 154.988C232.687 154.979 232.777 154.97 232.868 154.961C232.901 154.517 232.934 154.072 233.06 153.616C233.521 153.514 233.888 153.426 234.269 153.439C234.296 154.433 234.712 155.022 235.612 155.157C236.309 155.262 236.701 154.898 236.925 154.056C235.74 154.98 235.367 154.924 234.901 153.623C235.366 153.623 235.79 153.593 236.208 153.63C236.981 153.698 237.211 153.326 237.195 152.593C237.431 152.529 237.568 152.5 237.694 152.565C237.847 152.898 238.008 153.136 238.23 153.445C238.596 153.557 238.902 153.596 239.247 153.716C239.367 154.145 239.447 154.495 239.559 154.977C240.083 154.231 240.346 153.71 239.159 153.554C238.794 153.443 238.488 153.404 238.168 153.266C238.011 152.937 237.867 152.707 237.748 152.466C237.773 152.456 237.825 152.475 237.929 152.485C238.513 152.442 238.991 152.389 239.469 152.412C239.497 152.617 239.526 152.747 239.556 152.877C239.615 152.853 239.674 152.83 239.733 152.807C239.648 152.648 239.562 152.489 239.472 152.257C239.459 152.136 239.451 152.088 239.522 152.005C239.966 151.844 240.332 151.717 240.697 151.59C240.946 151.628 241.195 151.665 241.433 151.798C241.181 152.134 240.765 152.354 240.732 152.621C240.652 153.266 240.604 153.992 240.835 154.57C240.962 154.889 241.685 155.135 242.124 155.113C242.491 155.094 242.835 154.636 243.189 154.373C241.807 155.011 241.382 154.907 241.22 153.668C241.891 153.635 242.558 153.601 243.333 153.562C243.228 153.069 243.151 152.705 243.074 152.342C243.222 152.372 243.37 152.401 243.663 152.562C243.887 153.395 243.966 154.098 244.036 154.723C244.428 154.075 244.782 153.488 245.137 152.901C245.813 153.532 246.488 154.162 247.233 154.857C247.376 154.678 247.595 154.402 247.814 154.126C248.134 154.255 248.454 154.383 248.906 154.622C249.63 154.967 250.223 155.202 250.815 155.437C251.515 155.793 252.214 156.148 252.923 156.588C246.448 158.263 239.963 159.855 233.378 161.467ZM237.887 154.327C237.86 154.315 237.834 154.302 237.807 154.29C237.841 154.332 237.875 154.374 237.918 154.559C238.012 154.642 238.105 154.725 238.199 154.808C238.23 154.769 238.26 154.729 238.291 154.69C238.167 154.595 238.043 154.501 237.887 154.327Z" fill="#643593"/>
<path d="M260.648 155.088C267.933 153.84 275.26 152.657 282.723 151.571C282.856 151.886 282.853 152.104 282.849 152.323C278.254 154.837 273.658 157.351 268.976 159.894C266.157 158.334 263.424 156.744 260.648 155.088Z" fill="#D6EDF7"/>
<path d="M227.611 168.952C230.134 169.024 232.657 169.096 235.269 169.106C237.372 168.927 239.401 168.933 241.395 168.669C249.151 167.644 256.56 165.371 263.806 162.211C264.14 162.301 264.387 162.426 264.676 162.623C255.532 166.718 246.013 169.423 235.825 169.968C233.195 169.905 230.685 169.822 228.045 169.75C223.597 168.894 219.279 168.026 214.858 167.142C210.6 165.308 206.448 163.484 202.286 161.68C201.599 161.382 200.872 161.175 200.058 160.912C199.777 160.604 199.665 160.23 199.414 160.027C197.919 158.82 196.392 157.651 194.855 156.371C194.933 156.246 195.029 156.219 195.126 156.193C197.213 157.655 199.3 159.118 201.516 160.692C204.118 162.005 206.539 163.336 209.08 164.373C211.372 165.308 213.795 165.921 216.221 166.741C220.058 167.52 223.834 168.236 227.611 168.952Z" fill="#A965A6"/>
<path d="M237.705 152.471C237.568 152.5 237.432 152.529 237.121 152.547C235.54 151.474 234.926 151.656 234.257 153.337C233.889 153.426 233.522 153.514 233.045 153.514C233.232 152.955 233.527 152.484 233.839 151.986C233.468 152.016 232.997 152.053 232.521 152.091C232.437 152.694 232.356 153.282 232.274 153.87C231.915 153.949 231.556 154.029 231.112 154.138C230.956 154.003 230.886 153.836 230.727 153.65C230.638 153.63 230.652 153.63 230.682 153.518C230.659 153.261 230.607 153.116 230.558 152.906C230.494 152.686 230.425 152.531 230.356 152.376C230.024 151.128 229.692 149.879 229.351 148.532C231.834 149.031 234.335 149.599 236.817 150.238C238.1 150.569 239.349 151.028 240.656 151.51C240.332 151.717 239.967 151.844 239.439 151.983C238.793 152.156 238.309 152.315 237.825 152.475C237.825 152.475 237.774 152.456 237.744 152.467C237.714 152.479 237.705 152.471 237.705 152.471Z" fill="#D6EDF7"/>
<path d="M187.996 146.704C189.057 148.368 192.955 154.671 195.164 156.23C195.01 156.319 195.014 156.49 194.904 156.49C190.486 152.462 188.619 148.614 187.568 146.92C187.673 146.783 187.809 146.733 187.996 146.704Z" fill="#A965A6"/>
<path d="M136.308 152.339C136.275 154.319 136.536 154.505 138.285 153.699C137.67 154.016 136.963 154.322 136.154 154.655C136.085 153.94 136.116 153.199 136.224 152.395C136.3 152.332 136.308 152.339 136.308 152.339Z" fill="#528493"/>
<path d="M359.091 118.342C358.827 118.188 358.633 118.084 358.336 117.876C357.392 116.74 356.551 115.708 355.659 114.601C354.256 112.884 352.906 111.242 351.555 109.6C355.44 107.333 359.321 105.059 363.217 102.81C363.611 102.582 364.088 102.498 364.596 102.398C365.069 103.306 365.472 104.163 365.956 105.069C366.586 106.363 367.103 107.622 367.694 108.846C368.493 110.503 369.349 112.133 370.275 113.927C371.095 115.408 371.821 116.737 372.547 118.066C372.644 118.32 372.741 118.573 372.884 118.863C374.686 121.977 376.397 125.081 378.224 128.115C378.811 129.09 379.595 130.017 380.477 130.733C383.78 133.414 387.274 135.806 391.484 136.861C392.591 137.139 393.74 137.247 394.867 137.635C391.855 139.064 388.735 139.397 385.366 138.741C385.132 138.704 385.031 138.715 384.93 138.727C385.037 138.766 385.143 138.804 385.249 138.843C386.502 141.035 386.502 141.035 386.26 142.375C385.783 142.037 385.361 141.709 384.911 141.423C382.804 140.083 380.74 138.663 378.562 137.449C376.56 136.332 375.062 134.894 374.086 132.782C373.581 131.689 372.74 130.668 371.834 129.858C368.104 126.519 364.291 123.274 360.434 119.965C359.96 119.42 359.56 118.905 359.091 118.342Z" fill="#F79525"/>
<path d="M372.661 118.059C371.82 116.737 371.094 115.408 370.318 114.014C377.144 112.833 383.573 114.509 389.776 117.246C392.848 118.602 395.779 120.279 398.85 121.87C396.86 121.541 394.805 121.074 392.726 120.779C386.081 119.835 379.427 118.956 372.661 118.059Z" fill="#D6EDF7"/>
<path d="M137.044 151.897C137.194 151.889 137.299 151.922 137.404 151.954C137.374 151.982 137.339 152.036 137.316 152.031C137.209 152.009 137.105 151.97 137.044 151.897Z" fill="#528493"/>
<path d="M136.297 152.328C136.325 152.319 136.357 152.315 136.349 152.325C136.309 152.339 136.3 152.332 136.297 152.328Z" fill="#528493"/>
<path d="M282.937 152.299C282.853 152.104 282.856 151.886 282.835 151.561C283.258 148.823 283.687 146.188 284.162 143.563C284.345 142.547 284.632 141.55 284.86 140.443C287.491 130.053 289.883 119.716 291.024 109.009C293.317 110.248 295.833 110.628 298.394 110.71C303.817 110.884 309.173 110.222 314.499 109.258C314.881 109.189 315.272 109.173 315.81 109.214C318.212 115.39 321.722 120.715 325.928 125.616C313.172 132.408 301.469 140.892 289.206 148.477C287.149 149.749 285.085 151.009 282.937 152.299Z" fill="#F2CE38"/>
<path d="M326.011 125.601C321.722 120.715 318.212 115.39 315.923 109.205C318.779 108.48 321.672 107.848 324.875 107.147C323.481 106.363 322.328 105.764 321.226 105.083C319.157 103.805 317.177 102.412 315.902 100.255C314.976 98.6887 314.803 97.0849 315.768 95.4678C319.776 88.75 323.791 82.0362 327.806 75.3222C327.894 75.1755 328.01 75.0454 328.208 74.7797C328.65 77.3207 329.056 79.7451 329.495 82.1635C330.505 87.7272 332.625 92.836 335.82 97.5006C339.02 102.171 342.224 106.838 345.404 111.522C345.934 112.302 346.432 112.515 347.305 111.972C348.624 111.152 350.023 110.459 351.471 109.656C352.905 111.242 354.256 112.884 355.633 114.694C355.315 115.984 354.971 117.106 354.627 118.227C344.875 119.049 335.485 121.285 326.579 125.415C326.424 125.486 326.256 125.53 326.011 125.601Z" fill="#D7EFFA"/>
<path d="M293.795 17.9517C293.692 20.0808 293.521 22.2096 293.511 24.3392C293.504 25.6541 294.28 26.6075 295.269 27.4879C296.263 28.3737 297.049 29.4936 297.814 30.5893C294.922 30.7245 292.13 30.6459 289.364 30.8793C286.981 31.0806 284.627 31.6373 282.26 32.0369C280.76 30.4539 279.195 28.9246 277.792 27.2597C277.282 26.6544 277.155 25.7257 276.947 24.8011C280.332 22.4043 283.893 20.7129 287.721 19.6008C289.735 19.0157 291.769 18.4992 293.795 17.9517Z" fill="#D7EFFA"/>
<path d="M282.294 32.1217C284.627 31.6373 286.981 31.0806 289.365 30.8793C292.13 30.6459 294.922 30.7245 297.807 30.6815C298.175 34.968 298.117 39.2019 296.361 43.3251C293.868 43.4262 291.393 43.6333 288.962 43.392C286.697 43.1671 285.39 41.7506 285.295 39.505C285.176 36.6606 284.047 34.3414 282.294 32.1217Z" fill="white"/>
<path d="M293.844 17.8746C291.769 18.4992 289.735 19.0156 287.721 19.6008C283.892 20.7128 280.332 22.4043 276.959 24.6965C276.843 22.7785 277.163 21.9722 279.291 18.6534C276.807 18.7571 274.324 18.861 271.769 18.8825C277.754 18.3482 283.537 16.6333 289.321 14.9364C291.369 14.3354 293.392 13.6451 295.646 12.9254C295.015 14.681 294.455 16.2393 293.844 17.8746Z" fill="#FDFEFE"/>
<path d="M311.447 37.3687C311.339 37.4076 311.189 37.3778 310.991 37.2848C311.098 37.2478 311.252 37.2739 311.447 37.3687Z" fill="#D7EFFA"/>
<path d="M202.575 45.262C202.599 45.1803 202.649 45.1272 202.7 45.074C202.715 45.1401 202.731 45.2062 202.702 45.3098C202.657 45.3474 202.602 45.2906 202.575 45.262Z" fill="white"/>
<path d="M354.734 118.233C354.972 117.106 355.315 115.984 355.685 114.769C356.551 115.707 357.392 116.74 358.256 117.855C357.133 118.037 355.987 118.138 354.734 118.233Z" fill="#F16628"/>
<path d="M216.161 166.677C213.796 165.921 211.373 165.308 209.081 164.373C206.54 163.336 204.119 162.005 201.599 160.729C204.962 159.984 208.378 159.339 211.781 158.633C214.648 158.039 217.501 157.373 220.556 156.739C221.266 156.582 221.779 156.425 222.292 156.268C222.739 156.166 223.186 156.063 223.729 155.945C224.599 158.403 225.374 160.878 226.054 163.478C222.694 164.628 219.428 165.652 216.161 166.677Z" fill="#643593"/>
<path d="M254.177 151.818C254.223 151.982 254.187 152.12 254.09 152.294C254.028 152.33 254.037 152.337 254.037 152.337C253.949 152.211 253.862 152.085 253.77 151.879C253.875 151.797 253.986 151.795 254.177 151.818Z" fill="#FAE488"/>
<path d="M216.222 166.74C219.428 165.652 222.694 164.628 226.047 163.577C226.616 165.281 227.099 167.012 227.596 168.848C223.835 168.236 220.058 167.52 216.222 166.74Z" fill="#D6EDF7"/>
<path d="M239.212 153.634C238.903 153.597 238.597 153.557 238.234 153.443C238.177 153.37 238.182 153.365 238.182 153.365C238.489 153.404 238.795 153.443 239.16 153.554C239.218 153.626 239.214 153.632 239.212 153.634Z" fill="#408898"/>
<path d="M237.694 152.565C237.704 152.471 237.714 152.479 237.718 152.478C237.867 152.707 238.011 152.937 238.168 153.266C238.181 153.365 238.176 153.37 238.173 153.372C238.008 153.136 237.846 152.898 237.694 152.565Z" fill="#408898"/>
<path d="M237.919 154.406C238.043 154.501 238.167 154.595 238.292 154.69C238.261 154.729 238.23 154.769 238.2 154.808C238.106 154.725 238.012 154.642 237.917 154.485C237.915 154.411 237.919 154.406 237.919 154.406Z" fill="#408898"/>
<path d="M239.476 152.331C239.563 152.489 239.648 152.648 239.734 152.807C239.675 152.83 239.615 152.853 239.556 152.877C239.527 152.747 239.498 152.617 239.47 152.412C239.471 152.336 239.474 152.332 239.476 152.331Z" fill="#408898"/>
<path d="M237.912 154.413C237.875 154.374 237.841 154.332 237.808 154.29C237.834 154.302 237.861 154.315 237.903 154.367C237.918 154.406 237.914 154.411 237.912 154.413Z" fill="#408898"/>
<path d="M230.681 153.519C229.961 153.399 229.27 153.166 228.487 152.903C229.425 151.726 229.836 152.782 230.471 152.992C230.606 153.116 230.659 153.261 230.681 153.519Z" fill="#F16628"/>
<path d="M164.902 154.383C164.787 154.138 164.645 153.953 164.686 153.826C164.844 153.339 165.03 152.854 165.287 152.415C165.326 152.349 166.005 152.491 166.029 152.611C166.142 153.161 166.202 153.75 166.104 154.293C166.082 154.416 165.359 154.414 164.902 154.383Z" fill="#D6EDF7"/>
<path d="M254.026 152.326C254.085 152.609 254.256 152.927 254.187 153.177C254.043 153.694 253.771 154.176 253.552 154.672C253.238 154.451 252.646 154.206 252.662 154.012C252.709 153.452 252.98 152.903 253.222 152.378C253.255 152.304 253.623 152.384 253.937 152.365C254.038 152.337 254.029 152.33 254.026 152.326Z" fill="#FAE488"/>
<path d="M146.677 153.145C146.361 153.727 146.043 154.206 145.724 154.685C145.404 154.398 144.816 154.113 144.815 153.825C144.813 153.159 144.888 152.136 145.302 151.897C146.31 151.314 146.581 152.197 146.677 153.145Z" fill="#FAE488"/>
<path d="M385.257 138.835C385.143 138.804 385.037 138.766 384.931 138.727C385.032 138.715 385.133 138.704 385.256 138.751C385.277 138.81 385.264 138.827 385.257 138.835Z" fill="#D7EEF9"/>
<path d="M193.383 152.586C193.852 152.617 194.532 152.649 194.584 152.846C194.71 153.328 194.729 154.025 194.457 154.381C194.012 154.966 193.416 154.728 193.239 154.037C193.131 153.612 193.277 153.122 193.383 152.586Z" fill="#D6EDF7"/>
<path d="M193.253 155.141C193.599 155.302 193.89 155.518 194.182 155.734C194.124 155.828 194.066 155.921 194.008 156.015C193.729 155.829 193.449 155.642 193.129 155.379C193.126 155.267 193.163 155.232 193.253 155.141Z" fill="#D6EDF7"/>
<path d="M221.686 152.463C221.871 152.708 222.089 152.934 222.043 153.075C221.868 153.617 221.609 154.131 221.381 154.656C221.085 154.366 220.592 154.111 220.534 153.78C220.408 153.051 220.409 152.209 221.686 152.463Z" fill="#D6EDF7"/>
<path d="M221.865 155.813C221.341 155.792 220.895 155.702 220.449 155.611C220.469 155.473 220.488 155.334 220.508 155.196C220.986 155.143 221.464 155.091 222.05 155.027C222.012 155.283 221.978 155.513 221.865 155.813Z" fill="#D6EDF7"/>
<path d="M166.576 151.162C161.898 151.89 156.311 154.324 154.102 155.451L166.576 158.179C177.361 158.656 198.386 159.219 196.203 157.66C194.02 156.1 191.135 152.505 189.966 150.903L180.35 150.383C177.708 150.339 171.254 150.435 166.576 151.162Z" fill="#D6EDF7"/>
<path d="M196.333 157.01C193.734 155.555 191.092 151.726 190.096 149.993L195.943 148.044L222.582 151.422L223.751 155.97L217.384 157.4C211.45 157.876 198.932 158.465 196.333 157.01Z" fill="#D6EDF7"/>
<path d="M224.791 158.699L221.803 149.083H229.469L231.938 157.27L224.791 158.699Z" fill="#F16628"/>
<path d="M240.904 151.552L231.548 154.151L235.056 158.569C240.86 158.006 252.209 156.646 251.169 155.711C250.13 154.775 243.892 152.549 240.904 151.552Z" fill="#643593"/>
<path d="M239.604 151.942L231.548 154.021L232.977 150.773L239.604 151.942Z" fill="#D7EFFA"/>
<path d="M252.599 156.36C251.767 155.84 244.975 153.025 241.684 151.682L249.35 149.343L257.667 153.501C256.324 154.671 253.43 156.88 252.599 156.36Z" fill="#FAE488"/>
</svg>
