<svg width="411" height="268" viewBox="0 0 411 268" fill="none" xmlns="http://www.w3.org/2000/svg">
<path opacity="0.6" d="M387.991 10.8767C378.179 7.89108 367.846 5.6792 356.959 4.72254C350.361 4.32502 343.764 3.92748 336.432 3.42327C332.93 3.2904 330.136 3.16243 327.398 3.25656C318.03 3.5786 308.544 3.64177 299.358 4.4317C287.047 5.49031 274.923 7.03781 262.813 8.55546C251.471 9.97702 240.255 11.6412 228.976 13.1845C211.734 15.5436 194.585 18.0866 177.21 20.1877C159.864 22.2854 142.086 21.1427 124.351 19.0363C119.522 18.4628 114.724 17.7203 109.952 16.9488C101.987 15.6608 94.072 14.2374 86.1026 12.9605C72.7367 10.819 59.3866 8.61586 45.9504 6.68984C35.6646 5.21541 25.2562 4.12843 14.9023 2.86913C6.46645 2.34477 -1.96958 1.8204 -11.1441 1.20911C-21.9054 0.411009 -31.5741 1.1866 -40.9831 2.44997C-53.2991 4.10373 -63.4665 7.76158 -71.9289 12.9163C-81.7427 18.8943 -87.5798 26.0889 -88.1108 34.4015C-88.433 39.4446 -86.5447 44.7258 -84.5258 49.8061C-79.8373 61.6041 -69.208 72.4328 -61.9255 83.8191C-58.1791 89.6766 -55.2948 95.6178 -54.9586 101.681C-54.6644 106.986 -54.8539 112.331 -55.9603 117.532C-57.4032 124.315 -58.9841 131.171 -62.2497 137.645C-68.4111 149.861 -75.4247 161.888 -79.0604 174.582C-80.9612 181.219 -83.2646 187.774 -81.8619 194.687C-80.8094 199.875 -80.3562 205.095 -78.6936 210.245C-75.9121 218.862 -69.1198 226.684 -59.0073 233.646C-54.136 237 -48.3587 239.753 -42.1562 242.372C-33.1158 246.19 -23.1096 248.624 -12.9237 250.635C-1.44712 252.901 10.492 254.204 22.1025 256.231C477.769 296.682 532.014 214.202 532.014 214.202C532.014 214.202 535.901 200.92 532.126 194.043C528.987 188.323 523.662 183.133 516.633 178.563C508.464 173.252 499.748 168.204 491.33 163.011C480.376 156.254 469.37 149.521 458.597 142.674C450.28 137.388 443.191 131.572 438.061 125.213C431.773 117.416 429.957 109.201 429.585 100.943C429.236 100.377 428.568 99.7925 428.59 99.2479C428.77 94.9081 429.052 90.5739 429.391 86.244C429.429 85.7565 430.011 85.3067 430.598 84.5217C431.305 81.5446 431.676 78.8764 432.223 76.2275C433.314 70.9455 434.95 65.709 435.508 60.3876C435.957 56.0991 435.322 51.7152 434.862 47.3703C434.24 41.4971 431.147 35.8863 425.48 30.7307C416.138 22.2314 403.505 15.5975 387.991 10.8767Z" fill="#AACC81" fill-opacity="0.72"/>
</svg>
