<svg width="14" height="14" viewBox="0 0 14 14" fill="none" xmlns="http://www.w3.org/2000/svg">
<path d="M3.66659 5.66659V13.6666M8.99992 2.91992L8.33325 5.66659H12.2199C12.4269 5.66659 12.6311 5.71478 12.8162 5.80735C13.0013 5.89992 13.1624 6.03432 13.2866 6.19992C13.4108 6.36551 13.4947 6.55775 13.5317 6.7614C13.5688 6.96506 13.5579 7.17454 13.4999 7.37325L11.9466 12.7066C11.8658 12.9835 11.6974 13.2268 11.4666 13.3999C11.2358 13.573 10.9551 13.6666 10.6666 13.6666H1.66659C1.31296 13.6666 0.973825 13.5261 0.723776 13.2761C0.473728 13.026 0.333252 12.6869 0.333252 12.3333V6.99992C0.333252 6.6463 0.473728 6.30716 0.723776 6.05711C0.973825 5.80706 1.31296 5.66659 1.66659 5.66659H3.50659C3.75464 5.66645 3.99774 5.59713 4.20856 5.4664C4.41937 5.33567 4.58953 5.14873 4.69992 4.92659L6.99992 0.333252C7.3143 0.337145 7.62374 0.412031 7.90512 0.552316C8.1865 0.692601 8.43254 0.894657 8.62486 1.14339C8.81717 1.39212 8.9508 1.68109 9.01574 1.98872C9.08069 2.29635 9.07528 2.61468 8.99992 2.91992Z" stroke="#020617" stroke-width="0.666667" stroke-linecap="round" stroke-linejoin="round"/>
</svg>
