<svg width="400" height="190" viewBox="0 0 400 190" fill="none" xmlns="http://www.w3.org/2000/svg">
<path d="M159.36 55.8953C156.042 53.9083 152.725 51.9213 149.169 49.8188C148.82 49.7185 148.709 49.7336 148.597 49.7487C148.668 49.887 148.739 50.0254 148.81 50.1637C151.062 52.7948 152.325 55.7071 152.239 59.307C152.207 60.6366 153.176 62.1398 154.036 63.3074C155.493 65.2862 157.227 67.0614 158.974 69.0698C153.153 71.1849 147.552 73.362 141.859 75.2638C118.756 82.9816 95.6877 90.814 72.4653 98.1566C65.5939 100.329 58.3103 101.724 51.1244 102.266C36.1526 103.394 23.3348 97.5809 12.2807 87.8709C8.77202 84.789 5.7923 81.004 3.04306 77.1992C1.57366 75.1657 0.800777 72.4715 0.260159 69.9579C-0.781756 65.1137 1.33219 61.0161 6.12946 59.7177C11.2114 58.3422 16.5158 57.5892 21.7728 57.1002C33.3792 56.0207 44.927 54.746 56.1046 51.2244C71.6484 46.3272 85.1933 38.0397 97.1184 27.0149C102.356 22.1727 107.49 17.2153 112.813 12.4689C126.808 -0.0115666 142.914 -2.45592 160.709 2.18675C182.337 7.82899 199.626 20.0094 214.435 36.3483C220.582 43.1299 226.985 49.7374 233.793 55.8433C240.099 61.4985 247.82 63.6828 256.346 61.8859C260.327 61.0468 263.497 58.7463 266.4 56.0208C270.378 52.2868 274.132 48.271 278.387 44.8856C286.06 38.7806 295.179 35.8725 304.78 34.8458C328.935 32.2625 351.198 37.8479 371.334 51.4087C382.068 58.6384 390.478 67.985 394.975 80.3622C399.76 93.5332 398.663 106.69 394.401 119.743C392.15 126.639 388.809 133.003 384.28 138.99C382.151 138.732 380.21 138.421 378.323 137.909C373.636 136.636 369.013 135.106 364.289 133.998C360.781 133.176 357.915 131.429 355.064 129.349C349.124 125.015 344.576 119.34 339.595 114.062C337.644 111.996 335.14 110.451 332.896 108.642C332.904 108.614 332.87 108.66 332.792 108.564C332.5 108.36 332.286 108.251 332.004 108.022C331.656 107.538 331.375 107.175 331.053 106.664C330.884 105.352 330.764 104.187 330.626 103.025C330.539 102.286 330.425 101.55 330.245 100.677C329.183 100.126 328.199 99.7116 327.171 99.2194C327.027 99.0605 326.913 99.0357 326.78 99.0562C326.774 99.045 326.748 99.0485 326.654 98.9161C326.227 97.6933 325.895 96.6029 325.539 95.3574C323.765 91.999 322.015 88.7959 320.459 85.5564C323.58 85.2696 326.507 85.0191 329.502 84.8343C330.33 85.2633 331.09 85.6266 332.025 86.1037C333.125 86.194 334.129 86.3949 334.959 86.1016C336.859 85.4302 338.578 85.7722 340.386 86.406C341.981 86.965 343.663 87.2769 345.472 87.7403C345.534 86.9452 345.577 86.3902 345.798 85.824C350.735 87.5616 355.704 88.9008 360.177 91.2032C363.144 92.7302 365.995 93.144 369.108 93.1564C369.222 93.1569 369.336 93.0196 369.592 92.855C369.237 92.4772 368.903 92.1219 368.653 91.8567C370.487 90.8106 372.259 89.7998 374.031 88.789C373.964 88.5657 373.897 88.3424 373.83 88.119C371.357 88.2409 368.882 88.4848 366.413 88.4424C364.73 88.4135 362.885 88.3459 361.414 87.6545C358.797 86.4249 356.447 84.6419 353.915 83.2168C351.651 81.9426 349.29 80.839 347 79.537C346.685 79.1198 346.387 78.6781 345.992 78.5571C344.267 78.0298 342.509 77.6114 340.772 77.1243C337.153 76.11 333.586 74.4725 329.914 74.1899C324.02 73.7364 318.057 74.1745 311.919 74.2142C307.642 74.342 303.57 74.4915 299.357 74.5558C295.51 72.0814 294.675 68.5826 295.003 64.4205C295.151 62.5363 294.741 60.5442 294.251 58.689C293.537 55.9825 291.612 54.3397 288.811 54.0327C285.883 53.7119 283.8 55.2458 282.27 57.5761C280.533 60.2228 278.88 62.925 277.173 65.6303C278.057 65.83 279.016 66.0467 279.654 66.191C279.092 67.6389 278.446 68.9679 278.063 70.3685C277.535 72.2989 278.48 73.6131 280.477 73.4863C282.105 73.383 283.708 72.7954 285.307 72.3651C286.637 72.0071 287.715 72.161 288.524 73.425C289.256 74.5676 290.093 75.6428 290.756 76.8624C288.68 77.6768 286.709 78.3225 284.798 79.1126C284.303 79.3175 283.995 79.9745 283.423 80.4897C282.538 80.6885 281.821 80.7839 281.126 80.9606C277.715 81.8267 274.294 82.6565 270.913 83.6295C269.891 83.9239 268.989 84.636 267.945 85.0525C267.258 84.5508 266.658 84.1534 265.89 83.7265C263.274 84.4412 261.286 83.0206 259.134 82.3268C257.969 81.9511 256.751 81.738 255.394 81.3877C249.271 79.1212 244.225 75.5085 239.326 70.6822C239.738 72.1129 239.988 72.9813 240.199 73.7128C237.571 73.8706 234.983 74.0258 232.395 74.1811C232.402 74.3674 232.409 74.5536 232.417 74.7399C233.377 74.9092 234.338 75.0786 235.048 75.2039C235.161 76.0826 235.245 76.729 235.399 77.4782C235.521 77.6458 235.573 77.7104 235.759 77.8176C237.212 78.2169 238.555 78.5023 239.844 78.9472C241.72 79.5953 243.775 80.0415 245.365 81.1385C248.626 83.3895 251.628 86.0155 254.739 88.6527C255.372 89.4936 255.881 90.4855 256.657 90.7854C259.085 91.7235 261.619 92.383 264.102 93.1824C268.436 94.5777 272.681 96.3263 277.432 95.3838C281.903 94.4968 286.412 93.7981 290.991 93.1295C298.236 101.343 305.395 109.444 312.597 117.595C309.642 121.485 306.884 125.117 304.125 128.748C294.731 123.987 285.003 124.599 275.494 127.808C265.529 131.17 255.842 135.357 246.018 139.147C239.505 141.659 232.949 143.928 225.901 144.603C214.493 145.696 205.295 140.064 201.332 129.291C199.019 123.002 198.501 116.412 197.923 109.821C197.207 101.647 196.735 93.4357 195.585 85.3214C194.614 78.4669 191.74 72.3634 185.734 67.9988C187.303 67.0364 188.856 66.3341 191.053 65.34C185.815 59.6661 180.842 54.2797 175.981 49.0142C174.402 50.0887 173.33 50.818 172.122 51.4606C169.349 49.3845 166.712 47.395 163.716 45.1346C163.123 49.3462 162.072 52.9899 159.36 55.8953ZM138.168 10.8044C138.406 10.2662 138.644 9.72806 138.914 9.1177C137.711 9.1177 136.809 9.1177 135.694 9.1177C135.694 11.2167 135.694 13.1618 135.509 15.3806C135.294 18.3395 137.748 21.7676 140.837 22.7713C141.482 20.0478 142.167 17.3359 142.729 14.5988C142.812 14.1927 142.439 13.4672 142.062 13.2333C140.781 12.4365 139.404 11.7934 138.168 10.8044ZM45.5633 81.7152C42.2448 80.9666 38.9261 80.218 35.1293 79.3615C37.2764 82.8757 39.8406 85.2135 43.0747 86.8591C47.5755 89.1491 52.4604 89.8653 57.6684 90.5932C57.8715 90.565 58.2415 90.5684 58.2536 90.5041C58.8621 87.2943 59.4399 84.0788 59.9895 81.038C55.1812 79.3201 50.3995 77.6118 45.3118 75.7941C45.5426 77.9478 45.7469 79.8545 45.5633 81.7152ZM110.334 46.4512C111.703 45.5871 113.073 44.723 114.542 43.7958C111.898 42.0245 110.221 42.1025 108.382 44.022C105.203 46.3042 102.037 48.6049 98.841 50.8621C96.5887 52.4526 94.2545 53.9302 92.0492 55.5816C91.5386 55.964 91.0063 56.9762 91.1672 57.4807C91.8003 59.4656 92.706 61.3635 93.3712 63.545C91.0604 65.7428 88.7495 67.9406 86.1263 70.4354C87.4269 70.3475 88.2255 70.3334 89.0133 70.2334C92.5345 69.7862 96.0735 69.429 99.561 68.7928C100.87 68.554 102.199 67.83 103.267 67.0026C105.092 65.589 106.637 63.8146 108.448 62.3805C111.675 59.8264 115.013 57.4132 118.243 54.6405C114.92 52.5563 111.864 50.2013 110.334 46.4512ZM199.87 85.7705C206.355 87.0779 212.858 88.3105 219.319 89.7326C221.635 90.2426 223.473 90.5125 224.39 87.6538C224.701 86.6818 225.719 85.9475 226.365 85.0692C228.068 82.7572 229.745 80.4258 231.623 77.8396C222.323 75.1096 213.566 72.5391 204.576 69.9002C204.141 71.8653 203.768 73.5486 203.068 75.1203C199.796 74.2951 196.523 73.4699 192.547 72.4674C194.356 76.8672 195.952 80.8695 197.688 84.8096C197.898 85.2856 198.871 85.4252 199.87 85.7705Z" fill="#F7D737"/>
<path d="M320.265 85.5928C322.015 88.7959 323.765 91.9991 325.405 95.4381C322.247 97.9922 318.629 97.6585 315.103 98.1424C318.985 98.4445 322.866 98.7465 326.748 99.0485C326.748 99.0485 326.774 99.045 326.831 99.1294C326.888 99.2137 327.04 99.3011 327.04 99.3011L327.215 99.297C328.199 99.7116 329.183 100.126 330.166 100.795C328.053 103.722 325.94 106.394 323.654 109.285C326.316 108.629 329.2 109.358 331.093 106.812C331.375 107.175 331.656 107.538 332.063 108.134C332.416 108.465 332.643 108.563 332.87 108.66C332.87 108.66 332.904 108.614 332.888 108.792C332.577 109.363 332.367 109.911 331.974 110.126C328.556 112 325.165 113.942 321.643 115.602C319.29 116.711 316.735 117.393 313.851 118.416C317.716 122.321 321.433 126.037 325.092 129.807C325.818 130.556 326.323 131.518 326.88 132.517C326.373 133.098 325.93 133.562 325.454 133.988C322.834 136.328 320.207 138.659 317.582 140.992C311.576 144.628 307.974 150.219 305.597 156.552C302.698 164.275 300.193 172.148 297.61 179.986C296.754 182.585 296.044 185.251 295.535 187.937C295.25 189.441 294.57 189.932 293.206 189.813C290.834 189.607 288.464 189.379 285.623 189.117C287.467 187.743 288.897 186.677 290.342 185.601C289.546 183.768 288.777 181.999 288.215 180.056C289.422 178.945 290.414 177.997 291.425 177.069C293.342 175.307 293.352 174.04 291.938 171.784C291.426 170.966 291.487 169.728 291.47 168.679C291.451 167.428 292.061 166.003 291.646 164.951C289.905 160.546 289.58 155.991 289.594 151.35C289.597 150.666 289.335 149.982 289.195 149.298C291.174 146.206 292.992 142.993 295.174 140.051C297.982 136.267 301.082 132.699 304.091 128.893C306.884 125.117 309.642 121.485 312.597 117.595C305.395 109.444 298.236 101.343 291.153 93.0721C294.927 92.0126 295.163 88.7272 295.702 85.9346C296.315 82.7574 294.392 80.275 291.146 80.0032C288.66 79.795 286.118 80.2589 283.601 80.4238C283.995 79.9745 284.303 79.3175 284.798 79.1127C286.709 78.3225 288.68 77.6768 290.903 76.8718C293.951 76.0579 296.724 75.3495 299.498 74.6411C303.57 74.4916 307.642 74.3421 312.015 74.2996C313.53 75.8712 314.849 77.2631 315.936 78.8179C317.469 81.0131 318.83 83.3287 320.265 85.5928Z" fill="#2E3F71"/>
<path d="M326.93 132.381C326.323 131.518 325.818 130.556 325.092 129.808C321.433 126.037 317.716 122.322 313.851 118.416C316.735 117.394 319.29 116.711 321.643 115.602C325.165 113.942 328.556 112 331.974 110.126C332.367 109.911 332.577 109.364 332.88 108.82C335.14 110.452 337.644 111.996 339.595 114.063C344.576 119.34 349.124 125.015 355.064 129.349C357.915 131.43 360.781 133.176 364.289 133.998C369.013 135.106 373.636 136.637 378.323 137.909C380.21 138.422 382.151 138.732 384.231 139.132C388.34 139.459 392.286 139.788 396.567 140.144C397.618 143.111 398.809 146.473 400 149.836C399.858 149.923 399.716 150.011 399.575 150.099C397.684 148.798 395.794 147.497 393.699 146.055C391.543 148.4 389.222 150.588 385.493 148.245C383.875 147.329 382.559 146.385 381.092 145.945C380.447 145.752 379.358 146.441 378.739 147.017C378.425 147.309 377.146 148.404 378.882 148.865C377.644 150.156 376.826 148.825 375.62 148.208C373.341 146.712 371.286 146.973 369.159 147.84C367.971 148.325 366.671 148.989 365.469 148.903C361.307 148.604 356.982 148.61 353.057 147.403C345.801 145.172 339.827 140.348 333.47 136.337C331.316 134.978 329.112 133.697 326.93 132.381Z" fill="#4659A8"/>
<path d="M326.881 132.517C329.112 133.697 331.316 134.978 333.47 136.337C339.827 140.348 345.801 145.172 353.057 147.403C356.982 148.61 361.307 148.604 365.469 148.903C366.671 148.989 367.971 148.325 369.159 147.84C371.286 146.973 373.341 146.712 375.457 148.142C364.208 157.446 351.364 159.66 337.429 156.253C330.3 154.51 324.927 149.989 320.321 144.47C319.437 143.411 318.583 142.327 317.649 141.124C320.207 138.659 322.835 136.328 325.454 133.988C325.93 133.562 326.373 133.099 326.881 132.517Z" fill="#F7D737"/>
<path d="M159.436 56.0123C162.072 52.9901 163.123 49.3464 163.716 45.1348C166.712 47.3952 169.349 49.3846 172.178 51.5611C175.235 54.1942 178.08 56.6623 180.973 59.073C181.872 59.8218 181.909 60.5924 181.725 61.6941C180.778 67.3724 177.484 71.8993 174.585 76.6235C173.929 77.6918 173.199 78.7145 172.503 79.7582C172.503 79.7582 172.53 79.7658 172.39 79.7417C172.202 79.8884 172.153 80.0593 172.105 80.2302C171.548 80.5749 170.991 80.9197 170.388 81.2932C170.989 76.7212 171.556 72.5798 172.071 68.4321C172.395 65.8284 171.196 64.0118 169.059 62.6119C165.842 60.504 162.691 58.2951 159.436 56.0123Z" fill="#2B275F"/>
<path d="M172.648 79.7244C173.199 78.7143 173.929 77.6915 174.585 76.6232C177.484 71.8991 180.778 67.3722 181.725 61.6938C181.909 60.5922 181.872 59.8216 180.973 59.0727C178.08 56.6621 175.235 54.1939 172.315 51.6476C173.33 50.8179 174.402 50.0887 175.981 49.0142C180.842 54.2796 185.815 59.666 191.053 65.34C188.856 66.334 187.303 67.0363 185.661 67.8699C183.411 69.6774 181.128 71.2199 179.124 73.0654C176.882 75.1307 174.892 77.4705 172.648 79.7244Z" fill="#F26828"/>
<path d="M127.908 92.8803C126.519 89.3242 124.783 86.0466 120.997 84.4115C121.018 84.1763 121.04 83.9411 121.062 83.7059C125.146 83.7059 129.231 83.7043 133.316 83.7065C135.47 83.7076 137.085 84.7744 138.203 86.4896C139.307 88.1819 140.126 90.0585 141.214 91.7627C142.258 93.3981 143.486 94.9161 144.455 96.6567C142.136 95.3795 139.97 93.9662 137.865 92.4678C136.864 91.756 136.046 91.5202 134.713 91.8972C132.527 92.5154 130.185 92.5814 127.908 92.8803Z" fill="#374474"/>
<path d="M127.733 92.9297C130.185 92.5816 132.527 92.5156 134.713 91.8974C136.047 91.5204 136.864 91.7562 137.865 92.468C139.97 93.9664 142.136 95.3797 144.441 96.8097C144.605 96.7914 144.573 96.8073 144.603 96.8665C144.753 97.0327 144.873 97.1397 144.994 97.2468C143.503 97.4235 142.013 97.7431 140.522 97.7495C136.458 97.7669 132.392 97.6837 128.329 97.579C125.254 97.4998 122.455 96.7078 120.276 93.8808C122.804 93.5676 125.181 93.2732 127.733 92.9297Z" fill="#F26828"/>
<path d="M289.065 149.395C289.335 149.982 289.597 150.667 289.595 151.35C289.58 155.991 289.905 160.546 291.646 164.951C292.062 166.003 291.451 167.428 291.47 168.679C291.487 169.728 291.426 170.967 291.938 171.784C293.352 174.041 293.342 175.308 291.425 177.069C290.414 177.997 289.422 178.945 288.284 179.903C289.542 177.165 289.79 174.378 288.484 171.496C288.302 171.093 288.492 170.521 288.751 169.834C289.646 169.016 290.3 168.392 291.382 167.36C289.878 166.484 288.598 165.738 287.317 164.993C287.372 163.818 287.361 162.636 287.493 161.47C287.947 157.474 288.45 153.484 289.065 149.395Z" fill="#A664A9"/>
<path d="M378.869 148.85C377.146 148.403 378.425 147.309 378.739 147.017C379.358 146.441 380.447 145.751 381.091 145.944C382.559 146.384 383.875 147.328 385.335 148.191C384.219 148.184 383.019 148.052 381.558 147.81C381.058 147.795 380.818 147.889 380.579 147.984C380.579 147.984 380.578 147.952 380.452 147.956C380.119 148.114 379.913 148.268 379.707 148.423C379.707 148.423 379.702 148.391 379.578 148.396C379.245 148.556 379.037 148.71 378.83 148.863C378.83 148.863 378.856 148.835 378.869 148.85Z" fill="#A664A9"/>
<path d="M287.404 165.136C288.598 165.738 289.878 166.483 291.382 167.359C290.3 168.392 289.646 169.016 288.863 169.712C289.379 167.99 288.906 166.505 287.404 165.136Z" fill="#394575"/>
<path d="M378.965 148.969C379.038 148.71 379.246 148.556 379.592 148.405C379.52 148.63 379.31 148.851 378.965 148.969Z" fill="#4659A8"/>
<path d="M379.851 148.487C379.913 148.269 380.119 148.115 380.465 147.965C380.401 148.163 380.198 148.357 379.851 148.487Z" fill="#4659A8"/>
<path d="M380.726 148.03C380.818 147.89 381.058 147.795 381.375 147.786C381.26 147.939 381.066 148.008 380.726 148.03Z" fill="#4659A8"/>
<path d="M145.131 97.181C144.873 97.1397 144.753 97.0327 144.596 96.8503C144.795 96.8884 145.032 97.0018 145.131 97.181Z" fill="#374474"/>
<path d="M172.219 80.193C172.154 80.059 172.202 79.8881 172.386 79.7283C172.459 79.8783 172.396 80.0172 172.219 80.193Z" fill="#F26828"/>
<path d="M283.423 80.4896C286.118 80.2588 288.66 79.7949 291.146 80.0031C294.392 80.275 296.315 82.7573 295.702 85.9345C295.163 88.7271 294.927 92.0125 291.066 92.959C286.412 93.798 281.903 94.4967 277.432 95.3837C272.68 96.3263 268.436 94.5777 264.102 93.1823C261.619 92.383 259.085 91.7235 256.657 90.7854C255.881 90.4855 255.372 89.4936 254.849 88.5467C255.158 86.0005 255.357 83.726 255.557 81.4514C256.751 81.7379 257.969 81.951 259.134 82.3268C261.286 83.0205 263.274 84.4411 265.907 83.8829C266.872 85.5555 267.652 87.0421 268.433 88.5287C268.662 88.402 268.891 88.2754 269.12 88.1487C268.757 87.1514 268.394 86.154 268.031 85.1567C268.988 84.6359 269.891 83.9238 270.913 83.6294C274.293 82.6565 277.715 81.8266 281.126 80.9606C281.821 80.7838 282.538 80.6884 283.423 80.4896Z" fill="#C9EAF5"/>
<path d="M203.394 75.2321C203.768 73.5488 204.141 71.8655 204.576 69.9004C213.566 72.5393 222.323 75.1098 231.623 77.8398C229.745 80.426 228.068 82.7574 226.365 85.0694C225.719 85.9477 224.701 86.682 224.39 87.654C223.473 90.5127 221.635 90.2428 219.319 89.7328C212.858 88.3107 206.355 87.0781 199.708 85.5938C200.829 82.022 202.112 78.627 203.394 75.2321Z" fill="#FEFEFE"/>
<path d="M320.459 85.5565C318.831 83.3287 317.469 81.0131 315.936 78.8179C314.849 77.2632 313.53 75.8712 312.219 74.3212C318.057 74.1746 324.02 73.7365 329.914 74.19C333.586 74.4726 337.153 76.11 340.772 77.1244C342.509 77.6115 344.267 78.0298 345.992 78.5572C346.387 78.6782 346.685 79.1199 346.969 79.7158C346.48 81.9569 346.05 83.896 345.62 85.8352C345.577 86.3902 345.534 86.9453 345.472 87.7403C343.663 87.277 341.981 86.9651 340.386 86.4061C338.577 85.7723 336.859 85.4302 334.959 86.1016C334.129 86.395 333.125 86.194 332.146 86.0594C331.15 83.1875 328.611 82.6319 326.292 81.7493C327.339 82.7558 328.387 83.7622 329.434 84.7687C326.507 85.0191 323.58 85.2696 320.459 85.5565Z" fill="#C9EAF5"/>
<path d="M299.357 74.5557C296.724 75.3493 293.951 76.0578 291.03 76.7569C290.093 75.6427 289.256 74.5675 288.524 73.4249C287.715 72.1608 286.637 72.007 285.307 72.365C283.708 72.7952 282.105 73.3829 280.477 73.4862C278.48 73.613 277.535 72.2988 278.063 70.3684C278.446 68.9678 279.092 67.6388 279.654 66.1909C279.016 66.0466 278.057 65.8299 277.173 65.6301C278.88 62.9249 280.533 60.2227 282.27 57.576C283.8 55.2457 285.883 53.7117 288.811 54.0326C291.612 54.3396 293.537 55.9824 294.251 58.6889C294.741 60.5441 295.151 62.5362 295.003 64.4204C294.675 68.5825 295.51 72.0813 299.357 74.5557Z" fill="#FEFEFE"/>
<path d="M118.304 54.9411C115.013 57.4132 111.675 59.8264 108.448 62.3804C106.636 63.8145 105.092 65.589 103.267 67.0026C102.199 67.8299 100.87 68.5539 99.5609 68.7927C96.0733 69.429 92.5344 69.7862 89.0132 70.2334C88.2254 70.3334 87.4268 70.3474 86.1262 70.4354C88.7494 67.9405 91.0603 65.7427 93.577 63.3523C96.5343 60.8161 99.2541 58.4335 102.059 56.1552C102.802 55.5517 103.798 54.9172 104.691 54.8986C109.226 54.804 113.766 54.9071 118.304 54.9411Z" fill="#2B275F"/>
<path d="M118.274 54.7908C113.766 54.9072 109.226 54.804 104.691 54.8986C103.798 54.9173 102.802 55.5517 102.059 56.1553C99.2541 58.4336 96.5344 60.8162 93.6467 63.2268C92.7059 61.3635 91.8003 59.4656 91.1672 57.4807C91.0063 56.9762 91.5385 55.964 92.0492 55.5816C94.2545 53.9302 96.5887 52.4526 98.8409 50.8621C102.037 48.6049 105.203 46.3042 108.543 44.1096C109.157 44.9894 109.61 45.7817 110.063 46.5739C111.864 50.2013 114.92 52.5563 118.274 54.7908Z" fill="#83C899"/>
<path d="M345.798 85.824C346.05 83.8959 346.48 81.9568 346.941 79.8389C349.29 80.839 351.65 81.9426 353.915 83.2167C356.447 84.6419 358.797 86.4249 361.414 87.6545C362.885 88.3458 364.73 88.4135 366.413 88.4424C368.882 88.4848 371.357 88.2409 373.83 88.119C373.897 88.3423 373.964 88.5657 374.031 88.789C372.259 89.7998 370.487 90.8106 368.653 91.8567C368.902 92.1219 369.236 92.4772 369.592 92.855C369.335 93.0196 369.222 93.1568 369.108 93.1564C365.995 93.144 363.144 92.7302 360.177 91.2032C355.704 88.9008 350.735 87.5615 345.798 85.824Z" fill="#FEFEFE"/>
<path d="M255.394 81.3878C255.357 83.7262 255.158 86.0008 254.847 88.3813C251.628 86.0157 248.626 83.3897 245.365 81.1387C243.775 80.0417 241.72 79.5955 239.844 78.9474C238.555 78.5024 237.212 78.2171 235.928 77.791C236.614 77.6422 237.264 77.5627 237.914 77.4833C237.901 77.3525 237.888 77.2218 237.875 77.091C237.026 77.1859 236.178 77.2807 235.329 77.3756C235.245 76.7292 235.161 76.0828 235.048 75.204C234.338 75.0788 233.377 74.9094 232.417 74.74C232.409 74.5538 232.402 74.3675 232.395 74.1813C234.983 74.026 237.571 73.8707 240.199 73.713C239.988 72.9814 239.738 72.113 239.326 70.6824C244.225 75.5087 249.271 79.1214 255.394 81.3878Z" fill="#FEFEFE"/>
<path d="M57.3979 90.3696C52.4603 89.8653 47.5754 89.1492 43.0745 86.8591C39.8405 85.2136 37.2763 82.8757 35.1292 79.3616C38.926 80.2181 42.2446 80.9667 45.8882 81.7932C47.9325 81.9604 49.6526 82.0377 51.3705 82.1477C51.7706 82.1733 52.3749 82.1764 52.5273 82.4167C54.1918 85.0417 55.7852 87.7118 57.3979 90.3696Z" fill="#FEFEFE"/>
<path d="M57.5332 90.4815C55.7853 87.7118 54.1919 85.0417 52.5274 82.4168C52.375 82.1764 51.7707 82.1733 51.3707 82.1477C49.6527 82.0377 47.9326 81.9604 46.0823 81.8162C45.7469 79.8545 45.5426 77.9478 45.3118 75.7942C50.3995 77.6119 55.1812 79.3202 59.9895 81.0381C59.4399 84.0789 58.8621 87.2944 58.2537 90.5042C58.2415 90.5685 57.8715 90.5651 57.5332 90.4815Z" fill="#4CB879"/>
<path d="M203.231 75.1762C202.112 78.6269 200.829 82.0218 199.519 85.5688C198.871 85.4252 197.898 85.2857 197.688 84.8096C195.952 80.8696 194.356 76.8673 192.547 72.4675C196.523 73.47 199.796 74.2952 203.231 75.1762Z" fill="#2B275F"/>
<path d="M138.064 11.0918C139.404 11.7936 140.781 12.4366 142.062 13.2334C142.439 13.4674 142.812 14.1928 142.729 14.599C142.167 17.3361 141.483 20.0479 140.837 22.7715C137.748 21.7677 135.294 18.3396 135.644 15.3836C135.858 15.4861 135.931 15.593 136.023 15.6803C136.046 15.7017 136.166 15.6744 136.179 15.6434C136.812 14.128 137.437 12.6097 138.064 11.0918Z" fill="#F26828"/>
<path d="M331.053 106.664C329.2 109.358 326.316 108.629 323.654 109.285C325.94 106.394 328.053 103.722 330.244 100.931C330.425 101.55 330.539 102.286 330.626 103.025C330.764 104.187 330.884 105.352 331.053 106.664Z" fill="#A664A9"/>
<path d="M326.654 98.9162C322.866 98.7466 318.985 98.4446 315.103 98.1426C318.629 97.6586 322.247 97.9923 325.429 95.5935C325.895 96.6031 326.227 97.6934 326.654 98.9162Z" fill="#A664A9"/>
<path d="M110.198 46.5126C109.61 45.7817 109.157 44.9895 108.672 44.0437C110.22 42.1025 111.898 42.0245 114.542 43.7958C113.073 44.723 111.703 45.5871 110.198 46.5126Z" fill="#4CB879"/>
<path d="M138.116 10.948C137.437 12.6096 136.812 14.1278 136.179 15.6432C136.166 15.6742 136.046 15.7015 136.023 15.6801C135.931 15.5928 135.858 15.486 135.736 15.2466C135.694 13.1618 135.694 11.2166 135.694 9.11768C136.809 9.11768 137.711 9.11768 138.914 9.11768C138.644 9.72803 138.406 10.2662 138.116 10.948Z" fill="#4CB879"/>
<path d="M329.502 84.8343C328.387 83.7622 327.339 82.7557 326.292 81.7493C328.61 82.6319 331.15 83.1875 331.971 85.9456C331.09 85.6267 330.33 85.2633 329.502 84.8343Z" fill="#A664A9"/>
<path d="M267.945 85.0525C268.394 86.154 268.757 87.1514 269.12 88.1487C268.891 88.2754 268.662 88.402 268.433 88.5287C267.652 87.0421 266.872 85.5555 266.074 83.9124C266.657 84.1533 267.258 84.5508 267.945 85.0525Z" fill="#A664A9"/>
<path d="M332.792 108.564C332.643 108.563 332.416 108.465 332.13 108.255C332.285 108.251 332.5 108.36 332.792 108.564Z" fill="#4659A8"/>
<path d="M148.886 50.0883C148.739 50.0253 148.668 49.887 148.597 49.7486C148.709 49.7335 148.82 49.7184 149.021 49.7813C149.109 49.8592 148.961 50.013 148.886 50.0883Z" fill="#FEFEFF"/>
<path d="M327.171 99.2193C327.215 99.2968 327.04 99.301 327.04 99.301C327.04 99.301 326.888 99.2136 326.837 99.1404C326.913 99.0356 327.027 99.0604 327.171 99.2193Z" fill="#A664A9"/>
<path d="M235.399 77.4782C236.178 77.2805 237.027 77.1857 237.876 77.0908C237.888 77.2216 237.901 77.3524 237.914 77.4831C237.264 77.5625 236.614 77.642 235.795 77.7482C235.573 77.7104 235.521 77.6458 235.399 77.4782Z" fill="#F7D737"/>
</svg>
