<svg width="411" height="496" viewBox="0 0 411 496" fill="none" xmlns="http://www.w3.org/2000/svg">
<path d="M-14.0596 17.5189C-20.4543 15.3078 -23.7053 9.59119 -27.3631 3.91897C-29.0975 1.44749 -31.2837 -2.31213 -33.2524 1.89585C-33.7546 2.96934 -32.2358 10.8833 -31.3594 12.2363C-23.8203 23.8747 -28.8449 42.8669 -37.0383 52.2492C-47.9149 64.7038 -53.736 81.6751 -59.1081 97.3375L-59.3334 97.9942C-64.1216 111.951 -66.8757 125.528 -65.7485 140.48C-64.3396 159.17 -57.3127 176.1 -50.3943 193.081C-39.0723 220.871 -28.5255 251.293 -25.8908 281.649C-22.934 315.715 -24.615 350.428 -24.5236 384.603C-24.4515 411.587 -21.8583 435.553 -7.4342 458.223C1.93504 472.948 13.6775 482.353 29.0057 488.963C44.6851 495.725 64.5085 492.779 81.1152 492.447C98.3448 492.103 115.396 488.622 132.594 487.446C155.317 485.891 177.436 482.388 200.32 482.388H343.977C377.021 482.388 411.063 479.539 443.779 485.198C458.727 487.783 473.415 492.617 488.474 494.302C508.964 496.593 530.276 496.173 550.837 495.313C559.216 494.963 572.405 495.268 578.706 488.008C582.659 483.453 584.721 475.832 585.752 469.912C589.604 447.805 588.855 430.039 582.808 408.712C576.224 385.493 566.782 363.767 558.725 341.162C554.179 328.41 548.305 315.098 545.789 301.655C543.312 288.42 543.879 273.933 545.369 260.631C547.681 239.98 558.758 221.306 568.084 203.478C576.802 186.813 587.282 171.195 592.062 152.619C595.669 138.601 593.693 121.874 590.59 108.054C585.618 85.9155 579.2 65.6384 570.398 44.9434C563.724 29.2505 550.76 22.5401 535.168 19.0924C503.846 12.1666 468.216 9.38147 436.522 15.6643C413.694 20.1898 390.753 25.0225 368.059 30.2196C338.835 36.9125 309.751 45.1502 279.931 48.2029C255.172 50.7375 229.815 49.7346 204.948 49.4393C183.307 49.1823 165.41 36.5871 145.424 29.77C139.078 27.6056 132.873 24.7114 126.179 24.1502C116.77 23.3616 107.426 23.1387 97.9943 23.1387C83.4566 23.1387 69.0002 24.1502 54.4557 24.1502C43.1414 24.1502 31.1007 25.3147 19.9614 23.0825C8.85726 20.8573 -3.3214 21.2318 -14.0596 17.5189Z" fill="#B287B3" fill-opacity="0.5"/>
</svg>
