<svg width="33" height="34" viewBox="0 0 33 34" fill="none" xmlns="http://www.w3.org/2000/svg">
<rect y="0.800049" width="32.8" height="32.8" rx="16.4" fill="#DBF0F2"/>
<path d="M16.4 13.8667V17.2001M16.4 20.5334H16.4083M12.9833 23.8668C14.5738 24.6826 16.4034 24.9036 18.1424 24.4899C19.8814 24.0762 21.4154 23.055 22.4681 21.6102C23.5208 20.1655 24.0228 18.3923 23.8838 16.6102C23.7448 14.8281 22.9738 13.1542 21.7098 11.8903C20.4458 10.6263 18.772 9.8553 16.9898 9.71627C15.2077 9.57724 13.4345 10.0793 11.9898 11.132C10.5451 12.1846 9.52389 13.7187 9.11017 15.4577C8.69645 17.1967 8.91744 19.0263 9.73332 20.6168L8.06665 25.5334L12.9833 23.8668Z" stroke="#357F90" stroke-linecap="round" stroke-linejoin="round"/>
</svg>
