<svg width="411" height="391" viewBox="0 0 411 391" fill="none" xmlns="http://www.w3.org/2000/svg">
<path d="M354.443 1.46025C366.108 -0.00382626 389.507 0.0984954 389.507 0.0984954C389.507 0.0984954 412.03 0.278545 416.797 0.831746C422.151 1.45323 428.22 6.5222 430.852 11.0915C438.453 24.2905 432.583 45.0636 428.759 58.5997L428.684 58.8652C426.737 65.7544 421.356 77.4155 428.642 82.5335C438.153 89.2145 449.917 93.1691 460.361 98.0762C472.956 103.994 485.573 110.055 496.624 118.639C516.1 133.769 529.614 154.655 529.872 179.789C530.047 196.852 520.805 208.855 505.27 215.185C483.179 224.185 458.267 224.91 435.131 230.19C423.156 232.923 400.909 237.678 396.285 251.24C390.179 269.146 401.441 285.426 408.599 300.82C412.926 310.124 418.671 318.231 420.501 328.617C421.97 336.954 421.046 345.549 418.549 353.578C412.026 374.549 398.482 389.793 375.291 390.53C351.166 391.298 326.269 388.921 302.193 387.453C286.847 386.517 271.879 382.59 257.351 377.684C241.698 372.398 229.903 366.212 216.529 357.237C208.086 351.571 202.458 341.393 197.276 332.82C194.052 327.489 189.824 322.425 185.433 318.052C180.235 312.875 175.869 306.789 169.472 302.995C154.531 294.132 134.16 294.736 117.367 294.598C99.868 294.454 82.918 298.275 66.9543 305.393C45.2346 315.077 34.345 338.607 13.1167 349.291C0.525949 355.627 -6.85789 352.854 -19.8466 352.279C-27.0881 351.959 -43.4186 346.475 -43.0581 338.331C-42.57 327.308 -41.3698 317.214 -37.8397 306.578C-34.8677 297.624 -30.4095 289.455 -29.985 279.867C-29.4653 268.128 -35.3849 257.794 -38.5782 246.709C-42.7445 232.246 -44.9795 216.671 -44.3125 201.603C-43.9199 192.735 -40.9932 184.522 -39.887 175.799C-39.2408 170.704 -38.7643 166.764 -41.5746 162.486C-49.9401 149.752 -60.3052 129.391 -50.7305 114.529C-45.0421 105.699 -36.0425 100.384 -31.6619 90.4851C-27.9961 82.2017 -27.3431 75.3517 -28.7018 66.6812C-30.803 53.2721 -29.8699 39.9525 -20.3403 29.7194C-11.9782 20.7398 0.075584 23.3686 11.1087 23.8571C26.1502 24.523 40.1833 28.9569 55.1225 29.6183L121.977 32.5781C143.678 33.5388 166.352 36.9833 187.692 32.5749C207.282 28.5283 227.219 25.924 246.7 21.4194C255.569 19.3687 264.211 16.3733 273.112 14.4869C289.08 11.1032 305.399 9.03281 321.54 6.67569C332.5 5.07516 343.467 2.83789 354.443 1.46025Z" fill="#F6D322" fill-opacity="0.37"/>
</svg>
