<svg width="411" height="357" viewBox="0 0 411 357" fill="none" xmlns="http://www.w3.org/2000/svg">
<path opacity="0.6" d="M284.636 12.3949C273.213 14.3891 149.065 14.0307 149.065 14.0307C149.065 14.0307 110.238 12.9411 90.0762 12.3227C84.8314 12.3894 80.3318 12.4693 75.8386 12.6845C69.6545 12.9807 63.3984 12.884 57.3091 13.8303C41.4643 16.2924 25.4919 18.4068 9.94908 22.2085C-6.13578 26.1428 -22.1918 30.8732 -37.5125 37.0972C-60.9007 46.5988 -83.1366 58.4802 -103.505 73.7525C-119.568 85.7959 -135.411 97.9828 -148.949 112.898C-156.618 121.347 -164.234 129.842 -171.829 138.357C-184.301 152.34 -194.692 167.794 -203.269 184.399C-208.752 195.013 -213.544 205.988 -218.509 216.865C-226.293 233.917 -230.858 251.992 -232.867 270.465C-234.685 287.183 -233.936 304.051 -230.596 320.715C-226.936 338.973 -220.487 355.953 -208.94 370.736C-195.278 388.224 -176.695 397.354 -155.251 400.149C-138.933 402.275 -122.598 400.892 -106.711 395.584C-96.1215 392.045 -85.2842 389.234 -74.5188 386.236C-64.3345 383.401 -53.7619 382.806 -43.5432 384.564C-28.8895 387.085 -15.7846 394.374 -3.56128 402.413C7.17741 409.475 16.7868 418.314 26.5916 426.721C34.6846 433.661 42.493 440.955 50.1296 448.398C56.2832 454.396 61.9971 460.846 67.8964 467.104C78.6663 478.529 89.2067 490.181 100.257 501.327C111.319 512.485 124.548 520.73 138.988 526.736C146.878 530.018 155.261 532.157 163.5 534.54C168.69 536.041 174.026 537.038 179.297 538.261C188.696 538.788 198.094 539.314 208.232 539.911C215.451 539.218 222.003 538.833 228.397 537.616C243.755 534.693 258.384 529.674 272.296 522.34C284.28 516.022 294.247 507.416 302.751 497.148C313.501 484.166 321.744 469.496 329.211 454.451C334.217 444.364 340.39 435.427 349.697 428.856C363.295 419.254 376.642 409.282 390.456 400.003C410.646 386.44 430.964 373.104 450.017 357.915C462.986 347.577 475.383 336.715 486.936 324.776C497.464 313.895 505.448 301.354 512.599 288.265C517.576 279.154 521.029 269.219 525.836 260.003C532.845 246.565 537.067 232.519 537.327 217.333C537.601 207.322 537.875 197.311 538.208 186.554C538.119 181.303 538.401 176.733 537.741 172.303C535.831 159.48 533.718 146.667 528.759 134.561C525.112 125.653 521.968 116.477 517.567 107.954C510.891 95.0263 502.061 83.4592 493.299 71.8215C483.981 59.4467 472.969 48.8272 461.211 39.1129C448.402 28.5312 434.414 19.5389 418.971 12.8273C402.358 5.6074 385.167 0.944004 367.181 0.637083C355.158 0.431869 342.999 1.71767 331.082 3.52863C315.511 5.8949 300.162 9.68454 284.636 12.3949Z" fill="#8EA0C7" fill-opacity="0.72"/>
</svg>
