<svg width="411" height="459" viewBox="0 0 411 459" fill="none" xmlns="http://www.w3.org/2000/svg">
<path opacity="0.6" d="M384.761 8.52668C375.392 4.39759 365.551 1.61888 355.224 1.00382C348.971 0.937891 342.718 0.871902 335.768 0.693547C332.451 0.790136 329.804 0.830092 327.216 1.23903C318.364 2.63782 309.392 3.61151 300.725 5.78139C289.11 8.6893 277.686 12.4032 266.274 16.0655C255.586 19.4959 245.025 23.3231 234.4 26.9527C218.158 32.501 202.009 38.3502 185.634 43.4761C169.286 48.5939 152.434 48.2958 135.595 46.3714C131.01 45.8475 126.45 45.0362 121.913 44.1737C114.34 42.7338 106.811 41.0612 99.2346 39.6403C86.5278 37.2573 73.8341 34.7691 61.0671 32.7553C51.2936 31.2137 41.4154 30.3355 31.5838 29.1623C23.5881 29.0509 15.5923 28.9396 6.89526 28.7494C-3.30828 28.3899 -12.4322 30.5797 -21.2962 33.567C-32.8988 37.4773 -42.4102 44.565 -50.2648 54.0168C-59.3738 64.9783 -64.6854 77.624 -64.9446 91.6669C-65.1018 100.186 -63.161 108.905 -61.1025 117.273C-56.3221 136.706 -45.9501 153.964 -38.7278 172.467C-35.0123 181.986 -32.11 191.724 -31.6146 201.9C-31.1812 210.804 -31.2041 219.82 -32.0986 228.677C-33.2652 240.229 -34.5602 251.915 -37.4601 263.113C-42.9315 284.241 -49.2146 305.13 -52.2827 326.833C-53.8867 338.18 -55.874 349.426 -54.3449 360.936C-53.1974 369.573 -52.616 378.321 -50.8926 386.839C-48.0092 401.09 -41.3548 413.639 -31.5848 424.435C-26.8786 429.635 -21.3326 433.741 -15.3884 437.583C-6.72452 443.184 2.81253 446.366 12.5073 448.821C23.4304 451.586 34.7629 452.689 45.8058 455.039C478.05 481.47 526.954 337.656 526.954 337.656C526.954 337.656 530.243 314.939 526.471 303.707C523.333 294.365 518.144 286.115 511.361 279.064C503.478 270.87 495.085 263.168 486.969 255.196C476.409 244.821 465.801 234.493 455.409 223.952C447.387 215.813 440.51 206.67 435.472 196.433C429.294 183.883 427.336 170.219 426.743 156.35C426.396 155.429 425.747 154.506 425.752 153.587C425.795 146.265 425.936 138.942 426.129 131.622C426.151 130.798 426.689 129.987 427.221 128.612C427.803 123.535 428.076 119.01 428.516 114.5C429.393 105.508 430.788 96.543 431.16 87.5332C431.459 80.2726 430.731 72.9503 430.168 65.6778C429.408 55.8469 426.318 46.6841 420.806 38.5228C411.72 25.0684 399.575 15.0556 384.761 8.52668Z" fill="#F3D51F" fill-opacity="0.72"/>
</svg>
