<svg width="411" height="274" viewBox="0 0 411 274" fill="none" xmlns="http://www.w3.org/2000/svg">
<path d="M195.377 45.1754C213.335 47.6338 228.131 47.2252 248.045 42.6482C252.405 41.6461 255.187 39.6555 259.069 39.6555C265.335 39.6555 271.705 40.254 278.054 40.254C289.517 40.254 302.216 41.4443 313.038 37.3943C327.24 32.0796 340.346 26.5281 356.673 27.2855C391.463 28.8994 421.394 53.6721 427.791 82.7177C433.378 108.087 431.056 133.065 425.532 158.101C424.011 164.996 423.672 171.853 423.733 178.851C423.789 185.243 424.422 191.606 424.422 198.005C424.422 201.681 424.515 204.155 422.049 207.216C417.382 213.008 407.927 212.084 400.767 214.398C395.671 216.046 390.796 217.871 385.457 218.921C371.325 221.698 355.903 220.417 341.516 220.417C329.768 220.417 318.015 218.075 309.402 226.203C296.909 237.992 292.558 259.474 273.307 264.244C228.389 275.374 181.521 260.54 139.494 247.618C104.321 236.803 72.7631 263.796 39.401 269.797C21.5636 273.006 -6.31208 280.045 -18.0517 263.047C-27.5895 249.237 -37.388 237.003 -44.0938 222.136C-53.8173 200.579 -61.3053 175.004 -62.7967 151.584C-63.6875 137.594 -61.7652 126.104 -54.7586 113.609C-49.7479 104.674 -40.5957 94.4611 -47.5627 84.2473C-50.7652 79.5524 -57.0226 75.6071 -57.17 69.7159C-57.2633 65.9888 -57.435 62.0267 -56.06 58.4432C-54.0593 53.2288 -50.2803 48.9423 -50.2803 43.2468C-50.2803 39.9001 -51.1233 37.2387 -51.62 34.0025C-52.3147 29.4762 -56.4811 26.1758 -56.4811 21.433V13.9179C-56.4811 6.6422 -54.2168 0.431098 -44.2327 0.151298C-32.0853 -0.189123 -19.8699 0.151298 -7.71708 0.151298C7.02419 0.151298 20.7313 2.94125 35.2289 5.23896C50.8499 7.7147 66.2901 10.8937 81.926 13.3194C96.442 15.5713 110.895 18.8591 124.489 23.8937C132.3 26.7866 139.771 30.3143 147.493 33.3707C162.968 39.4949 178.616 42.881 195.377 45.1754Z" fill="#AACC81"/>
</svg>
