<svg width="411" height="755" viewBox="0 0 411 755" fill="none" xmlns="http://www.w3.org/2000/svg">
<path d="M-180.117 51.3931C-166.404 57.6261 -155.79 64.9581 -139.195 71.293C-96.5482 87.5741 -51.6358 87.213 -23.4849 87.213C-12.4173 87.213 -4.61203 84.5519 5.72495 82.238C14.228 80.3346 24.7574 78.3194 32.9295 75.3794C73.6722 60.722 133.558 69.8803 173.505 82.0959C199.54 90.0573 226.646 96.067 253.656 100.148C286.785 105.154 315.937 115.357 349.893 115.357C427.724 115.357 506.724 90.8688 582.725 75.5573C630.491 65.9344 680.341 62.5798 728.916 69.303C749.038 72.0882 771.445 75.9241 790.158 84.0859C801.781 89.1557 816.378 93.6745 828.822 105.692C851.34 127.437 849.177 157.054 854.222 181.738C858.523 202.781 866.53 223.165 867.909 244.707C868.859 259.533 869.364 276.266 866.075 290.762C864.348 298.372 861.757 305.966 860.431 313.647C858.895 322.543 852.593 328.25 850.412 336.674C843.808 362.172 840.782 394.088 849.706 419.259C854.205 431.947 863.575 442.15 869.321 454.368C877.802 472.403 885.868 487.985 888.512 507.956C892.986 541.761 893.547 583.502 871.719 612.004C853.056 636.375 849.348 632.189 822.569 632.189H756.73C703.548 632.189 635.32 626.331 588.763 655.44C562.168 672.067 525.35 680.802 493.544 680.802C454.588 680.802 382.897 651.618 344.589 646.106C289.941 638.242 268.571 656.276 215.415 641.144C190.946 634.178 168.4 624.364 143.59 618.117C102.368 607.736 55.6466 604.613 22.0937 635.031C2.25684 653.015 -2.10791 679.829 -15.865 701.839C-21.5661 710.96 -23.5382 721.184 -32.3749 730.694C-42.8836 742.002 -66.1003 751.304 -66.1003 751.304C-66.1003 751.304 -98.6454 755 -111.961 755H-171.228C-211.128 755 -250.163 753.886 -287.361 737.232C-313 725.754 -342.358 716.658 -362.714 696.153C-378.843 679.907 -386.799 659.471 -398.133 640.149C-415.787 610.054 -424.405 572.246 -412.667 538.09C-399.093 498.587 -394.555 455.748 -406.459 415.279C-410.468 401.648 -410.437 368.821 -406.459 355.294C-400.699 335.712 -393.678 317.76 -386.703 298.437C-371.038 255.044 -399.683 213.057 -413.232 174.062C-422.433 147.58 -441.736 104.098 -426.073 75.6995C-417.306 59.8041 -413.837 40.0342 -401.943 25.8073C-396.398 19.175 -392.264 13.5595 -384.163 8.03949C-359.054 -9.06917 -330.106 5.90202 -306.552 9.46092C-263.085 16.0288 -220.181 33.1835 -180.117 51.3931Z" fill="#126D3B" fill-opacity="0.63"/>
</svg>
