<svg width="411" height="765" viewBox="0 0 411 765" fill="none" xmlns="http://www.w3.org/2000/svg">
<path opacity="0.6" d="M496.274 135.036C484.897 131.671 378.446 67.6871 378.446 67.6871C378.446 67.6871 345.916 46.4602 329.066 35.3724C324.505 32.7711 320.574 30.5677 316.543 28.5358C310.996 25.7394 305.693 22.4173 299.719 20.478C284.175 15.4318 268.793 9.88772 252.463 6.6627C235.563 3.32511 218.066 0.992722 200.036 0.894819C172.511 0.74565 144.119 4.14678 114.685 12.7219C91.4742 19.4843 68.3399 26.5375 45.0561 38.1645C31.8682 44.75 18.6879 51.4212 5.51164 58.127C-16.127 69.1396 -37.1246 83.0473 -57.4626 99.3153C-70.4625 109.714 -83.1507 120.916 -95.9097 131.905C-115.914 149.136 -133.95 169.287 -150.098 191.24C-164.712 211.108 -177.238 232.476 -187.375 254.916C-198.483 279.503 -206.195 303.929 -207.808 328.229C-209.716 356.978 -200.867 377.846 -184.614 392.298C-172.245 403.295 -157.122 409.935 -139.32 411.461C-127.453 412.479 -115.942 414.528 -104.346 416.309C-93.3771 417.993 -83.8236 422.664 -76.4108 430.081C-65.7808 440.716 -60.2049 456.491 -55.9725 472.748C-52.2541 487.031 -50.8926 502.944 -49.0272 518.422C-47.4875 531.198 -46.469 544.268 -45.7144 557.436C-45.1064 568.047 -45.2291 578.995 -45.0431 589.8C-44.7034 609.525 -44.7384 629.416 -43.94 648.938C-43.1408 668.48 -38.2048 685.509 -30.4789 700.371C-26.2578 708.491 -20.7217 715.443 -15.4986 722.624C-12.2081 727.148 -8.39937 731.119 -4.82316 735.339C2.846 740.804 10.5152 746.269 18.7647 752.2C25.5118 755.033 31.4452 757.907 37.8919 759.665C53.3772 763.889 69.8727 765.131 87.5586 763.127C102.794 761.401 114.758 750.634 133.407 747.373C153.832 743.803 186.5 747.373 186.5 747.373C186.5 747.373 215.368 750.785 228.5 747.373C247.687 742.388 270.38 731.474 289.5 727C317.446 720.461 346.754 707.389 383.5 695C411.012 685.725 433.422 691.885 454 671.404C476.102 649.408 460.522 607.531 476.887 594.907C488.279 586.12 499.004 575.527 510.331 566.522C526.848 553.391 541.443 538.078 553.522 519.318C561.573 507.004 569.624 494.69 578.308 481.479C582.331 474.9 586.141 469.359 589.032 463.51C597.4 446.58 605.587 429.558 610.776 411.959C614.594 399.01 619.054 385.986 621.924 373.13C626.278 353.63 627.717 334.721 629.27 315.759C630.92 295.595 629.743 276.748 627.218 258.644C624.468 238.925 619.462 220.579 611.425 204.325C602.78 186.841 591.641 172.241 576.417 162.654C566.242 156.246 554.785 151.622 543.126 147.776C527.892 142.751 511.738 139.61 496.274 135.036Z" fill="#8EA0C7" fill-opacity="0.72"/>
</svg>
