<svg width="310" height="276" viewBox="0 0 310 276" fill="none" xmlns="http://www.w3.org/2000/svg">
<path d="M77.4442 116.445C76.2672 122.301 75.0903 128.158 73.8884 134.137C49.5169 134.137 25.2313 134.137 0.65863 134.137C1.22759 131.474 1.73173 129.013 2.28075 126.562C6.32656 108.497 10.3708 90.4321 14.4372 72.3721C16.8649 61.5901 19.3332 50.8171 21.7807 40.0395C23.2612 33.5201 24.7878 27.0103 26.174 20.471C26.4729 19.0609 27.0375 18.6198 28.4234 18.6217C50.9176 18.652 73.4118 18.6429 95.9061 18.6478C96.3198 18.6479 96.7335 18.7101 97.4916 18.7709C97.0034 21.4145 96.5846 23.9361 96.0675 26.4375C93.7176 37.8046 91.3383 49.1656 88.9801 60.531C88.9093 60.8721 88.9543 61.2371 88.7912 61.8419C88.3642 62.1676 88.0897 62.3123 87.8185 62.3063C85.0707 62.2452 83.8847 63.9267 83.115 66.2677C82.3842 68.4904 84.0065 69.4787 85.1946 70.7292C85.5841 71.1391 86.0066 71.5179 86.4166 72.0842C85.6483 76.1669 84.8302 80.0678 84.1236 83.9887C83.6788 86.4569 83.4011 88.9549 83.0205 91.4236C82.9926 91.4076 83.0223 91.3506 82.9255 91.3899C82.7043 91.5039 82.6162 91.6091 82.4623 91.8498C80.2314 93.3853 78.1027 94.8156 75.7826 96.3745C76.4593 96.4555 76.8343 96.5004 77.3513 96.5624C76.7052 98.2855 76.1236 99.8366 75.3599 101.874C74.7243 100.319 74.2503 99.1148 73.7414 97.9252C72.4823 94.9821 71.1329 94.26 68.131 94.9002C67.5793 95.0178 67.0312 95.1518 66.3713 95.1695C64.1702 91.8242 62.0791 88.5877 60.1869 85.3571C65.405 85.3629 70.4243 85.3629 75.5448 85.3629C76.453 81.3682 77.3189 77.5594 78.2407 73.5052C69.7027 73.5052 61.4195 73.5052 53.0133 73.3956C52.3844 71.101 51.8786 68.916 51.5769 66.7139C58.2321 66.6905 64.6837 66.7177 71.1336 66.6293C71.8317 66.6198 72.9971 66.068 73.1358 65.5512C73.9862 62.3835 74.6032 59.1533 75.3676 55.6221C74.3481 55.6221 73.5893 55.6221 72.8306 55.6221C68.0808 55.6221 63.3311 55.6221 58.5813 55.6221C49.0818 55.6221 39.5822 55.604 30.083 55.6592C29.3806 55.6633 28.1972 56.0483 28.058 56.5052C27.066 59.7612 26.2874 63.082 25.3602 66.6966C30.632 66.6966 35.5081 66.6966 40.4192 66.8357C42.5283 69.1212 44.6023 71.2676 46.4568 73.4377C42.7023 73.474 39.1672 73.4927 35.6322 73.4975C31.3022 73.5033 31.2947 73.4963 30.2659 77.5722C29.6375 80.0616 29.0367 82.5579 28.3464 85.3648C36.2901 85.3648 43.907 85.3648 51.6226 85.4862C52.2422 87.3559 52.8676 89.0809 53.2642 90.8569C54.3543 95.7393 55.6821 100.525 58.1229 104.935C57.9658 105.295 57.8612 105.615 57.9244 105.897C58.1234 106.787 58.7713 107.781 58.5438 108.519C58.0492 110.124 58.6169 111.173 59.7914 111.962C62.2971 113.645 64.8362 115.289 67.4458 116.805C69.5106 118.004 71.6562 118.411 73.983 117.139C74.9681 116.601 76.2805 116.659 77.4442 116.445ZM38.2674 50.9209C39.7567 50.9212 41.246 50.9219 42.7353 50.9219C55.7846 50.9219 68.834 50.9413 81.8829 50.876C82.7141 50.8718 84.1189 50.3743 84.2761 49.8261C85.179 46.6767 85.7858 43.4427 86.5702 39.8877C85.1757 39.8877 84.1348 39.8877 83.0939 39.8877C69.2645 39.8881 55.4352 39.873 41.6061 39.9325C40.8787 39.9356 39.6639 40.4248 39.509 40.9381C38.6147 43.8999 37.9505 46.9325 37.2797 49.9569C37.2219 50.2174 37.6825 50.5925 38.2674 50.9209Z" fill="#D0EAEF"/>
<path d="M225.303 205.246C224.59 204.229 223.878 203.212 223.136 201.892C222.677 200.71 222.193 199.853 221.828 198.949C218.541 190.813 215.228 182.687 212.022 174.519C210.124 169.683 208.407 164.776 206.606 159.902C205.756 157.602 204.9 155.305 204.047 153.006C203.365 150.426 202.281 147.873 202.111 145.26C201.929 142.455 202.1 139.417 203.022 136.798C204.506 132.58 206.68 128.596 208.706 124.585C209.008 123.989 210.089 123.784 211.114 123.479C215.761 123.992 220.104 124.424 224.447 124.855C224.934 124.932 225.42 125.009 225.897 125.084C226.104 128.915 226.037 132.75 226.568 136.501C227.875 145.732 228.965 155.038 231.075 164.098C232.942 172.114 236.095 179.83 238.624 187.696C239.509 190.45 240.429 193.218 240.977 196.048C241.986 201.264 242.659 206.544 243.604 211.774C245.661 223.172 247.771 234.56 249.945 245.936C250.23 247.428 249.569 247.823 248.109 248.176C245.698 248.849 243.596 249.427 241.493 250.006C240.601 250.178 239.708 250.351 238.74 250.538C237.526 245.961 236.317 241.431 235.124 236.896C233.442 230.5 231.733 224.111 230.122 217.697C229.731 216.14 229.675 214.498 229.567 212.746C229.844 212.714 230.007 212.857 230.197 212.944C230.662 213.157 231.132 213.363 231.618 213.517C231.672 213.534 231.963 213.069 231.936 213.043C231.566 212.689 231.186 212.333 230.758 212.054C229.781 211.416 228.776 210.821 227.783 210.208C227.816 209.683 227.85 209.158 228.07 208.432C229.747 207.741 231.237 207.252 232.727 206.763C230.291 205.821 227.965 205.412 225.637 205.022C225.541 205.006 225.415 205.167 225.303 205.246Z" fill="#F26525"/>
<path d="M133.093 213.384C137.542 218.252 137.092 224.642 138.218 230.474C139.793 238.636 140.817 246.902 142.148 255.113C142.346 256.338 142.927 257.502 143.352 258.759C142.954 258.887 142.562 259.014 141.883 259.133C141.187 259.034 140.777 258.942 140.395 258.704C138.51 256.84 136.54 255.179 134.712 253.374C133.931 252.603 132.978 251.566 132.908 250.593C132.583 246.1 132.394 241.584 132.455 237.081C132.49 234.399 131.793 232.058 130.373 229.901C128.291 226.74 127.208 223.5 129.154 219.888C130.233 217.884 129.688 216.559 127.629 215.655C127.79 215.135 127.905 214.764 128.036 214.337C126.825 214.272 125.769 214.215 124.62 214.051C120.815 211.887 117.103 209.831 113.38 207.767C113.368 207.835 113.238 208.087 113.315 208.218C114.903 210.942 116.608 213.604 118.065 216.395C118.484 217.198 118.202 218.365 118.125 219.285C116.681 217.262 115.354 215.318 114.022 213.214C113.356 211.204 112.847 209.28 111.995 207.521C110.885 205.228 109.214 203.148 110.192 200.338C110.291 200.056 110.104 199.648 109.986 199.321C108.986 196.554 107.972 193.792 106.92 190.857C105.452 186.504 103.888 182.364 102.632 178.133C100.922 172.372 99.4467 166.541 98.0151 160.669C102.7 158.931 107.24 157.265 111.78 155.599C107.766 155.773 103.368 153.193 99.9772 157.07C99.4747 156.458 99.0512 155.904 98.5021 155.539C95.8932 153.804 93.2502 152.12 90.671 150.283C92.8521 148.061 94.9815 145.974 97.2399 143.895C97.9824 143.401 98.5961 142.897 99.1883 142.393C99.1669 142.391 99.2067 142.408 99.39 142.405C103.549 141.521 107.524 140.64 111.67 139.763C113.323 139.458 114.807 139.15 116.369 139.016C116.98 141.927 117.24 144.756 118.107 147.384C119.726 152.292 121.699 157.083 123.542 162.081C124.822 167.061 126.147 171.869 127.33 176.71C128.515 181.555 129.559 186.435 130.655 191.457C130.703 191.926 130.762 192.237 130.818 192.648C130.861 192.888 130.952 192.984 131.08 193.232C131.132 196.956 131.113 200.49 131.297 204.014C131.353 205.072 131.721 206.309 132.382 207.1C134.056 209.102 135.336 210.961 132.928 213.25C132.983 213.294 133.038 213.339 133.093 213.384Z" fill="#4559A9"/>
<path d="M77.6007 116.393C76.2808 116.659 74.9684 116.601 73.9833 117.139C71.6565 118.411 69.5109 118.004 67.4461 116.805C64.8365 115.289 62.2974 113.645 59.7917 111.962C58.6172 111.173 58.0495 110.124 58.5441 108.519C58.7716 107.781 58.1237 106.787 57.9248 105.897C57.8615 105.615 57.9661 105.295 58.2702 104.925C59.9931 103.641 61.5343 102.517 62.8592 101.18C64.1351 99.8917 65.1874 98.3832 66.3646 97.1097C68.2971 99.5557 70.2031 101.864 72.2195 104.305C72.7729 103.542 73.1102 103.076 73.5918 102.412C74.9068 104.933 76.096 107.212 77.4015 109.715C78.5278 107.885 79.304 106.107 80.5304 104.729C84.1908 100.614 86.2307 96.0245 85.5666 90.299C86.4262 89.577 87.233 88.9877 88.0261 88.5748C88.0124 91.0096 88.0124 93.2679 88.0124 95.8444C88.5719 94.5857 88.9594 93.7055 89.3536 92.8283C90.3469 90.6185 91.3431 88.4099 92.29 86.0593C91.2783 83.8369 90.3148 81.756 89.3229 79.6137C92.1184 78.6706 94.7806 77.7725 97.4646 77.0416C97.7134 78.2536 97.9403 79.2984 98.1769 80.528C98.3317 81.803 98.477 82.8933 98.6368 84.0929C99.54 83.7611 100.25 83.5004 101.078 83.3157C102.457 85.8897 103.717 88.3877 105.115 91.1591C108.668 87.5479 114.118 86.0957 114.832 80.2961C115.005 81.0354 115.178 81.7747 115.431 82.8081C116.231 83.7557 116.951 84.4094 117.503 85.0557C115.59 85.9571 113.59 86.5789 112.16 87.8429C110.079 89.6824 107.328 91.7261 106.75 94.1342C104.321 104.244 102.631 114.528 100.581 124.731C100.215 126.552 100.805 127.495 102.474 127.99C103.177 128.199 103.866 128.456 104.562 128.69C104.317 127.801 103.739 127.319 103.338 126.72C103.033 126.265 102.73 125.623 102.813 125.129C103.113 123.341 103.548 121.574 103.983 119.811C105.65 113.05 107.53 106.333 108.945 99.5202C109.8 95.407 111.67 92.2322 115.085 89.8791C116.711 88.7587 118.308 87.5965 120.066 86.5148C121.57 87.4811 122.926 88.3857 124.182 89.4011C122.945 89.8451 121.818 90.2194 120.668 90.5025C118.601 91.0111 118.091 92.5286 119.567 94.0375C120.15 94.6341 120.844 95.1504 121.559 95.5874C124.135 97.1629 126.633 98.9265 129.367 100.168C132.201 101.456 133.783 103.191 133.387 106.559C133.349 107.405 133.287 108.081 133.073 108.777C129.082 110.686 125.244 112.576 120.849 114.74C122.48 115.46 123.509 116.09 124.625 116.371C127.281 117.037 129.983 117.516 132.655 118.122C133.251 118.257 134.13 118.46 134.312 118.877C135.19 120.896 135.874 122.999 136.768 125.459C131.506 124.663 126.749 123.943 121.765 123.189C121.765 124.391 121.765 125.225 121.634 126.137C119.852 127.099 118.202 127.983 116.407 128.808C113.383 127.386 113.155 127.459 112.057 130.058C112.024 130.135 111.802 130.131 111.477 130.139C109.181 130.23 107.079 130.389 104.974 130.457C99.7237 130.628 94.4713 130.733 89.2219 130.925C88.1481 130.964 87.6234 130.627 87.6124 129.553C87.4839 129.228 87.3554 128.904 87.3441 128.409C88.0792 127.824 88.697 127.408 89.4819 126.88C88.8709 125.818 88.2554 124.748 87.6063 123.513C87.5435 122.528 87.4246 121.701 87.5007 120.892C87.815 117.551 88.406 114.222 88.4843 110.879C88.5789 106.838 88.2577 102.787 88.1165 98.7405C87.7419 99.5114 87.6963 100.279 87.6552 101.047C87.4105 105.615 88.7897 110.267 86.9328 114.75C86.733 113.801 86.5331 112.852 86.3648 112.052C83.5049 113.477 80.6309 114.909 77.6007 116.393Z" fill="#2E4071"/>
<path d="M97.8704 160.74C99.4465 166.541 100.922 172.371 102.632 178.132C103.888 182.364 105.452 186.504 106.88 191.015C105.584 197.45 104.265 203.551 103.008 209.665C102.76 210.874 102.751 212.131 102.596 213.544C102.497 215.902 102.427 218.082 102.371 220.262C102.331 221.811 102.587 223.426 102.234 224.898C100.706 231.278 99.0028 237.617 97.2433 243.893C96.625 239.354 97.2838 235.084 98.8528 230.863C99.7858 228.354 100.214 225.657 100.966 222.659C100.372 223.014 100.153 223.072 100.058 223.213C97.5304 226.94 94.9978 230.663 92.5102 234.415C91.7696 235.533 91.2955 236.578 92.2254 238.049C93.0026 239.277 93.5716 240.971 93.4076 242.362C93.2512 243.688 92.0561 244.907 91.2683 246.141C88.664 250.223 86.0374 254.29 83.2613 258.393C82.4026 258.506 81.7019 258.59 81.0012 258.673C80.738 258.276 80.2089 257.848 80.2514 257.486C80.9692 251.387 81.696 245.288 82.5505 239.207C83.2668 234.11 84.4379 229.06 84.8462 223.945C85.0697 221.144 84.1263 218.252 83.7171 215.4C83.617 214.703 83.5478 214.001 83.5225 212.986C85.6194 206.361 86.0334 200.012 84.3201 193.536C82.9165 188.231 82.0388 182.953 82.9152 177.322C84.2988 168.431 85.0195 159.438 86.1746 150.487C87.6489 149.759 88.9693 149.031 90.3327 148.28C89.9887 149.163 89.7338 149.817 89.479 150.47C89.8591 150.453 90.2391 150.435 90.6191 150.417C93.25 152.12 95.893 153.804 98.5018 155.539C99.051 155.904 99.4745 156.458 99.9791 157.076C100.002 157.228 99.9968 157.219 99.8362 157.215C98.2683 157.596 97.1162 158.17 97.5773 160.044C97.5445 160.117 97.4317 160.231 97.3475 160.276C97.2304 160.481 97.1977 160.642 97.165 160.803C97.259 160.759 97.353 160.715 97.5535 160.685C97.7301 160.712 97.8003 160.726 97.8704 160.74Z" fill="#2E4071"/>
<path d="M123.524 161.923C121.699 157.083 119.726 152.292 118.107 147.384C117.24 144.756 116.98 141.928 116.522 138.918C118.179 138.288 119.761 137.929 121.505 137.59C124.197 136.77 126.728 135.93 129.355 135.224C133.932 137.324 133.93 137.322 137.056 133.725C137.567 133.138 138.067 132.533 138.636 132.006C140.538 130.242 142.082 128.428 140.143 125.811C148.229 125.467 153.632 129.536 157.8 135.7C158.965 137.423 159.918 139.29 160.969 141.091C160.178 146.192 159.392 151.293 158.593 156.392C158.453 157.284 158.26 158.169 157.876 159.227C156.67 160.155 155.637 160.862 154.705 161.684C153.737 162.537 152.952 163.611 151.933 164.386C150.982 165.107 149.87 165.666 148.756 166.113C146.762 166.913 144.764 167.836 142.678 168.241C138.516 169.048 134.649 167.686 130.926 165.966C129.404 165.262 127.522 164.711 126.608 163.49C125.682 162.253 124.874 161.83 123.524 161.923Z" fill="#BCE0F6"/>
<path d="M204.015 153.193C204.9 155.305 205.756 157.602 206.606 159.902C208.407 164.776 210.124 169.683 212.022 174.519C215.227 182.687 218.541 190.813 221.828 198.949C222.193 199.853 222.677 200.71 223.112 201.74C222.772 202.016 222.236 202.04 222.109 202.279C217.276 211.387 212.408 220.478 207.708 229.655C205.281 234.394 203.163 239.289 200.76 244.426C200.246 244.384 199.355 244.31 198.161 244.154C195.751 243.468 193.645 242.866 191.539 242.264C190.756 241.676 189.973 241.089 189.432 240.683C191.056 236.042 192.995 231.694 194.087 227.144C196.501 217.082 201.496 207.974 204.407 198.101C205.945 192.884 206.753 187.877 205.98 182.323C204.872 174.371 204.849 166.269 204.353 158.231C204.253 156.612 204.108 154.996 204.015 153.193Z" fill="#F79526"/>
<path d="M227.427 85.3946C228.892 85.5479 230.364 85.6592 231.817 85.8923C232.085 85.9353 232.273 86.4712 232.509 87.14C232.662 89.2064 232.804 90.9124 232.807 92.6646C230.398 96.2347 228.128 99.7585 225.75 103.45C224.124 102.037 222.728 100.737 221.228 99.5732C220.772 99.2195 219.878 98.9304 219.438 99.1404C217.472 100.078 215.597 101.208 213.132 102.578C221.282 103.239 228.8 103.849 236.425 104.542C236.161 105.121 235.888 105.767 235.401 106.083C233.481 107.324 231.494 108.46 229.383 109.654C228.02 110.388 226.879 111.423 225.568 111.724C224.35 112.004 222.95 111.502 221.308 111.305C221.667 111.913 221.805 112.149 221.944 112.383C223.37 114.787 224.796 117.191 226.223 119.595C225.872 119.808 225.522 120.02 224.812 120.226C220.158 120.553 215.863 120.886 211.561 121.072C210.76 120.227 209.892 119.596 209.205 118.808C208.817 118.364 208.376 117.496 208.561 117.098C210.016 113.968 211.132 110.64 215.31 109.761C217.936 109.208 220.382 107.804 222.909 106.781C220.7 105.679 218.51 105.215 216.403 104.506C214.779 103.961 213.684 104.259 212.517 105.544C209.611 108.745 206.621 111.885 202.146 112.97C201.691 113.08 201.175 113.796 201.064 114.312C200.663 116.169 200.425 118.061 199.991 119.876C198.181 118.542 196.411 117.377 194.849 115.98C190.991 112.531 187.229 108.976 183.612 105.469C184.486 105.345 185.21 105.306 185.863 105.071C191.105 103.175 196.335 101.247 201.563 99.3126C202.118 99.1072 202.633 98.7938 203.167 98.5305C203.135 98.4428 203.103 98.3552 203.071 98.2675C198.272 98.8353 193.473 99.403 188.674 99.9708C190.272 97.9672 191.627 95.6843 193.532 94.0329C195.772 92.0904 197.398 89.8631 198.74 87.3289C198.579 88.373 198.294 89.3326 197.967 90.4368C201.177 90.6313 204.083 90.8074 206.99 90.9835C207.085 90.8084 207.18 90.6333 207.275 90.4583C206.015 89.0773 204.74 87.7107 203.502 86.3106C202.632 85.3257 201.813 84.2952 200.972 83.285C202.315 83.2926 203.659 83.3002 205.24 83.4584C207.697 84.4231 209.917 85.2372 212.251 86.151C213.022 86.7635 213.604 87.5118 214.349 87.7469C217.216 88.6527 220.135 89.3944 223.026 90.1663C223.017 90.1352 223.045 90.1921 223.105 90.2768C223.164 90.3614 223.363 90.4224 223.363 90.4224C223.363 90.4224 223.568 90.3891 223.737 90.4282C226.009 90.8226 228.112 91.1779 230.268 91.5424C230.533 88.7024 229.605 86.7465 227.427 85.3946Z" fill="#C8EAF5"/>
<path d="M189.047 203.916C179.719 201.559 170.392 199.202 160.911 196.807C165.246 184.555 169.486 172.575 173.776 160.45C175.516 160.753 177.177 161.042 179.135 161.394C179.897 161.554 180.363 161.652 181.012 161.792C182.665 162.125 184.135 162.417 185.638 162.843C186.375 163.02 187.079 163.063 187.782 163.106C189.775 163.481 191.767 163.857 193.852 164.483C193.387 169.133 192.824 173.531 192.275 177.932C191.194 186.593 190.122 195.254 189.047 203.916Z" fill="#F5D41F"/>
<path d="M193.682 51.4279C191.409 49.2343 191.165 47.5186 192.972 44.4918C194.535 43.9686 195.948 43.6694 197.096 42.9493C199.226 41.6125 201.484 41.1088 203.943 41.1685C204.862 41.1909 205.787 41.1347 206.704 41.0583C207.538 40.9888 208.365 40.8433 209.173 40.7341C205.908 37.4759 202.274 36.5683 198.056 38.1012C196.319 38.7325 194.615 38.5853 193.336 36.979C193.582 32.4054 196.356 29.1878 200.622 27.996C202.539 27.4604 204.427 26.5042 206.063 25.3599C208.668 23.5372 211.21 23.1557 213.96 24.7956C215.738 25.8552 217.382 27.1935 219.555 25.5577C219.812 25.3641 220.609 25.7576 221.089 26.0063C226.696 28.9086 229.358 33.9348 230.788 39.7438C232.228 45.5977 230.46 50.7383 226.893 55.3923C226.334 56.1208 225.772 56.846 224.994 57.6549C224.352 57.8303 223.864 57.8212 223.513 58.0352C222.286 58.7815 221.107 59.6049 219.982 60.235C219.534 58.578 219.016 57.085 218.452 55.4615C216.591 56.7208 215.282 57.6604 213.915 58.5065C213.355 58.8531 212.57 59.3306 212.057 59.1787C209.317 58.3675 206.63 57.3761 203.784 56.3987C205.069 53.7606 206.228 51.3822 207.552 48.6653C206.547 48.8962 205.869 49.0046 205.222 49.2086C201.592 50.3523 197.998 51.6908 194.068 51.0277C193.965 51.0103 193.812 51.2879 193.682 51.4279ZM215.301 41.5892C215.042 41.6389 214.783 41.6885 214.937 41.659C216.103 42.8721 217.392 44.212 218.596 45.4638C218.898 42.9433 218.033 41.7603 215.301 41.5892Z" fill="#F5D41F"/>
<path d="M161.084 140.978C159.918 139.29 158.965 137.423 157.8 135.7C153.632 129.536 148.229 125.467 140.019 125.693C139.923 123.432 139.929 121.221 140.448 119.137C140.875 117.424 140.386 116.439 139.221 115.289C137.121 113.215 135.213 110.946 133.225 108.758C133.287 108.081 133.348 107.405 133.486 106.412C134.086 103.109 134.8 100.11 133.133 97.2887C133.982 97.4136 134.691 97.7078 135.351 97.623C141.278 96.8618 147.06 97.4896 152.837 98.9487C157.96 100.242 162.56 102.531 166.941 105.374C166.218 110.226 165.551 115.088 164.76 119.93C163.62 126.916 162.39 133.888 161.084 140.978Z" fill="#C8E5F8"/>
<path d="M167.056 105.265C162.56 102.531 157.959 100.242 152.837 98.9486C147.06 97.4896 141.278 96.8618 135.351 97.623C134.691 97.7077 133.982 97.4136 133.063 97.1519C131.827 95.4887 130.944 93.8682 129.787 92.4746C128.379 90.7781 127.271 88.3438 124.281 89.2904C122.925 88.3858 121.57 87.4812 119.979 86.4333C119.053 85.8811 118.361 85.4721 117.67 85.0631C116.95 84.4095 116.231 83.7558 115.487 82.9618C124.884 82.6815 134.306 82.5569 143.728 82.3961C150.241 82.285 156.753 82.1091 163.265 81.9923C165.791 81.947 168.318 81.9849 171.071 81.9849C170.724 84.1153 170.339 86.432 169.969 88.7512C169.229 93.4016 168.506 98.0548 167.752 102.703C167.618 103.531 167.368 104.34 167.056 105.265Z" fill="#D8EDFA"/>
<path d="M123.542 162.081C124.874 161.83 125.682 162.252 126.608 163.49C127.522 164.71 129.403 165.262 130.926 165.966C134.649 167.686 138.516 169.048 142.678 168.241C144.764 167.836 146.762 166.913 148.756 166.113C149.87 165.666 150.982 165.107 151.933 164.385C152.952 163.611 153.737 162.537 154.705 161.684C155.637 160.862 156.67 160.154 157.81 159.382C157.338 163.299 156.729 167.234 156.088 171.164C155.156 176.886 154.2 182.605 153.087 188.515C151.379 189.251 149.867 189.93 148.283 190.298C147.316 190.523 145.788 189.819 145.287 190.314C143.078 192.494 140.041 189.169 137.982 191.586C137.896 191.686 137.182 191.38 136.862 191.133C134.738 189.493 132.699 190.142 130.664 191.299C129.559 186.435 128.515 181.555 127.33 176.71C126.146 171.869 124.822 167.061 123.542 162.081Z" fill="#C8E5F8"/>
<path d="M249.684 10.0454C250.169 7.03065 250.858 4.05462 251.609 0.931871C270.734 0.785156 289.797 0.785156 309.341 0.785156C308.898 2.20043 308.567 3.34931 308.179 4.47849C306.239 10.1188 306.234 10.1168 300.399 10.117C290.826 10.1174 281.253 10.118 271.285 10.1211C269.461 10.1221 268.032 10.1206 266.603 10.1192C261.031 10.1075 255.46 10.0958 249.684 10.0454Z" fill="#D0EAEF"/>
<path d="M130.655 191.457C132.699 190.142 134.738 189.493 136.862 191.133C137.182 191.38 137.896 191.686 137.982 191.586C140.042 189.169 143.078 192.494 145.287 190.314C145.788 189.819 147.316 190.524 148.283 190.298C149.867 189.93 151.379 189.252 153.079 188.696C151.966 196.171 150.666 203.649 149.448 211.139C149.153 212.951 148.678 214.014 146.435 213.843C142.137 213.514 137.814 213.515 133.297 213.381C133.038 213.339 132.983 213.294 132.928 213.25C135.336 210.96 134.056 209.102 132.382 207.1C131.721 206.309 131.353 205.072 131.297 204.014C131.113 200.49 131.132 196.956 131.07 193.134C131.023 192.711 130.941 192.613 130.82 192.547C130.762 192.236 130.703 191.926 130.655 191.457Z" fill="#D8EDFA"/>
<path d="M121.343 137.571C119.761 137.929 118.179 138.288 116.444 138.744C114.807 139.15 113.323 139.458 111.552 139.652C107.911 139.775 104.54 139.894 101.213 140.341C100.465 140.442 99.8712 141.688 99.2065 142.407C99.2065 142.407 99.1667 142.391 99.0456 142.389C98.32 142.887 97.7154 143.387 97.1107 143.886C94.9813 145.974 92.8519 148.061 90.6708 150.283C90.2391 150.435 89.859 150.453 89.479 150.47C89.7338 149.817 89.9887 149.163 90.3327 148.28C88.9693 149.031 87.6489 149.759 86.0354 150.427C85.4141 150.534 85.086 150.7 84.758 150.865C84.375 150.957 83.9921 151.048 83.6091 151.139C83.5708 150.61 83.3211 149.965 83.5366 149.576C84.0413 148.666 84.7763 147.884 85.4036 147.039C85.7966 146.51 86.1631 145.962 86.5415 145.422C86.4321 145.279 86.3226 145.136 86.2132 144.994C84.8004 145.58 83.3876 146.165 81.9748 146.751C81.8441 146.604 81.7134 146.457 81.5827 146.309C83.5182 144.608 85.4538 142.906 87.6234 140.998C86.022 140.219 84.7453 139.598 83.4685 138.977C83.4921 138.844 83.5156 138.711 83.5392 138.578C84.5907 138.502 85.6422 138.426 86.9978 138.265C90.0628 137.915 92.8235 137.647 95.5845 137.383C101.663 136.8 106.659 133.423 112.187 130.993C113.74 130.251 115.146 129.559 116.552 128.866C118.202 127.983 119.851 127.099 121.771 126.104C123.585 125.155 125.096 124.741 126.485 126.425C126.609 126.602 126.713 126.653 126.845 126.641C126.849 126.628 126.832 126.65 126.842 126.783C127.033 127.073 127.214 127.23 127.401 127.38C127.407 127.374 127.423 127.369 127.373 127.543C127.42 128.26 127.441 128.832 127.628 129.343C128.681 132.21 128.651 132.28 126.073 134.092C124.472 135.217 122.918 136.409 121.343 137.571Z" fill="#F26525"/>
<path d="M86.414 71.9108C86.0066 71.5178 85.5842 71.1391 85.1947 70.7292C84.0066 69.4787 82.3843 68.4904 83.1151 66.2677C83.8848 63.9267 85.0708 62.2451 87.8186 62.3063C88.0898 62.3123 88.3643 62.1675 88.7909 62.0195C89.267 61.3964 89.5801 60.8408 89.9143 60.2982C90.3403 59.6066 90.7834 58.9256 91.5285 58.2218C94.84 58.1568 94.3685 60.5477 94.618 62.3767C101.3 60.4906 101.325 60.4587 101.5 53.8212C101.994 51.852 101.206 49.6057 103.485 48.0518C102.19 47.896 100.895 47.7401 99.4642 47.5499C98.3297 47.446 97.3308 47.3765 96.3319 47.307C95.8901 43.4468 97.0084 41.7581 100.884 40.4315C102.706 39.808 105.317 41.328 106.827 44.0993C106.666 45.4771 106.578 46.6891 106.489 47.9036C107.379 47.9036 108.633 47.9036 109.886 47.9036C109.421 48.6225 108.8 49.3618 110.01 49.9827C108.837 50.27 107.794 50.4192 106.578 50.5931C108.66 52.2546 110.454 53.6867 112.248 55.1187C112.455 58.1766 110.393 59.9323 108.187 61.8617C107.856 62.1324 107.768 62.286 107.68 62.4396C107.68 62.4396 107.681 62.4169 107.558 62.4204C107.378 62.5719 107.32 62.72 107.263 62.868C107.263 62.868 107.262 62.8483 107.106 62.7867C106.787 61.4271 106.689 60.1162 106.431 58.8372C106.327 58.3183 105.963 57.5874 105.559 57.4633C105.115 57.3266 104.415 57.6702 103.956 57.9905C102.706 58.865 103.233 60.0548 103.377 61.1527C102.753 61.2723 101.947 61.3182 101.867 61.5826C101.186 63.8377 100.636 66.1324 99.9849 68.5438C98.9208 69.986 97.9193 71.2996 96.7345 72.6208C95.5154 72.7194 94.4724 72.7618 93.445 72.9109C90.9963 73.2663 88.5928 73.4031 86.414 71.9108Z" fill="#12232D"/>
<path d="M84.863 150.981C85.0861 150.699 85.4142 150.534 85.8815 150.428C85.0195 159.438 84.2989 168.431 82.9153 177.322C82.0389 182.953 82.9165 188.231 84.3201 193.536C86.0335 200.012 85.6195 206.361 83.4962 212.805C80.2927 212.939 77.1726 212.888 74.0552 212.957C72.6183 212.989 72.1298 212.514 72.4436 211.084C74.2053 203.055 75.9532 195.022 77.6663 186.983C80.1555 175.301 82.6128 163.612 85.0695 151.923C85.1234 151.666 85.0057 151.374 84.863 150.981Z" fill="#D8EDFA"/>
<path d="M266.596 28.8361C264.783 36.1993 262.971 43.5625 261.085 51.2244C262.459 51.3127 263.742 51.3952 265.573 51.5128C263.32 60.0164 261.12 68.3201 258.893 76.8159C258.866 77.0079 258.814 77.0093 258.814 77.0093C257.269 76.9393 255.723 76.8692 253.842 76.784C256.156 68.5138 258.428 60.39 260.788 51.9506C259.086 51.8518 257.657 51.7689 255.914 51.6678C256.521 49.2322 257.038 46.9407 257.666 44.6797C259.151 39.3354 260.688 34.0056 262.391 28.5805C263.925 28.5224 265.376 27.3434 266.596 28.8361Z" fill="#D0EAEF"/>
<path d="M182.695 154.778C184.119 149.709 185.595 144.653 186.954 139.566C188.317 134.461 189.396 129.274 190.942 124.228C191.575 122.159 193.108 120.365 194.423 118.352C196.309 119.349 198.003 120.44 199.697 121.531C197.606 126.745 195.574 131.984 193.398 137.162C192.362 139.628 191.132 142.023 189.847 144.372C188.47 146.888 187.787 149.417 188.543 152.294C188.82 153.35 188.606 154.535 188.444 155.799C187.79 155.79 187.308 155.643 186.826 155.496C186.89 155.96 187.021 156.429 186.994 156.888C186.978 157.157 186.711 157.41 186.405 157.695C185.562 157.818 184.825 158.109 184.19 157.962C183.493 157.801 182.889 157.236 182.244 156.693C182.394 155.951 182.544 155.365 182.695 154.778Z" fill="#2E4071"/>
<path d="M229.531 109.636C231.494 108.46 233.481 107.324 235.4 106.083C235.888 105.767 236.161 105.121 236.431 104.383C236.318 103.717 236.305 103.294 236.449 102.906C238.527 103.439 240.447 103.937 242.368 104.434C243.504 105.554 244.641 106.674 245.797 108.051C242.678 112.885 239.538 117.462 236.325 121.948C234.526 121.829 232.794 121.873 231.08 121.723C230.619 121.683 229.851 121.071 229.833 120.693C229.659 117.011 229.614 113.323 229.531 109.636Z" fill="#82C99A"/>
<path d="M103.532 61.1803C103.233 60.0549 102.705 58.8651 103.956 57.9906C104.414 57.6703 105.115 57.3267 105.559 57.4635C105.963 57.5875 106.327 58.3184 106.431 58.8373C106.689 60.1163 106.787 61.4272 107.115 62.789C107.412 63.9233 107.435 65.0204 107.694 66.0593C108.501 69.3066 109.397 72.5319 110.332 76.0648C108.706 78.8146 107.108 81.3232 103.754 81.8609C102.774 82.018 101.888 82.7638 100.959 83.2399C100.249 83.5005 99.5396 83.7612 98.6364 84.093C98.4766 82.8934 98.3314 81.8031 98.22 80.3548C98.6144 77.5678 99.9265 75.3059 99.4059 72.7016C99.2893 72.1179 99.8747 71.4098 100.083 70.7422C100.372 69.8161 100.61 68.8741 100.871 67.9466C100.873 67.9544 100.858 67.9541 100.971 67.9129C101.157 67.7309 101.229 67.5902 101.366 67.3261C102.13 66.3179 102.812 65.4199 103.532 64.5518C104.472 63.4169 104.652 62.3046 103.532 61.1803Z" fill="#F26525"/>
<path d="M227.284 85.3487C229.605 86.7467 230.533 88.7026 230.268 91.5426C228.111 91.1781 226.009 90.8228 223.672 90.3478C223.315 90.1337 223.184 90.1217 223.045 90.1923C223.045 90.1923 223.017 90.1354 223.016 90.0155C222.325 88.9168 221.656 87.9215 220.936 86.9648C220.436 86.301 219.915 85.2008 219.318 85.1411C216.768 84.886 214.187 84.9449 211.501 84.8412C211.176 84.4538 210.968 84.1146 210.759 83.7753C212.297 83.4349 213.836 83.0946 215.75 82.7692C217.607 82.8007 219.106 82.6858 220.569 82.8642C222.8 83.1363 223.751 82.2465 224.004 80.0532C224.188 78.4561 224.805 76.9088 225.317 75.0176C226.117 75.9942 226.546 76.6411 227.094 77.163C228.614 78.6105 229.501 78.4337 229.984 76.4034C230.348 74.8759 230.31 73.2525 230.441 71.671C230.54 70.4867 229.929 69.2587 231.346 68.2565C233.482 66.746 233.21 64.3527 230.98 62.6624C232.053 60.5015 233.4 62.2152 234.597 62.2188C236.863 64.4286 237.245 68.3283 235.435 72.0236C234.417 74.1027 233.327 76.1644 232.05 78.089C231.666 78.6665 230.562 78.9386 229.755 79.0162C228.958 79.0928 228.12 78.7467 227.032 78.5333C227.1 80.8432 223.17 82.9823 227.284 85.3487Z" fill="#2E4071"/>
<path d="M193.774 51.5384C193.812 51.2879 193.965 51.0103 194.068 51.0277C197.998 51.6908 201.592 50.3523 205.222 49.2086C205.869 49.0046 206.547 48.8962 207.552 48.6653C206.228 51.3822 205.069 53.7606 203.784 56.3987C206.63 57.3761 209.317 58.3675 212.057 59.1787C212.57 59.3306 213.355 58.8531 213.915 58.5065C215.282 57.6604 216.591 56.7208 218.452 55.4615C219.016 57.085 219.534 58.578 219.897 60.2897C219.429 60.8352 219.117 61.162 218.804 61.4888C215.613 63.2698 212.163 63.0586 208.527 62.6094C205.952 61.8857 203.556 61.3441 201.161 60.8025C199.148 60.612 198.167 59.2594 197.312 57.6117C196.257 55.5761 195.023 53.6323 193.774 51.5384Z" fill="#4559A9"/>
<path d="M189.2 203.934C190.122 195.254 191.195 186.593 192.275 177.932C192.824 173.531 193.387 169.133 194.029 164.589C195.078 164.576 196.042 164.705 196.838 164.813C195.614 178.364 194.408 191.724 193.19 205.212C192.053 204.189 191.301 202.051 189.2 203.934Z" fill="#2E4071"/>
<path d="M191.463 242.417C193.645 242.866 195.751 243.468 197.977 244.156C195.87 247.844 193.147 251.243 191.547 255.105C189.764 259.409 189.002 264.134 187.643 268.852C184.527 267.609 184.217 266.99 184.331 263.931C184.445 260.88 184.391 257.823 184.411 254.769C186.048 254.204 186.967 253.002 187.602 251.436C188.81 248.459 190.119 245.523 191.463 242.417Z" fill="#2E4071"/>
<path d="M83.4232 273.467C81.839 273.449 80.2547 273.432 78.2841 273.396C74.7991 273.206 71.6992 273.054 68.6029 272.848C67.941 272.804 66.8088 273.081 67.3298 271.676C69.7252 270.658 72.0687 269.468 74.5462 268.72C75.3367 268.482 76.4707 269.453 77.4716 269.802C77.9389 269.965 78.4637 269.963 79.0616 269.635C78.4975 269.109 77.9335 268.583 77.3694 268.057C77.4451 267.923 77.5208 267.789 77.5964 267.656C78.7465 267.929 79.8966 268.202 81.3168 268.539C80.6601 267.272 80.2561 266.493 79.9163 265.837C81.104 264.657 82.1277 268.035 83.0396 265.207C84.3877 263.811 87.0035 263.751 86.5268 260.988C87.6171 261 88.5149 261.022 89.3874 261.226C89.3885 262.307 89.3037 263.225 89.4627 264.099C89.9188 266.607 90.4737 269.096 90.8935 271.718C90.4025 272.066 90.0303 272.415 89.6092 272.489C87.5544 272.855 85.4865 273.148 83.4232 273.467Z" fill="#F5D41F"/>
<path d="M241.547 250.147C243.595 249.427 245.698 248.849 247.964 248.271C248.833 252.144 249.037 256.201 250.372 259.844C251.972 264.211 254.537 268.226 256.658 272.621C255.104 272.874 253.575 272.898 252.063 272.915C252.08 272.908 252.086 272.944 252.054 272.833C251.892 272.646 251.762 272.57 251.653 272.493C251.673 272.491 251.648 272.522 251.633 272.404C251.487 272.21 251.357 272.134 251.241 272.051C251.256 272.044 251.24 272.074 251.222 271.956C251.071 271.769 250.937 271.701 250.819 271.626C250.834 271.62 250.813 271.644 250.82 271.493C248.853 269.015 246.88 266.689 244.907 264.362C245.696 262.84 245.506 261.341 244.935 259.783C243.779 256.634 242.708 253.455 241.547 250.147Z" fill="#2E4071"/>
<path d="M230.929 62.7974C233.21 64.3525 233.482 66.7458 231.346 68.2564C229.929 69.2586 230.54 70.4865 230.442 71.6708C230.311 73.2523 230.348 74.8758 229.984 76.4032C229.501 78.4336 228.615 78.6104 227.094 77.1629C226.546 76.6409 226.117 75.9941 225.317 75.0175C224.806 76.9086 224.188 78.456 224.004 80.0531C223.752 82.2464 222.801 83.1361 220.57 82.8641C219.107 82.6857 217.608 82.8006 215.916 82.7436C217.766 79.5543 219.826 76.4056 222.055 72.9841C222.235 71.9379 222.239 71.1643 222.254 70.391C222.314 67.3516 222.895 66.8617 225.835 67.4874C227.078 67.7518 227.945 67.5834 228.585 66.2916C229.202 65.0459 230.135 63.9558 230.929 62.7974Z" fill="#4559A9"/>
<path d="M112.041 131.042C106.659 133.423 101.663 136.8 95.5847 137.383C92.8237 137.647 90.063 137.915 87.1287 138.165C87.1186 135.384 87.2819 132.619 87.5288 129.704C87.6233 130.627 88.1479 130.964 89.2218 130.925C94.4711 130.733 99.7236 130.628 104.974 130.457C107.079 130.389 109.181 130.23 111.524 130.248C111.856 130.603 111.948 130.822 112.041 131.042Z" fill="#4559A9"/>
<path d="M260.615 274.177C266.564 274.672 272.512 275.168 278.461 275.663C278.449 275.775 278.437 275.888 278.425 276C259.595 276 240.766 276 221.936 276C221.927 275.838 221.917 275.677 221.907 275.515C228.665 274.499 235.416 273.44 242.185 272.508C243.332 272.35 244.555 272.738 245.967 273.027C246.344 273.838 246.497 274.497 246.65 275.155C246.804 275.157 246.958 275.159 247.112 275.16C247.263 273.314 247.414 271.468 247.59 269.314C248.857 270.23 249.835 270.937 250.813 271.644C250.813 271.644 250.834 271.62 250.813 271.757C250.942 271.954 251.091 272.014 251.241 272.074C251.241 272.074 251.256 272.044 251.233 272.181C251.356 272.386 251.503 272.454 251.649 272.522C251.649 272.522 251.673 272.491 251.655 272.624C251.787 272.819 251.937 272.881 252.087 272.944C252.087 272.944 252.08 272.908 252.052 273.068C254.226 275.836 258.412 276.763 261.859 275.326C261.417 274.918 261.016 274.548 260.615 274.177Z" fill="#E8E7E5"/>
<path d="M200.125 119.939C200.425 118.061 200.663 116.169 201.064 114.312C201.175 113.796 201.691 113.08 202.146 112.97C206.621 111.885 209.611 108.745 212.517 105.544C213.684 104.259 214.779 103.961 216.403 104.507C218.51 105.215 220.7 105.679 222.909 106.781C220.382 107.804 217.936 109.208 215.31 109.761C211.132 110.64 210.016 113.968 208.561 117.098C208.375 117.496 208.817 118.364 209.205 118.808C209.892 119.596 210.76 120.227 211.517 121.138C211.403 121.427 211.312 121.483 211.209 121.518C210.172 121.518 209.134 121.518 207.981 121.518C207.663 118.379 207.361 115.401 207.059 112.424C206.909 112.358 206.758 112.291 206.607 112.225C204.713 114.844 202.819 117.463 200.732 120.189C200.4 120.177 200.263 120.058 200.125 119.939Z" fill="#82C99A"/>
<path d="M101.078 83.3157C101.888 82.7637 102.774 82.0179 103.754 81.8607C107.108 81.3231 108.706 78.8144 110.423 76.207C110.833 76.2019 111.216 76.4622 111.614 76.4873C113.824 76.6264 114.714 77.9245 114.821 80.1333C114.118 86.0956 108.668 87.5479 105.115 91.1591C103.717 88.3876 102.457 85.8896 101.078 83.3157Z" fill="#4559A9"/>
<path d="M83.5684 273.561C85.4864 273.148 87.5543 272.855 89.6092 272.49C90.0303 272.415 90.4025 272.066 91.0996 271.726C100.369 271.329 109.336 270.845 118.304 270.846C123.707 270.847 129.11 271.603 134.542 272.185C134.192 274.259 136.134 273.69 136.827 274.454C134.869 274.317 132.913 274.167 130.954 274.045C126.845 273.79 122.736 273.489 118.623 273.321C114.319 273.145 110.011 273.048 105.704 273.024C103.384 273.011 101.063 273.262 98.7411 273.324C93.7326 273.458 88.7229 273.547 83.5684 273.561Z" fill="#E8E7E5"/>
<path d="M96.2236 47.3987C97.3308 47.3765 98.3297 47.446 99.5192 47.6701C99.259 49.3303 99.2947 50.6587 100.597 51.8569C101.091 52.312 101.146 53.2426 101.402 53.9564C101.325 60.4586 101.3 60.4905 94.6179 62.3767C94.3685 60.5477 94.84 58.1568 91.6727 58.1741C92.4958 55.5644 93.4416 52.9668 94.493 50.4124C94.9141 49.3893 95.5676 48.4615 96.2236 47.3987Z" fill="#F26525"/>
<path d="M254.653 107.884C252.82 110.782 250.938 113.65 249.17 116.587C247.788 118.884 245.767 119.248 243.384 118.803C242.625 118.661 241.865 118.517 241.053 118.113C242.586 115.301 244.186 112.759 245.745 110.191C246.088 109.626 246.283 108.971 246.547 108.358C247.088 107.721 247.629 107.085 248.44 106.348C250.692 106.794 252.672 107.339 254.653 107.884Z" fill="#2E4071"/>
<path d="M230.981 62.6623C230.135 63.9559 229.202 65.046 228.585 66.2917C227.945 67.5835 227.078 67.7519 225.835 67.4875C222.895 66.8618 222.314 67.3516 222.254 70.391C222.239 71.1644 222.235 71.938 222.137 72.8518C221.612 71.2394 221.037 69.5065 220.777 67.7277C220.54 66.1074 220.644 64.4372 220.795 62.5984C222.538 61.0414 224.083 59.675 225.629 58.3086C229.413 57.5616 232.312 59.0319 234.624 62.06C233.4 62.2151 232.054 60.5015 230.981 62.6623Z" fill="#F5D41F"/>
<path d="M266.715 28.7313C265.375 27.3434 263.925 28.5225 262.451 28.4352C263.243 24.4414 264.153 20.5012 265.086 16.5664C265.569 14.5295 266.093 12.5021 266.6 10.2948C268.032 10.1206 269.461 10.1221 271.085 10.1236C270.079 15.2127 268.883 20.3029 267.675 25.3902C267.418 26.4743 267.116 27.548 266.715 28.7313Z" fill="#EFF8F9"/>
<path d="M229.384 109.654C229.614 113.323 229.659 117.011 229.834 120.693C229.852 121.071 230.62 121.683 231.08 121.723C232.795 121.873 234.526 121.829 236.307 122.094C235.696 123.495 235.027 124.66 234.359 125.826C231.722 123.813 229.085 121.8 226.335 119.691C224.796 117.191 223.37 114.787 221.944 112.383C221.805 112.149 221.667 111.913 221.309 111.305C222.95 111.502 224.35 112.004 225.568 111.724C226.879 111.423 228.02 110.388 229.384 109.654Z" fill="#71C04D"/>
<path d="M193.261 37.1018C194.615 38.5852 196.319 38.7324 198.056 38.101C202.274 36.5682 205.908 37.4757 209.173 40.734C208.365 40.8432 207.538 40.9887 206.705 41.0581C205.787 41.1346 204.862 41.1907 203.943 41.1684C201.484 41.1087 199.226 41.6124 197.096 42.9492C195.948 43.6693 194.535 43.9684 193.097 44.375C193.03 41.9365 193.107 39.5806 193.261 37.1018Z" fill="#4559A9"/>
<path d="M258.747 77.1574C258.814 77.0093 258.866 77.008 258.884 76.9891C260.298 76.9702 261.694 76.9702 263.418 76.9702C262.615 79.9571 261.876 82.7071 260.916 85.5974C259.146 86.7056 257.597 87.6736 256.048 88.6416C256.249 88.7531 256.45 88.8647 256.652 88.9763C256.829 90.0482 257.005 91.1202 257.182 92.1922C256.339 92.1394 255.497 92.0867 254.4 92.018C255.841 87.0627 257.26 82.1841 258.747 77.1574Z" fill="#F79526"/>
<path d="M136.897 274.466C136.134 273.69 134.193 274.259 134.582 271.995C134.721 268.545 134.849 265.45 135.114 262.295C135.545 262.199 135.84 262.162 136.155 262.302C136.6 263.871 137.025 265.266 137.45 266.66C137.972 267.488 138.494 268.316 139.231 269.26C139.888 270.305 140.331 271.233 140.804 272.225C143.359 271.417 143.946 273.428 145.136 274.869C144.599 274.994 144.263 275.073 143.927 275.151C142.228 275.078 140.529 275.005 138.55 274.831C137.867 274.681 137.464 274.632 137.061 274.583C137.061 274.583 136.967 274.478 136.897 274.466Z" fill="#4559A9"/>
<path d="M257.212 92.3846C257.005 91.1201 256.828 90.0482 256.652 88.9762C256.45 88.8646 256.249 88.7531 256.047 88.6415C257.597 87.6735 259.146 86.7056 260.846 85.7311C261.921 88.8991 261.406 91.7893 259.922 94.7875C258.257 98.1503 257.162 101.794 255.665 105.173C255.789 101.882 256.067 98.7326 256.344 95.5836C256.644 94.5814 256.943 93.5792 257.212 92.3846Z" fill="#2E4071"/>
<path d="M189.86 273.757C193.225 274.053 196.592 274.327 199.955 274.65C202.817 274.925 205.674 275.256 208.533 275.724C194.536 275.724 180.54 275.724 166.544 275.724C166.535 275.622 166.526 275.52 166.517 275.418C170.601 275.143 174.69 274.919 178.768 274.576C181.704 274.328 184.627 273.923 187.795 273.512C188.679 273.34 188.927 275.483 189.86 273.757Z" fill="#E8E7E5"/>
<path d="M211.194 121.679C211.312 121.483 211.403 121.427 211.524 121.286C215.863 120.886 220.158 120.553 224.646 120.234C224.716 121.672 224.593 123.094 224.459 124.686C220.104 124.424 215.761 123.992 211.296 123.494C211.175 122.898 211.177 122.369 211.194 121.679Z" fill="#2E4071"/>
<path d="M189.763 273.63C188.927 275.483 188.678 273.34 187.905 273.393C183.028 270.329 183.554 265.346 183.431 260.067C181.533 261.796 180.161 263.045 178.79 264.294C178.618 264.172 178.447 264.049 178.275 263.926C180.227 260.871 182.178 257.816 184.271 254.765C184.391 257.823 184.445 260.88 184.331 263.931C184.217 266.99 184.527 267.609 187.64 269.028C188.416 270.52 189.042 272.011 189.763 273.63Z" fill="#71C04D"/>
<path d="M188.568 100.061C193.473 99.4031 198.272 98.8353 203.07 98.2676C203.102 98.3552 203.134 98.4429 203.166 98.5305C202.633 98.7938 202.118 99.1072 201.563 99.3127C196.335 101.247 191.104 103.175 185.862 105.071C185.21 105.307 184.486 105.345 183.608 105.44C183.42 105.33 183.422 105.255 183.429 105.181C185.107 103.504 186.784 101.827 188.568 100.061Z" fill="#71C04D"/>
<path d="M183.306 105.207C183.423 105.255 183.42 105.33 183.425 105.434C187.229 108.976 190.991 112.531 194.849 115.981C196.411 117.377 198.181 118.542 199.991 119.876C200.263 120.058 200.401 120.177 200.632 120.311C200.461 120.739 200.198 121.152 199.816 121.548C198.003 120.44 196.309 119.349 194.488 118.216C192.121 116.359 189.871 114.558 187.646 112.726C185.405 110.88 183.191 109.004 180.965 107.141C181.156 106.811 181.347 106.48 181.538 106.15C182.086 105.844 182.634 105.539 183.306 105.207Z" fill="#F26525"/>
<path d="M256.213 95.6362C256.067 98.7327 255.789 101.882 255.526 105.225C255.542 105.418 255.523 105.383 255.443 105.441C255.366 105.859 255.369 106.219 255.372 106.58C255.201 106.964 255.03 107.348 254.756 107.808C252.672 107.339 250.691 106.794 248.538 106.25C250.938 102.731 253.51 99.2098 256.213 95.6362Z" fill="#5A8192"/>
<path d="M200.845 83.3282C201.813 84.2953 202.632 85.3258 203.502 86.3107C204.74 87.7108 206.015 89.0774 207.274 90.4584C207.179 90.6335 207.084 90.8085 206.989 90.9836C204.083 90.8075 201.177 90.6315 197.966 90.437C198.294 89.3327 198.579 88.3731 198.861 87.2479C198.858 87.0822 198.858 87.0861 198.973 87.0082C199.175 86.5719 199.262 86.2136 199.349 85.8553C199.349 85.8553 199.285 85.8177 199.419 85.757C199.616 85.4522 199.681 85.208 199.745 84.9638C200.069 84.433 200.394 83.9021 200.845 83.3282Z" fill="#82C99A"/>
<path d="M144.103 275.203C144.263 275.073 144.599 274.994 145.136 274.869C143.946 273.428 143.359 271.417 140.804 272.225C140.33 271.232 139.888 270.304 139.361 269.256C140.862 267.621 142.54 267.986 144.511 268.839C142.988 269.011 141.732 269.153 140.477 269.294C140.402 269.596 140.328 269.899 140.254 270.201C145.059 268.244 147.267 270.918 149.189 274.816C147.454 274.971 145.867 275.113 144.103 275.203Z" fill="#F5D41F"/>
<path d="M242.344 104.293C240.447 103.937 238.527 103.439 236.386 102.757C235.093 99.254 234.019 95.9362 232.945 92.6184C232.804 90.9125 232.662 89.2065 232.518 87.3136C233.223 89.4509 233.798 91.8269 234.684 94.0812C235.276 95.588 236.172 97.0313 237.179 98.308C238.784 100.342 240.596 102.213 242.344 104.293Z" fill="#D1E6BD"/>
<path d="M234.414 125.938C235.027 124.66 235.695 123.495 236.381 122.184C239.539 117.462 242.679 112.885 245.892 108.177C246.107 108.129 246.247 108.213 246.467 108.328C246.283 108.972 246.087 109.626 245.744 110.191C244.186 112.759 242.586 115.301 240.942 117.946C239.307 120.513 237.667 122.952 236.188 125.484C235.685 126.346 235.312 126.662 234.414 125.938Z" fill="#F26525"/>
<path d="M86.9311 114.895C88.7894 110.267 87.4102 105.615 87.6549 101.047C87.696 100.279 87.7416 99.5113 88.1162 98.7405C88.2574 102.787 88.5786 106.838 88.484 110.879C88.4057 114.222 87.8147 117.551 87.5004 120.892C87.4242 121.701 87.5432 122.528 87.4533 123.524C86.6379 123.813 85.9416 123.925 85.2453 124.038C86.7396 121.213 86.9361 118.146 86.9311 114.895Z" fill="#F5D41F"/>
<path d="M250.82 271.493C249.835 270.937 248.857 270.23 247.59 269.314C247.414 271.468 247.263 273.314 247.111 275.16C246.958 275.159 246.804 275.157 246.65 275.155C246.497 274.497 246.344 273.838 246.144 273.029C245.589 270.866 245.03 268.865 244.6 266.837C244.447 266.114 244.606 265.325 244.764 264.464C246.88 266.689 248.853 269.015 250.82 271.493Z" fill="#71C04D"/>
<path d="M67.1274 271.657C66.8087 273.081 67.9409 272.804 68.6028 272.848C71.6991 273.054 74.799 273.206 78.088 273.422C72.6105 274.402 66.9756 273.817 61.336 273.143C59.4271 272.914 57.4983 272.853 55.567 272.207C59.3531 272.018 63.1391 271.828 67.1274 271.657Z" fill="#E8E7E5"/>
<path d="M89.4129 261.043C88.5151 261.022 87.6172 261 86.3365 260.979C84.454 261.084 82.9545 261.187 81.4549 261.29C81.3986 260.509 81.3423 259.728 81.1437 258.811C81.702 258.59 82.4027 258.506 83.4567 258.425C85.9292 258.452 88.0486 258.476 90.1493 258.65C89.8914 259.548 89.6522 260.296 89.4129 261.043Z" fill="#F26525"/>
<path d="M137.609 266.591C137.025 265.266 136.6 263.871 136.309 262.218C138.012 261.948 139.581 261.937 141.15 261.925C141.327 263.124 141.505 264.323 141.662 265.391C140.4 265.757 139.084 266.139 137.609 266.591Z" fill="#F5D41F"/>
<path d="M260.475 274.132C261.016 274.548 261.417 274.918 261.859 275.326C258.412 276.763 254.226 275.836 252.035 273.075C253.575 272.898 255.104 272.874 256.753 272.745C258.028 273.122 259.182 273.605 260.475 274.132Z" fill="#71C04D"/>
<path d="M141.226 261.757C139.581 261.937 138.012 261.948 136.289 262.043C135.839 262.162 135.545 262.199 134.976 262.218C134.517 261.506 134.332 260.811 134.302 260.064C136.427 259.624 138.397 259.237 140.367 258.849C140.777 258.942 141.187 259.034 141.673 259.134C141.599 259.958 141.45 260.773 141.226 261.757Z" fill="#F26525"/>
<path d="M81.4132 261.42C82.9542 261.187 84.4538 261.083 86.1438 260.989C87.0033 263.751 84.3875 263.811 82.9887 265.061C82.0085 264.657 81.1228 264.139 80.3174 263.668C80.7178 262.864 81.0448 262.207 81.4132 261.42Z" fill="#4559A9"/>
<path d="M186.556 157.671C186.71 157.41 186.978 157.157 186.993 156.888C187.02 156.429 186.89 155.96 186.825 155.495C187.308 155.643 187.79 155.79 188.407 155.955C188.448 157.509 188.389 159.046 188.246 160.576C188.174 161.334 187.947 162.078 187.786 162.967C187.079 163.063 186.375 163.02 185.699 162.699C186.002 160.837 186.279 159.254 186.556 157.671Z" fill="#4559A9"/>
<path d="M225.506 58.2488C224.083 59.675 222.538 61.0414 220.851 62.4345C220.183 62.1446 219.656 61.828 218.967 61.5001C219.117 61.162 219.429 60.8352 219.826 60.4537C221.107 59.6049 222.286 58.7815 223.513 58.0352C223.864 57.8212 224.352 57.8303 224.89 57.772C225.129 57.9342 225.256 58.0616 225.506 58.2488Z" fill="#F26525"/>
<path d="M182.541 154.803C182.544 155.365 182.394 155.951 182.188 156.843C181.698 158.683 181.263 160.216 180.828 161.75C180.363 161.652 179.898 161.554 179.342 161.424C179.548 159.969 179.866 158.55 180.133 157.121C180.374 155.835 180.961 154.932 182.541 154.803Z" fill="#4559A9"/>
<path d="M225.409 205.338C225.415 205.167 225.541 205.006 225.637 205.022C227.965 205.412 230.291 205.821 232.727 206.763C231.237 207.252 229.747 207.741 228.099 208.236C227.132 207.305 226.323 206.368 225.409 205.338Z" fill="#B63031"/>
<path d="M85.2109 124.197C85.9418 123.925 86.6381 123.813 87.4871 123.689C88.2553 124.748 88.8708 125.818 89.4817 126.88C88.6969 127.408 88.0791 127.824 87.3095 128.279C86.4972 126.998 85.8368 125.677 85.2109 124.197Z" fill="#B63031"/>
<path d="M112.259 54.9741C110.454 53.6867 108.66 52.2546 106.578 50.5931C107.794 50.4192 108.837 50.27 110.055 50.1357C110.91 51.7103 111.59 53.2699 112.259 54.9741Z" fill="#4559A9"/>
<path d="M110.005 47.8454C108.633 47.9036 107.379 47.9036 106.489 47.9036C106.578 46.6891 106.666 45.4771 106.911 44.2324C108.086 45.3956 109.105 46.5914 110.005 47.8454Z" fill="#4559A9"/>
<path d="M210.575 83.7381C210.968 84.1145 211.176 84.4537 211.542 84.9646C211.846 85.4412 211.991 85.7463 212.137 86.0513C209.917 85.2372 207.697 84.4231 205.424 83.4857C207.045 83.4752 208.718 83.5881 210.575 83.7381Z" fill="#82C99A"/>
<path d="M201.258 60.9028C203.556 61.3441 205.952 61.8857 208.317 62.5465C205.976 62.1116 203.666 61.5574 201.258 60.9028Z" fill="#F5D41F"/>
<path d="M227.701 210.282C228.776 210.82 229.78 211.416 230.757 212.054C231.185 212.333 231.566 212.688 231.936 213.043C231.963 213.069 231.672 213.534 231.618 213.517C231.132 213.363 230.661 213.157 230.197 212.944C230.007 212.857 229.843 212.714 229.517 212.561C228.784 211.803 228.202 211.079 227.701 210.282Z" fill="#B63031"/>
<path d="M255.419 106.432C255.369 106.22 255.366 105.859 255.46 105.43C255.527 105.669 255.496 105.977 255.419 106.432Z" fill="#2E4071"/>
<path d="M199.222 85.9216C199.262 86.2136 199.175 86.5719 198.972 87.0088C198.935 86.7209 199.015 86.3545 199.222 85.9216Z" fill="#C8EAF5"/>
<path d="M137.161 274.704C137.464 274.632 137.867 274.681 138.376 274.841C138.075 274.909 137.669 274.867 137.161 274.704Z" fill="#E8E7E5"/>
<path d="M199.632 85.0344C199.681 85.208 199.616 85.4521 199.451 85.7743C199.407 85.6032 199.463 85.3542 199.632 85.0344Z" fill="#C8EAF5"/>
<path d="M107.82 62.4281C107.768 62.286 107.856 62.1324 108.088 61.954C108.141 62.0917 108.051 62.2542 107.82 62.4281Z" fill="#F26525"/>
<path d="M107.401 62.8887C107.32 62.72 107.378 62.572 107.569 62.4196C107.649 62.5799 107.594 62.7446 107.401 62.8887Z" fill="#F26525"/>
<path d="M129.067 10.085C128.941 10.0737 128.972 9.88686 128.987 9.79325C129.13 9.73986 129.239 9.80807 129.388 9.98342C129.36 10.0738 129.277 10.0851 129.067 10.085Z" fill="#D0EAEF"/>
<path d="M38.0851 50.9177C37.6827 50.5926 37.222 50.2176 37.2798 49.957C37.9507 46.9327 38.6149 43.9 39.5091 40.9382C39.6641 40.4249 40.8789 39.9357 41.6063 39.9326C55.4353 39.8731 69.2647 39.8882 83.094 39.8878C84.135 39.8878 85.1759 39.8878 86.5704 39.8878C85.786 43.4428 85.1792 46.6768 84.2763 49.8263C84.1191 50.3744 82.7143 50.872 81.8831 50.8761C68.8342 50.9414 55.7848 50.922 42.7355 50.922C41.2462 50.922 39.7569 50.9213 38.0851 50.9177Z" fill="#8FC6E1"/>
<path d="M40.3842 66.6966C35.5082 66.6966 30.6321 66.6966 25.3604 66.6966C26.2875 63.082 27.0661 59.7612 28.0581 56.5052C28.1974 56.0483 29.3807 55.6633 30.0831 55.6592C39.5823 55.604 49.0819 55.6221 58.5814 55.6221C63.3312 55.6221 68.081 55.6221 72.8307 55.6221C73.5894 55.6221 74.3482 55.6221 75.3677 55.6221C74.6033 59.1533 73.9863 62.3835 73.1359 65.5512C72.9972 66.068 71.8318 66.6197 71.1337 66.6293C64.6838 66.7177 58.2322 66.6904 51.4989 66.6926C51.2167 66.6884 51.0791 66.6039 51.0769 66.4441C50.039 64.3185 48.9843 62.3623 47.975 60.3831C47.3879 59.2317 46.8735 58.0434 46.3264 56.8717C46.0727 56.9243 45.819 56.977 45.5653 57.0296C45.7326 58.3185 45.8999 59.6074 46.1071 61.2028C44.8135 60.1188 43.7189 59.2015 42.1412 57.8795C42.2607 58.9546 42.1446 59.5731 42.4002 59.915C43.3955 61.2466 44.5379 62.4674 45.5674 63.7752C46.2194 64.6034 46.7685 65.5123 47.3213 66.5512C47.217 67.389 47.1552 68.0606 47.0624 69.0696C45.8245 68.3871 44.851 67.6803 43.7629 67.299C42.6974 66.9256 41.5152 66.8839 40.3842 66.6966Z" fill="#EFF8F9"/>
<path d="M53.1363 73.5052C61.4195 73.5052 69.7027 73.5052 78.2407 73.5052C77.3189 77.5594 76.453 81.3682 75.5448 85.3629C70.4243 85.3629 65.405 85.3629 60.0893 85.3154C59.7929 85.2678 59.5881 85.2099 59.5674 85.075C57.35 81.1565 55.1534 77.3729 53.0024 73.5697C53.0479 73.5501 53.1363 73.5052 53.1363 73.5052Z" fill="#8FC6E1"/>
<path d="M51.5241 85.3648C43.9072 85.3648 36.2903 85.3648 28.3466 85.3648C29.0369 82.5579 29.6377 80.0616 30.266 77.5722C31.2949 73.4963 31.3024 73.5033 35.6324 73.4975C39.1674 73.4928 42.7025 73.474 46.5875 73.454C47.2029 73.4884 47.4684 73.5303 47.825 73.6724C49.5438 74.1498 49.4512 75.6311 49.7551 76.7779C50.5044 79.6058 51.138 82.4642 51.7434 85.3177C51.6688 85.3251 51.5241 85.3648 51.5241 85.3648Z" fill="#8FC6E1"/>
<path d="M59.5882 85.21C59.5882 85.21 59.793 85.2679 59.8906 85.3096C62.0792 88.5878 64.1703 91.8243 66.4254 95.2852C66.5056 95.997 66.4217 96.4844 66.3378 96.9718C65.1872 98.3833 64.1349 99.8918 62.859 101.18C61.5341 102.517 59.9928 103.641 58.3992 104.868C55.6822 100.525 54.3544 95.7394 53.2642 90.8569C52.8677 89.081 52.2423 87.356 51.6227 85.4863C51.524 85.3649 51.6687 85.3252 51.9167 85.3329C54.6393 85.2971 57.1137 85.2535 59.5882 85.21Z" fill="#F26525"/>
<path d="M66.3643 97.1097C66.4216 96.4843 66.5056 95.9969 66.5355 95.3939C67.0312 95.1518 67.5793 95.0178 68.131 94.9002C71.1329 94.26 72.4823 94.9821 73.7414 97.9252C74.2503 99.1148 74.7243 100.319 75.3599 101.874C76.1236 99.8366 76.7052 98.2855 77.3513 96.5624C76.8343 96.5004 76.4593 96.4555 75.7826 96.3745C78.1027 94.8156 80.2314 93.3853 82.5818 91.8394C82.8764 91.5994 82.9494 91.475 83.0223 91.3506C83.0223 91.3506 82.9926 91.4076 83.1673 91.4051C84.0658 91.0789 84.7896 90.7553 85.5135 90.4316C86.2304 96.0245 84.1904 100.614 80.5301 104.729C79.3037 106.107 78.5275 107.885 77.4012 109.715C76.0957 107.212 74.9065 104.933 73.5915 102.412C73.1099 103.076 72.7726 103.542 72.2192 104.305C70.2028 101.864 68.2968 99.5557 66.3643 97.1097Z" fill="#4559A9"/>
<path d="M85.5666 90.299C84.7899 90.7553 84.0661 91.079 83.1955 91.4211C83.4014 88.9549 83.6791 86.4569 84.1239 83.9888C84.8305 80.0679 85.6486 76.1669 86.4169 72.0842C88.5931 73.4032 90.9965 73.2663 93.4453 72.911C94.4727 72.7619 95.5156 72.7194 96.7909 72.7902C97.1678 74.2594 97.3053 75.5669 97.4427 76.8744C94.7806 77.7725 92.1184 78.6706 89.3229 79.6137C90.3148 81.756 91.2783 83.8369 92.1412 86.0916C90.7069 86.9763 89.3733 87.6873 88.0397 88.3983C87.2329 88.9877 86.4261 89.577 85.5666 90.299Z" fill="white"/>
<path d="M47.7332 73.5722C47.4678 73.5303 47.2024 73.4884 46.8064 73.4302C44.6019 71.2676 42.5279 69.1212 40.4188 66.8357C41.5147 66.8839 42.6969 66.9256 43.7624 67.299C44.8505 67.6803 45.824 68.3872 47.0619 69.0696C47.1547 68.0606 47.2165 67.389 47.477 66.5642C48.8099 66.4754 49.9442 66.5396 51.0786 66.6039C51.0786 66.6039 51.2162 66.6885 51.2943 66.7097C51.8782 68.916 52.384 71.1011 53.0129 73.3957C53.1359 73.5052 53.0475 73.5501 52.8136 73.5395C50.9642 73.5434 49.3487 73.5578 47.7332 73.5722Z" fill="#F26525"/>
<path d="M82.9256 91.3899C82.9494 91.475 82.8765 91.5994 82.6841 91.7342C82.6163 91.6091 82.7043 91.5039 82.9256 91.3899Z" fill="white"/>
<path d="M134.302 260.064C133.241 260.173 132.335 260.231 131.192 260.303C129.075 253.009 127.103 245.529 124.703 238.188C123.115 233.328 120.853 228.69 119.029 223.901C118.532 222.598 118.529 221.108 118.271 219.534C118.202 218.365 118.484 217.198 118.065 216.395C116.608 213.604 114.903 210.942 113.314 208.218C113.238 208.087 113.368 207.835 113.38 207.767C117.103 209.831 120.815 211.887 124.425 214.073C122.574 214.203 120.824 214.203 118.481 214.203C121.072 216.011 123.088 217.418 125.204 218.895C126.055 217.79 126.819 216.797 127.583 215.804C129.688 216.559 130.233 217.884 129.154 219.888C127.208 223.5 128.291 226.74 130.372 229.901C131.793 232.058 132.49 234.4 132.454 237.081C132.394 241.584 132.583 246.1 132.908 250.593C132.978 251.566 133.931 252.603 134.712 253.374C136.54 255.179 138.51 256.84 140.394 258.704C138.397 259.237 136.427 259.624 134.302 260.064Z" fill="#2E4071"/>
<path d="M114.022 213.214C110.359 213.369 106.691 213.365 102.828 213.363C102.751 212.131 102.76 210.874 103.008 209.665C104.265 203.551 105.584 197.45 106.921 191.187C107.972 193.792 108.986 196.554 109.986 199.321C110.104 199.648 110.29 200.056 110.192 200.338C109.214 203.148 110.885 205.228 111.995 207.521C112.847 209.28 113.356 211.204 114.022 213.214Z" fill="#D8EDFA"/>
<path d="M97.4319 160.231C97.4319 160.231 97.5447 160.117 97.6887 159.957C98.5541 158.937 99.2756 158.078 99.997 157.219C99.997 157.219 100.003 157.228 100 157.222C103.368 153.193 107.766 155.773 111.78 155.598C107.24 157.265 102.7 158.931 98.0151 160.669C97.8005 160.726 97.7303 160.712 97.5528 160.575C97.441 160.378 97.4365 160.304 97.4319 160.231Z" fill="#BCE0F6"/>
<path d="M127.629 215.655C126.819 216.797 126.055 217.79 125.204 218.895C123.088 217.418 121.072 216.011 118.482 214.203C120.824 214.203 122.574 214.203 124.518 214.18C125.769 214.215 126.825 214.272 128.036 214.337C127.905 214.763 127.79 215.135 127.629 215.655Z" fill="#C8E5F8"/>
<path d="M99.3898 142.405C99.8712 141.689 100.465 140.442 101.213 140.342C104.54 139.894 107.911 139.775 111.383 139.648C107.524 140.64 103.549 141.521 99.3898 142.405Z" fill="#B63031"/>
<path d="M97.2399 143.895C97.7156 143.387 98.3202 142.887 99.0672 142.391C98.5961 142.897 97.9824 143.401 97.2399 143.895Z" fill="#B63031"/>
<path d="M130.818 192.648C130.941 192.613 131.023 192.711 131.077 192.94C130.952 192.984 130.861 192.888 130.818 192.648Z" fill="#C8E5F8"/>
<path d="M126.443 126.347C125.096 124.741 123.586 125.155 121.903 126.025C121.765 125.225 121.765 124.391 121.765 123.189C126.748 123.943 131.505 124.663 136.768 125.459C135.874 122.999 135.19 120.896 134.312 118.877C134.13 118.46 133.251 118.257 132.655 118.122C129.983 117.516 127.281 117.037 124.625 116.371C123.508 116.09 122.48 115.459 120.849 114.74C125.243 112.576 129.082 110.686 133.073 108.777C135.213 110.946 137.121 113.215 139.221 115.289C140.386 116.439 140.875 117.424 140.449 119.137C139.929 121.221 139.923 123.432 139.819 125.706C142.082 128.428 140.538 130.242 138.636 132.006C138.067 132.533 137.567 133.137 137.056 133.725C133.93 137.322 133.932 137.324 129.454 135.108C130.27 134.372 131.082 133.884 132.441 133.067C130.618 130.997 129.021 129.183 127.424 127.369C127.424 127.369 127.407 127.374 127.412 127.249C127.222 126.966 127.027 126.808 126.832 126.65C126.832 126.65 126.849 126.628 126.809 126.554C126.691 126.36 126.583 126.316 126.443 126.347Z" fill="#4559A9"/>
<path d="M117.503 85.0557C118.361 85.472 119.053 85.881 119.831 86.3716C118.307 87.5965 116.71 88.7587 115.085 89.8791C111.67 92.2322 109.8 95.407 108.945 99.5202C107.529 106.333 105.65 113.05 103.983 119.811C103.548 121.574 103.113 123.341 102.812 125.129C102.73 125.623 103.033 126.265 103.338 126.72C103.739 127.319 104.317 127.801 104.561 128.69C103.866 128.456 103.177 128.199 102.474 127.99C100.805 127.495 100.214 126.552 100.58 124.731C102.63 114.528 104.321 104.244 106.749 94.1342C107.328 91.7261 110.079 89.6824 112.16 87.8429C113.59 86.5789 115.59 85.9571 117.503 85.0557Z" fill="#F5D41F"/>
<path d="M124.182 89.4011C127.272 88.3438 128.379 90.778 129.788 92.4745C130.945 93.8681 131.827 95.4886 132.9 97.1454C134.801 100.11 134.087 103.109 133.463 106.243C133.783 103.191 132.201 101.456 129.367 100.168C126.633 98.9265 124.135 97.1628 121.559 95.5874C120.844 95.1504 120.15 94.634 119.567 94.0375C118.091 92.5286 118.601 91.0111 120.668 90.5024C121.818 90.2194 122.945 89.8451 124.182 89.4011Z" fill="#4559A9"/>
<path d="M88.0257 88.5748C89.373 87.6874 90.7066 86.9764 92.189 86.2332C91.3428 88.41 90.3465 90.6185 89.3533 92.8284C88.9591 93.7056 88.5715 94.5857 88.0121 95.8445C88.0121 93.268 88.0121 91.0097 88.0257 88.5748Z" fill="#F5D41F"/>
<path d="M97.464 77.0417C97.3047 75.567 97.1672 74.2595 96.9736 72.7826C97.9189 71.2996 98.9204 69.9861 100.094 68.4927C100.467 68.1882 100.668 68.0635 100.87 67.9388C100.61 68.8741 100.372 69.816 100.083 70.7422C99.8745 71.4098 99.289 72.1179 99.4057 72.7016C99.9262 75.3059 98.6142 77.5678 98.2101 80.1701C97.9397 79.2985 97.7128 78.2537 97.464 77.0417Z" fill="#B63031"/>
<path d="M112.187 130.993C111.948 130.822 111.855 130.602 111.715 130.274C111.802 130.131 112.024 130.135 112.056 130.058C113.155 127.459 113.382 127.386 116.407 128.808C115.146 129.559 113.74 130.251 112.187 130.993Z" fill="#BCE0F6"/>
<path d="M97.2436 243.893C97.0684 245.554 96.9042 247.176 96.4492 248.712C95.6712 251.338 94.6642 253.895 93.8438 256.51C93.3009 258.24 92.4728 259.272 90.3337 258.484C88.0486 258.476 85.9293 258.452 83.6148 258.395C86.0377 254.29 88.6642 250.223 91.2685 246.141C92.0563 244.907 93.2514 243.688 93.4078 242.362C93.5718 240.971 93.0028 239.277 92.2256 238.049C91.2957 236.578 91.7698 235.533 92.5104 234.415C94.998 230.663 97.5306 226.94 100.058 223.213C100.154 223.072 100.373 223.014 100.966 222.659C100.214 225.657 99.786 228.354 98.853 230.863C97.284 235.084 96.6252 239.354 97.2436 243.893Z" fill="#4559A9"/>
<path d="M99.8363 157.215C99.2755 158.078 98.5541 158.937 97.7215 159.884C97.1164 158.17 98.2684 157.596 99.8363 157.215Z" fill="#4559A9"/>
<path d="M97.3474 160.276C97.4362 160.304 97.4407 160.378 97.4461 160.561C97.353 160.715 97.2589 160.759 97.1649 160.803C97.1976 160.642 97.2304 160.481 97.3474 160.276Z" fill="#4559A9"/>
<path d="M127.373 127.543C129.021 129.183 130.618 130.997 132.441 133.067C131.082 133.884 130.27 134.372 129.359 134.976C126.728 135.93 124.197 136.77 121.505 137.59C122.918 136.409 124.473 135.217 126.073 134.092C128.651 132.28 128.681 132.21 127.628 129.343C127.441 128.832 127.42 128.26 127.373 127.543Z" fill="#B63031"/>
<path d="M232.807 92.6647C234.019 95.9362 235.093 99.254 236.23 102.721C236.305 103.294 236.318 103.717 236.324 104.299C228.799 103.849 221.282 103.239 213.132 102.578C215.597 101.208 217.472 100.078 219.438 99.1404C219.878 98.9305 220.772 99.2196 221.228 99.5732C222.728 100.737 224.123 102.037 225.75 103.45C228.128 99.7586 230.398 96.2347 232.807 92.6647Z" fill="#71C04D"/>
<path d="M212.251 86.1511C211.991 85.7462 211.846 85.4412 211.659 85.0127C214.187 84.9448 216.768 84.8858 219.318 85.1409C219.915 85.2006 220.436 86.3009 220.936 86.9646C221.656 87.9213 222.325 88.9166 223.025 90.0464C220.134 89.3944 217.215 88.6527 214.348 87.7469C213.604 87.5118 213.022 86.7635 212.251 86.1511Z" fill="#4559A9"/>
<path d="M223.104 90.2768C223.184 90.1216 223.315 90.1336 223.503 90.3086C223.567 90.3891 223.362 90.4225 223.362 90.4225C223.362 90.4225 223.164 90.3614 223.104 90.2768Z" fill="#4559A9"/>
<path d="M181.012 161.792C181.263 160.217 181.698 158.683 182.188 156.998C182.888 157.236 183.492 157.801 184.19 157.962C184.825 158.109 185.562 157.818 186.405 157.695C186.279 159.254 186.002 160.837 185.665 162.565C184.135 162.417 182.665 162.125 181.012 161.792Z" fill="#F9F8F9"/>
<path d="M215.439 41.5725C218.033 41.7603 218.898 42.9433 218.596 45.4638C217.392 44.212 216.104 42.872 214.937 41.6589C214.783 41.6884 215.042 41.6388 215.439 41.5725Z" fill="#4559A9"/>
<path d="M126.842 126.783C127.027 126.808 127.222 126.966 127.406 127.255C127.214 127.23 127.033 127.073 126.842 126.783Z" fill="#B63031"/>
<path d="M126.486 126.425C126.583 126.316 126.691 126.36 126.805 126.568C126.713 126.653 126.609 126.602 126.486 126.425Z" fill="#B63031"/>
<path d="M100.872 67.9466C100.669 68.0634 100.468 68.1881 100.157 68.364C100.637 66.1324 101.186 63.8377 101.867 61.5826C101.947 61.3182 102.753 61.2723 103.377 61.1527C104.652 62.3045 104.472 63.4168 103.532 64.5517C102.813 65.4198 102.13 66.3179 101.256 67.3742C101.006 67.6819 100.932 67.818 100.858 67.954C100.858 67.954 100.873 67.9543 100.872 67.9466Z" fill="#4559A9"/>
<path d="M101.5 53.8212C101.146 53.2426 101.091 52.3121 100.597 51.857C99.2947 50.6587 99.259 49.3304 99.6547 47.7046C100.895 47.7402 102.19 47.896 103.485 48.0518C101.205 49.6057 101.994 51.852 101.5 53.8212Z" fill="#B63031"/>
<path d="M100.972 67.9128C100.932 67.818 101.006 67.682 101.191 67.4977C101.23 67.5902 101.157 67.7309 100.972 67.9128Z" fill="#B63031"/>
<path d="M252.054 272.833C251.937 272.882 251.787 272.819 251.635 272.626C251.763 272.57 251.892 272.646 252.054 272.833Z" fill="#71C04D"/>
<path d="M251.633 272.404C251.502 272.454 251.356 272.386 251.218 272.188C251.357 272.134 251.488 272.21 251.633 272.404Z" fill="#71C04D"/>
<path d="M251.222 271.956C251.091 272.014 250.942 271.954 250.798 271.763C250.937 271.701 251.071 271.769 251.222 271.956Z" fill="#71C04D"/>
<path d="M51.0766 66.4442C49.9445 66.5396 48.8102 66.4753 47.5197 66.3981C46.7683 65.5124 46.2192 64.6034 45.5671 63.7752C44.5376 62.4675 43.3952 61.2466 42.3999 59.915C42.1444 59.5731 42.2605 58.9546 42.141 57.8795C43.7186 59.2015 44.8133 60.1188 46.1068 61.2028C45.8997 59.6075 45.7324 58.3186 45.565 57.0296C45.8187 56.977 46.0725 56.9244 46.3262 56.8717C46.8733 58.0434 47.3876 59.2317 47.9748 60.3831C48.9841 62.3623 50.0388 64.3185 51.0766 66.4442Z" fill="#FAC5A4"/>
<path d="M47.8248 73.6724C49.3491 73.5578 50.9646 73.5434 52.7685 73.5591C55.1535 77.3729 57.35 81.1564 59.5674 85.0749C57.1137 85.2534 54.6392 85.297 51.9913 85.3254C51.1378 82.4642 50.5043 79.6058 49.7549 76.7779C49.4511 75.6311 49.5436 74.1498 47.8248 73.6724Z" fill="#B63031"/>
</svg>
