<svg width="33" height="34" viewBox="0 0 33 34" fill="none" xmlns="http://www.w3.org/2000/svg">
<rect y="0.600098" width="32.8" height="32.8" rx="16.4" fill="#DBF0F2"/>
<path d="M19.7332 22.0001C19.7332 21.1161 19.382 20.2682 18.7569 19.6431C18.1318 19.018 17.284 18.6668 16.3999 18.6668M16.3999 18.6668C15.5158 18.6668 14.668 19.018 14.0429 19.6431C13.4178 20.2682 13.0666 21.1161 13.0666 22.0001M16.3999 18.6668C17.7806 18.6668 18.8999 17.5475 18.8999 16.1668C18.8999 14.7861 17.7806 13.6668 16.3999 13.6668C15.0192 13.6668 13.8999 14.7861 13.8999 16.1668C13.8999 17.5475 15.0192 18.6668 16.3999 18.6668ZM13.0666 8.66681V10.3335M19.7332 8.66681V10.3335M10.5666 10.3335H22.2332C23.1537 10.3335 23.8999 11.0797 23.8999 12.0001V23.6668C23.8999 24.5873 23.1537 25.3335 22.2332 25.3335H10.5666C9.64609 25.3335 8.8999 24.5873 8.8999 23.6668V12.0001C8.8999 11.0797 9.64609 10.3335 10.5666 10.3335Z" stroke="#357F90" stroke-width="0.833333" stroke-linecap="round" stroke-linejoin="round"/>
</svg>
