<svg width="366" height="281" viewBox="0 0 366 281" fill="none" xmlns="http://www.w3.org/2000/svg">
<path d="M1.47192 111.062C2.23579 97.8859 4.76733 85.1318 9.65274 72.9186C15.2336 58.9666 23.3585 46.829 33.4382 36.0692C45.6184 23.0672 59.9222 13.5764 76.2777 7.36719C85.7263 3.78011 95.4291 1.25964 105.393 0.386452C112.737 -0.257093 120.175 0.053472 127.563 0.250533C137.976 0.528274 147.962 3.20655 157.728 6.8433C159.64 7.55562 161.481 8.48102 163.538 9.56223C164.501 10.5421 165.212 11.3739 166.069 11.9773C174.289 17.7601 181.698 24.5103 187.617 32.8348C192.898 40.2627 197.951 47.8826 202.824 55.6111C210.88 68.3844 218.378 81.6204 229.742 91.6242C233.821 95.2144 238.207 98.5457 242.833 101.292C246.878 103.693 251.456 105.108 255.665 107.078C243.542 142.901 231.553 178.605 219.482 214.553C220.557 214.622 221.271 214.668 222.187 214.713C223.936 215.163 225.522 215.501 227.017 216.092C228.835 216.812 230.558 217.789 232.355 218.572C233.921 219.254 235.018 218.719 235.586 216.998C238.577 207.93 241.568 198.861 244.587 189.803C246.5 184.061 248.46 178.336 250.407 172.832C250.073 176.598 249.789 180.142 249.382 183.672C248.132 194.492 246.836 205.307 245.512 216.503C246.958 216.79 248.201 217.037 249.629 217.305C251.433 218.153 252.41 217.683 253.322 215.977C255.418 212.054 257.745 208.265 259.988 204.429C265.784 194.52 271.585 184.615 277.379 174.914C274.648 183.92 272.037 192.764 269.159 201.511C266.517 209.543 263.615 217.481 260.773 225.439C259.326 229.491 260.168 229.931 263.569 231.532C264.36 231.903 265.293 231.943 266.358 232.136C267.875 232.473 269.193 232.811 270.587 233.286C270.479 233.684 270.301 234.166 270.108 234.173C260.965 234.483 252.442 237.517 244.065 240.935C235.376 244.481 226.885 248.556 218.212 252.148C213.036 254.291 207.677 255.951 202.4 257.829C186.997 257.976 171.594 258.123 156.003 258.074C156.982 255.422 158.15 252.965 159.454 250.385C160.647 242.801 162.742 235.476 162.232 227.805C162.197 227.265 162.578 226.363 162.992 226.174C167.075 224.311 171.206 222.562 175.427 220.736C175.277 222.375 175.124 224.044 174.889 225.913C174.381 229.885 174.006 233.664 173.492 237.423C173.368 238.331 172.78 239.169 172.275 240.097C171.408 240.946 170.896 241.661 172.03 242.646C172.813 243.327 173.296 244.383 174.069 245.083C175.004 245.929 176.104 246.575 177.132 247.308C177.303 247.081 177.473 246.855 177.643 246.629C177.16 246.015 176.676 245.401 176.113 244.574C176.041 242.527 175.677 240.583 176.13 238.879C177.153 235.039 178.58 231.317 179.97 227.425C181.515 223.682 183.086 220.115 184.266 216.41C184.662 215.167 184.06 213.575 183.854 212.003C183.631 211.766 183.469 211.669 183.323 211.585C183.339 211.599 183.369 211.57 183.271 211.391C182.409 211.037 181.626 210.647 180.884 210.72C177.415 211.061 173.945 211.439 170.5 211.976C166.423 212.611 162.371 213.423 158.288 213.926C158.482 210.636 158.696 207.579 158.915 204.467C161.119 204.467 162.659 204.446 164.199 204.472C166.387 204.51 167.973 203.633 168.887 201.348C172.986 201.343 173.41 200.897 173.498 196.861C173.518 195.937 173.65 195.013 173.768 194.095C174.313 189.843 174.871 185.593 175.506 181.199C175.665 180.067 175.744 179.077 175.854 177.85C176.472 173.463 177.06 169.315 177.674 164.978C181.431 164.978 185.063 164.978 188.781 165.149C189.124 165.842 189.569 166.348 189.608 166.886C190.147 174.257 190.614 181.633 191.133 189.005C191.425 193.154 191.73 197.303 192.165 201.437C192.222 201.971 193.095 202.411 193.799 202.894C198.691 202.643 203.374 202.391 208.046 202.141C207.623 196.437 207.213 190.861 206.794 185.286C206.457 180.796 206.141 176.305 205.761 171.82C204.988 162.687 204.143 153.56 203.396 144.425C202.835 137.567 202.454 130.693 201.859 123.839C201.133 115.471 200.238 107.119 199.472 98.7546C198.767 91.063 198.139 83.3638 197.472 75.6683C197.321 73.9163 196.682 73 194.712 73.043C188.303 73.183 181.889 73.103 175.282 73.1075C174.553 74.0051 173.673 74.8515 173.544 75.8091C172.74 81.7673 172.158 87.7579 171.401 93.7236C170.346 102.038 169.189 110.338 168.099 118.648C167.207 125.449 166.369 132.257 165.471 139.058C164.573 145.856 163.621 152.647 162.71 159.443C161.923 165.315 161.134 171.187 160.393 177.066C159.82 181.604 159.321 186.152 158.677 190.828C155.712 192.172 152.859 193.383 149.986 194.396C149.879 192.501 148.954 190.668 150.793 189.289C151.031 189.111 151.102 188.475 151.033 188.094C150.333 184.213 146.577 181.074 142.486 182.507C140.485 183.63 138.9 184.937 138.554 187.273C137.434 186.688 136.479 186.215 135.391 185.659C133.951 185.249 132.643 184.92 131.142 184.535C130.446 184.297 129.535 184.175 129.501 183.924C129.07 180.691 128.763 177.44 128.58 174.096C128.881 172.933 129.374 171.75 129.089 170.831C128.682 169.519 127.943 167.857 126.903 167.359C125.921 166.889 124.367 167.731 122.967 168.067C122.871 168.139 122.641 168.199 122.547 168.013C121.762 167.378 121.1 166.606 120.375 166.535C117.224 166.229 114.057 166.076 110.892 165.968C108.785 165.896 107.513 165.273 107.79 162.665C108.096 159.797 108.183 156.9 108.293 154.012C108.646 144.74 109.009 135.469 109.257 126.194C109.304 124.434 109.751 123.725 111.49 123.879C115.092 124.196 118.704 124.39 123.017 124.683C123.017 119.788 122.958 115.121 123.048 110.456C123.081 108.77 122.359 108.447 120.986 108.485C118.785 108.547 116.579 108.534 114.378 108.46C112.286 108.389 110.99 107.735 111.199 104.973C111.84 96.5006 112.284 88.0104 112.699 79.5216C112.866 76.1232 113.083 76.0378 116.259 76.3905C119.206 76.7178 122.212 76.4603 125.337 76.4603C125.549 70.8204 125.801 65.3083 125.888 59.7934C125.896 59.2784 124.889 58.3269 124.305 58.2836C116.21 57.6825 108.106 57.2047 99.8055 56.6968C99.2401 57.2274 98.6126 57.7265 98.5505 58.2935C98.1449 61.9959 97.7983 65.7084 97.5518 69.4262C97.0188 77.467 96.5491 85.5124 96.0694 93.5569C95.5694 101.942 95.0673 110.327 94.604 118.714C94.0889 128.037 93.5772 137.361 93.1371 146.688C92.7326 155.263 92.4251 163.842 91.9473 172.498C90.664 174.053 90.4243 175.454 91.9706 176.872C92.4243 177.288 92.6412 177.987 93.0051 178.781C93.0219 179.51 93.1238 180.065 92.9578 180.51C92.0994 182.813 92.9208 183.674 95.1336 183.628C95.6748 185.132 96.1623 186.475 96.767 187.758C97.835 190.023 98.735 192.466 101.41 193.56C102.905 194.368 104.278 195.272 105.759 195.551C109.152 196.189 112.598 196.522 115.967 197.204C115.894 197.888 115.876 198.348 115.839 199.022C116.651 206.543 116.269 214.036 118.897 221.07C119.019 221.396 118.772 221.872 118.699 222.279C117.175 230.768 115.636 239.255 114.135 247.748C113.515 251.258 112.977 254.783 112.402 258.301C98.0871 258.313 83.7716 258.303 69.4565 258.372C68.0373 258.378 66.6201 258.871 64.9979 259.011C64.7938 252.555 64.7938 246.227 64.7938 239.88C62.7413 239.729 61.0686 239.605 59.4432 239.486C58.6424 233.621 58.5894 233.576 52.8462 233.678C52.6026 233.682 52.3591 233.688 52.1155 233.694C48.4675 233.796 48.1603 234.101 47.826 237.848C47.5757 237.847 47.4348 237.864 47.1617 237.769C44.0651 234.511 43.8913 230.301 43.1772 226.356C42.0775 220.283 41.2094 214.163 40.3909 207.925C40.5954 207.299 40.774 206.786 40.6899 206.325C39.8066 201.482 38.9198 196.639 37.9579 191.813C36.7836 185.92 35.5367 180.044 34.5135 174.064C36.0568 174.25 37.4078 174.534 38.7629 175.041C38.7671 176.51 38.7671 177.755 38.7671 179.435C43.2376 179.19 47.3405 179 51.434 178.68C51.8062 178.651 52.1185 177.782 52.5041 177.144C52.8602 175.753 53.1709 174.522 53.5154 173.102C53.517 171.986 53.4691 171.059 53.4548 170.131C53.2855 159.162 53.1229 148.193 52.955 137.224C52.7943 126.73 52.5975 116.236 52.4784 105.742C52.4066 99.4179 52.5051 93.0919 52.4296 86.7682C52.3655 81.4015 52.1346 76.0371 52.0351 70.6705C52.0026 68.9194 52.5983 67.767 54.6331 67.9374C56.498 68.0936 58.3854 67.9353 60.2624 67.9574C61.5302 67.9723 62.3099 67.513 62.2633 66.0425C62.1238 61.6449 61.9938 57.2469 61.846 52.3835C58.4384 52.6331 55.4706 52.9133 52.4968 53.0562C44.5368 53.4389 36.5726 53.7321 28.6158 54.173C28.0351 54.2052 27.4998 55.1376 26.7431 55.6591C26.1954 56.3879 25.5426 57.1137 25.5525 57.8294C25.5995 61.2244 25.9348 64.6162 25.9479 68.0101C25.9551 69.8679 26.7461 70.13 28.209 69.982C30.3841 69.7619 32.5741 69.7048 34.7495 69.4878C36.4156 69.3216 36.7942 70.1128 36.8026 71.7223C36.8297 76.9062 37.0126 82.089 37.1095 87.2727C37.2701 95.8654 37.3965 104.459 37.5632 113.051C37.7746 123.948 38.0485 134.843 38.2227 145.741C38.3114 151.288 38.2409 156.838 38.16 162.509C37.7973 162.632 37.5171 162.634 37.2261 162.45C36.6458 158.597 33.9653 156.55 31.6153 154.026C32.0751 152.543 32.2027 150.574 33.0377 150.156C37.1613 148.096 37.9655 142.312 34.2306 139.099C31.4413 137.535 29.0752 137.472 27.0412 140.33C26.6152 140.929 25.2002 141.12 24.3416 140.948C21.9823 140.475 20.8162 141.424 20.7832 143.948C20.7701 144.948 20.5244 146.098 20.0005 146.907C18.7563 148.827 18.702 150.506 20.6019 151.656C22.2407 152.648 24.21 153.042 25.9411 153.848C24.1122 155.28 23.0405 156.828 23.9751 159.388C24.3352 160.85 24.692 162.098 25.029 163.556C25.5094 166.868 26.0095 169.971 26.3801 173.186C24.4047 176.689 22.5589 180.077 20.5598 183.365C20.199 182.9 19.922 182.561 19.7936 182.168C15.3951 168.723 10.8587 155.325 6.67472 141.808C3.59088 131.844 2.30981 121.478 1.47192 111.062Z" fill="#C9EAF7"/>
<path d="M346.476 113.12C350.986 122.561 353.948 132.567 355.178 142.985C356.062 150.48 356.662 158.171 356.058 165.657C355.359 174.319 353.834 183.045 351.506 191.388C349.01 200.333 345.163 208.864 341.912 217.579C341.766 217.97 341.684 218.387 341.347 219.021C334.991 219.397 334.993 219.397 334.624 224.366C334.614 224.507 334.46 224.637 334.351 224.806C333.086 224.669 331.807 224.53 331.169 224.461C330.092 223.34 329.466 222.104 328.726 222.024C326.179 221.75 323.585 221.769 321.026 221.945C320.481 221.982 319.505 223.228 319.582 223.786C320.034 227.033 318.546 228.041 315.598 227.858C315.596 225.314 313.837 225.04 311.95 225.01C310.569 224.988 309.186 225.043 307.74 224.855C307.498 223.212 307.32 221.779 307.173 220.131C307.359 219.026 307.629 218.139 307.648 217.246C307.697 214.955 307.635 212.661 307.604 210.207C307.549 209.725 307.507 209.405 307.647 208.998C308.134 208.437 308.69 207.973 308.705 207.49C308.879 201.941 310.699 196.849 312.385 191.682C312.945 189.965 312.59 187.919 312.661 185.859C312.252 185.104 311.836 184.513 311.329 183.788C311.05 183.571 310.862 183.488 310.68 183.416C310.685 183.428 310.708 183.423 310.606 183.289C309.789 182.879 309.074 182.603 308.339 182.121C308.292 181.361 308.264 180.807 308.152 180.083C308.445 178.095 308.824 176.276 309.366 174.38C312.049 171.562 312.231 170.361 310.652 167.066C310.513 166.775 310.325 166.406 310.388 166.131C310.688 164.816 310.451 163.879 308.968 163.943C307.468 164.008 307.148 165.07 307.192 166.525C305.277 169.385 303.502 172.146 301.617 175.078C304.467 176.638 303.708 178.478 302.187 180.358C300.382 180.285 300.54 181.243 300.793 182.391C297.196 183.818 294.546 185.955 293.78 190.145C292.286 191.735 290.909 193.21 289.375 194.687C289.006 194.682 288.796 194.676 288.597 194.465C290.079 189.578 291.498 184.877 293.031 180.217C295.97 171.284 298.948 162.365 301.956 153.457C306.508 139.977 311.075 126.502 315.706 113.051C316.295 111.339 315.746 110.751 314.281 110.343C311.772 109.646 309.326 108.648 306.788 108.124C304.546 107.661 302.214 107.672 299.779 107.417C297.141 107.164 296.659 109.441 295.817 111.014C287.543 126.465 279.371 141.975 271.118 157.439C269.743 160.016 268.119 162.447 266.604 164.725C267.132 160.992 267.643 157.474 268.201 153.965C269.943 143.019 271.675 132.072 273.47 121.135C274.193 116.733 275.069 112.358 276.087 107.972C280.964 107.451 285.655 107.103 290.291 106.37C299.844 104.858 309.395 103.548 319.093 103.862C325.075 104.056 330.902 105.043 336.37 107.613C339.828 109.239 343.113 111.27 346.476 113.12Z" fill="#C9EAF7"/>
<path d="M346.455 112.933C343.113 111.269 339.828 109.238 336.37 107.612C330.902 105.042 325.075 104.055 319.093 103.862C309.395 103.548 299.844 104.857 290.291 106.369C285.656 107.103 280.964 107.451 276.089 107.746C276.115 105.505 276.126 103.425 276.647 101.496C277.191 99.4841 276.54 98.7624 274.813 98.24C271.389 97.204 267.912 96.2388 264.648 94.7767C262.251 93.7029 261.559 94.528 260.895 96.7492C259.858 100.215 258.548 103.59 257.16 106.988C256.576 106.968 256.187 106.963 255.799 106.958C251.456 105.107 246.878 103.692 242.833 101.291C238.207 98.5447 233.821 95.2135 229.742 91.6232C218.378 81.6194 210.88 68.3834 202.824 55.6101C197.951 47.8816 192.898 40.2617 187.617 32.8338C181.698 24.5093 174.289 17.7591 166.069 11.9763C165.212 11.3729 164.501 10.5411 163.692 9.6416C171.431 12.7246 178.395 17.402 184.955 22.7718C196.256 32.0219 204.524 43.7435 211.026 57.0639C214.645 64.4784 218.822 71.6265 223.147 78.6243C230.456 90.4522 241.418 93.4036 253.683 90.1634C264.442 87.321 274.847 83.02 285.427 79.4256C297.615 75.2855 309.597 75.2916 321.088 81.8872C330.34 87.1978 337.078 95.1889 342.371 104.593C343.856 107.231 345.087 110.025 346.455 112.933Z" fill="#DBD9D7"/>
<path d="M47.9335 237.848C48.1604 234.101 48.4675 233.796 52.1156 233.694C52.3591 233.687 52.6026 233.682 52.8462 233.678C58.5895 233.575 58.6425 233.621 59.4433 239.485C61.0687 239.605 62.7414 239.728 64.7939 239.88C64.7939 246.226 64.7939 252.555 64.8504 259.115C64.9069 263.611 64.9069 267.876 64.9069 272.426C43.4598 272.426 22.2771 272.426 0.782074 272.426C0.782074 267.457 0.768226 262.355 0.78674 257.252C0.800079 253.576 0.982999 249.896 0.848471 246.227C0.761287 243.849 0.902366 241.938 3.49289 241.883C4.69812 240.029 2.3843 237.158 5.70226 236.53C5.89811 238.079 5.89811 239.389 5.89811 240.927C8.874 240.123 11.3647 239.451 14.0462 238.757C14.55 238.276 15.1878 237.758 15.1237 237.366C14.6893 234.705 16.1641 233.942 18.4389 233.672C19.4647 233.663 20.2859 233.65 21.3141 233.651C25.585 233.899 25.585 233.899 26.4085 238.765C28.0357 238.765 29.6996 238.765 31.4524 238.765C31.519 238.35 31.6103 237.945 31.646 237.534C31.9483 234.065 32.2081 233.71 35.6168 233.726C37.792 233.736 39.9657 234.097 42.2392 234.466C42.4915 235.258 42.6448 235.884 42.7638 236.713C42.7295 237.639 42.7295 238.361 42.7295 239.296C44.2768 239.296 45.6298 239.401 46.9501 239.23C47.3266 239.181 47.6083 238.33 47.9335 237.848Z" fill="#31B16C"/>
<path d="M307.804 225.063C309.186 225.042 310.569 224.987 311.95 225.01C313.837 225.04 315.596 225.313 315.598 227.858C318.546 228.041 320.034 227.032 319.582 223.786C319.505 223.228 320.481 221.982 321.026 221.944C323.585 221.769 326.179 221.75 328.726 222.024C329.466 222.104 330.092 223.339 331.169 224.461C331.807 224.53 333.086 224.669 334.351 224.806C334.46 224.637 334.614 224.507 334.624 224.366C334.993 219.397 334.991 219.396 341.34 219.204C341.961 219.218 342.363 219.293 342.768 219.333C346.272 219.678 346.477 219.91 346.443 223.484C346.434 224.4 346.442 225.315 346.442 225.985C346.786 226.27 346.844 226.358 346.91 226.367C348.278 226.549 349.647 226.722 350.982 226.892C351.121 226.702 351.29 226.577 351.303 226.436C351.728 221.897 352.624 221.211 357.648 221.603C361.493 221.903 361.774 222.102 361.716 226.069C361.688 227.904 362.418 228.374 363.961 228.602C364.67 228.706 365.836 229.578 365.843 230.115C365.96 239.216 365.927 248.318 365.927 257.636C362.019 257.988 358.561 258.353 355.094 258.601C346.486 259.215 337.881 259.994 329.262 260.26C325.395 260.379 321.499 259.43 317.27 258.833C314.272 253.394 311.617 248.09 308.977 242.776C308.835 242.489 308.785 242.131 308.766 241.801C308.438 236.222 308.123 230.642 307.804 225.063Z" fill="#945196"/>
<path d="M202.63 257.83C207.677 255.951 213.036 254.291 218.212 252.147C226.885 248.555 235.376 244.48 244.065 240.935C252.442 237.517 260.965 234.483 270.108 234.172C270.301 234.166 270.479 233.683 270.789 233.296C272.238 233.339 273.562 233.509 275.108 233.687C277.832 233.875 280.352 233.918 282.831 234.273C285.382 234.639 287.892 235.309 290.428 236.052C289.214 243.432 287.99 250.607 286.767 257.783C258.798 257.799 230.828 257.815 202.63 257.83Z" fill="#DBD9D7"/>
<path d="M18.2343 233.667C16.164 233.941 14.6892 234.704 15.1237 237.365C15.1877 237.757 14.5499 238.275 13.9872 238.573C13.6176 236.425 12.1129 236.356 10.7709 236.062C11.533 225.454 8.62621 215.364 6.86137 205.102C5.55759 197.521 4.35327 189.907 3.49735 182.259C2.31922 171.733 1.51103 161.161 0.548188 150.608C0.517262 150.269 0.530004 149.926 0.518788 149.585C0.359555 144.737 -0.027611 139.884 0.0914847 135.044C0.28577 127.147 0.810216 119.259 1.33362 111.214C2.30977 121.477 3.59084 131.843 6.67468 141.806C10.8586 155.324 15.3951 168.722 19.7935 182.167C19.922 182.56 20.1989 182.899 20.5601 183.586C20.5185 185.938 20.1808 187.966 20.1558 189.999C20.085 195.741 19.3186 201.186 14.9511 205.216C17.2469 207.504 19.9018 206.57 22.3929 206.763C22.198 207.982 22.2075 209.059 21.8443 209.974C18.8255 217.576 18.8279 225.669 18.2343 233.667Z" fill="#DBD9D7"/>
<path d="M112.402 258.527C112.977 254.783 113.515 251.258 114.135 247.748C115.636 239.255 117.175 230.768 118.699 222.279C118.772 221.872 119.019 221.396 118.897 221.07C116.269 214.036 116.651 206.543 115.906 199.162C118.515 200.528 120.8 199.106 123.01 198.232C125.552 197.226 127.931 195.768 130.267 194.565C131.518 197.605 132.702 200.478 133.817 203.521C131.134 205.408 131.065 208.065 131.188 210.93C130.958 211.371 130.769 211.747 130.816 212.088C131.297 215.607 131.971 219.104 132.293 222.636C132.927 229.589 133.367 236.561 133.902 243.524C133.94 244.017 133.993 244.559 134.213 244.978C136.552 249.434 138.926 253.869 141.332 258.48C142.1 260.024 142.915 261.36 143.514 262.795C143.757 263.376 143.529 264.173 143.358 264.921C142.507 265.499 141.812 266.028 141.118 266.558C140.925 266.562 140.733 266.566 140.374 266.375C138.758 263.823 137.223 261.519 135.879 259.099C133.848 255.442 131.945 251.707 130.01 247.991C129.918 247.814 130.046 247.51 130.068 247.296C130.754 246.961 131.395 246.648 132.015 246.344C131.137 245.974 130.186 245.818 129.556 245.263C127.281 243.254 125.911 235.426 126.843 232.425C128.045 228.558 129.077 224.607 129.814 220.617C130.233 218.343 128.589 216.444 126.232 215.909C124.261 215.462 122.217 215.829 121.502 218.007C119.153 225.159 117.147 232.432 117.567 240.119C117.743 243.328 119.959 244.726 123.027 244.094C122.815 245.358 122.603 246.416 122.293 247.338C120.599 245.399 116.806 245.933 116.206 248.158C115.391 251.174 114.783 254.254 114.133 257.317C113.432 260.614 112.784 263.923 112.113 267.227C111.877 266.487 111.386 265.72 111.453 265.012C111.652 262.913 112.07 260.837 112.402 258.527Z" fill="#EF6829"/>
<path d="M307.618 210.369C307.635 212.662 307.697 214.956 307.648 217.247C307.629 218.14 307.359 219.027 307.067 220.031C306.325 219.376 303.597 219.936 303.284 221.015C302.264 224.54 301.359 228.102 300.292 231.731C300.158 232.088 300.141 232.363 300.124 232.637C300.196 232.638 300.268 232.638 300.339 232.639C300.357 232.304 300.375 231.969 300.536 231.756C302.228 236.05 301.518 241.315 305.741 243.772C305.411 244.801 304.713 245.824 304.961 246.401C306.023 248.864 306.981 251.58 308.71 253.468C310.435 255.354 312.331 256.813 312.849 259.612C313.145 261.216 314.027 262.701 314.645 264.239C314.124 263.895 313.454 263.668 313.11 263.186C311.962 261.575 310.93 259.872 309.711 257.899C307.009 253.226 304.45 248.857 301.857 244.274C301.159 241.268 300.493 238.476 299.827 235.684C298.903 237.056 298.444 238.392 298.003 239.735C297.675 240.732 297.21 241.717 297.089 242.745C296.886 244.48 297.176 246.314 296.777 247.981C295.99 251.277 294.873 254.486 293.892 257.731C293.313 259.827 292.775 261.936 292.126 264.007C291.966 264.517 291.447 264.904 290.798 265.246C289.686 265.003 288.869 264.862 288.052 264.721C288.052 264.721 287.861 264.567 287.763 264.272C288.241 262.252 288.854 260.539 289.38 258.798C289.829 257.313 290.791 255.615 290.449 254.325C289.574 251.023 290.758 248.115 291.317 245.083C291.687 243.072 292.662 241.525 295.301 241.864C292.448 240.057 291.157 237.665 291.649 234.949C292.777 228.719 294.036 222.515 295.204 216.293C295.297 215.798 295.09 215.241 294.965 214.507C294.809 212.95 294.71 211.598 294.833 210.268C299.242 210.316 303.43 210.342 307.618 210.369Z" fill="#465AA9"/>
<path d="M159.317 250.508C158.149 252.965 156.982 255.422 155.766 258.045C152.365 263.649 149.012 269.085 145.45 274.753C144.511 274.895 143.782 274.806 143.053 274.717C143.658 272.624 144.264 270.531 144.93 268.118C145.037 267.509 145.083 267.22 145.263 266.82C146.282 263.92 147.168 261.129 148.186 258.224C149.308 255.963 149.958 253.519 151.373 251.744C153.219 249.427 153.118 247.148 152.55 244.589C151.74 240.934 150.749 237.308 150.198 233.61C149.299 227.571 148.086 221.434 151.703 215.713C153.409 215.51 154.917 215.306 156.562 215.041C157.235 214.706 157.771 214.432 158.308 214.158C162.371 213.423 166.423 212.611 170.5 211.975C173.945 211.438 177.415 211.061 180.884 210.72C181.626 210.647 182.409 211.036 183.078 211.395C181.874 211.51 180.735 211.238 179.661 211.411C174.23 212.29 168.766 213.059 163.412 214.321C160.059 215.111 156.704 216.37 153.703 218.093C152.42 218.83 151.453 221.262 151.397 222.962C151.335 224.844 152.957 226.372 154.956 226.57C156.922 226.764 158.919 226.612 161.014 226.612C161.014 230.249 161.228 233.733 160.961 237.176C160.614 241.637 159.883 246.066 159.317 250.508Z" fill="#945196"/>
<path d="M123.026 243.887C119.959 244.726 117.743 243.328 117.567 240.119C117.147 232.432 119.153 225.159 121.502 218.007C122.217 215.828 124.261 215.461 126.232 215.909C128.589 216.444 130.233 218.343 129.814 220.617C129.077 224.606 128.045 228.557 126.843 232.424C125.911 235.426 127.281 243.253 129.556 245.262C130.186 245.818 131.137 245.973 132.015 246.344C131.395 246.647 130.754 246.96 130.068 247.296C130.046 247.51 129.918 247.814 130.01 247.991C131.945 251.706 133.848 255.442 135.879 259.099C137.223 261.519 138.758 263.823 140.23 266.366C139.772 266.334 139.109 266.255 138.841 265.873C137.164 263.476 135.575 261.011 133.793 258.28C132.163 255.862 130.561 253.817 129.273 251.574C128.295 249.87 127.619 247.949 126.987 246.06C126.326 244.083 125.878 242.028 125.253 239.695C124.327 241.439 123.676 242.663 123.026 243.887Z" fill="#31B16C"/>
<path d="M300.41 231.648C301.359 228.101 302.264 224.539 303.284 221.014C303.597 219.935 306.325 219.375 307.036 220.244C307.32 221.779 307.498 223.212 307.74 224.854C308.123 230.642 308.439 236.222 308.766 241.801C308.785 242.131 308.835 242.489 308.978 242.776C311.617 248.089 314.272 253.394 317.081 258.795C317.52 259.964 317.801 261.039 317.845 262.313C316.922 263.028 316.236 263.543 315.549 264.059C315.349 264.098 315.149 264.137 314.797 264.207C314.027 262.7 313.145 261.215 312.849 259.611C312.331 256.812 310.435 255.353 308.71 253.467C306.981 251.578 306.023 248.863 304.961 246.399C304.713 245.823 305.411 244.8 305.741 243.77C301.518 241.314 302.228 236.049 300.54 231.759C300.401 231.642 300.41 231.648 300.41 231.648Z" fill="#2F4172"/>
<path d="M112.324 267.362C112.784 263.923 113.432 260.613 114.133 257.316C114.783 254.253 115.391 251.174 116.206 248.157C116.806 245.932 120.599 245.398 122.322 247.545C121.521 251.372 120.594 254.855 119.666 258.339C118.633 261.596 117.599 264.852 116.205 268.123C114.903 267.956 113.963 267.776 113.023 267.596C112.861 267.563 112.698 267.531 112.324 267.362Z" fill="#38B26E"/>
<path d="M119.89 258.336C120.594 254.856 121.521 251.373 122.42 247.681C122.603 246.416 122.815 245.358 123.027 244.094C123.676 242.663 124.327 241.439 125.253 239.695C125.878 242.028 126.326 244.083 126.987 246.06C127.619 247.95 128.295 249.87 129.273 251.574C130.561 253.817 132.163 255.862 133.676 258.154C129.186 258.322 124.65 258.327 119.89 258.336Z" fill="#C9EAF7"/>
<path d="M294.131 257.751C294.873 254.485 295.99 251.275 296.778 247.98C297.176 246.313 296.886 244.479 297.09 242.743C297.21 241.716 297.675 240.731 298.003 239.733C298.444 238.391 298.903 237.055 299.827 235.683C300.493 238.474 301.159 241.266 301.825 244.509C301.843 249.059 301.861 253.158 301.879 257.257C299.376 257.429 296.872 257.601 294.131 257.751Z" fill="#DBD9D7"/>
<path d="M295.023 214.712C295.09 215.24 295.297 215.797 295.204 216.292C294.036 222.514 292.777 228.718 291.648 234.948C291.156 237.664 292.448 240.056 295.301 241.863C292.662 241.524 291.687 243.072 291.316 245.082C290.758 248.114 289.574 251.022 290.449 254.324C290.791 255.615 289.829 257.312 289.38 258.797C288.854 260.538 288.241 262.251 287.679 264.18C286.505 264.359 285.899 263.894 286.177 262.5C286.458 261.092 286.597 259.653 286.783 258.005C287.99 250.608 289.214 243.432 290.492 235.859C291.439 228.402 292.078 221.284 295.023 214.712Z" fill="#2F4172"/>
<path d="M302.06 257.281C301.861 253.159 301.843 249.06 301.858 244.725C304.45 248.857 307.009 253.226 309.606 257.77C308.674 257.891 307.706 257.837 306.369 257.682C305.109 257.524 304.217 257.468 303.326 257.411C302.964 257.376 302.602 257.34 302.06 257.281Z" fill="#945196"/>
<path d="M10.5504 236.079C12.1129 236.356 13.6176 236.425 13.7965 238.595C11.3647 239.45 8.87395 240.123 5.89805 240.926C5.89805 239.389 5.89805 238.079 5.89722 236.542C7.37419 236.242 8.85206 236.169 10.5504 236.079Z" fill="#38B26E"/>
<path d="M112.933 267.774C113.963 267.776 114.903 267.956 116.026 268.185C115.175 272.059 113.523 272.467 109.169 269.866C110.442 269.204 111.642 268.579 112.933 267.774Z" fill="#465AA9"/>
<path d="M142.897 274.8C143.782 274.806 144.511 274.895 145.372 274.92C146.024 276.776 146.545 278.696 147.169 281C142.594 278.72 141.657 277.31 142.897 274.8Z" fill="#EF6829"/>
<path d="M287.9 264.834C288.869 264.861 289.686 265.002 290.622 265.272C290.006 269.059 288.906 269.352 284.179 266.963C285.453 266.244 286.601 265.596 287.9 264.834Z" fill="#F5D41C"/>
<path d="M145.13 266.93C145.083 267.22 145.037 267.509 145.017 267.89C143.697 269.036 142.35 270.089 140.562 271.488C140.812 269.654 140.994 268.315 141.147 266.767C141.812 266.028 142.507 265.498 143.462 265.052C144.192 265.734 144.661 266.332 145.13 266.93Z" fill="#465AA9"/>
<path d="M315.57 264.26C316.235 263.544 316.922 263.028 317.756 262.462C319.693 265.081 319.29 266.036 315.033 268.719C315.237 267.163 315.414 265.812 315.57 264.26Z" fill="#F5D41C"/>
<path d="M303.477 257.528C304.217 257.467 305.109 257.523 306.16 257.683C305.422 257.74 304.525 257.693 303.477 257.528Z" fill="#DBD9D7"/>
<path d="M257.354 107.005C258.548 103.592 259.858 100.216 260.895 96.7507C261.56 94.5295 262.251 93.7043 264.648 94.7781C267.912 96.2403 271.389 97.2054 274.813 98.2415C276.54 98.7639 277.191 99.4856 276.647 101.498C276.126 103.426 276.115 105.507 275.878 107.746C275.07 112.359 274.193 116.733 273.47 121.136C271.675 132.072 269.943 143.02 268.201 153.966C267.643 157.475 267.132 160.993 266.522 164.912C266.173 167.069 265.901 168.821 265.629 170.573C265.773 170.616 265.917 170.659 266.061 170.703C277.348 149.626 288.635 128.55 299.922 107.474C302.214 107.672 304.546 107.662 306.788 108.125C309.326 108.649 311.772 109.646 314.281 110.344C315.746 110.751 316.295 111.34 315.706 113.052C311.075 126.503 306.508 139.978 301.956 153.458C298.948 162.366 295.97 171.285 293.031 180.218C291.498 184.878 290.079 189.578 288.452 194.553C286.43 195.841 284.487 196.705 282.718 197.861C279.254 200.124 275.797 202.184 271.503 200.705C274.713 190.667 277.913 180.829 281.073 170.977C281.43 169.864 281.556 168.669 281.894 167.454C281.99 167.209 281.981 167.021 281.972 166.834C281.906 167.055 281.84 167.277 281.625 167.578C280.268 169.826 279.06 171.995 277.747 174.224C277.514 174.392 277.428 174.529 277.381 174.695C277.376 174.694 277.383 174.709 277.383 174.709C271.584 184.615 265.784 194.521 259.988 204.429C257.745 208.266 255.418 212.054 253.322 215.977C252.41 217.683 251.433 218.154 249.515 217.156C247.035 215.609 248.02 213.524 248.222 211.695C248.899 205.544 249.695 199.408 250.404 193.26C251.181 186.523 251.911 179.78 252.662 173.04C253.053 169.521 253.445 166.002 253.836 162.484C253.674 162.453 253.512 162.422 253.35 162.391C252.367 165.795 251.383 169.199 250.399 172.604C248.46 178.336 246.5 184.061 244.587 189.803C241.568 198.862 238.577 207.93 235.586 216.999C235.018 218.719 233.921 219.254 232.355 218.573C230.558 217.79 228.835 216.812 227.017 216.093C225.522 215.501 223.936 215.163 222.187 214.506C222.334 212.908 222.594 211.482 223.05 210.129C229.466 191.115 235.908 172.112 242.346 153.106C245.985 142.366 249.681 131.647 253.244 120.879C254.757 116.306 255.992 111.633 257.354 107.005Z" fill="#FFFEFE"/>
<path d="M175.477 73.1071C181.889 73.1025 188.303 73.1825 194.712 73.0425C196.682 72.9994 197.321 73.9158 197.472 75.6677C198.139 83.3632 198.767 91.0624 199.472 98.754C200.238 107.118 201.133 115.47 201.859 123.838C202.454 130.692 202.835 137.567 203.396 144.424C204.143 153.56 204.988 162.686 205.761 171.819C206.141 176.304 206.457 180.796 206.794 185.285C207.213 190.861 207.623 196.437 208.046 202.14C203.374 202.391 198.691 202.642 193.791 202.67C193.085 196.556 192.547 190.668 192.122 184.772C191.72 179.205 191.504 173.623 191.052 168.061C190.941 166.692 190.946 164.761 188.694 164.978C185.062 164.978 181.431 164.978 177.674 164.978C177.06 169.315 176.472 173.463 175.681 177.791C174.994 177.677 174.51 177.384 173.887 177.005C173.558 177.429 172.923 177.887 172.798 178.466C171.911 182.578 168.658 184.304 165.739 186.406C164.21 187.508 162.768 188.742 161.119 189.964C160.721 190.033 160.492 190.054 160.257 189.851C160.351 188.699 160.43 187.769 160.552 186.846C161.426 180.201 162.319 173.56 163.186 166.915C164.097 159.935 164.977 152.95 165.887 145.97C166.939 137.896 168.031 129.828 169.066 121.751C169.971 114.684 170.808 107.607 171.699 100.537C172.441 94.6476 173.193 88.759 173.99 82.8774C174.433 79.6128 174.978 76.3634 175.477 73.1071ZM189.546 148.52C189.852 148.07 190.456 147.591 190.419 147.173C189.895 141.182 189.18 135.207 188.719 129.211C188.114 121.34 187.728 113.451 187.173 105.576C186.93 102.119 186.503 98.6774 186.159 95.2289C186.044 95.2356 185.93 95.2423 185.815 95.249C185.622 97.266 185.43 99.283 184.963 101.592C184.567 104.437 184.128 107.276 183.786 110.128C183.071 116.092 182.433 122.066 181.718 128.029C180.973 134.241 180.17 140.444 179.402 146.653C179.182 148.431 179.96 149.17 181.649 149.034C184.152 148.832 186.659 148.688 189.546 148.52Z" fill="#FFFEFE"/>
<path d="M95.1327 183.439C92.9208 183.673 92.0993 182.812 92.9578 180.509C93.1237 180.064 93.0219 179.51 93.0282 178.573C93.0902 177.163 93.1676 176.185 93.357 175.073C93.4506 174.598 93.4321 174.255 93.3866 173.769C93.3672 173.247 93.375 172.867 93.4539 172.235C93.7122 168.844 93.9519 165.708 94.075 162.566C94.2917 157.037 94.4159 151.504 94.6204 145.974C94.746 142.576 94.9209 139.179 95.1221 135.785C95.7502 125.187 96.4175 114.592 97.0374 103.994C97.4096 97.6313 97.668 91.2606 98.0732 84.8999C98.6724 75.4956 99.3568 66.0972 100.005 56.6963C108.106 57.2042 116.21 57.6819 124.305 58.2831C124.889 58.3264 125.896 59.2779 125.888 59.7929C125.801 65.3078 125.548 70.8199 125.337 76.4598C122.212 76.4598 119.206 76.7172 116.259 76.39C113.083 76.0373 112.866 76.1227 112.699 79.5211C112.284 88.0099 111.84 96.5001 111.199 104.972C110.99 107.734 112.286 108.388 114.378 108.459C116.579 108.534 118.785 108.546 120.986 108.485C122.359 108.446 123.081 108.77 123.048 110.456C122.958 115.12 123.017 119.788 123.017 124.682C118.704 124.39 115.092 124.196 111.49 123.878C109.751 123.725 109.304 124.433 109.257 126.194C109.009 135.468 108.645 144.74 108.293 154.011C108.183 156.899 108.096 159.796 107.79 162.665C107.513 165.273 108.785 165.895 110.892 165.967C114.056 166.076 117.224 166.228 120.375 166.535C121.1 166.605 121.762 167.377 122.547 168.102C122.641 168.378 122.537 168.519 122.398 168.649C122.213 169.42 122.169 170.062 122.129 170.919C122.073 171.865 122.012 172.596 121.85 173.469C121.425 174.802 120.912 175.98 120.842 177.186C120.792 178.063 121.327 178.977 121.572 180.078C121.406 181.676 121.269 183.07 121.132 184.521C121.131 184.579 121.111 184.691 120.913 184.747C119.755 184.857 118.794 184.893 117.835 184.967C113.182 185.324 108.53 185.692 103.753 185.935C101.439 182.505 98.1225 183.612 95.1327 183.439Z" fill="#FFFEFE"/>
<path d="M26.9434 55.6519C27.4998 55.138 28.0351 54.2056 28.6158 54.1734C36.5726 53.7325 44.5368 53.4392 52.4968 53.0566C55.4706 52.9136 58.4384 52.6335 61.846 52.3839C61.9938 57.2473 62.1237 61.6453 62.2632 66.0429C62.3098 67.5134 61.5301 67.9727 60.2623 67.9578C58.3853 67.9357 56.4979 68.094 54.6331 67.9378C52.5983 67.7674 52.0025 68.9198 52.035 70.6709C52.1346 76.0375 52.3654 81.4018 52.4295 86.7686C52.5051 93.0923 52.4065 99.4183 52.4784 105.742C52.5975 116.237 52.7943 126.731 52.955 137.225C53.1229 148.194 53.2855 159.163 53.4548 170.132C53.4691 171.059 53.5169 171.986 53.3011 173.132C50.6975 173.265 48.2862 173.475 46.003 173.004C43.9962 172.59 42.1328 171.413 40.1967 170.34C40.1423 169 40.0973 167.895 40.0023 166.61C39.9276 165.42 39.9031 164.41 39.9749 163.284C39.9509 162.734 39.8305 162.298 39.7104 161.862C39.7104 161.862 39.7098 161.862 39.7164 161.622C39.5621 153.373 39.3723 145.364 39.2469 137.355C39.0521 124.906 38.9118 112.456 38.7281 100.007C38.5809 90.0341 38.4036 80.0616 38.2398 70.0889C38.2384 70.0036 38.2304 69.9172 38.2394 69.8329C38.393 68.3752 37.7515 67.8942 36.3905 67.9306C33.5017 68.0077 30.6097 67.9541 27.5785 67.9541C27.3717 63.9478 27.1575 59.7999 26.9434 55.6519Z" fill="#FFFEFE"/>
<path d="M22.4247 206.548C19.9019 206.571 17.2469 207.505 14.9512 205.217C19.3186 201.187 20.0851 195.742 20.1558 190C20.1808 187.967 20.5186 185.939 20.7133 183.687C22.5589 180.077 24.4047 176.689 26.6043 173.198C28.9422 173.087 30.9264 173.078 33.059 173.098C33.4458 173.312 33.6841 173.496 33.9301 173.813C34.07 174.029 34.2022 174.112 34.3369 174.183C34.3395 174.172 34.3212 174.16 34.3212 174.16C35.5367 180.044 36.7836 185.92 37.9579 191.813C38.9198 196.639 39.8066 201.482 40.69 206.325C40.774 206.786 40.5954 207.299 40.1791 207.902C37.668 208.308 35.5167 208.599 33.1518 208.883C31.6945 208.943 30.4508 209.01 29.0065 209.029C26.6788 208.169 24.5517 207.358 22.4247 206.548Z" fill="#EF6829"/>
<path d="M274.887 233.68C273.563 233.509 272.238 233.339 270.713 233.159C269.193 232.81 267.875 232.473 266.251 232C261.848 229.517 261.644 228.965 263.228 224.469C263.369 224.069 263.569 223.691 263.701 223.289C265.816 216.855 267.924 210.418 270.202 204.046C271.44 204.352 272.545 204.908 273.574 204.783C279.102 204.113 284.61 203.274 290.201 202.636C290.938 203.771 291.599 204.764 292.149 205.929C290.671 206.576 289.32 207.379 287.931 207.461C284.655 207.653 283.116 209.229 282.123 212.574C280.004 219.704 277.332 226.655 274.887 233.68Z" fill="#FFFEFE"/>
<path d="M159.454 250.386C159.883 246.067 160.614 241.638 160.961 237.177C161.229 233.734 161.015 230.25 161.015 226.613C158.919 226.613 156.922 226.765 154.956 226.571C152.957 226.373 151.335 224.845 151.397 222.963C151.454 221.263 152.42 218.831 153.704 218.094C156.705 216.371 160.06 215.112 163.412 214.322C168.767 213.06 174.23 212.291 179.662 211.412C180.735 211.239 181.874 211.511 183.176 211.574C183.37 211.571 183.339 211.6 183.382 211.724C183.588 211.946 183.751 212.044 183.915 212.143C184.061 213.576 184.662 215.168 184.266 216.411C183.086 220.115 181.515 223.683 179.796 227.388C177.987 226.886 176.479 226.3 174.971 225.714C175.124 224.045 175.277 222.376 175.427 220.737C171.206 222.563 167.075 224.312 162.992 226.175C162.578 226.364 162.197 227.266 162.233 227.805C162.742 235.476 160.647 242.802 159.454 250.386Z" fill="#465AA9"/>
<path d="M131.339 210.848C131.065 208.064 131.134 205.408 133.961 203.435C135.615 201.706 134.098 200.555 133.81 199.095C135.035 197.629 136.061 196.045 137.48 195.126C139.468 193.838 140.224 192.397 139.426 190.078C139.126 189.204 138.95 188.283 138.718 187.384C138.9 184.936 140.485 183.629 142.493 182.699C142.88 185.775 144.181 187.921 146.567 189.468C148.541 190.748 149.327 192.706 148.734 195.233C147.743 196.301 146.889 197.28 145.894 198.367C144.718 200.436 145.169 201.856 146.983 203.082C147.611 203.506 147.821 204.611 148.164 205.606C147.999 206.215 147.893 206.623 147.711 207.173C146.874 208.418 146.112 209.521 145.209 210.699C142.962 211.627 140.856 212.48 138.537 213.296C135.996 212.456 133.667 211.652 131.339 210.848Z" fill="#F5D41C"/>
<path d="M257.159 106.989C255.992 111.632 254.756 116.306 253.243 120.878C249.681 131.646 245.985 142.365 242.346 153.106C235.908 172.111 229.466 191.115 223.05 210.128C222.594 211.481 222.334 212.907 221.983 214.506C221.271 214.668 220.557 214.622 219.481 214.552C231.553 178.605 243.542 142.901 255.665 107.078C256.187 106.964 256.576 106.968 257.159 106.989Z" fill="#D4DCE2"/>
<path d="M133.786 199.273C134.099 200.556 135.616 201.707 134.029 203.266C132.702 200.478 131.519 197.605 130.267 194.566C127.931 195.768 125.552 197.226 123.01 198.232C120.8 199.106 118.515 200.528 115.925 198.947C115.876 198.348 115.894 197.888 115.977 197.036C116.605 193.282 117.17 189.922 117.763 186.39C112.856 186.967 107.656 187.579 102.483 188.024C102.967 187.256 103.422 186.656 103.878 186.056C108.53 185.692 113.182 185.325 117.835 184.967C118.794 184.894 119.756 184.858 120.992 184.865C121.329 188.442 121.874 188.87 124.909 187.575C127.078 186.649 129.195 185.59 131.335 184.591C132.643 184.92 133.951 185.249 135.241 185.733C132.094 187.255 130.9 188.828 131.412 192.272C131.769 194.677 132.965 196.944 133.786 199.273Z" fill="#38B26E"/>
<path d="M26.743 55.6592C27.1574 59.7995 27.3716 63.9475 27.5784 67.9538C30.6096 67.9538 33.5016 68.0074 36.3904 67.9302C37.7514 67.8939 38.3929 68.3749 38.2393 69.8326C38.2304 69.9169 38.2383 70.0032 38.2397 70.0886C38.4035 80.0613 38.5809 90.0337 38.728 100.007C38.9117 112.456 39.052 124.906 39.2469 137.354C39.3722 145.364 39.562 153.372 39.5611 161.642C39.0135 162.065 38.6279 162.226 38.2423 162.387C38.2408 156.838 38.3113 151.288 38.2226 145.741C38.0484 134.844 37.7745 123.948 37.5631 113.051C37.3964 104.459 37.27 95.8654 37.1094 87.2727C37.0125 82.089 36.8296 76.9063 36.8025 71.7224C36.7941 70.1129 36.4155 69.3217 34.7494 69.4879C32.574 69.7048 30.384 69.762 28.2089 69.9821C26.746 70.1301 25.955 69.8679 25.9478 68.0102C25.9347 64.6163 25.5994 61.2245 25.5524 57.8294C25.5425 57.1137 26.1953 56.3879 26.743 55.6592Z" fill="#D4DCE2"/>
<path d="M99.8056 56.6963C99.3569 66.0972 98.6726 75.4955 98.0733 84.8999C97.6681 91.2605 97.4097 97.6313 97.0376 103.994C96.4177 114.592 95.7503 125.187 95.1222 135.785C94.921 139.179 94.7461 142.576 94.6205 145.974C94.416 151.504 94.2918 157.037 94.0751 162.566C93.952 165.708 93.7123 168.844 93.3824 172.343C92.8515 172.609 92.4632 172.514 92.075 172.419C92.4252 163.842 92.7326 155.262 93.1372 146.687C93.5773 137.36 94.089 128.037 94.604 118.714C95.0674 110.327 95.5694 101.941 96.0695 93.5564C96.5492 85.5118 97.0189 77.4664 97.5519 69.4256C97.7984 65.7078 98.145 61.9953 98.5506 58.293C98.6127 57.726 99.2401 57.2268 99.8056 56.6963Z" fill="#D4DCE2"/>
<path d="M175.282 73.1066C174.978 76.363 174.433 79.6124 173.99 82.877C173.193 88.7586 172.441 94.6472 171.699 100.537C170.808 107.606 169.971 114.684 169.066 121.751C168.031 129.827 166.939 137.896 165.887 145.969C164.977 152.95 164.097 159.934 163.187 166.914C162.319 173.56 161.426 180.201 160.552 186.845C160.43 187.769 160.351 188.699 160.126 189.951C159.596 190.415 159.192 190.555 158.789 190.695C159.321 186.151 159.82 181.603 160.393 177.065C161.134 171.187 161.923 165.314 162.71 159.442C163.621 152.646 164.573 145.855 165.471 139.057C166.369 132.256 167.207 125.448 168.099 118.647C169.188 110.337 170.346 102.037 171.401 93.7226C172.158 87.757 172.74 81.7664 173.544 75.8082C173.673 74.8506 174.553 74.0042 175.282 73.1066Z" fill="#D4DCE2"/>
<path d="M175.425 181.341C174.871 185.592 174.313 189.842 173.768 194.094C173.65 195.013 173.518 195.936 173.498 196.86C173.409 200.896 172.986 201.342 168.742 201.261C167.615 201.126 166.839 201.068 166.025 200.963C165.854 200.869 165.756 200.91 165.486 201.101C164.56 201.152 163.841 201.14 162.988 201.029C162.006 201.024 161.158 201.119 160.123 201.244C159.559 201.265 159.182 201.254 158.802 201.075C158.768 200.683 158.735 200.46 158.707 200.041C158.746 199.325 158.781 198.805 158.952 198.187C160.666 196.804 162.246 195.52 163.938 194.183C164.105 193.974 164.158 193.82 164.192 193.676C164.173 193.687 164.188 193.73 164.355 193.71C165.932 192.038 167.319 190.362 168.759 188.737C170.961 186.253 173.201 183.804 175.425 181.341Z" fill="#FFFEFE"/>
<path d="M26.0333 153.7C24.2101 153.042 22.2408 152.648 20.602 151.656C18.7021 150.506 18.7564 148.827 20.0006 146.906C20.5245 146.098 20.7703 144.948 20.7833 143.948C20.8164 141.424 21.9825 140.475 24.3417 140.947C25.2003 141.119 26.6154 140.929 27.0414 140.33C29.0754 137.471 31.4414 137.535 34.1602 139.268C33.6806 140.604 33.1146 141.586 32.6883 142.631C32.0018 144.314 30.7181 146.128 30.9075 147.729C31.414 152.008 31.6074 152.101 27.5733 153.691C26.9455 153.691 26.4893 153.696 26.0333 153.7Z" fill="#2F4172"/>
<path d="M33.3652 208.89C35.5166 208.599 37.6679 208.308 40.0311 208.04C41.2093 214.162 42.0775 220.282 43.1771 226.356C43.8912 230.301 44.065 234.51 47.014 237.9C45.1231 238.94 44.0607 237.445 42.798 236.51C42.6447 235.884 42.4914 235.258 42.203 234.279C38.4366 225.858 34.5097 217.904 33.3652 208.89Z" fill="#465AA9"/>
<path d="M102.455 188.19C107.656 187.578 112.856 186.966 117.763 186.389C117.17 189.92 116.606 193.281 116.032 196.81C112.599 196.521 109.153 196.188 105.759 195.549C104.278 195.271 102.905 194.366 101.404 193.395C101.702 191.426 102.079 189.808 102.455 188.19Z" fill="#EF6829"/>
<path d="M270.034 203.982C267.924 210.418 265.816 216.854 263.701 223.289C263.569 223.691 263.369 224.069 263.228 224.468C261.643 228.965 261.848 229.516 266.053 232C265.293 231.943 264.36 231.903 263.569 231.531C260.168 229.931 259.326 229.49 260.773 225.439C263.615 217.481 266.517 209.542 269.159 201.511C272.037 192.763 274.648 183.92 277.379 174.913C277.383 174.708 277.376 174.694 277.486 174.636C277.727 174.47 277.812 174.332 277.851 174.163C279.06 171.994 280.268 169.826 281.629 167.581C281.781 167.505 281.789 167.511 281.789 167.511C281.556 168.668 281.43 169.863 281.073 170.976C277.913 180.829 274.713 190.667 271.409 200.826C269.565 201.451 270.808 203.208 270.034 203.982Z" fill="#D4DCE2"/>
<path d="M250.407 172.832C251.383 169.199 252.367 165.795 253.35 162.391C253.512 162.422 253.674 162.452 253.836 162.483C253.445 166.002 253.053 169.521 252.662 173.039C251.911 179.78 251.181 186.523 250.404 193.26C249.695 199.407 248.899 205.543 248.222 211.694C248.02 213.524 247.035 215.609 249.331 217.135C248.201 217.038 246.958 216.79 245.512 216.503C246.835 205.307 248.132 194.492 249.382 183.672C249.789 180.143 250.073 176.598 250.407 172.832Z" fill="#D4DCE2"/>
<path d="M33.9223 173.679C33.6841 173.495 33.4459 173.311 32.9798 172.951C31.0096 170.508 29.2673 168.241 27.6724 165.904C29.016 164.815 30.2123 163.796 31.5483 162.878C32.6818 164.584 33.6757 166.189 34.731 167.99C36.597 168.981 38.4016 169.777 40.2062 170.572C42.1329 171.412 43.9963 172.588 46.0031 173.002C48.2863 173.473 50.6976 173.264 53.2674 173.32C53.1709 174.521 52.8603 175.752 52.3088 177.164C47.6317 176.501 43.1952 175.658 38.7588 174.816C37.4078 174.533 36.0569 174.249 34.5135 174.063C34.3212 174.16 34.3396 174.171 34.3723 174.044C34.2442 173.838 34.0833 173.758 33.9223 173.679Z" fill="#465AA9"/>
<path d="M158.677 190.828C159.192 190.555 159.596 190.416 160.131 190.175C160.492 190.054 160.721 190.033 161.26 190.01C161.757 190.07 161.946 190.132 162.205 190.297C162.394 190.536 162.54 190.597 162.711 190.588C162.709 190.594 162.72 190.586 162.702 190.801C162.975 192.98 162.419 194.548 160.695 195.524C158.783 196.606 156.953 198.024 154.907 198.631C152.005 199.491 148.912 200.304 146.036 198.259C146.889 197.28 147.743 196.302 148.895 195.223C149.465 194.947 149.736 194.77 150.006 194.594C152.859 193.382 155.712 192.171 158.677 190.828Z" fill="#465AA9"/>
<path d="M34.6695 167.795C33.6756 166.189 32.6817 164.584 31.526 162.702C30.5549 160.983 29.9391 159.348 28.8688 158.163C28.1492 157.366 26.7642 156.834 25.7196 156.902C25.0944 156.943 24.5516 158.369 23.9718 159.172C23.0405 156.827 24.1122 155.279 25.9411 153.847C26.4892 153.695 26.9453 153.69 27.6806 153.841C28.824 154.39 29.6655 154.876 30.5666 155.119C30.8258 155.189 31.257 154.561 31.6094 154.253C33.9653 156.549 36.6458 158.596 37.1043 162.593C36.4526 164.258 35.9117 165.592 35.2846 167.038C35.022 167.364 34.8458 167.579 34.6695 167.795Z" fill="#F5D41C"/>
<path d="M133.81 199.094C132.965 196.943 131.769 194.675 131.412 192.271C130.9 188.827 132.094 187.254 135.373 185.813C136.479 186.213 137.434 186.687 138.554 187.272C138.951 188.283 139.126 189.204 139.426 190.077C140.224 192.396 139.469 193.837 137.481 195.125C136.062 196.045 135.035 197.629 133.81 199.094Z" fill="#EF6829"/>
<path d="M131.142 184.534C129.194 185.59 127.078 186.649 124.909 187.574C121.874 188.87 121.329 188.441 121.189 184.807C121.111 184.691 121.131 184.578 121.316 184.523C124.26 183.972 123.37 181.63 123.768 179.783C127.099 178.144 125.796 174.236 127.658 171.504C127.991 172.671 128.208 173.432 128.425 174.193C128.763 177.439 129.07 180.69 129.501 183.923C129.535 184.174 130.446 184.297 131.142 184.534Z" fill="#2F4172"/>
<path d="M174.889 225.913C176.479 226.299 177.987 226.886 179.669 227.51C178.58 231.317 177.153 235.039 176.13 238.879C175.677 240.584 176.041 242.527 175.894 244.566C173.28 244.247 173.355 241.746 172.405 240.04C172.78 239.17 173.368 238.331 173.492 237.424C174.006 233.665 174.381 229.885 174.889 225.913Z" fill="#EF6829"/>
<path d="M162.134 190.194C161.946 190.132 161.757 190.07 161.428 189.962C162.768 188.742 164.21 187.508 165.739 186.407C168.658 184.304 171.911 182.578 172.798 178.467C172.923 177.888 173.558 177.429 173.887 177.006C174.51 177.384 174.994 177.677 175.65 178.029C175.744 179.077 175.665 180.067 175.505 181.199C173.201 183.805 170.961 186.253 168.759 188.738C167.319 190.362 165.932 192.038 164.349 193.514C163.691 192.419 163.205 191.503 162.72 190.586C162.72 190.586 162.708 190.595 162.672 190.454C162.469 190.273 162.301 190.234 162.134 190.194Z" fill="#EF6829"/>
<path d="M158.804 201.244C159.182 201.254 159.559 201.265 160.321 201.287C161.512 201.242 162.317 201.185 163.122 201.128C163.841 201.14 164.56 201.152 165.581 201.148C165.884 201.133 166.062 201.011 166.062 201.011C166.839 201.068 167.615 201.126 168.536 201.269C167.972 203.633 166.387 204.509 164.199 204.472C162.659 204.445 161.119 204.466 158.915 204.466C158.696 207.579 158.482 210.635 158.288 213.925C157.772 214.432 157.235 214.706 156.46 214.892C156.511 212.541 156.491 210.172 157.159 208.04C158.364 204.193 158.17 203.175 154.848 201.222C154.628 201.092 154.565 200.671 154.579 200.307C156.092 199.581 157.454 198.933 158.817 198.285C158.781 198.805 158.746 199.325 158.586 200.133C158.576 200.695 158.69 200.969 158.804 201.244Z" fill="#2F4172"/>
<path d="M188.781 165.149C190.946 164.761 190.941 166.693 191.052 168.061C191.504 173.623 191.72 179.205 192.122 184.772C192.547 190.669 193.085 196.556 193.582 202.671C193.095 202.411 192.222 201.971 192.165 201.437C191.73 197.303 191.425 193.153 191.133 189.005C190.614 181.632 190.147 174.256 189.608 166.886C189.569 166.347 189.124 165.841 188.781 165.149Z" fill="#D4DCE2"/>
<path d="M149.986 194.395C149.735 194.77 149.465 194.946 149.032 195.133C149.327 192.706 148.541 190.748 146.567 189.468C144.181 187.921 142.88 185.775 142.659 182.678C146.576 181.073 150.333 184.212 151.033 188.094C151.101 188.475 151.031 189.11 150.793 189.289C148.954 190.667 149.878 192.5 149.986 194.395Z" fill="#EF6829"/>
<path d="M31.6153 154.024C31.257 154.561 30.8258 155.189 30.5666 155.119C29.6655 154.876 28.8239 154.39 27.8523 153.845C31.6072 152.1 31.4138 152.007 30.9073 147.728C30.7179 146.127 32.0017 144.313 32.6882 142.63C33.1144 141.585 33.6804 140.603 34.2544 139.422C37.9655 142.311 37.1613 148.095 33.0377 150.155C32.2027 150.572 32.075 152.542 31.6153 154.024Z" fill="#465AA9"/>
<path d="M102.483 188.023C102.079 189.809 101.702 191.427 101.332 193.208C98.735 192.465 97.8349 190.023 96.767 187.757C96.1623 186.475 95.6747 185.132 95.1335 183.627C98.1225 183.612 101.439 182.506 103.753 185.935C103.422 186.656 102.967 187.256 102.483 188.023Z" fill="#2F4172"/>
<path d="M128.58 174.095C128.208 173.432 127.991 172.671 127.658 171.505C125.796 174.237 127.099 178.145 123.565 179.759C122.679 179.836 122.14 179.855 121.602 179.874C121.327 178.977 120.792 178.063 120.842 177.186C120.912 175.98 121.425 174.802 121.877 173.633C123.496 175.354 124.634 175.309 125.425 173.52C127.114 169.698 126.891 169.176 123.064 167.996C124.367 167.731 125.921 166.889 126.903 167.359C127.943 167.856 128.682 169.519 129.089 170.831C129.374 171.749 128.881 172.933 128.58 174.095Z" fill="#38B26E"/>
<path d="M23.9751 159.388C24.5516 158.37 25.0944 156.944 25.7196 156.903C26.7642 156.835 28.1492 157.367 28.8688 158.164C29.9391 159.349 30.5548 160.984 31.3863 162.603C30.2122 163.797 29.0159 164.816 27.5179 165.842C26.4937 165.015 25.7712 164.181 25.0487 163.346C24.6919 162.098 24.3352 160.85 23.9751 159.388Z" fill="#EF6829"/>
<path d="M38.7627 175.041C43.195 175.659 47.6314 176.502 52.2631 177.324C52.1183 177.782 51.8059 178.651 51.4337 178.68C47.3402 179 43.2374 179.19 38.7669 179.435C38.7669 177.755 38.7669 176.51 38.7627 175.041Z" fill="#FEFCF9"/>
<path d="M25.0288 163.555C25.771 164.179 26.4935 165.014 27.3704 165.911C29.2671 168.241 31.0094 170.508 32.831 172.921C30.9262 173.076 28.942 173.086 26.7337 173.084C26.0093 169.969 25.5092 166.867 25.0288 163.555Z" fill="#F5D41C"/>
<path d="M122.967 168.067C126.891 169.176 127.114 169.698 125.425 173.52C124.634 175.309 123.496 175.354 121.979 173.49C122.012 172.596 122.073 171.865 122.244 170.773C122.415 169.781 122.476 169.15 122.537 168.52C122.537 168.52 122.641 168.378 122.641 168.289C122.641 168.199 122.87 168.139 122.967 168.067Z" fill="#2F4172"/>
<path d="M35.3708 166.929C35.9117 165.594 36.4526 164.259 37.1152 162.78C37.5171 162.634 37.7973 162.633 38.1599 162.509C38.628 162.226 39.0136 162.065 39.5545 161.883C39.7098 161.862 39.7108 161.862 39.7167 162.057C39.7746 162.635 39.8266 163.017 39.8785 163.4C39.9031 164.41 39.9277 165.42 39.8678 166.732C38.2783 168.59 36.8157 168.171 35.3708 166.929Z" fill="#465AA9"/>
<path d="M172.275 240.097C173.355 241.745 173.28 244.246 175.973 244.778C176.676 245.4 177.16 246.014 177.643 246.628C177.473 246.855 177.303 247.081 177.132 247.307C176.104 246.575 175.004 245.928 174.069 245.082C173.296 244.383 172.813 243.326 172.029 242.645C170.896 241.661 171.408 240.946 172.275 240.097Z" fill="#2F4172"/>
<path d="M91.9473 172.498C92.4631 172.515 92.8513 172.609 93.3111 172.596C93.375 172.868 93.3672 173.248 93.2965 173.913C93.2373 174.535 93.2411 174.871 93.2449 175.207C93.1676 176.185 93.0902 177.164 92.9897 178.35C92.6412 177.988 92.4243 177.288 91.9706 176.872C90.4242 175.454 90.6639 174.054 91.9473 172.498Z" fill="#2F4172"/>
<path d="M42.7638 236.713C44.0608 237.446 45.1233 238.94 47.1482 238.03C47.4348 237.864 47.5757 237.846 47.826 237.847C47.6083 238.331 47.3266 239.181 46.95 239.23C45.6298 239.401 44.2768 239.296 42.7295 239.296C42.7295 238.361 42.7295 237.639 42.7638 236.713Z" fill="#F8BD9B"/>
<path d="M183.854 212.003C183.751 212.043 183.588 211.944 183.366 211.708C183.469 211.668 183.631 211.766 183.854 212.003Z" fill="#945196"/>
<path d="M311.42 183.921C311.836 184.512 312.252 185.103 312.67 186.062C312.788 190.181 310.106 191.799 307.641 193.503C305.449 195.018 303.146 196.356 300.716 197.791C298.206 198.836 295.871 199.864 293.438 200.764C292.94 200.532 292.54 200.426 292.048 200.177C291.324 198.989 290.691 197.944 290.08 196.706C290.403 196.026 290.614 195.423 291.022 195.072C294.149 192.38 297.4 189.839 300.444 187.05C303.431 184.313 306.738 182.932 310.709 183.423C310.709 183.423 310.685 183.427 310.767 183.55C311.04 183.756 311.23 183.839 311.42 183.921Z" fill="#F5D41C"/>
<path d="M300.891 197.773C303.146 196.356 305.449 195.018 307.641 193.503C310.106 191.799 312.788 190.182 312.662 186.227C312.59 187.919 312.946 189.964 312.385 191.682C310.699 196.849 308.879 201.94 308.705 207.49C308.69 207.972 308.134 208.437 307.446 208.983C304.829 208.923 302.597 208.79 300.447 208.448C300.651 204.751 300.771 201.262 300.891 197.773Z" fill="#F17F26"/>
<path d="M299.779 107.417C288.635 128.549 277.348 149.625 266.061 170.702C265.917 170.658 265.773 170.615 265.629 170.572C265.901 168.82 266.173 167.068 266.527 165.131C268.119 162.446 269.743 160.015 271.118 157.438C279.371 141.975 287.543 126.464 295.817 111.013C296.659 109.441 297.141 107.164 299.779 107.417Z" fill="#D4DCE2"/>
<path d="M290.058 196.899C290.691 197.944 291.324 198.989 291.96 200.321C291.351 201.236 290.738 201.865 290.125 202.493C284.61 203.274 279.101 204.113 273.574 204.783C272.545 204.908 271.44 204.352 270.202 204.046C270.807 203.208 269.565 201.451 271.388 201.021C275.797 202.183 279.254 200.123 282.718 197.861C284.487 196.705 286.43 195.84 288.44 194.757C288.796 194.676 289.006 194.682 289.393 194.882C289.732 195.683 289.895 196.291 290.058 196.899Z" fill="#C2DFC6"/>
<path d="M302.36 180.365C303.708 178.477 304.467 176.637 301.617 175.077C303.502 172.145 305.277 169.384 307.334 166.609C308.314 167.283 309.014 167.971 309.744 168.689C309.151 169.707 308.62 170.617 308.001 171.68C308.657 171.899 309.146 172.062 309.64 172.227C309.485 173.016 309.343 173.736 309.202 174.456C308.823 176.275 308.445 178.094 307.933 180.074C305.782 180.377 303.534 179.604 301.943 182.498C302.168 181.348 302.264 180.857 302.36 180.365Z" fill="#FEFCF9"/>
<path d="M290.08 196.707C289.896 196.292 289.733 195.684 289.551 194.881C290.909 193.21 292.286 191.735 293.959 190.146C297.119 187.829 299.982 185.627 302.977 183.281C304.858 182.867 306.609 182.597 308.36 182.327C309.075 182.603 309.789 182.879 310.606 183.289C306.739 182.933 303.431 184.314 300.444 187.051C297.4 189.84 294.149 192.381 291.023 195.073C290.614 195.424 290.403 196.027 290.08 196.707Z" fill="#F17F26"/>
<path d="M309.366 174.38C309.344 173.737 309.485 173.017 309.64 172.228C309.147 172.063 308.657 171.9 308.001 171.681C308.62 170.618 309.151 169.708 309.744 168.69C309.014 167.972 308.314 167.284 307.473 166.511C307.148 165.07 307.468 164.009 308.968 163.943C310.451 163.879 310.688 164.816 310.388 166.131C310.325 166.407 310.513 166.775 310.652 167.066C312.231 170.361 312.049 171.562 309.366 174.38Z" fill="#2F4172"/>
<path d="M302.846 183.425C299.982 185.627 297.119 187.829 294.076 190.031C294.546 185.955 297.196 183.818 300.915 182.502C301.759 182.859 302.302 183.142 302.846 183.425Z" fill="#EF6829"/>
<path d="M300.364 208.657C302.597 208.79 304.829 208.923 307.264 209.071C307.507 209.406 307.549 209.726 307.604 210.207C303.43 210.342 299.242 210.315 294.797 210.102C294.546 209.456 294.551 208.997 294.78 208.534C296.79 208.573 298.577 208.615 300.364 208.657Z" fill="#F5D41C"/>
<path d="M302.977 183.281C302.302 183.142 301.759 182.859 301.092 182.466C300.541 181.243 300.382 180.285 302.187 180.358C302.264 180.857 302.168 181.349 301.943 182.499C303.534 179.604 305.783 180.378 308.018 180.244C308.264 180.807 308.292 181.361 308.34 182.121C306.609 182.597 304.858 182.867 302.977 183.281Z" fill="#F5D41C"/>
<path d="M311.329 183.789C311.23 183.84 311.04 183.757 310.762 183.54C310.863 183.489 311.051 183.572 311.329 183.789Z" fill="#F17F26"/>
<path d="M33.1517 208.883C34.5097 217.904 38.4366 225.858 42.104 234.112C39.9656 234.097 37.7919 233.736 35.6167 233.726C32.2081 233.71 31.9482 234.065 31.646 237.534C31.6102 237.945 31.5189 238.35 31.4524 238.765C29.6995 238.765 28.0356 238.765 26.4084 238.765C25.5849 233.899 25.5849 233.899 21.334 233.465C21.5715 231.897 21.9696 230.52 22.4253 229.164C24.6775 222.466 26.945 215.772 29.2071 209.077C30.4508 209.01 31.6945 208.943 33.1517 208.883Z" fill="#DBD9D7"/>
<path d="M29.0066 209.028C26.9451 215.772 24.6777 222.465 22.4255 229.164C21.9697 230.52 21.5717 231.896 21.1271 233.45C20.286 233.65 19.4647 233.663 18.439 233.671C18.828 225.669 18.8256 217.576 21.8444 209.974C22.2076 209.059 22.1981 207.982 22.3931 206.764C24.5518 207.358 26.6789 208.169 29.0066 209.028Z" fill="#2F4172"/>
<path d="M294.557 208.539C294.551 208.997 294.545 209.456 294.575 210.08C294.71 211.598 294.809 212.949 294.965 214.507C292.078 221.285 291.439 228.403 290.483 235.654C287.892 235.31 285.381 234.64 282.831 234.274C280.352 233.919 277.832 233.876 275.108 233.688C277.332 226.656 280.004 219.705 282.122 212.574C283.116 209.229 284.655 207.654 287.931 207.461C289.32 207.38 290.67 206.577 292.305 205.995C293.013 206.019 293.452 206.15 293.919 206.45C294.149 207.259 294.353 207.899 294.557 208.539Z" fill="#C9EAF7"/>
<path d="M145.35 210.624C146.112 209.521 146.874 208.418 147.772 207.349C149.107 210.159 150.306 212.935 151.505 215.712C148.086 221.434 149.3 227.571 150.199 233.61C150.749 237.308 151.741 240.934 152.55 244.589C153.118 247.148 153.22 249.427 151.373 251.744C149.958 253.519 149.308 255.963 147.956 258.217C145.493 258.319 143.392 258.315 141.291 258.31C138.926 253.869 136.552 249.434 134.213 244.978C133.993 244.559 133.94 244.016 133.902 243.523C133.367 236.561 132.927 229.589 132.293 222.636C131.971 219.103 131.297 215.606 130.816 212.088C130.769 211.747 130.958 211.371 131.188 210.929C133.667 211.652 135.996 212.456 138.567 213.48C139.679 216.618 140.68 219.502 141.372 222.466C141.804 224.313 141.975 226.29 141.884 228.188C141.81 229.729 141.171 231.241 140.676 233.182C141.55 232.783 141.989 232.386 142.366 232.443C144.664 232.785 145.195 232.222 145.124 230.027C145.04 227.419 145.197 224.797 145.346 222.187C145.565 218.33 146.976 214.481 145.35 210.624Z" fill="#C9EAF7"/>
<path d="M141.332 258.479C143.392 258.314 145.493 258.318 147.824 258.33C147.168 261.128 146.283 263.919 145.263 266.819C144.661 266.331 144.192 265.733 143.62 265.003C143.529 264.172 143.757 263.375 143.514 262.793C142.915 261.359 142.1 260.023 141.332 258.479Z" fill="#FEFCF9"/>
<path d="M300.397 231.638C300.375 231.968 300.357 232.303 300.339 232.638C300.268 232.637 300.196 232.637 300.124 232.637C300.141 232.362 300.158 232.087 300.292 231.73C300.41 231.648 300.401 231.642 300.397 231.638Z" fill="#2F4172"/>
<path d="M151.703 215.714C150.306 212.936 149.107 210.159 147.848 207.207C147.893 206.624 147.999 206.216 148.26 205.472C148.936 204.388 149.318 203.429 150.006 202.94C151.393 201.954 152.945 201.223 154.429 200.387C154.565 200.672 154.628 201.094 154.848 201.223C158.17 203.176 158.364 204.194 157.159 208.041C156.491 210.173 156.511 212.542 156.323 214.954C154.917 215.307 153.409 215.511 151.703 215.714Z" fill="#465AA9"/>
<path d="M281.777 167.501C281.84 167.276 281.906 167.054 281.971 166.833C281.981 167.021 281.99 167.208 281.894 167.453C281.788 167.511 281.781 167.504 281.777 167.501Z" fill="#D4DCE2"/>
<path d="M277.747 174.223C277.812 174.331 277.727 174.469 277.491 174.635C277.428 174.527 277.513 174.39 277.747 174.223Z" fill="#C9EAF7"/>
<path d="M189.165 148.52C186.659 148.688 184.152 148.832 181.649 149.034C179.96 149.17 179.182 148.431 179.402 146.653C180.17 140.445 180.973 134.241 181.718 128.03C182.433 122.066 183.071 116.092 183.786 110.128C184.128 107.276 184.567 104.437 185.129 101.66C185.432 102.217 185.661 102.699 185.692 103.195C186.051 109.033 186.372 114.873 186.721 120.711C186.882 123.418 187.029 126.128 187.276 128.827C187.877 135.394 188.532 141.956 189.165 148.52Z" fill="#C9EAF7"/>
<path d="M189.355 148.519C188.532 141.955 187.876 135.393 187.276 128.826C187.029 126.127 186.882 123.417 186.721 120.71C186.372 114.872 186.051 109.032 185.692 103.194C185.661 102.698 185.432 102.216 185.266 101.513C185.43 99.2823 185.622 97.2653 185.815 95.2483C185.929 95.2416 186.044 95.235 186.159 95.2283C186.503 98.6767 186.93 102.119 187.173 105.575C187.728 113.45 188.114 121.339 188.719 129.21C189.18 135.206 189.895 141.181 190.419 147.173C190.456 147.59 189.852 148.069 189.355 148.519Z" fill="#D4DCE2"/>
<path d="M121.572 180.079C122.14 179.856 122.679 179.837 123.421 179.843C123.37 181.631 124.26 183.973 121.317 184.467C121.269 183.071 121.406 181.676 121.572 180.079Z" fill="#C9EAF7"/>
<path d="M122.398 168.648C122.477 169.15 122.415 169.78 122.239 170.558C122.169 170.062 122.214 169.42 122.398 168.648Z" fill="#C9EAF7"/>
<path d="M93.357 175.075C93.2412 174.871 93.2374 174.535 93.3237 174.056C93.4322 174.256 93.4506 174.599 93.357 175.075Z" fill="#D4DCE2"/>
<path d="M35.2846 167.038C36.8158 168.17 38.2783 168.588 39.9179 166.91C40.0974 167.894 40.1424 168.999 40.1968 170.339C38.4015 169.777 36.597 168.982 34.731 167.991C34.8458 167.58 35.0221 167.364 35.2846 167.038Z" fill="#D4DCE2"/>
<path d="M39.9749 163.282C39.8265 163.015 39.7745 162.633 39.7163 162.056C39.8305 162.296 39.9509 162.732 39.9749 163.282Z" fill="#D4DCE2"/>
<path d="M33.9302 173.813C34.0833 173.759 34.2442 173.839 34.3697 174.056C34.2023 174.112 34.0701 174.029 33.9302 173.813Z" fill="#C9EAF7"/>
<path d="M293.892 206.28C293.452 206.149 293.013 206.019 292.416 205.822C291.599 204.764 290.938 203.771 290.201 202.635C290.738 201.865 291.35 201.236 292.052 200.464C292.54 200.426 292.94 200.532 293.44 200.988C293.657 202.985 293.775 204.633 293.892 206.28Z" fill="#F17F26"/>
<path d="M145.209 210.699C146.977 214.481 145.565 218.33 145.346 222.187C145.198 224.797 145.04 227.419 145.124 230.027C145.195 232.222 144.664 232.785 142.366 232.443C141.989 232.387 141.55 232.783 140.677 233.182C141.171 231.241 141.81 229.729 141.884 228.188C141.976 226.29 141.805 224.313 141.373 222.466C140.68 219.502 139.68 216.618 138.78 213.516C140.856 212.48 142.962 211.627 145.209 210.699Z" fill="#2F4172"/>
<path d="M154.579 200.307C152.945 201.222 151.393 201.953 150.006 202.939C149.318 203.428 148.936 204.387 148.319 205.269C147.821 204.611 147.612 203.506 146.983 203.081C145.169 201.856 144.719 200.436 145.894 198.367C148.912 200.304 152.005 199.491 154.907 198.63C156.953 198.024 158.783 196.606 160.695 195.523C162.419 194.547 162.975 192.98 162.702 190.801C163.206 191.502 163.691 192.419 164.182 193.533C164.189 193.73 164.173 193.687 164.097 193.748C163.893 193.919 163.828 194.062 163.825 194.237C162.246 195.52 160.666 196.804 158.952 198.186C157.454 198.933 156.092 199.581 154.579 200.307Z" fill="#945196"/>
<path d="M162.988 201.03C162.317 201.185 161.512 201.242 160.508 201.256C161.158 201.119 162.006 201.025 162.988 201.03Z" fill="#C9EAF7"/>
<path d="M158.802 201.074C158.69 200.969 158.576 200.695 158.583 200.329C158.735 200.46 158.768 200.683 158.802 201.074Z" fill="#C9EAF7"/>
<path d="M166.025 200.962C166.062 201.011 165.884 201.132 165.788 201.084C165.756 200.91 165.854 200.869 166.025 200.962Z" fill="#C9EAF7"/>
<path d="M163.939 194.182C163.828 194.062 163.893 193.92 164.116 193.737C164.158 193.82 164.105 193.974 163.939 194.182Z" fill="#EF6829"/>
<path d="M162.205 190.297C162.301 190.233 162.469 190.273 162.675 190.447C162.54 190.597 162.394 190.536 162.205 190.297Z" fill="#945196"/>
<path d="M293.919 206.449C293.775 204.632 293.657 202.985 293.538 201.114C295.871 199.863 298.206 198.835 300.716 197.79C300.771 201.261 300.651 204.75 300.447 208.447C298.577 208.614 296.79 208.572 294.78 208.533C294.353 207.897 294.149 207.257 293.919 206.449Z" fill="#EF6829"/>
</svg>
