<?xml version="1.0" encoding="UTF-8"?><svg id="_Layer_" xmlns="http://www.w3.org/2000/svg" xmlns:xlink="http://www.w3.org/1999/xlink" viewBox="0 0 2827.745 1819.999"><defs><style>.cls-1{fill:#f08533;}.cls-2{fill:url(#linear-gradient-2);}.cls-3{fill:#b5d2eb;}.cls-4{fill:#ffa555;}.cls-5{fill:#fff;}.cls-6{fill:#eea886;}.cls-7{fill:url(#linear-gradient-17);}.cls-8{fill:#98c3e6;}.cls-9{fill:#48753a;}.cls-10{fill:#fafafa;}.cls-11{fill:url(#linear-gradient-43);}.cls-12{fill:#706865;}.cls-13{fill:url(#linear-gradient-15);}.cls-14{fill:url(#linear-gradient-18);}.cls-15{fill:#b8d6ff;}.cls-16{fill:url(#linear-gradient-40);}.cls-17{fill:url(#linear-gradient-28);}.cls-18{fill:url(#linear-gradient-14);}.cls-19{fill:#eef6fa;}.cls-20{fill:url(#linear-gradient-36);}.cls-21{fill:url(#linear-gradient-20);}.cls-22{fill:url(#linear-gradient-6);}.cls-23{fill:#323657;}.cls-24{fill:#538742;}.cls-25{fill:#ff9f55;}.cls-26{fill:#9e633a;}.cls-27{fill:url(#linear-gradient-35);}.cls-28{fill:url(#linear-gradient-32);}.cls-29{fill:#ebf3f7;}.cls-30{fill:url(#linear-gradient-11);}.cls-31{fill:#82522f;}.cls-32{fill:url(#linear-gradient-39);}.cls-33{fill:#1a2f59;}.cls-34{opacity:.44;}.cls-35{fill:url(#linear-gradient-10);}.cls-36{fill:#495da1;}.cls-37{fill:#e7e7e7;}.cls-38{fill:url(#linear-gradient-37);}.cls-39{fill:#b59074;}.cls-40{fill:url(#linear-gradient-16);}.cls-41{fill:#877670;}.cls-42{fill:url(#linear-gradient-31);}.cls-43{fill:url(#linear-gradient-41);}.cls-44{fill:#fae6de;}.cls-45{fill:#e8734d;}.cls-46{fill:url(#linear-gradient-21);}.cls-47{fill:#eb4747;}.cls-48{fill:#925e2e;}.cls-49{fill:#876455;}.cls-50{fill:url(#linear-gradient-25);}.cls-51{fill:url(#linear-gradient-5);}.cls-52{fill:url(#linear-gradient-45);}.cls-53{fill:#c67b47;}.cls-54{fill:#36572b;}.cls-55{fill:#918783;}.cls-56{fill:#254380;}.cls-57{fill:#ebdddd;}.cls-58{fill:url(#linear-gradient-34);}.cls-59{fill:url(#linear-gradient-7);}.cls-60{fill:#a77860;}.cls-61{fill:#97a43c;}.cls-62{fill:#eea987;}.cls-63{fill:#bfb2ac;}.cls-64{fill:url(#linear-gradient-24);}.cls-65{fill:#ffa855;}.cls-66{fill:#eff7fe;}.cls-67{fill:#d0e5f5;}.cls-68{fill:url(#linear-gradient-9);}.cls-69{fill:url(#linear-gradient-22);}.cls-70{fill:#78b0de;}.cls-71{fill:url(#linear-gradient-42);}.cls-72{fill:url(#linear-gradient-3);}.cls-73{fill:#5284fc;}.cls-74{fill:#214361;}.cls-75{fill:url(#linear-gradient);}.cls-76{fill:url(#linear-gradient-27);}.cls-77{fill:url(#linear-gradient-33);}.cls-78{fill:url(#linear-gradient-38);}.cls-79{fill:#715346;}.cls-80{fill:url(#linear-gradient-29);}.cls-81{fill:url(#linear-gradient-30);}.cls-82{fill:url(#linear-gradient-23);}.cls-83{fill:url(#linear-gradient-19);}.cls-84{fill:url(#linear-gradient-4);}.cls-85{fill:#deccc5;}.cls-86{fill:url(#linear-gradient-8);}.cls-87{fill:url(#linear-gradient-44);}.cls-88{fill:#45613c;}.cls-89{fill:#ab3434;}.cls-90{fill:url(#linear-gradient-47);}.cls-91{fill:url(#linear-gradient-46);}.cls-92{fill:url(#linear-gradient-12);}.cls-93{fill:url(#linear-gradient-13);}.cls-94{fill:#1b374f;}.cls-95{fill:url(#linear-gradient-26);}</style><linearGradient id="linear-gradient" x1="1953.014" y1="913.68" x2="1953.014" y2="2310.31" gradientUnits="userSpaceOnUse"><stop offset="0" stop-color="#f2f2f2"/><stop offset="1" stop-color="#fcfcfc"/></linearGradient><linearGradient id="linear-gradient-2" x1="1703.872" y1="1449.796" x2="2634.645" y2="1449.796" gradientUnits="userSpaceOnUse"><stop offset="0" stop-color="#dbdbe6"/><stop offset="1" stop-color="#fff"/></linearGradient><linearGradient id="linear-gradient-3" x1="1820.846" y1="-11159.768" x2="1820.846" y2="-10798.466" gradientTransform="translate(0 -9774.676) scale(1 -1)" gradientUnits="userSpaceOnUse"><stop offset="0" stop-color="#fcfcfc"/><stop offset="1" stop-color="#fdfdfd"/></linearGradient><linearGradient id="linear-gradient-4" x1="1918.241" y1="-11159.768" x2="1918.241" y2="-10798.468" xlink:href="#linear-gradient-3"/><linearGradient id="linear-gradient-5" x1="2075.684" y1="973.04" x2="2075.684" y2="1698.546" gradientTransform="matrix(1,0,0,1,0,0)" xlink:href="#linear-gradient-3"/><linearGradient id="linear-gradient-6" x1="2233.323" y1="973.04" x2="2233.323" y2="1698.546" gradientTransform="matrix(1,0,0,1,0,0)" xlink:href="#linear-gradient-3"/><linearGradient id="linear-gradient-7" x1="2391.911" y1="973.04" x2="2391.911" y2="1698.545" gradientTransform="matrix(1,0,0,1,0,0)" xlink:href="#linear-gradient-3"/><linearGradient id="linear-gradient-8" x1="2519.679" y1="973.039" x2="2519.679" y2="1698.549" gradientTransform="matrix(1,0,0,1,0,0)" xlink:href="#linear-gradient-3"/><linearGradient id="linear-gradient-9" x1="2431.447" y1="973.04" x2="2431.447" y2="1698.546" gradientTransform="matrix(1,0,0,1,0,0)" xlink:href="#linear-gradient-3"/><linearGradient id="linear-gradient-10" x1="1750.059" y1="-11159.767" x2="1750.059" y2="-10798.469" xlink:href="#linear-gradient-3"/><linearGradient id="linear-gradient-11" x1="1819.405" y1="1853.515" x2="1819.405" y2="356.357" gradientUnits="userSpaceOnUse"><stop offset="0" stop-color="#eeeefa"/><stop offset="1" stop-color="#fff"/></linearGradient><linearGradient id="linear-gradient-12" x1="1274.742" y1="696.03" x2="1274.742" y2="1439.783" xlink:href="#linear-gradient-2"/><linearGradient id="linear-gradient-13" x1="926.329" y1="1400.348" x2="926.329" y2="634.194" gradientTransform="matrix(1,0,0,1,0,0)" xlink:href="#linear-gradient-3"/><linearGradient id="linear-gradient-14" x1="1023.724" y1="1650.723" x2="1023.724" y2="762.641" gradientTransform="matrix(1,0,0,1,0,0)" xlink:href="#linear-gradient-3"/><linearGradient id="linear-gradient-15" x1="1181.167" y1="1650.721" x2="1181.167" y2="762.638" gradientTransform="matrix(1,0,0,1,0,0)" xlink:href="#linear-gradient-3"/><linearGradient id="linear-gradient-16" x1="1338.807" y1="1650.722" x2="1338.807" y2="762.641" gradientTransform="matrix(1,0,0,1,0,0)" xlink:href="#linear-gradient-3"/><linearGradient id="linear-gradient-17" x1="1497.394" y1="1650.722" x2="1497.394" y2="762.639" gradientTransform="matrix(1,0,0,1,0,0)" xlink:href="#linear-gradient-3"/><linearGradient id="linear-gradient-18" x1="1625.163" y1="1650.72" x2="1625.163" y2="762.641" gradientTransform="matrix(1,0,0,1,0,0)" xlink:href="#linear-gradient-3"/><linearGradient id="linear-gradient-19" x1="1536.929" y1="1650.725" x2="1536.929" y2="762.639" gradientTransform="matrix(1,0,0,1,0,0)" xlink:href="#linear-gradient-3"/><linearGradient id="linear-gradient-20" x1="855.542" y1="1400.348" x2="855.542" y2="634.193" gradientTransform="matrix(1,0,0,1,0,0)" xlink:href="#linear-gradient-3"/><linearGradient id="linear-gradient-21" x1="2169.258" y1="696.03" x2="2169.258" y2="1439.783" xlink:href="#linear-gradient-2"/><linearGradient id="linear-gradient-22" y1="1650.722" y2="762.641" gradientTransform="matrix(1,0,0,1,0,0)" xlink:href="#linear-gradient-3"/><linearGradient id="linear-gradient-23" x1="1918.241" y1="1650.723" x2="1918.241" y2="762.641" gradientTransform="matrix(1,0,0,1,0,0)" xlink:href="#linear-gradient-3"/><linearGradient id="linear-gradient-24" x1="2075.684" y1="1650.721" x2="2075.684" y2="762.638" gradientTransform="matrix(1,0,0,1,0,0)" xlink:href="#linear-gradient-3"/><linearGradient id="linear-gradient-25" x1="2233.323" y1="1650.722" x2="2233.323" y2="762.641" gradientTransform="matrix(1,0,0,1,0,0)" xlink:href="#linear-gradient-3"/><linearGradient id="linear-gradient-26" x1="2391.911" y1="1650.722" x2="2391.911" y2="762.639" gradientTransform="matrix(1,0,0,1,0,0)" xlink:href="#linear-gradient-3"/><linearGradient id="linear-gradient-27" x1="2519.679" y1="1650.72" x2="2519.679" y2="762.641" gradientTransform="matrix(1,0,0,1,0,0)" xlink:href="#linear-gradient-3"/><linearGradient id="linear-gradient-28" x1="2431.447" y1="1650.725" x2="2431.447" y2="762.639" gradientTransform="matrix(1,0,0,1,0,0)" xlink:href="#linear-gradient-3"/><linearGradient id="linear-gradient-29" x1="1750.059" y1="1650.721" x2="1750.059" y2="762.638" gradientTransform="matrix(1,0,0,1,0,0)" xlink:href="#linear-gradient-3"/><linearGradient id="linear-gradient-30" x1="940.079" y1="1299.201" x2="1638.405" y2="1299.201" xlink:href="#linear-gradient-2"/><linearGradient id="linear-gradient-31" x1="2005.695" y1="1643.316" x2="2005.695" y2="970.795" xlink:href="#linear-gradient-2"/><linearGradient id="linear-gradient-32" x1="2936.031" y1="-371.365" x2="3261.309" y2="-371.365" gradientTransform="translate(-2037.099 -177.394) rotate(23.309)" gradientUnits="userSpaceOnUse"><stop offset="0" stop-color="#ff9f55"/><stop offset="1" stop-color="#ffd255"/></linearGradient><linearGradient id="linear-gradient-33" x1="486.823" y1="1706.15" x2="486.823" y2="1549.943" gradientTransform="matrix(1,0,0,1,0,0)" xlink:href="#linear-gradient-32"/><linearGradient id="linear-gradient-34" x1="481.311" y1="1353.945" x2="481.311" y2="1570.181" gradientUnits="userSpaceOnUse"><stop offset="0" stop-color="#40d5e6"/><stop offset="1" stop-color="#57f"/></linearGradient><linearGradient id="linear-gradient-35" x1="630.126" y1="1364.319" x2="630.126" y2="1202.653" gradientTransform="translate(1260.253 2600.341) rotate(-180)" xlink:href="#linear-gradient-32"/><linearGradient id="linear-gradient-36" x1="445.105" y1="929.659" x2="445.105" y2="1111.278" xlink:href="#linear-gradient-34"/><linearGradient id="linear-gradient-37" x1="582.188" y1="840.106" x2="582.188" y2="985.373" xlink:href="#linear-gradient-34"/><linearGradient id="linear-gradient-38" x1="3138.11" y1="-631.321" x2="3287.232" y2="-631.321" xlink:href="#linear-gradient-32"/><linearGradient id="linear-gradient-39" x1="1258.542" y1="847.614" x2="1280.078" y2="913.974" gradientTransform="matrix(1,0,0,1,0,0)" xlink:href="#linear-gradient-32"/><linearGradient id="linear-gradient-40" x1="1427.121" y1="1207.582" x2="1427.121" y2="1117.203" gradientTransform="matrix(1,0,0,1,0,0)" xlink:href="#linear-gradient-32"/><linearGradient id="linear-gradient-41" x1="-9400.514" y1="1251.183" x2="-9352.425" y2="1251.183" gradientTransform="translate(-7958.953) rotate(-180) scale(1 -1)" xlink:href="#linear-gradient-32"/><linearGradient id="linear-gradient-42" x1="-9349.457" y1="1048.203" x2="-9303.577" y2="1048.203" gradientTransform="translate(-7958.953) rotate(-180) scale(1 -1)" xlink:href="#linear-gradient-32"/><linearGradient id="linear-gradient-43" x1="-9259.21" y1="1494.785" x2="-9503.078" y2="1494.785" gradientTransform="translate(11266.405 2989.57) scale(1 -1)" xlink:href="#linear-gradient-32"/><linearGradient id="linear-gradient-44" x1="-9144.651" y1="1697.874" x2="-9386.157" y2="1697.874" gradientTransform="translate(11117.37 3395.749) scale(1 -1)" xlink:href="#linear-gradient-32"/><linearGradient id="linear-gradient-45" x1="-9680.569" y1="1606.01" x2="-9219.935" y2="1606.01" gradientTransform="translate(11415.881 3212.019) scale(1 -1)" gradientUnits="userSpaceOnUse"><stop offset="0" stop-color="#609ff0"/><stop offset="1" stop-color="#5a3f9e"/></linearGradient><linearGradient id="linear-gradient-46" x1="1373.17" y1="619.875" x2="1413.775" y2="744.991" gradientTransform="matrix(1,0,0,1,0,0)" xlink:href="#linear-gradient-32"/><linearGradient id="linear-gradient-47" x1="1385.074" y1="656.554" x2="1401.872" y2="708.314" gradientTransform="matrix(1,0,0,1,0,0)" xlink:href="#linear-gradient-32"/></defs><rect class="cls-75" x="1078.299" y="1194.745" width="1749.429" height="614.868"/><polygon class="cls-2" points="1703.872 1240.95 1703.872 1395.576 1764.116 1395.576 1764.116 1498.997 1834.401 1498.997 1834.401 1412.646 1888.621 1412.646 1888.621 1536.146 1877.577 1536.146 1877.577 1556.228 2002.081 1556.228 2002.081 1535.142 1990.032 1535.142 1990.032 1416.662 2019.15 1416.662 2019.15 1388.547 2072.365 1388.547 2072.365 1605.427 2125.582 1658.642 2143.655 1640.57 2161.336 1640.57 2161.336 1339.348 2221.972 1339.348 2221.972 1363.446 2268.159 1409.633 2305.31 1409.633 2305.31 1339.348 2343.464 1339.348 2343.464 1520.081 2404.713 1520.081 2404.713 1389.552 2454.917 1389.552 2454.917 1291.153 2521.185 1291.153 2521.185 1399.593 2634.645 1399.593 2634.645 1240.95 1703.872 1240.95"/><rect class="cls-72" x="1807.292" y="1240.95" width="27.109" height="258.047"/><polygon class="cls-84" points="1946.187 1556.228 1946.187 1329.977 1886.612 1329.977 1886.612 1275.757 1834.401 1275.757 1834.401 1240.95 1990.032 1240.95 1990.032 1535.142 2002.081 1535.142 2002.081 1556.228 1946.187 1556.228"/><polygon class="cls-51" points="2125.582 1658.642 2125.582 1302.198 2073.37 1302.198 2073.37 1388.547 2044.252 1388.547 2044.252 1312.238 1990.032 1312.238 1990.032 1240.95 2161.336 1240.95 2161.336 1640.57 2143.655 1640.57 2125.582 1658.642"/><polygon class="cls-22" points="2268.159 1409.633 2268.159 1314.247 2234.774 1280.861 2208.919 1280.861 2208.919 1263.54 2161.336 1263.54 2161.336 1240.95 2305.31 1240.95 2305.31 1409.633 2268.159 1409.633"/><rect class="cls-59" x="2379.109" y="1240.95" width="25.604" height="279.131"/><polygon class="cls-86" points="2634.645 1399.593 2587.454 1399.593 2587.454 1281.113 2553.315 1281.113 2553.315 1257.684 2404.713 1257.684 2404.713 1240.95 2634.645 1240.95 2634.645 1399.593"/><polygon class="cls-68" points="2454.917 1389.552 2435.336 1389.552 2435.336 1277.598 2407.977 1250.238 2454.917 1250.238 2454.917 1389.552"/><rect class="cls-35" x="1736.002" y="1240.95" width="28.113" height="154.626"/><rect class="cls-5" x="811.038" y=".007" width="2016.69" height="1240.493"/><path class="cls-30" d="m2827.745,1230.135v5.566c-2.318.835-4.916,1.717-7.747,2.505-1.763.509-3.665,1.021-5.706,1.531-9.416,2.271-21.246,4.36-35.952,6.029-24.958,2.784-124.28,3.989-251.342,10.811-3.665.186-7.33.416-11.042.602-90.043,5.058-193.029,12.943-293,26.21-3.666.512-7.33,1.022-10.995,1.486-34.979,4.824-69.446,10.298-102.848,16.608-42.261,7.932-82.714,17.07-119.966,27.74-6.818,1.948-13.592,3.944-20.225,6.03-5.753,1.81-11.365,3.617-16.934,5.475-172.479,57.896-254.125,153.784-74.874,314.34,47.968,42.959,114.538,90.554,203.05,143.207,6.264,3.759,12.666,7.517,19.16,11.319H811.066v-621.815h1965.882c17.906,12.942,34.886,27.093,50.797,42.355Z"/><polygon class="cls-92" points="809.355 1227.648 809.355 1073.021 869.599 1073.021 869.599 969.602 939.884 969.602 939.884 1055.953 994.104 1055.953 994.104 932.452 983.059 932.452 983.059 912.37 1107.563 912.37 1107.563 933.456 1095.515 933.456 1095.515 1051.935 1124.633 1051.935 1124.633 1080.049 1177.848 1080.049 1177.848 863.17 1231.065 809.955 1249.137 828.029 1266.82 828.029 1266.82 1129.249 1327.456 1129.249 1327.456 1105.151 1373.642 1058.964 1410.794 1058.964 1410.794 1129.249 1448.948 1129.249 1448.948 948.516 1510.196 948.516 1510.196 1079.045 1560.399 1079.045 1560.399 1177.445 1626.669 1177.445 1626.669 1069.005 1740.129 1069.005 1740.129 1227.648 809.355 1227.648"/><rect class="cls-93" x="912.774" y="969.602" width="27.11" height="258.046"/><polygon class="cls-18" points="1051.67 912.37 1051.67 1138.621 992.095 1138.621 992.095 1192.84 939.884 1192.84 939.884 1227.648 1095.515 1227.648 1095.515 933.456 1107.563 933.456 1107.563 912.37 1051.67 912.37"/><polygon class="cls-13" points="1231.065 809.955 1231.065 1166.4 1178.853 1166.4 1178.853 1080.049 1149.735 1080.049 1149.735 1156.359 1095.515 1156.359 1095.515 1227.648 1266.82 1227.648 1266.82 828.029 1249.137 828.029 1231.065 809.955"/><polygon class="cls-40" points="1373.642 1058.964 1373.642 1154.351 1340.256 1187.736 1314.403 1187.736 1314.403 1205.056 1266.82 1205.056 1266.82 1227.648 1410.794 1227.648 1410.794 1058.964 1373.642 1058.964"/><rect class="cls-7" x="1484.592" y="948.516" width="25.604" height="279.132"/><polygon class="cls-14" points="1740.129 1069.005 1676.941 1069.005 1676.941 1187.486 1658.798 1187.486 1658.798 1210.914 1510.196 1210.914 1510.196 1227.648 1740.129 1227.648 1740.129 1069.005"/><polygon class="cls-83" points="1560.399 1079.045 1540.82 1079.045 1540.82 1190.999 1513.459 1218.361 1560.399 1218.361 1560.399 1079.045"/><rect class="cls-21" x="841.485" y="1073.021" width="28.114" height="154.627"/><polygon class="cls-46" points="1703.872 1227.648 1703.872 1073.021 1764.116 1073.021 1764.116 969.602 1834.401 969.602 1834.401 1055.953 1888.621 1055.953 1888.621 932.452 1877.577 932.452 1877.577 912.37 2002.081 912.37 2002.081 933.456 1990.032 933.456 1990.032 1051.935 2019.15 1051.935 2019.15 1080.049 2072.365 1080.049 2072.365 863.17 2125.582 809.955 2143.655 828.029 2161.336 828.029 2161.336 1129.249 2221.972 1129.249 2221.972 1105.151 2268.159 1058.964 2305.31 1058.964 2305.31 1129.249 2343.464 1129.249 2343.464 948.516 2404.713 948.516 2404.713 1079.045 2454.917 1079.045 2454.917 1177.445 2521.185 1177.445 2521.185 1069.005 2634.645 1069.005 2634.645 1227.648 1703.872 1227.648"/><rect class="cls-69" x="1807.292" y="969.602" width="27.109" height="258.046"/><polygon class="cls-82" points="1946.187 912.37 1946.187 1138.621 1886.612 1138.621 1886.612 1192.84 1834.401 1192.84 1834.401 1227.648 1990.032 1227.648 1990.032 933.456 2002.081 933.456 2002.081 912.37 1946.187 912.37"/><polygon class="cls-64" points="2125.582 809.955 2125.582 1166.4 2073.37 1166.4 2073.37 1080.049 2044.252 1080.049 2044.252 1156.359 1990.032 1156.359 1990.032 1227.648 2161.336 1227.648 2161.336 828.029 2143.655 828.029 2125.582 809.955"/><polygon class="cls-50" points="2268.159 1058.964 2268.159 1154.351 2234.774 1187.736 2208.919 1187.736 2208.919 1205.056 2161.336 1205.056 2161.336 1227.648 2305.31 1227.648 2305.31 1058.964 2268.159 1058.964"/><rect class="cls-95" x="2379.109" y="948.516" width="25.604" height="279.132"/><polygon class="cls-76" points="2634.645 1069.005 2587.454 1069.005 2587.454 1187.486 2553.315 1187.486 2553.315 1210.914 2404.713 1210.914 2404.713 1227.648 2634.645 1227.648 2634.645 1069.005"/><polygon class="cls-17" points="2454.917 1079.045 2435.336 1079.045 2435.336 1190.999 2407.977 1218.361 2454.917 1218.361 2454.917 1079.045"/><rect class="cls-80" x="1736.002" y="1073.021" width="28.113" height="154.627"/><path class="cls-10" d="m1074.659,1218.593s79.677-36.216,95.974-25.351c16.298,10.864,90.542-13.122,143.056-2.033,52.515,11.087,83.298,36.834,134.002,12.19,50.703-24.645,110.46-15.194,119.515,0,9.054,15.193,21.73,8.347,79.677,0,57.946-8.347,54.324-4.725,130.38,15.193,76.056,19.92,126.053,19.92,126.053,19.92h-828.655v-19.92Z"/><path class="cls-81" d="m964.223,1261.451s18.108-66.397,112.271-33.803c94.164,32.595,114.686,72.434,251.102,67.604,136.416-4.828,196.777,60.361,252.31,59.154,55.532-1.208,58.499,25.351,58.499,25.351h-698.326l24.145-118.307Z"/><path class="cls-42" d="m2446.881,1238.533c-8.008.234-103.486,3.387-223.926,16.591-3.643.405-7.305.81-11.012,1.235-93.517,10.606-200.603,27.283-293.036,53.244-3.684,1.024-7.348,2.066-10.989,3.131-28.604,8.392-55.651,17.678-80.272,28.007-89.153,37.42-146.529,88.259-130.769,157.327,22.873,100.164,140.905,208.677,293.781,311.545h-266.499c-68.558-74.052-123.229-152.45-147.169-229.846-35.333-114.242,6.496-189.316,98.185-239.026,59.228-32.159,139.266-53.734,232.742-68.451,3.642-.575,7.306-1.128,10.989-1.682,88.216-13.27,187.889-20.681,293.036-25.303,3.664-.171,7.326-.319,11.012-.468,72.796-3.067,148.105-4.836,223.926-6.305Z"/><path class="cls-10" d="m1554.71,1224.027s56.136,17.203,94.162-13.129c38.028-30.332,132.192-27.615,173.841,0,41.649,27.615,92.353,12.091,117.704-1.877,25.351-13.968,74.244-9.951,135.812,4.338,61.568,14.289,61.568-6.215,123.136-4.338,61.569,1.877,248.085,29.492,248.085,29.492h-918.093l25.353-14.486Z"/><path class="cls-10" d="m2218.607,1238.513s69.958-55.64,106.278-40.25c36.321,15.39,69.34,34.6,94.103,18.779,24.764-15.82,64.387-17.208,75.943-3.195,11.557,14.012,52.908,5.65,74.523,3.195,58.173-6.606,81.487,21.471,81.487,21.471h-432.336Z"/><path class="cls-37" d="m1696.917,1809.613h-714.01v-78.845s34.161-62.211,90.174-75.692c13.184-3.174,27.602-3.663,43.044,0,10.266,2.428,21.02,6.708,32.202,13.247,99.27,58.079,184.504-13.141,251.868,71.348,67.407,84.53,138.351-26.899,257.683,42.383,15.888,9.222,28.645,18.444,39.039,27.56Z"/><path class="cls-5" d="m2025.16,555.59c0,3.49-2.83,6.32-6.321,6.32s-6.32-2.83-6.32-6.32,2.83-6.32,6.32-6.32,6.321,2.829,6.321,6.32Z"/><path class="cls-5" d="m2311.63,912.37c0,3.491-2.829,6.321-6.32,6.321s-6.321-2.83-6.321-6.321,2.83-6.32,6.321-6.32,6.32,2.829,6.32,6.32Z"/><path class="cls-5" d="m1888.361,402.137c0,3.491-2.83,6.32-6.321,6.32s-6.32-2.83-6.32-6.32,2.83-6.32,6.32-6.32,6.321,2.829,6.321,6.32Z"/><path class="cls-5" d="m1933.848,712.404c0,6.595-5.347,11.94-11.941,11.94s-11.941-5.346-11.941-11.94,5.347-11.941,11.941-11.941,11.941,5.346,11.941,11.941Z"/><path class="cls-5" d="m1338.2,214.379c0,5.456-4.424,9.879-9.881,9.879s-9.879-4.423-9.879-9.879,4.423-9.88,9.879-9.88,9.881,4.423,9.881,9.88Z"/><path class="cls-5" d="m1983.551,329.575c-.585,2.437-3.035,3.939-5.472,3.354-2.438-.585-3.94-3.035-3.353-5.473.585-2.437,3.034-3.939,5.472-3.354,2.438.586,3.939,3.035,3.353,5.473Z"/><path class="cls-5" d="m1838.371,512.266c-1.245,5.188-6.46,8.383-11.646,7.138-5.189-1.244-8.384-6.459-7.139-11.648,1.245-5.186,6.459-8.382,11.647-7.137,5.186,1.245,8.382,6.46,7.137,11.646Z"/><path class="cls-5" d="m1928.227,214.379c0,3.491-2.83,6.32-6.32,6.32s-6.32-2.83-6.32-6.32,2.83-6.321,6.32-6.321,6.32,2.83,6.32,6.321Z"/><path class="cls-5" d="m2007.217,95.993c-.586,2.438-3.035,3.939-5.473,3.354-2.438-.584-3.939-3.035-3.354-5.472.585-2.438,3.035-3.939,5.473-3.354,2.436.585,3.938,3.035,3.353,5.472Z"/><path class="cls-5" d="m1833.391,847.175c-.584,2.438-3.034,3.939-5.472,3.355-2.438-.586-3.938-3.036-3.353-5.473.585-2.438,3.035-3.939,5.473-3.354,2.436.585,3.938,3.034,3.352,5.472Z"/><path class="cls-5" d="m1766.038,97.189c-1.244,5.188-6.459,8.383-11.647,7.138-5.188-1.246-8.383-6.46-7.137-11.647,1.245-5.188,6.459-8.383,11.646-7.138,5.186,1.245,8.383,6.46,7.137,11.647Z"/><path class="cls-5" d="m2214.564,736.286c0,6.595-5.346,11.94-11.941,11.94s-11.94-5.346-11.94-11.94,5.346-11.941,11.94-11.941,11.941,5.347,11.941,11.941Z"/><path class="cls-5" d="m1658.84,286.725c0,6.595-5.347,11.941-11.94,11.941s-11.941-5.346-11.941-11.941,5.346-11.941,11.941-11.941,11.94,5.346,11.94,11.941Z"/><path class="cls-5" d="m2168.598,106.874c0,6.595-5.347,11.941-11.941,11.941s-11.94-5.346-11.94-11.941,5.346-11.941,11.94-11.941,11.941,5.346,11.941,11.941Z"/><path class="cls-5" d="m2133.63,396.876c-.585,2.437-3.035,3.938-5.473,3.353-2.438-.585-3.939-3.036-3.353-5.473s3.035-3.939,5.473-3.354c2.436.586,3.938,3.036,3.354,5.473Z"/><path class="cls-5" d="m2435.86,847.175c-.586,2.438-3.036,3.939-5.473,3.355-2.438-.586-3.939-3.036-3.353-5.473.584-2.438,3.035-3.939,5.472-3.354,2.436.585,3.938,3.034,3.354,5.472Z"/><path class="cls-5" d="m1308.804,650.613c-.585,2.438-3.035,3.939-5.473,3.355-2.436-.586-3.938-3.035-3.352-5.473.584-2.438,3.034-3.939,5.471-3.355,2.439.586,3.94,3.035,3.355,5.473Z"/><path class="cls-5" d="m2659.895,804.694c-.584,2.437-3.035,3.939-5.472,3.354-2.436-.585-3.938-3.035-3.355-5.473.586-2.438,3.036-3.939,5.473-3.354,2.438.585,3.939,3.035,3.353,5.473Z"/><path class="cls-5" d="m1607.054,687.444c0,6.595-5.347,11.941-11.941,11.941s-11.941-5.347-11.941-11.941,5.347-11.94,11.941-11.94,11.941,5.346,11.941,11.94Z"/><path class="cls-5" d="m1611.466,464.615c-.585,2.437-3.035,3.939-5.472,3.354-2.438-.585-3.939-3.036-3.354-5.473.584-2.437,3.034-3.939,5.472-3.355,2.436.585,3.939,3.036,3.354,5.473Z"/><polygon class="cls-10" points="2827.728 0 2827.728 1809.613 0 1809.613 0 0 1178.655 0 1178.655 1340.741 1471.691 1340.741 1471.691 0 1482.681 0 1482.681 1340.741 1775.718 1340.741 1775.718 0 1786.729 0 1786.729 1340.741 2079.766 1340.741 2079.766 0 2090.755 0 2090.755 1340.741 2383.793 1340.741 2383.793 0 2394.803 0 2394.803 1340.741 2687.819 1340.741 2687.819 0 2698.83 0 2698.83 1340.741 2778.339 1340.741 2778.339 0 2827.728 0"/><rect class="cls-29" x="1552.495" width="4.509" height="525.05"/><path class="cls-29" d="m1389.929,573.189s80.551-67.011,164.82-67.011,164.82,67.011,164.82,67.011h-329.641Z"/><rect class="cls-29" x="1005.961" width="4.509" height="525.05"/><path class="cls-29" d="m843.396,573.189s80.551-67.011,164.82-67.011,164.82,67.011,164.82,67.011h-329.641Z"/><rect class="cls-19" y="1610.68" width="2827.728" height="209.319"/><path class="cls-28" d="m1094.297,729.118c2.025-13.044,2.149-26.133.532-38.91l22.971-14.955-11.005-27.669-11.004-27.67-26.968,4.906c-7.601-10.397-16.68-19.826-27.11-27.915l5.663-26.796-27.347-11.783-27.346-11.784-15.588,22.518c-13.044-2.025-26.131-2.15-38.908-.533l-14.957-22.97-27.668,11.005-27.669,11.004,4.905,26.968c-10.398,7.6-19.826,16.68-27.916,27.109l-26.795-5.662-11.784,27.346-11.783,27.347,22.519,15.587c-2.025,13.044-2.149,26.132-.532,38.91l-22.971,14.955,11.005,27.669,11.004,27.67,26.968-4.906c7.601,10.398,16.679,19.826,27.109,27.915l-5.662,26.796,27.347,11.783,27.346,11.784,15.588-22.52c13.043,2.025,26.131,2.15,38.908.532l14.955,22.971,27.67-11.004,27.669-11.005-4.905-26.967c10.398-7.601,19.825-16.681,27.915-27.109l26.796,5.662,11.784-27.346,11.783-27.347-22.519-15.587Zm-179.92,74.395c-52.921-22.806-77.336-84.193-54.531-137.113,22.804-52.922,84.191-77.336,137.113-54.533,52.92,22.805,77.336,84.192,54.531,137.113-22.804,52.922-84.191,77.336-137.113,54.533Z"/><polygon class="cls-15" points="314.971 757.512 309.483 757.512 326.226 723.672 331.714 723.672 314.971 757.512"/><rect class="cls-15" x="138.465" y="754.413" width="265.613" height="4.209"/><rect class="cls-15" x="138.465" y="768.061" width="141.886" height="24.362"/><rect class="cls-15" x="309.483" y="710.28" width="73.93" height="13.393"/><rect class="cls-15" x="309.483" y="704.03" width="73.93" height="2.52"/><path class="cls-77" d="m231.476,1573.421h550.891v145.647H231.478c-22.186,0-40.198-18.012-40.198-40.198v-65.252c0-22.185,18.012-40.197,40.197-40.197Z"/><path class="cls-25" d="m876.978,1588.417v115.666h9.661v14.993h-399.302c-22.201,0-40.198-17.997-40.198-40.197v-65.256c0-22.201,17.997-40.197,40.198-40.197h399.302v14.991h-9.661Z"/><path class="cls-66" d="m516.812,1588.412h360.157v115.666h-360.158c-22.185,0-40.197-18.012-40.197-40.197v-35.271c0-22.186,18.012-40.198,40.198-40.198Z"/><path class="cls-58" d="m205.025,1404.035h603.078v169.381H205.025c-27.875,0-50.507-22.631-50.507-50.507v-68.367c0-27.875,22.631-50.507,50.507-50.507Z"/><path class="cls-73" d="m915.08,1421.474v134.516h8.321v17.437h-328.003c-27.893,0-50.507-22.613-50.507-50.508v-68.373c0-27.894,22.613-50.507,50.507-50.507h328.003v17.435h-8.321Z"/><path class="cls-66" d="m620.782,1421.467h294.29v134.515h-294.29c-27.875,0-50.507-22.631-50.507-50.507v-33.501c0-27.875,22.631-50.507,50.507-50.507Z"/><path class="cls-27" d="m428.274,1196.339h458.365v207.662h-458.365c-30.168,0-54.66-24.492-54.66-54.66v-98.342c0-30.168,24.492-54.66,54.66-54.66Z" transform="translate(1260.253 2600.341) rotate(180)"/><path class="cls-25" d="m291.498,1217.72v164.917h-8.385v21.376h326.797c30.188,0,54.66-24.472,54.66-54.659v-98.349c0-30.188-24.472-54.66-54.66-54.66h-326.797v21.375h8.385Z"/><path class="cls-66" d="m345.838,1217.712h288.99v164.916h-288.99c-29.987,0-54.332-24.345-54.332-54.332v-56.252c0-29.987,24.345-54.332,54.332-54.332Z" transform="translate(926.333 2600.341) rotate(180)"/><path class="cls-20" d="m230.82,988.627h486.032v207.662H230.821c-31.715,0-57.463-25.748-57.463-57.463v-92.737c0-31.714,25.748-57.462,57.462-57.462Z"/><path class="cls-73" d="m803.844,1010.008v164.917h8.885v21.376h-346.65c-31.735,0-57.463-25.728-57.463-57.463v-92.742c0-31.735,25.728-57.463,57.463-57.463h346.65v21.375h-8.885Z"/><path class="cls-66" d="m496.001,1010.002h307.835v164.915h-307.834c-31.583,0-57.224-25.641-57.224-57.224v-50.469c0-31.582,25.641-57.223,57.223-57.223Z"/><path class="cls-38" d="m346.108,831.417h507.827v157.151h-507.827c-19.685,0-35.667-15.982-35.667-35.667v-85.817c0-19.685,15.982-35.667,35.667-35.667Z"/><path class="cls-73" d="m940.928,847.598v124.803h8.885v16.177h-368.446c-19.698,0-35.667-15.969-35.667-35.667v-85.821c0-19.698,15.969-35.668,35.667-35.668h368.446v16.177h-8.885Z"/><path class="cls-66" d="m608.468,847.591h332.451v124.803h-332.452c-19.685,0-35.667-15.982-35.667-35.667v-53.468c0-19.686,15.982-35.668,35.668-35.668Z"/><path class="cls-78" d="m1226.785,523.878c.929-5.979.985-11.978.245-17.837l10.53-6.857-5.045-12.685-5.045-12.685-12.363,2.25c-3.483-4.769-7.646-9.09-12.428-12.799l2.596-12.284-12.537-5.402-12.536-5.401-7.147,10.323c-5.979-.929-11.979-.985-17.838-.244l-6.855-10.53-12.686,5.045-12.685,5.045,2.249,12.363c-4.767,3.483-9.089,7.645-12.798,12.428l-12.284-2.596-5.402,12.536-5.402,12.537,10.324,7.146c-.929,5.979-.985,11.98-.244,17.838l-10.531,6.855,5.045,12.685,5.045,12.685,12.363-2.248c3.484,4.767,7.647,9.089,12.429,12.797l-2.597,12.285,12.538,5.401,12.536,5.402,7.147-10.323c5.979.929,11.978.985,17.837.244l6.856,10.531,12.685-5.046,12.685-5.045-2.249-12.362c4.767-3.485,9.09-7.647,12.798-12.43l12.285,2.597,5.402-12.537,5.401-12.536-10.324-7.147Zm-82.483,34.106c-24.261-10.454-35.454-38.597-24.999-62.858,10.454-24.262,38.597-35.454,62.857-25,24.262,10.454,35.455,38.598,25.001,62.858-10.455,24.263-38.598,35.455-62.859,25Z"/><rect class="cls-67" x="667.36" y="425.37" width="145.579" height="38.82" rx="9.661" ry="9.661"/><path class="cls-67" d="m677.022,498.054h126.256c5.332,0,9.661,4.329,9.661,9.661v19.499c0,5.332-4.329,9.661-9.661,9.661h-126.257c-5.332,0-9.661-4.329-9.661-9.661v-19.498c0-5.333,4.329-9.662,9.662-9.662Z"/><path class="cls-67" d="m677.023,570.74h126.255c5.332,0,9.661,4.329,9.661,9.661v19.499c0,5.332-4.329,9.661-9.661,9.661h-126.257c-5.332,0-9.661-4.329-9.661-9.661v-19.497c0-5.333,4.33-9.663,9.663-9.663Z"/><path class="cls-67" d="m596.973,338.78c-32.383-90.547-118.919-146.162-210.126-143.42-22.08.664-44.433,4.748-66.369,12.592-66.433,23.762-114.072,76.679-133.643,139.194-13.564,43.327-13.65,91.262,2.819,137.308,1.635,4.578,3.415,9.084,5.324,13.483,8.662,19.943,20.029,37.984,33.529,53.842,56.6,66.543,150.519,94.663,237.647,63.507,112.478-40.231,171.045-164.023,130.818-276.506Zm-149.051,225.53c-65.323,23.364-135.734,2.277-178.171-47.604-10.115-11.89-18.645-25.417-25.131-40.374-1.433-3.301-2.769-6.676-3.999-10.111-12.347-34.52-12.277-70.459-2.109-102.936,14.672-46.878,50.384-86.554,100.193-104.362,16.441-5.881,33.203-8.941,49.757-9.446,68.373-2.065,133.263,39.636,157.546,107.525,30.159,84.335-13.755,177.144-98.086,207.308Z"/><path class="cls-70" d="m238.512,363.284l-51.676-16.138c19.57-62.516,67.21-115.432,133.643-139.194,21.936-7.844,44.289-11.928,66.369-12.592l1.615,54.116c-16.555.504-33.316,3.564-49.757,9.446-49.81,17.808-85.521,57.484-100.193,104.362Z"/><path class="cls-8" d="m244.62,476.332l-49.641,21.605c-1.909-4.399-3.689-8.905-5.324-13.483-16.47-46.046-16.383-93.981-2.819-137.308l51.676,16.138c-10.168,32.477-10.238,68.417,2.109,102.936,1.229,3.436,2.566,6.811,3.999,10.111Z"/><path class="cls-3" d="m228.508,551.779c-13.5-15.857-24.867-33.898-33.529-53.842l49.641-21.605c6.486,14.957,15.017,28.484,25.131,40.374l-41.243,35.073Z"/><path class="cls-32" d="m1256.274,921.7l-48.578-42.35c-3.984-3.474-4.398-9.519-.926-13.502,3.473-3.982,9.517-4.396,13.501-.925l34.352,29.949,48.988-54.641c3.527-3.935,9.578-4.266,13.512-.738,3.936,3.528,4.265,9.578.738,13.514l-61.588,68.692Z"/><path class="cls-57" d="m1294.238,1649.207s7.517,11.374,13.071,15.342c5.556,3.969,34.917,20.104,39.943,20.898,5.026.793,33.49,5.659,33.41,10.148-.163,9.131-20.57,10.002-47.022,8.68-26.453-1.323-63.902,2.239-67.342-.898-3.438-3.137-4.225-16.343-1.314-29.305,2.91-12.961,1.588-24.469,1.588-24.469l27.665-.396Z"/><path class="cls-57" d="m1213.403,1705.019c-1.35,6.784-49.166,6.945-54.324-2.315s-45.355-37.688-47.211-48.535c-.811-4.729.87-9.93,3.949-16.43,3.983-8.403,10.689-16.657,18.736-20.537,14.792-7.134,24.49,23.673,24.49,23.673,0,0,2.245,10.713,4.364,14.419,2.118,3.697,17.99,31.742,24.339,33.854,6.349,2.118,27.935,4.421,25.656,15.872Z"/><path class="cls-62" d="m1089.018,1316.671s27.621,3.818,36.402.081c8.781-3.735,55.67,28.039,55.588,33.001-.082,4.963-1.543,7.102-1.543,7.102l-100.834-21.915,10.387-18.269Z"/><path class="cls-47" d="m1251.44,1426.828s-24.455,55.018-41.908,94.283c-2.932,6.609-5.67,12.768-8.06,18.142-2.798,6.299-5.122,11.517-6.721,15.122-11.11,24.995-31.146,86.496-31.146,86.496,0,0-30.947-5.751-32.139-23.212,0,0,22.82-38.289,22.82-64.868s3.566-104.891,28.962-121.818c30.969-20.644,51.079-24.552,68.192-4.145Z"/><path class="cls-47" d="m1025.326,1322.253s5.158,5.159,9.522,6.349c4.365,1.191,77.374,6.746,111.101,17.855,33.727,11.11,78.564,18.252,86.897,27.775,8.333,9.522,22.22,61.898,21.823,71.819-.397,9.919,38.053,190.108,41.795,203.154,1.984,6.915-31.743,4.894-31.743,4.894,0,0-45.249-112.427-54.095-130.675-16.253-33.527-17.061-74.597-23.014-80.945-5.952-6.349-72.216-20.633-110.307-20.633s-123.401,3.174-132.527-1.983c-9.126-5.158-66.264-42.854-42.456-93.245,23.807-50.392,123.004-4.365,123.004-4.365Z"/><path class="cls-45" d="m1114.352,1019.474s-32.171,87.653-53.385,114.229c-21.213,26.575-12.557-72.033-12.557-72.033,0,0,36.802-57.348,65.941-42.195Z"/><path class="cls-45" d="m1128.599,1013.661s19.363-65.245-54.693-69.483c-73.315-4.196-19.826,80.649-62.593,117.492-18.569,15.997-33.919,32.869-39.863,53.15,0,0-10.49,29.84,1.961,65.439,16.816,48.077,102.216-193.576,155.189-166.598Z"/><path class="cls-6" d="m1089.858,960.906c14.133,3.379,43.005,19.379,37.027,57.7,0,0-4.011,9.633-8.702,16.754-4.691,7.121-4.39,32.227-6.551,32.833-2.16.605-10.142-.14-10.142-.14,0,0-15.459,22.837-24.243,20.048-8.785-2.789-40.265-19.442-46.921-55.382-6.656-35.939,2.461-85.456,59.531-71.813Z"/><path class="cls-6" d="m1068.639,1073.13s-2.116,3.215-4.878,8.099c-1.411,2.494-2.989,5.422-4.537,8.573-4.28,8.73-8.348,19.201-8.046,27.051,0,0-21.53,1.088-28.944-31.05,0,0,15.299-27.854,11.926-48.421-3.373-20.56,34.48,35.748,34.48,35.748Z"/><path class="cls-45" d="m1126.885,1018.606s-27.109,8.845-50.469,5.429c-23.359-3.415-44.448,15.591-44.448,15.591,0,0-21.71-52.847,15.94-79.524,37.65-26.677,96.384,16.876,78.977,58.505Z"/><path class="cls-6" d="m1067.381,1020.289c1.142-4.383-1.799-12.312-10.648-8.444-8.85,3.868-5.282,27.323,1.144,26.995,6.427-.329,8.324-14.021,9.505-18.551Z"/><path class="cls-60" d="m1063.761,1081.229c-1.411,2.494-2.989,5.422-4.537,8.573-14.812-16.815-19.881-33.481-19.881-33.481,7.651,12.41,24.418,24.908,24.418,24.908Z"/><path class="cls-74" d="m1086.492,1202.339c-9.666,17.883-21.22,15.692-24.662,29.977-3.441,14.286.415,16.722-13.338,36.824-2.546,3.724-4.944,7.884-7.157,12.198-.259.511-.525,1.021-.777,1.54-1.222,2.428-2.376,4.892-3.472,7.342-2.021,4.529-3.827,9.001-5.374,13.109-4.049,10.717-6.388,18.926-6.388,18.926,0,0-75.786,24.596-123.002,4.359,0,0,28.171-49.591,40.473-65.861,12.302-16.269,30.154-109.116,32.931-128.56,2.783-19.443,29.028-57.266,51.248-56.473l29.284,20.559s19.591,51.65,25.149,59.585c5.552,7.942,14.893,28.342,5.085,46.476Z"/><path class="cls-94" d="m1040.737,1282.514l-.18.364c-1.222,2.428-2.376,4.892-3.472,7.342-2.021,4.529-3.827,9.001-5.374,13.109-18.659-2.762-53.78-28.764-53.78-28.764l43.959-72.752-18.667,59.555c5.676,1.606,20.48,9.252,22.331,12.457,1.851,3.212,15.183,8.688,15.183,8.688Z"/><path class="cls-74" d="m1025.729,1093.091c11.567,4.135,32.066,21.511,19.27,52.195-12.795,30.686-20.201,51.886-24.699,59.538-4.497,7.651-30.684,60.61-30.684,60.61,0,0,25.922,7.617,37.826,15.553,11.903,7.936,67.588,32.065,67.588,32.065l-13.757,22.89s-117.317-23.829-126.311-32.911c-8.994-9.082.264-54.845,3.703-72.832,3.439-17.988,21.691-88.352,21.956-96.288.264-7.935,14.943-51.602,45.107-40.82Z"/><path class="cls-74" d="m1032.437,1323.627s-7.935,124.821-15.274,128.337c-9.686,4.64-87.341,3.454-108.065-22.698-20.725-26.153-23.489-73.989-6.775-102.65,16.715-28.66,130.115-2.988,130.115-2.988Z"/><path class="cls-89" d="m1209.532,1521.111c-2.932,6.609-5.67,12.768-8.06,18.142-8.993-28.919-8.253-77.252-8.253-77.252,5.403,33.7,16.15,58.726,16.313,59.11Z"/><path class="cls-56" d="m1127.82,980.712s-17.525,35.685-99.677,49.77l-9.086-18.263s79.991-3.108,106.866-44.582l1.896,13.075Z"/><path class="cls-56" d="m982.919,1048.372c-8.05,4.528-7.044,26.162-7.044,26.162h14.087s1.007-21.634-7.043-26.162Z"/><rect class="cls-56" x="981.62" y="986.993" width="2.6" height="67.796"/><polygon class="cls-33" points="956.948 991.446 1069.287 1033.353 1170.577 942.276 1054.36 912.37 956.948 991.446"/><polygon class="cls-23" points="1354.678 1261.53 1185.951 1261.53 1185.834 1247.347 1354.562 1246.069 1354.678 1261.53"/><rect class="cls-23" x="1289.346" y="1175.014" width="160.214" height="14.674" transform="translate(-161.702 2146.157) rotate(-72.995)"/><polygon class="cls-55" points="1128.39 1699.741 1124.788 1709.877 972.545 1662.705 979.236 1640.892 1128.39 1699.741"/><rect class="cls-12" x="1652.805" y="1286.742" width="14.395" height="443.481"/><rect class="cls-39" x="1174.217" y="1261.53" width="581.643" height="25.216" transform="translate(2930.077 2548.275) rotate(180)"/><rect class="cls-12" x="1255.162" y="1286.746" width="14.396" height="443.481" transform="translate(2524.719 3016.973) rotate(180)"/><rect class="cls-55" x="965.986" y="1439.037" width="17.304" height="218.415"/><path class="cls-23" d="m836.45,1415.39h249.571c12.465,0,22.585,10.12,22.585,22.585v7.366h-272.156v-29.951h0Z"/><path class="cls-23" d="m978.067,1319.857s-6.86,27.748,25.445,34.054c32.306,6.306,72.034,14.355,72.034,64.191h-112.042l14.562-98.244Z"/><path class="cls-23" d="m836.45,1445.341l-95.146-399.881s172.01-26.872,192.504,50.372c20.492,77.243,54.204,306.685,95.191,320.872,40.986,14.188-192.548,28.637-192.548,28.637Z"/><path class="cls-63" d="m1142.618,1713.839c0,7.858-6.37,14.227-14.228,14.227s-14.227-6.369-14.227-14.227,6.37-14.228,14.227-14.228,14.228,6.37,14.228,14.228Z"/><polygon class="cls-55" points="822.222 1699.741 825.826 1709.877 978.067 1662.705 970.771 1642.181 822.222 1699.741"/><polygon class="cls-55" points="1021.126 1708.792 1021.126 1720.582 972.545 1662.705 979.236 1640.892 1021.126 1708.792"/><path class="cls-63" d="m1022.335,1713.839c0,7.858-6.37,14.227-14.228,14.227s-14.227-6.369-14.227-14.227,6.369-14.228,14.227-14.228,14.228,6.37,14.228,14.228Z"/><path class="cls-63" d="m836.45,1713.839c0,7.858-6.37,14.227-14.227,14.227s-14.228-6.369-14.228-14.227,6.37-14.228,14.228-14.228,14.227,6.37,14.227,14.228Z"/><path class="cls-54" d="m1583.663,1086.293c28.113,0,50.904-22.792,50.904-50.905,0-7.59-1.658-14.783-4.641-21.252-8.051-17.503-25.734-29.652-46.264-29.652-28.112,0-50.903,22.792-50.903,50.904,0,9.653,2.685,18.682,7.357,26.373,8.921,14.702,25.086,24.532,43.546,24.532Z"/><path class="cls-88" d="m1635.362,1081.728c19.671,0,35.621-15.95,35.621-35.621,0-1.135-.051-2.258-.157-3.366-1.696-18.096-16.929-32.256-35.464-32.256-19.671,0-35.622,15.951-35.622,35.622,0,12.471,6.412,23.447,16.115,29.809,5.605,3.676,12.307,5.812,19.507,5.812Z"/><path class="cls-48" d="m1582.834,1038.066s-2.838,23.642-3.783,55.794c-.946,32.152,24.588,32.152,24.588,32.152v117.773h17.724s-.421-120.131,8.406-129.798c8.826-9.668,8.826-55.482,8.826-55.482l-5.044-2.942s7.566,54.221-26.899,62.206c-34.466,7.986-21.436-77.337-21.436-77.337l-2.381-2.367Z"/><path class="cls-9" d="m1571.053,1043.584c29.223-5.459,48.471-18.094,58.873-29.448-8.051-17.503-25.734-29.652-46.264-29.652-28.112,0-50.903,22.792-50.903,50.904,0,9.653,2.685,18.682,7.357,26.373,1.399-6.922,8.978-14.078,30.937-18.177Z"/><path class="cls-24" d="m1645.764,1055.879c11.809-3.404,19.809-8.076,25.061-13.139-1.696-18.096-16.929-32.256-35.464-32.256-19.671,0-35.622,15.951-35.622,35.622,0,12.471,6.412,23.447,16.115,29.809,3.612-6.821,11.783-14.816,29.909-20.036Z"/><polygon class="cls-41" points="1665.817 1189.037 1546.032 1189.037 1552.206 1211.265 1658.408 1211.265 1665.817 1189.037"/><polygon class="cls-49" points="1650.851 1211.266 1561.95 1211.266 1574.298 1261.551 1642.208 1261.551 1650.851 1211.266"/><path class="cls-24" d="m1638.594,1014.957l3.071.947s4.835-13.136,5.149-14.922c.316-1.786-8.221,13.975-8.221,13.975Z"/><path class="cls-24" d="m1667.621,1015.904l-15.236,4.623s.104,1.365,2.102,1.365,13.135-5.988,13.135-5.988Z"/><path class="cls-24" d="m1662.367,1047.847h-3.888s.734,5.778,3.888,9.457c3.152,3.678,0-9.457,0-9.457Z"/><path class="cls-9" d="m1568.846,974.922c-1.575,1.156,5.569,18.599,5.569,18.599h3.573s-7.566-19.755-9.143-18.599Z"/><path class="cls-9" d="m1585.45,989.213c.63-4.73-3.048-12.715-3.048-12.715v11.979s2.417,5.465,3.048.736Z"/><path class="cls-9" d="m1557.289,1057.954c2.206-1.806,2.311-17.672,2.311-17.672l-3.468,1.261s-1.051,18.217,1.156,16.411Z"/><path class="cls-79" d="m1621.401,1211.266h-59.451l12.349,50.285h19.468c-11.002-40.464,27.635-50.285,27.635-50.285Z"/><path class="cls-26" d="m1577.422,1261.551c4.879-2.032,12.757-25.065,16.549-36.99,1.344-4.232,2.175-7.065,2.175-7.065h-44.605c3.854,27.534,13.216,44.056,13.216,44.056h12.666Z"/><path class="cls-61" d="m1581.002,1203.778c0-1.602,7.159-8.31,10.738-12.691,3.58-4.38-1.376-12.691-1.376-12.691-15.971,6.609-13.218,25.383-13.218,25.383,0,0,3.855,1.603,3.855,0Z"/><path class="cls-61" d="m1571.916,1204.49h1.929s1.377-32.427-10.464-36.832c-11.84-4.406-11.84-13.218-11.84-13.218,0,0-3.58,12.115,2.203,18.449,5.782,6.333,12.391,13.768,11.289,19.824-1.102,6.059,6.883,11.776,6.883,11.776Z"/><path class="cls-31" d="m1593.971,1224.561c1.344-4.232,2.175-7.065,2.175-7.065h-44.605c3.854,27.534,13.216,44.056,13.216,44.056h2.912c-.542-25.782,16.434-34.25,26.303-36.99Z"/><polygon class="cls-53" points="1596.137 1203.778 1551.202 1203.778 1548.644 1217.496 1597.964 1217.496 1596.137 1203.778"/><path class="cls-16" d="m1473.442,1122.044l-51.89,116.888-1.395,3.14c-2.718.297-4.955-.324-5.771-.601l1.146-2.577,51.393-115.758-74.887-80.528-11.239-2.442,1.173-5.393,12.93,2.815,78.54,84.457Z"/><path class="cls-43" d="m1393.535,1261.53h48.026s-.082-1.155-.528-2.919c-1.442-5.703-6.706-17.774-25.397-17.774s-21.724,12.074-22.112,17.774c-.121,1.767.011,2.919.011,2.919Z"/><path class="cls-71" d="m1344.625,1016.734l3.245,9.193,19.66,55.717c7.997-2.822,14.3-8.3,18.265-15.094,4.921-8.43,6.242-18.886,2.737-28.815-6.326-17.925-25.982-27.327-43.907-21.002Z"/><path class="cls-65" d="m1422.763,1238.943v2.561c-.897.297-1.773.476-2.605.567-2.718.297-4.955-.324-5.771-.601-.216-.07-.335-.118-.335-.118v-2.47l1.481.011,6.02.038,1.211.011Z"/><path class="cls-4" d="m1393.535,1261.53h48.026s-.082-1.155-.528-2.919h-47.509c-.121,1.767.011,2.919.011,2.919Z"/><path class="cls-65" d="m1344.625,1016.734l3.245,9.193c11.475,9.048,29.281,24.692,37.925,40.623,4.921-8.43,6.242-18.886,2.737-28.815-6.326-17.925-25.982-27.327-43.907-21.002Z"/><path class="cls-11" d="m1745.588,1433.468h346.048v122.634h-346.048c-12.482,0-22.615-10.134-22.615-22.615v-77.403c0-12.482,10.134-22.615,22.615-22.615Z" transform="translate(3814.608 2989.57) rotate(180)"/><path class="cls-87" d="m1630.052,1655.911h421.721v83.928h-421.721c-8.97,0-16.252-7.282-16.252-16.252v-51.424c0-8.97,7.282-16.252,16.252-16.252Z" transform="translate(3665.573 3395.749) rotate(180)"/><path class="cls-1" d="m1568.875,1665.085v65.581h-11.134v9.169h197.861c6.192,0,11.229-5.025,11.229-11.228v-61.462c0-6.202-5.037-11.228-11.229-11.228h-197.861v9.168h11.134Z"/><path class="cls-44" d="m1579.673,1665.086h177.13v65.577h-177.129c-5.958,0-10.795-4.837-10.795-10.795v-43.988c0-5.957,4.837-10.794,10.794-10.794Z" transform="translate(3325.683 3395.75) rotate(180)"/><path class="cls-1" d="m1663.963,1446.094v97.392h-6.027v12.623h250.744c12.909,0,23.375-10.465,23.375-23.374v-75.889c0-12.909-10.466-23.374-23.375-23.374h-250.744v12.622h6.027Z"/><path class="cls-44" d="m1687.345,1446.09h231.882v97.39h-231.884c-12.9,0-23.374-10.474-23.374-23.374v-50.64c0-12.902,10.474-23.376,23.376-23.376Z" transform="translate(3583.196 2989.57) rotate(180)"/><path class="cls-52" d="m1826.606,1556.109h339.768v99.802h-339.768c-15.948,0-28.896-12.948-28.896-28.896v-42.011c0-15.948,12.948-28.895,28.895-28.895Z" transform="translate(3964.084 3212.019) rotate(180)"/><path class="cls-36" d="m1738.702,1566.385v79.258h-6.027v10.274h245.225c15.957,0,28.894-12.938,28.894-28.896v-42.014c0-15.958-12.936-28.895-28.894-28.895h-245.225v10.273h6.027Z"/><path class="cls-44" d="m1767.604,1566.381h227.146v79.257h-227.147c-15.948,0-28.896-12.948-28.896-28.896v-21.465c0-15.948,12.948-28.897,28.897-28.897Z" transform="translate(3733.457 3212.019) rotate(180)"/><rect class="cls-85" x="1778.774" y="1591.653" width="97.296" height="2.506" transform="translate(3654.844 3185.811) rotate(180)"/><rect class="cls-85" x="1817.786" y="1599.269" width="103.897" height="2.507" transform="translate(3739.468 3201.045) rotate(180)"/><rect class="cls-85" x="1592.279" y="1682.05" width="97.297" height="2.506" transform="translate(3281.855 3366.606) rotate(180)"/><rect class="cls-85" x="1631.291" y="1689.667" width="103.899" height="2.506" transform="translate(3366.48 3381.841) rotate(180)"/><rect class="cls-85" x="1702.596" y="1696.622" width="42.983" height="2.506" transform="translate(3448.176 3395.751) rotate(180)"/><rect class="cls-85" x="1777.719" y="1511.944" width="103.897" height="2.507" transform="translate(3659.335 3026.394) rotate(180)"/><rect class="cls-85" x="1769.164" y="1518.899" width="42.984" height="2.506" transform="translate(3581.312 3040.304) rotate(180)"/><g class="cls-34"><rect class="cls-15" x="1639.727" y="870.484" width="82.856" height="6.185"/><rect class="cls-15" x="1639.727" y="879.374" width="82.856" height="16.752"/><polygon class="cls-15" points="1653.515 740.593 1653.515 796.62 1516.158 796.62 1516.158 806.464 1653.515 806.464 1653.515 815.174 1516.158 815.174 1516.158 856.566 1653.515 856.566 1656.608 856.566 1659.701 856.566 1659.701 740.593 1653.515 740.593"/></g><path class="cls-91" d="m1393.472,751.131c-4.794,0-8.679-3.885-8.679-8.679v-120.039c0-4.793,3.885-8.68,8.679-8.68s8.68,3.887,8.68,8.68v120.039c0,4.794-3.886,8.679-8.68,8.679Z"/><path class="cls-90" d="m1453.492,691.113h-120.038c-4.794,0-8.68-3.886-8.68-8.679s3.886-8.68,8.68-8.68h120.038c4.794,0,8.68,3.886,8.68,8.68s-3.886,8.679-8.68,8.679Z"/></svg>