<svg width="32" height="33" viewBox="0 0 32 33" fill="none" xmlns="http://www.w3.org/2000/svg">
<rect y="0.800049" width="32" height="32" rx="16" fill="#DBF0F2"/>
<path d="M14.4 19.2001H11.2C10.3513 19.2001 9.53737 19.5372 8.93726 20.1374C8.33714 20.7375 8 21.5514 8 22.4001V24.0001M23.7598 20.3202L23.0398 20.0802M18.5598 18.3202L17.8398 18.0802M19.6801 22.1601L19.9201 21.4401M21.6801 16.9601L21.9201 16.2401M22.0802 22.1601L21.7602 21.3601M19.8399 17.0401L19.5199 16.2401M17.8398 20.4801L18.6398 20.1601M22.9602 18.24L23.7602 17.92M23.2 19.2001C23.2 20.5256 22.1255 21.6001 20.8 21.6001C19.4745 21.6001 18.4 20.5256 18.4 19.2001C18.4 17.8746 19.4745 16.8001 20.8 16.8001C22.1255 16.8001 23.2 17.8746 23.2 19.2001ZM16.8 12.8001C16.8 14.5674 15.3673 16.0001 13.6 16.0001C11.8327 16.0001 10.4 14.5674 10.4 12.8001C10.4 11.0328 11.8327 9.6001 13.6 9.6001C15.3673 9.6001 16.8 11.0328 16.8 12.8001Z" stroke="#357F90" stroke-linecap="round" stroke-linejoin="round"/>
</svg>
