<svg width="215" height="248" viewBox="0 0 215 248" fill="none" xmlns="http://www.w3.org/2000/svg">
<path d="M203.924 99.9285C204.672 97.1658 205.548 94.43 206.135 91.6335C206.868 88.1418 205.721 86.2953 202.269 85.7211C187.995 83.3463 173.682 81.3077 159.15 81.5262C154.63 81.5941 150.109 81.5853 145.087 81.6012C136.519 82.5676 128.451 83.5443 120.07 84.5963C115.33 85.5142 110.904 86.3613 106.476 87.1985C101.516 88.1364 96.5541 89.0654 91.3437 90.0595C85.9539 91.2655 80.8135 92.4102 75.6733 93.5549C71.1071 106.078 70.1327 118.942 73.0961 131.871C74.8798 139.653 77.7608 147.184 80.397 155.192C84.3041 156.018 86.0398 158.088 86.012 161.78C86.0012 163.202 86.276 164.626 86.5832 166.209C89.7874 169.974 89.7944 170.687 86.7327 173.247C87.0005 179.604 87.3458 185.644 87.9359 191.678C93.8869 188.339 99.6738 185.133 105.268 181.619C108.409 179.646 111.223 176.894 111.158 172.906C110.981 161.996 110.45 151.093 109.804 140.206C106.945 139.836 104.343 139.439 101.738 139.06C91.7317 137.605 83.438 133.532 78.8301 123.935C77.6455 121.467 76.664 118.902 75.5891 116.382C77.0838 117.209 78.0116 118.28 79.0471 119.234C87.4332 126.959 97.4836 128.496 108.52 126.801C133.125 123.696 155.408 112.692 179.694 107.561C174.918 116.017 174.006 124.724 173.781 133.56C177.956 135.419 181.909 137.256 186.069 138.978C189.013 133.08 191.693 127.27 194.516 121.53C195.61 119.308 197.03 117.246 198.293 114.854C200.165 109.708 202.045 104.818 203.924 99.9285Z" fill="#CAEAF5"/>
<path d="M123.993 2.20811C121.654 -0.714366 118.578 0.491744 116.088 1.3875C113.149 2.44479 110.351 4.22099 107.884 6.18004C104.957 8.5048 102.421 11.3289 99.7646 13.9853C94.9388 18.8104 89.3288 19.6442 82.984 17.6121C77.1219 15.7347 71.2959 13.3875 65.2676 12.4668C55.4346 10.965 46.0255 17.3517 42.7419 26.7145C41.829 29.3177 40.8633 31.9041 40.0212 34.5301C38.3659 39.691 34.8372 42.5481 29.5373 43.4205C27.689 43.7247 25.8588 44.2011 24.0594 44.7317C11.098 48.5537 4.95134 62.1992 10.9788 74.695C14.9694 82.9682 21.2523 89.2593 29.9675 92.7523C31.1741 93.2359 32.5121 93.3916 34.2259 93.5669C38.6566 87.7525 42.3487 81.8267 46.7015 76.434C59.3938 60.7092 74.3167 47.6647 93.173 39.7202C96.5811 38.2843 100.249 37.465 104.095 36.2336C104.589 36.0171 104.785 35.928 105.124 35.6983C110.355 33.2924 114.736 30.162 116.113 24.462C117.054 20.5667 117.623 16.5008 117.703 12.498C117.818 6.82333 118.947 4.51621 123.993 2.20811Z" fill="#2E3F71"/>
<path d="M103.796 36.3626C100.248 37.4666 96.5805 38.2859 93.1724 39.7218C74.3161 47.6663 59.3932 60.7108 46.7009 76.4356C42.3481 81.8283 38.656 87.7541 34.4862 93.5785C31.6869 98.5786 29.0951 103.466 22.9825 105.669C20.521 106.989 18.4545 108.075 16.3878 109.162C17.6361 110.354 18.749 111.052 19.821 110.994C24.0651 110.764 27.5766 111.612 29.1197 116.148C31.0457 107.246 37.3123 101.481 44.0766 95.5522C49.9391 89.574 55.7413 84.1146 61.0118 78.1826C67.0468 71.39 73.6889 65.6375 82.5614 62.3825C89.7931 57.2807 96.9245 52.4628 103.779 47.2782C108.698 43.5568 108.527 40.1812 103.796 36.3626Z" fill="#FFC4B7"/>
<path d="M104.095 36.2391C108.527 40.1851 108.699 43.5608 103.779 47.2822C96.9254 52.4667 89.794 57.2846 82.6374 62.6156C81.575 68.2256 80.6564 73.4796 79.673 79.1046C85.2915 79.6359 90.6027 80.1146 95.9068 80.6633C96.7652 80.7521 97.5913 81.1517 98.632 81.2981C102.524 78.6291 106.216 76.0695 110.011 73.3346C113.022 70.8767 115.931 68.5941 118.84 66.3115C125.272 58.6347 122.407 51.5296 117.23 44.2393C112.966 41.2339 108.974 38.5391 104.982 35.8444C104.785 35.9335 104.589 36.0226 104.095 36.2391Z" fill="#F36526"/>
<path d="M29.2313 116.386C27.5777 111.606 24.0662 110.759 19.8221 110.988C18.7501 111.046 17.6372 110.349 16.389 109.156C18.4556 108.07 20.5221 106.983 22.7364 105.713C18.0889 97.1049 13.3576 88.6443 8.46635 80.2772C6.57758 77.0464 3.32722 76.7923 0.993399 79.586C0.445207 80.2421 0.148925 81.7341 0.514586 82.4369C10.1146 100.89 19.8169 119.289 29.7988 137.624C31.5622 134.657 33.8916 133.005 37.1295 132.658C34.5336 127.315 31.9377 121.972 29.2313 116.386Z" fill="#465AA9"/>
<path d="M35.9776 214.09C35.6369 214.502 35.4625 214.756 35.0626 215.203C34.8371 215.397 34.6177 215.58 34.6177 215.58C34.6177 215.58 34.6581 215.553 34.5888 215.743C31.3312 219.238 28.1429 222.542 24.9546 225.846C24.9546 225.846 25.0053 225.826 24.9588 225.905C24.8617 226.132 24.7833 226.263 24.6769 226.377C20.6131 233.154 21.5597 239.919 24.8118 247.462C26.106 244.159 27.1524 241.488 28.2852 238.437C28.511 237.839 28.6504 237.623 28.7898 237.406C28.7898 237.406 28.8053 237.461 28.7524 237.227C29.2971 233.936 30.4124 231.212 33.3913 229.685C33.3913 229.685 33.353 229.671 33.4086 229.474C33.8498 229.135 34.2355 228.993 34.6212 228.85C34.6212 228.85 34.6201 228.895 34.5601 228.689C34.7404 228.366 34.9809 228.248 35.2213 228.13C35.2213 228.13 35.2216 228.175 35.2544 227.948C35.5739 227.603 35.8607 227.484 36.1475 227.365C40.641 224.053 45.1346 220.742 49.8589 217.129C51.958 215.2 53.8264 213.573 55.5543 211.775C52.8761 207.582 50.3381 203.559 47.8003 199.537C43.9149 204.335 40.0294 209.134 35.9776 214.09Z" fill="#FFC4B7"/>
<path d="M118.962 66.4916C115.931 68.586 113.022 70.8686 110.164 73.4873C111.042 74.9876 111.729 76.2918 112.723 77.2885C115.202 79.7727 117.82 82.1171 120.383 84.5176C128.451 83.5409 136.519 82.5642 144.81 81.5566C148.205 77.3186 151.238 72.9959 154.602 68.9483C156.585 66.5631 159.093 64.6142 160.884 62.9233C160.68 61.5554 160.521 60.3796 160.326 59.2097C160.196 58.4303 160.015 57.6594 159.857 56.8846C159.158 57.2824 158.226 57.5108 157.796 58.1036C152.706 65.1278 145.901 70.1225 138.582 74.5213C137.64 75.0877 136.669 75.6205 135.671 76.0791C130.019 78.6747 127.821 78.1658 124.006 73.301C122.31 71.1377 120.721 68.8895 118.962 66.4916Z" fill="#FFC4B7"/>
<path d="M47.8521 199.32C50.3388 203.554 52.8767 207.577 55.7791 211.741C60.9061 208.764 65.6684 205.646 70.4306 202.528C70.1153 195.76 69.8001 188.993 69.4045 181.935C60.581 185.5 53.2725 191.115 47.8521 199.32Z" fill="#CAEAF5"/>
<path d="M105.123 35.6902C108.973 38.5255 112.965 41.2203 117.152 43.9828C117.553 38.9106 117.52 33.7461 118.049 28.6396C118.392 25.3158 120.535 22.8104 123.54 21.1931C133.051 16.073 133.405 8.53849 124.207 2.28605C118.947 4.50816 117.817 6.81528 117.702 12.49C117.622 16.4928 117.053 20.5587 116.112 24.4539C114.735 30.1539 110.354 33.2843 105.123 35.6902Z" fill="#FFC4B7"/>
<path d="M37.2822 132.845C33.8904 133.008 31.561 134.66 29.9911 137.748C32.0507 142.096 34.2138 146.249 36.6694 150.424C38.8866 147.904 40.996 145.729 44.6309 146.592C42.2326 142.071 39.8343 137.549 37.2822 132.845Z" fill="#2E3F71"/>
<path d="M44.6943 146.823C40.9966 145.732 38.8872 147.906 36.8272 150.619C39.971 151.852 42.6949 150.589 44.6943 146.823Z" fill="#1C6FB7"/>
<path d="M173.78 133.564C172.645 139.522 171.895 145.535 170.747 151.47C170.174 154.432 169.164 157.399 167.813 160.094C166.51 162.694 166.453 164.649 168.32 167.004C169.858 168.946 170.75 171.39 172.013 173.562C173.247 175.684 174.39 178.013 178.059 177.863C177.681 173.933 177.276 170.254 176.984 166.566C176.579 161.447 178.309 156.81 180.341 152.244C182.219 148.025 184.043 143.781 185.876 139.323C181.908 137.26 177.955 135.423 173.78 133.564Z" fill="#FFC4B7"/>
<path d="M109.803 140.205C109.603 135.988 109.147 131.791 108.507 127.321C97.4831 128.495 87.4327 126.958 79.0467 119.233C78.0111 118.279 77.0833 117.208 75.5886 116.382C76.6635 118.902 77.645 121.467 78.8296 123.934C83.4376 133.532 91.7312 137.604 101.738 139.059C104.342 139.438 106.944 139.836 109.803 140.205Z" fill="#516192"/>
<path d="M87.537 172.819L68.7695 182.203V203.316L89.1009 190.804L87.537 172.819Z" fill="#CAEAF5"/>
<path d="M98.3786 81.4855C97.5376 81.2296 96.7114 80.83 95.8531 80.7412C90.549 80.1925 85.2378 79.7138 79.6193 79.1825C80.6027 73.5575 81.5213 68.3035 82.3646 62.8205C73.6361 65.7193 66.994 71.4718 60.959 78.2644C55.6885 84.1964 49.8863 89.6559 44.1936 95.4374C50.3194 98.4573 56.5255 97.0375 62.6758 95.2393C67.4225 93.8515 71.4115 91.1812 74.6821 87.4514C75.2259 86.8313 75.8594 86.2899 77.0837 85.9932C76.5682 88.3743 76.0528 90.7553 75.5787 93.3869C80.7605 92.4927 85.9008 91.348 91.3706 89.9226C93.9262 86.9231 96.1524 84.2043 98.3786 81.4855ZM76.722 85.2339C76.8418 85.1346 76.9616 85.0354 77.0813 84.9361C77.0783 85.1347 77.0753 85.3333 76.722 85.2339Z" fill="#2E3F71"/>
</svg>
