<svg width="342" height="259" viewBox="0 0 342 259" fill="none" xmlns="http://www.w3.org/2000/svg">
<path d="M269.924 110.929C270.672 108.166 271.548 105.43 272.135 102.634C272.868 99.1419 271.721 97.2953 268.269 96.7212C253.995 94.3463 239.682 92.3078 225.15 92.5262C220.63 92.5942 216.109 92.5853 211.087 92.6013C202.519 93.5677 194.451 94.5444 186.07 95.5963C181.33 96.5143 176.904 97.3614 172.476 98.1986C167.516 99.1365 162.554 100.065 157.344 101.06C151.954 102.266 146.814 103.41 141.673 104.555C137.107 117.078 136.133 129.942 139.096 142.871C140.88 150.653 143.761 158.184 146.397 166.192C150.304 167.018 152.04 169.088 152.012 172.78C152.001 174.202 152.276 175.626 152.583 177.209C155.787 180.974 155.794 181.687 152.733 184.247C153.001 190.604 153.346 196.644 153.936 202.678C159.887 199.339 165.674 196.133 171.268 192.62C174.409 190.646 177.223 187.894 177.158 183.906C176.981 172.996 176.45 162.093 175.804 151.206C172.945 150.837 170.343 150.439 167.738 150.06C157.732 148.605 149.438 144.532 144.83 134.935C143.646 132.467 142.664 129.902 141.589 127.382C143.084 128.209 144.012 129.28 145.047 130.234C153.433 137.959 163.484 139.496 174.52 137.801C199.125 134.696 221.408 123.692 245.694 118.561C240.918 127.017 240.006 135.724 239.781 144.56C243.956 146.419 247.909 148.257 252.069 149.978C255.013 144.08 257.693 138.27 260.516 132.53C261.61 130.308 263.03 128.246 264.293 125.854C266.165 120.708 268.045 115.818 269.924 110.929Z" fill="#CAEAF5"/>
<path d="M189.993 13.2081C187.654 10.2856 184.578 11.4917 182.088 12.3875C179.149 13.4448 176.351 15.221 173.884 17.18C170.957 19.5048 168.421 22.3289 165.765 24.9853C160.939 29.8104 155.329 30.6442 148.984 28.6121C143.122 26.7347 137.296 24.3875 131.268 23.4668C121.435 21.965 112.025 28.3517 108.742 37.7145C107.829 40.3177 106.863 42.9041 106.021 45.5301C104.366 50.691 100.837 53.5481 95.5373 54.4205C93.689 54.7247 91.8588 55.2011 90.0594 55.7317C77.098 59.5537 70.9513 73.1992 76.9788 85.695C80.9694 93.9682 87.2523 100.259 95.9675 103.752C97.1741 104.236 98.5121 104.392 100.226 104.567C104.657 98.7525 108.349 92.8267 112.701 87.434C125.394 71.7092 140.317 58.6647 159.173 50.7202C162.581 49.2843 166.249 48.465 170.095 47.2336C170.589 47.0171 170.785 46.928 171.124 46.6983C176.355 44.2924 180.736 41.162 182.113 35.462C183.054 31.5667 183.623 27.5008 183.703 23.498C183.818 17.8233 184.947 15.5162 189.993 13.2081Z" fill="#2E3F71"/>
<path d="M169.796 47.3626C166.248 48.4666 162.58 49.2859 159.172 50.7219C140.316 58.6664 125.393 71.7109 112.701 87.4356C108.348 92.8283 104.656 98.7542 100.486 104.579C97.6869 109.579 95.0951 114.466 88.9825 116.669C86.521 117.989 84.4545 119.075 82.3878 120.162C83.6361 121.354 84.749 122.052 85.821 121.994C90.0651 121.764 93.5766 122.612 95.1197 127.148C97.0457 118.246 103.312 112.481 110.077 106.552C115.939 100.574 121.741 95.1146 127.012 89.1826C133.047 82.39 139.689 76.6375 148.561 73.3826C155.793 68.2807 162.925 63.4628 169.779 58.2783C174.698 54.5568 174.527 51.1812 169.796 47.3626Z" fill="#FFC4B7"/>
<path d="M170.095 47.2392C174.527 51.1852 174.699 54.5608 169.779 58.2822C162.925 63.4668 155.794 68.2847 148.637 73.6156C147.575 79.2257 146.656 84.4796 145.673 90.1046C151.291 90.6359 156.603 91.1147 161.907 91.6634C162.765 91.7521 163.591 92.1517 164.632 92.2981C168.524 89.6291 172.216 87.0695 176.011 84.3346C179.023 81.8767 181.931 79.5941 184.84 77.3115C191.272 69.6347 188.407 62.5296 183.23 55.2393C178.966 52.2339 174.974 49.5392 170.982 46.8444C170.785 46.9335 170.589 47.0226 170.095 47.2392Z" fill="#F36526"/>
<path d="M95.2313 127.386C93.5777 122.606 90.0662 121.759 85.8221 121.988C84.7501 122.046 83.6372 121.349 82.389 120.156C84.4556 119.07 86.5221 117.983 88.7364 116.712C84.0889 108.105 79.3576 99.6442 74.4664 91.2772C72.5776 88.0463 69.3272 87.7923 66.9934 90.5859C66.4452 91.2421 66.1489 92.7341 66.5146 93.4369C76.1146 111.89 85.8169 130.289 95.7988 148.624C97.5622 145.657 99.8916 144.005 103.13 143.658C100.534 138.315 97.9377 132.972 95.2313 127.386Z" fill="#465AA9"/>
<path d="M101.978 225.09C101.637 225.502 101.463 225.756 101.063 226.203C100.837 226.397 100.618 226.58 100.618 226.58C100.618 226.58 100.658 226.553 100.589 226.743C97.3312 230.238 94.1429 233.542 90.9546 236.846C90.9546 236.846 91.0053 236.826 90.9588 236.905C90.8617 237.132 90.7833 237.263 90.6769 237.377C86.6131 244.154 87.5597 250.919 90.8118 258.462C92.106 255.159 93.1524 252.488 94.2852 249.437C94.511 248.839 94.6504 248.623 94.7898 248.406C94.7898 248.406 94.8053 248.461 94.7524 248.227C95.2971 244.936 96.4124 242.212 99.3913 240.685C99.3913 240.685 99.353 240.671 99.4086 240.474C99.8498 240.135 100.236 239.993 100.621 239.85C100.621 239.85 100.62 239.895 100.56 239.689C100.74 239.366 100.981 239.248 101.221 239.13C101.221 239.13 101.222 239.175 101.254 238.948C101.574 238.603 101.861 238.484 102.147 238.365C106.641 235.053 111.135 231.742 115.859 228.129C117.958 226.2 119.826 224.573 121.554 222.775C118.876 218.582 116.338 214.559 113.8 210.537C109.915 215.335 106.029 220.134 101.978 225.09Z" fill="#FFC4B7"/>
<path d="M184.962 77.4917C181.931 79.586 179.022 81.8687 176.164 84.4873C177.042 85.9877 177.729 87.2918 178.723 88.2885C181.202 90.7728 183.82 93.1172 186.383 95.5177C194.451 94.5409 202.519 93.5642 210.81 92.5566C214.205 88.3187 217.238 83.9959 220.602 79.9484C222.585 77.5631 225.093 75.6143 226.884 73.9233C226.68 72.5555 226.521 71.3797 226.326 70.2097C226.196 69.4303 226.015 68.6594 225.857 67.8847C225.158 68.2824 224.226 68.5109 223.796 69.1036C218.706 76.1278 211.901 81.1226 204.582 85.5213C203.64 86.0877 202.669 86.6206 201.671 87.0792C196.019 89.6748 193.821 89.1658 190.006 84.301C188.31 82.1377 186.721 79.8895 184.962 77.4917Z" fill="#FFC4B7"/>
<path d="M113.852 210.32C116.339 214.554 118.877 218.577 121.779 222.741C126.906 219.764 131.668 216.646 136.431 213.528C136.115 206.76 135.8 199.993 135.405 192.935C126.581 196.5 119.272 202.115 113.852 210.32Z" fill="#CAEAF5"/>
<path d="M171.123 46.6902C174.973 49.5255 178.965 52.2203 183.152 54.9828C183.553 49.9106 183.52 44.7461 184.049 39.6396C184.392 36.3158 186.535 33.8104 189.54 32.1931C199.051 27.073 199.405 19.5385 190.207 13.286C184.947 15.5082 183.817 17.8153 183.702 23.49C183.622 27.4928 183.053 31.5587 182.112 35.4539C180.735 41.1539 176.354 44.2843 171.123 46.6902Z" fill="#FFC4B7"/>
<path d="M103.282 143.845C99.8904 144.008 97.561 145.66 95.9911 148.748C98.0507 153.096 100.214 157.249 102.669 161.424C104.887 158.904 106.996 156.729 110.631 157.592C108.233 153.071 105.834 148.549 103.282 143.845Z" fill="#2E3F71"/>
<path d="M110.694 157.823C106.997 156.732 104.887 158.906 102.827 161.619C105.971 162.852 108.695 161.589 110.694 157.823Z" fill="#1C6FB7"/>
<path d="M239.78 144.564C238.645 150.522 237.895 156.535 236.747 162.47C236.174 165.432 235.164 168.399 233.813 171.094C232.51 173.694 232.453 175.649 234.32 178.004C235.858 179.946 236.75 182.39 238.013 184.562C239.247 186.684 240.39 189.013 244.059 188.863C243.681 184.933 243.276 181.254 242.984 177.566C242.579 172.447 244.309 167.81 246.341 163.244C248.219 159.025 250.043 154.781 251.876 150.323C247.908 148.26 243.955 146.423 239.78 144.564Z" fill="#FFC4B7"/>
<path d="M175.803 151.205C175.603 146.988 175.147 142.791 174.507 138.321C163.483 139.495 153.433 137.958 145.047 130.233C144.011 129.279 143.083 128.208 141.589 127.382C142.663 129.902 143.645 132.467 144.83 134.934C149.438 144.532 157.731 148.604 167.738 150.059C170.342 150.438 172.944 150.836 175.803 151.205Z" fill="#516192"/>
<path d="M153.537 183.819L134.769 193.203V214.316L155.101 201.804L153.537 183.819Z" fill="#CAEAF5"/>
<path d="M164.379 92.4854C163.538 92.2295 162.711 91.83 161.853 91.7412C156.549 91.1925 151.238 90.7137 145.619 90.1825C146.603 84.5575 147.521 79.3035 148.365 73.8205C139.636 76.7193 132.994 82.4718 126.959 89.2644C121.689 95.1964 115.886 100.656 110.194 106.437C116.319 109.457 122.525 108.038 128.676 106.239C133.422 104.851 137.411 102.181 140.682 98.4514C141.226 97.8313 141.859 97.2898 143.084 96.9932C142.568 99.3743 142.053 101.755 141.579 104.387C146.76 103.493 151.901 102.348 157.371 100.923C159.926 97.9231 162.152 95.2043 164.379 92.4854ZM142.722 96.2339C142.842 96.1346 142.962 96.0353 143.081 95.9361C143.078 96.1347 143.075 96.3333 142.722 96.2339Z" fill="#2E3F71"/>
<path d="M295.207 204.602C290.351 199.23 285.494 193.858 280.637 188.486C279.642 187.385 278.658 186.274 277.651 185.183C275.097 182.418 275.119 179.244 277.722 176.528C280.248 173.895 282.149 173.76 284.61 176.384C291.106 183.313 297.508 190.329 303.934 197.541C302.639 199.213 301.52 200.859 300.031 202.037C298.626 203.148 296.831 203.766 295.207 204.602Z" fill="#465AA9"/>
<path d="M314.541 209.278C319.151 214.396 323.748 219.525 328.375 224.627C331.562 228.142 330.798 232.383 326.554 234.68C325.178 235.425 323.96 235.399 322.846 234.224C318.922 230.088 314.988 225.961 311.072 221.817C309.604 220.263 308.176 218.671 306.803 216.938C310.726 215.601 312.985 212.798 314.541 209.278Z" fill="#465AA9"/>
<path d="M314.5 209.174C312.985 212.797 310.726 215.6 306.755 216.827C302.853 212.845 299.074 208.815 295.251 204.694C296.83 203.767 298.625 203.148 300.03 202.037C301.52 200.86 302.639 199.214 303.984 197.654C307.518 201.382 310.988 205.227 314.5 209.174Z" fill="#F5D520"/>
<path d="M312.911 103.139C308.055 106.702 303.2 110.264 298.344 113.827C297.349 114.557 296.346 115.277 295.359 116.018C292.855 117.896 290.231 117.609 288.205 115.225C286.24 112.912 286.289 111.328 288.669 109.515C294.951 104.728 301.298 100.026 307.809 95.3211C309.083 96.534 310.35 97.5993 311.198 98.9312C311.998 100.188 312.357 101.725 312.911 103.139Z" fill="#F5D520"/>
<path d="M318.418 87.5395C323.043 84.1595 327.676 80.7908 332.289 77.3956C335.466 75.0572 338.911 76.0487 340.451 79.7544C340.951 80.9552 340.826 81.9608 339.76 82.7828C336.006 85.6788 332.258 88.5837 328.498 91.4718C327.088 92.5549 325.649 93.6015 324.1 94.59C323.326 91.2315 321.199 89.1253 318.418 87.5395Z" fill="#F5D520"/>
<path d="M318.329 87.5665C321.197 89.1265 323.325 91.2328 324.003 94.6224C320.378 97.513 316.725 100.298 312.991 103.111C312.358 101.726 311.998 100.189 311.198 98.9319C310.35 97.6 309.083 96.5347 307.907 95.29C311.291 92.6821 314.766 90.1372 318.329 87.5665Z" fill="#465AA9"/>
<path d="M252.969 28.0216C254.837 32.2207 256.704 36.42 258.573 40.6191C258.956 41.4798 259.348 42.3365 259.721 43.2011C260.669 45.3938 262.516 46.1974 264.761 45.3849C266.939 44.597 267.506 43.5284 266.616 41.426C264.266 35.8753 261.841 30.3563 259.309 24.7736C258.006 25.095 256.763 25.3211 255.697 25.8824C254.691 26.412 253.871 27.2944 252.969 28.0216Z" fill="#F36526"/>
<path d="M255.227 15.6004C253.443 11.6097 251.649 7.62343 249.878 3.62687C248.658 0.874435 246.001 0.227003 243.577 2.09882C242.791 2.70541 242.493 3.41893 242.888 4.36714C244.279 7.70763 245.662 11.0513 247.059 14.3889C247.584 15.6405 248.14 16.8786 248.793 18.1204C250.577 16.1881 252.784 15.5981 255.227 15.6004Z" fill="#F36526"/>
<path d="M255.276 15.6525C252.785 15.5998 250.577 16.1897 248.844 18.1786C250.151 21.4664 251.518 24.6952 252.926 27.973C253.87 27.2949 254.69 26.4125 255.697 25.8829C256.763 25.3216 258.006 25.0955 259.256 24.7161C258.002 21.707 256.663 18.705 255.276 15.6525Z" fill="#F5D520"/>
<path d="M33.655 207.353C26.0155 211.327 18.3759 215.301 10.7367 219.276C9.17082 220.091 7.61347 220.922 6.03917 221.72C2.04695 223.743 0.755599 227.29 2.53221 231.396C4.25511 235.378 6.31854 236.317 10.1486 234.411C20.2606 229.381 30.3046 224.214 40.4555 218.839C39.7051 216.439 39.14 214.14 37.9681 212.211C36.8624 210.39 35.1183 208.956 33.655 207.353Z" fill="#465AA9"/>
<path d="M57.1414 210.157C64.4006 206.363 71.6505 202.551 78.9221 198.782C83.9301 196.185 84.8366 191.141 81.0583 186.822C79.8339 185.422 78.4653 184.946 76.7372 185.793C70.649 188.777 64.5539 191.746 58.472 194.743C56.1912 195.866 53.9395 197.049 51.6918 198.412C55.5099 201.527 56.866 205.588 57.1414 210.157Z" fill="#465AA9"/>
<path d="M57.0531 210.253C56.8663 205.587 55.5103 201.527 51.5921 198.514C45.5928 201.334 39.7108 204.26 33.7418 207.269C35.1182 208.957 36.8624 210.39 37.968 212.211C39.14 214.141 39.7051 216.439 40.5579 218.734C46.0419 216.044 51.5031 213.197 57.0531 210.253Z" fill="#F5D520"/>
</svg>
