<svg width="33" height="33" viewBox="0 0 33 33" fill="none" xmlns="http://www.w3.org/2000/svg">
<rect y="0.200134" width="32.8" height="32.8" rx="16.4" fill="#DBF0F2"/>
<path d="M23.8999 19.1001C23.8999 19.5422 23.7243 19.9661 23.4117 20.2786C23.0992 20.5912 22.6753 20.7668 22.2332 20.7668H12.2332L8.8999 24.1001V10.7668C8.8999 10.3248 9.0755 9.90084 9.38806 9.58828C9.70062 9.27572 10.1245 9.10013 10.5666 9.10013H22.2332C22.6753 9.10013 23.0992 9.27572 23.4117 9.58828C23.7243 9.90084 23.8999 10.3248 23.8999 10.7668V19.1001Z" stroke="#357F90" stroke-width="0.833333" stroke-linecap="round" stroke-linejoin="round"/>
<path d="M18.7334 12.8501C18.4459 12.5631 18.0563 12.4019 17.65 12.4019C17.2438 12.4019 16.8542 12.5631 16.5667 12.8501L16.4 13.1001L16.15 12.8501C15.9968 12.7188 15.8193 12.619 15.6275 12.5563C15.4356 12.4936 15.2334 12.4693 15.0322 12.4847C14.831 12.5002 14.6348 12.5552 14.4549 12.6465C14.2749 12.7377 14.1147 12.8636 13.9834 13.0168C13.852 13.17 13.7522 13.3476 13.6895 13.5394C13.6268 13.7312 13.6025 13.9335 13.618 14.1347C13.6334 14.3358 13.6884 14.532 13.7797 14.712C13.871 14.8919 13.9968 15.0521 14.15 15.1835L16.4 17.4335L18.65 15.1835C19.4 14.4335 19.3167 13.4335 18.7334 12.8501Z" stroke="#357F90" stroke-width="0.833333" stroke-linecap="round" stroke-linejoin="round"/>
</svg>
