<svg width="400" height="266" viewBox="0 0 400 266" fill="none" xmlns="http://www.w3.org/2000/svg">
<path d="M386.097 119.626C386.241 120.33 386.511 121.033 386.511 121.737C386.524 160.409 386.514 199.082 386.349 237.91C378.962 232.356 371.756 226.615 364.471 220.977C363.576 220.284 362.261 219.812 361.133 219.796C354.071 219.698 347.007 219.759 339.923 219.542C339.403 213.502 338.903 207.686 338.6 201.817C339.372 201.171 340.258 200.672 340.47 199.97C341.669 196.014 342.868 192.045 343.748 188.01C344.462 184.739 344.728 181.37 345.155 177.795C345.104 176.297 345.215 175.034 345.058 173.805C344.384 168.504 343.394 163.303 339.55 159.031C339.335 158.833 339.18 158.756 339.026 158.686C339.027 158.694 339.043 158.688 338.97 158.528C337.724 157.77 336.551 157.171 335.423 156.365C336.197 153.209 336.89 150.252 337.662 147.316C338.737 143.23 339.312 141.071 335.945 139.614C331.216 137.568 325.518 141.752 326.146 146.875C326.193 147.256 326.788 147.569 326.98 148.042C326.323 149.524 325.815 150.879 325.307 152.234C326.644 152.571 327.976 152.929 329.321 153.228C329.623 153.295 329.97 153.157 330.328 153.309C330.492 154.599 330.623 155.695 330.624 156.911C327.815 158.256 326.367 160.256 325.88 163.244C325.276 166.944 324.26 170.577 323.253 174.22C319.001 170.912 313.936 168.887 310.576 164.436C310.315 164.285 310.138 164.254 309.994 164.095C309.962 163.84 309.898 163.715 309.834 163.59C309.72 163.8 309.607 164.009 309.319 164.284C308.783 164.273 308.422 164.196 308.025 164.016C307.865 163.933 307.742 163.953 307.619 163.973C307.729 164.057 307.84 164.142 307.967 164.432C308.422 165.79 308.617 167.139 309.353 168.05C310.576 169.562 312.192 170.746 313.56 172.15C315.99 174.644 318.251 177.316 320.804 179.674C321.89 180.678 323.533 181.079 324.941 181.962C324.642 186.143 324.165 190.112 324.04 194.092C323.771 202.65 323.683 211.212 323.285 219.761C311.894 219.778 300.738 219.807 289.588 219.637C290.275 214.553 290.956 209.669 291.775 204.751C292.273 204.197 292.633 203.677 292.993 202.9C292.811 198.901 292.81 195.139 292.4 191.422C291.783 185.823 290.88 180.256 290.102 174.515C290.013 172.789 289.919 171.223 289.976 169.754C291.37 170.943 292.562 172.103 293.873 173.108C295.303 174.206 296.583 173.936 297.18 172.172C298.053 169.596 298.766 166.966 299.561 164.363C299.915 163.204 300.372 162.073 300.66 160.899C300.989 159.561 301.182 158.19 301.426 156.664C301.912 155.055 302.406 153.615 302.9 152.175C302.713 152.106 302.526 152.036 302.338 151.967C301.547 153.72 300.756 155.473 299.891 157.129C299.529 157.264 299.243 157.496 298.958 157.709C298.96 157.691 298.996 157.692 298.815 157.708C298.29 158.408 297.569 159.151 297.664 159.768C298.177 163.091 295.986 165.404 295.077 168.535C293.795 167.106 292.857 166.062 291.832 164.882C289.807 162.557 287.87 160.367 285.928 157.972C286.006 157.136 285.892 156.083 286.201 155.939C290.192 154.085 289.594 150.321 289.943 147.014C290.023 146.262 289.34 145.429 288.921 144.476C285.493 141.505 281.86 142.048 279.444 145.501C278.686 146.583 277.446 147.451 276.247 148.072C274.52 148.966 273.706 150.046 274.22 152.04C274.728 154.012 274.458 155.734 272.659 157.153C270.797 158.622 270.782 160.692 272.024 162.524C272.984 163.939 274.375 165.061 275.529 166.494C273.896 168.954 274.232 171.078 275.939 173.285C274.82 178.622 273.758 183.764 272.658 189.091C274.802 189.221 276.367 189.316 277.852 189.57C276.482 193.404 275.192 197.078 273.794 200.866C272.625 202.337 273.827 202.466 274.654 202.612C277.232 203.065 279.825 203.433 282.413 204.041C282.421 206.665 282.427 209.082 282.327 211.65C282.293 214.445 282.365 217.089 282.203 219.736C271.289 219.713 260.611 219.687 250.013 219.478C250.168 218.64 250.306 217.985 250.306 217.33C250.315 185.685 250.315 154.04 250.294 122.395C250.294 121.497 250.066 120.599 250.173 119.685C264.838 119.666 279.276 119.665 293.714 119.66C324.508 119.65 355.303 119.637 386.097 119.626Z" fill="#A155A1"/>
<path d="M197.248 251.198C176.804 253.917 156.36 256.64 135.915 259.355C129.323 260.23 122.727 261.083 115.716 261.937C114.771 261.902 114.243 261.877 113.716 261.852C110.23 257.199 106.934 252.386 103.209 247.933C98.5743 242.392 93.807 241.364 87.1542 244.121C84.0149 245.422 81.0314 247.096 77.9522 248.547C76.6803 249.147 75.3723 249.705 74.0293 250.112C68.998 251.638 65.5005 249.913 64.5468 244.705C63.7614 240.417 63.7305 235.949 63.7741 231.564C63.8145 227.497 64.2073 223.409 64.7824 219.379C65.7385 212.677 64.6526 206.47 61.0648 200.302C61.0598 197.418 61.0598 194.945 61.0598 192.22C62.3959 192.22 63.3763 192.22 64.3566 192.22C84.2877 192.22 104.219 192.225 124.15 192.208C125.298 192.207 126.447 192.027 127.841 191.899C150.973 191.831 173.86 191.795 196.85 191.942C197.057 192.854 197.253 193.583 197.253 194.311C197.264 213.273 197.254 232.236 197.248 251.198Z" fill="#2D3F71"/>
<path d="M197.463 251.224C197.255 232.235 197.264 213.273 197.253 194.311C197.253 193.582 197.057 192.853 196.812 191.777C184.79 182.001 172.918 172.558 160.996 163.181C160.292 162.628 159.18 162.402 158.246 162.369C154.747 162.246 151.243 162.266 147.733 161.995C147.727 132.387 147.727 103.016 147.959 73.6123C161.11 73.5728 174.029 73.5753 186.948 73.5581C199.282 73.5416 211.616 73.5047 223.95 73.4768C224.082 75.7645 224.287 78.0509 224.327 80.3402C224.383 83.5846 224.319 86.8311 224.048 90.2925C222.795 90.5051 221.798 90.4496 220.807 90.5091C218.467 90.6496 216.131 90.845 213.628 90.9858C213.263 91.5451 212.887 92.1366 212.886 92.7283C212.866 145.224 212.875 197.72 212.882 250.215C207.814 250.56 202.745 250.905 197.463 251.224Z" fill="#A155A1"/>
<path d="M213.109 250.254C212.875 197.719 212.866 145.224 212.886 92.7281C212.887 92.1364 213.263 91.5449 213.779 91.077C226.044 100.701 237.994 110.201 249.945 119.702C250.066 120.599 250.294 121.497 250.294 122.395C250.315 154.04 250.315 185.685 250.307 217.33C250.306 217.985 250.168 218.64 249.773 219.505C242.056 219.745 234.66 219.777 227.124 219.811C226.835 220.138 226.561 220.46 226.556 220.787C226.488 226.143 226.396 231.499 226.428 236.855C226.454 241.152 226.64 245.447 226.755 249.743C222.282 249.926 217.809 250.109 213.109 250.254Z" fill="#2D3F71"/>
<path d="M76.0279 93.2532C75.044 75.7316 92.3223 60.2434 108.654 58.4231C114.629 57.7572 120.185 58.6554 125.958 60.7614C126.187 94.7368 126.191 128.474 125.963 162.253C120.566 162.316 115.401 162.337 110.165 162.168C108.325 157.442 106.805 152.783 104.665 148.429C103.803 146.673 102.907 145.186 103.421 143.164C105.958 142.476 108.308 141.838 110.498 141.242C108.333 135.348 106.326 129.823 104.27 124.316C103.357 121.869 102.149 119.621 99.5189 118.383C99.6935 117.414 99.8741 116.627 100.184 115.688C100.64 114.867 100.967 114.199 101.49 113.575C102.981 113.801 104.282 114.164 105.57 114.124C107.981 114.051 109.623 112.643 110.412 110.44C111.164 108.34 110.979 106.286 109.002 104.843C107.445 103.705 107.527 102.138 107.747 100.569C108.021 98.6097 107.345 97.3427 105.431 96.7757C103.958 96.3395 103.261 95.5566 102.945 93.8498C102.716 92.6093 101.332 91.1178 100.11 90.6394C98.4706 89.9977 96.3879 89.782 94.9023 91.7901C94.3115 93.5131 93.6037 95.1287 93.4534 96.7946C93.2356 99.2073 94.4603 100.489 96.6026 100.807C96.8257 102.027 97.0157 103.048 97.0579 104.161C95.331 106.87 92.884 109.208 94.1749 112.919C94.0827 113.521 93.9855 113.953 93.8261 114.661C91.8069 113.368 90.0685 112.115 88.188 111.133C87.6051 110.829 86.516 111.06 85.8854 111.431C85.445 111.69 85.3902 112.605 84.9854 113.178C83.0375 112.18 82.0631 113.324 80.8819 114.659C81.5701 115.009 82.2478 115.654 82.6646 115.516C85.1845 114.678 86.8747 116.414 88.8529 117.282C90.7437 118.111 92.6628 118.876 94.5671 119.876C94.4382 127.615 94.2845 135.146 94.2455 142.677C94.2429 143.186 95.1053 143.699 95.586 144.425C96.0577 150.555 96.5088 156.47 96.7382 162.365C90.3706 162.354 84.2248 162.362 78.0767 162.137C79.2161 151.979 78.1949 142.114 77.4398 132.396C79.0699 134.455 80.5346 136.365 81.9992 138.274C82.2149 138.165 82.4306 138.056 82.6464 137.947C82.2667 136.547 82.0788 135.056 81.4635 133.768C80.4743 131.699 79.2027 129.764 78.069 127.55C78.2576 124.772 78.7187 122.196 78.5439 119.664C77.9979 111.754 77.2115 103.86 76.4859 95.79C76.3115 94.831 76.1697 94.0421 76.0279 93.2532Z" fill="#C9EAF6"/>
<path d="M227.264 219.809C234.66 219.777 242.056 219.746 249.692 219.687C260.611 219.687 271.29 219.714 282.24 219.944C283.069 224.789 283.626 229.43 284.196 234.184C279.494 234.48 275.494 234.733 271.494 234.985C271.498 235.041 271.502 235.097 271.506 235.153C277.91 235.153 284.315 235.153 290.923 235.185C292.663 235.075 294.199 234.932 295.734 234.789C292.463 235.486 288.658 232.113 288.809 228.786C288.945 225.797 289.315 222.819 289.582 219.837C300.738 219.807 311.894 219.778 323.363 219.951C323.788 220.956 323.911 221.756 324.006 222.559C324.397 225.869 324.779 229.179 325.097 232.654C321.955 236.605 317.852 235.211 313.988 234.95C324.844 234.95 335.701 234.95 346.558 234.95C345.204 235.363 343.84 235.383 342.477 235.359C339.754 235.31 339.345 234.762 339.876 231.614C339.957 227.517 339.95 223.642 339.944 219.767C347.007 219.759 354.071 219.699 361.133 219.797C362.261 219.812 363.577 220.284 364.471 220.977C371.756 226.616 378.962 232.357 386.327 238.137C390.765 241.636 395.066 245.064 399.242 248.667C394.859 248.89 390.6 248.938 386.095 248.944C345.994 248.892 306.139 248.87 266.284 248.908C264.32 248.91 262.845 248.331 261.332 247.108C254.47 241.561 247.495 236.153 240.598 230.649C236.121 227.077 231.707 223.425 227.264 219.809Z" fill="#F3D421"/>
<path d="M250.173 119.686C237.994 110.202 226.044 100.701 213.943 91.1096C216.131 90.845 218.467 90.6497 220.807 90.5091C221.798 90.4496 222.795 90.5052 224.016 90.5223C237.17 90.5481 250.097 90.56 263.294 90.8087C263.553 93.0359 263.458 95.0313 263.575 97.0141C263.616 97.714 264.177 98.3832 264.42 99.2455C264.296 100.295 264.253 101.165 264.038 102.095C263.278 102.153 262.688 102.153 262.098 102.153C262.1 102.159 262.102 102.165 262.104 102.171C272.327 102.171 282.55 102.171 292.772 102.171C292.771 102.079 292.77 101.988 292.769 101.897C288.863 101.647 284.958 101.398 280.903 101.055C280.115 100.356 279.476 99.7514 278.974 98.9866C279.401 96.0763 279.694 93.3261 279.986 90.5759C290.65 90.574 301.313 90.572 312.272 90.7736C313.001 93.8279 313.435 96.6786 313.741 99.6287C312.859 100.363 312.106 100.998 311.128 101.633C307.479 101.82 304.057 102.006 300.634 102.191C300.638 102.344 300.643 102.497 300.647 102.65C313.384 102.65 326.121 102.65 338.858 102.65C338.861 102.516 338.863 102.382 338.865 102.248C335.558 102.053 332.25 101.858 328.918 101.506C328.762 100.96 328.629 100.57 328.579 99.9812C328.812 96.7085 328.963 93.6352 329.115 90.5618C334.61 90.5647 340.113 90.7481 345.596 90.4989C348.608 90.3619 350.794 91.4939 353.009 93.2637C363.943 102.002 374.94 110.662 386.006 119.488C355.303 119.638 324.509 119.65 293.714 119.66C279.276 119.665 264.838 119.667 250.173 119.686Z" fill="#C9EAF6"/>
<path d="M126.195 162.21C126.191 128.473 126.187 94.7363 126.148 60.7668C126.186 59.4675 126.259 58.4008 126.592 57.3789C133.637 62.8055 140.42 68.1874 147.213 73.8027C147.219 103.43 147.217 132.824 146.98 162.23C139.896 162.232 133.046 162.221 126.195 162.21Z" fill="#F36829"/>
<path d="M23.5168 168.712C15.7454 168.626 7.97393 168.54 0 168.452C0.913991 162.636 1.61247 157.407 2.63123 152.241C2.89831 150.887 4.01948 149.606 4.98881 148.503C8.38451 144.637 11.8169 140.799 15.3642 137.073C19.3172 132.921 24.1464 129.754 29.8985 129.853C34.5892 129.933 39.3821 131.215 43.8966 132.681C50.2712 134.752 56.4286 137.49 62.6877 139.92C63.1386 140.095 63.6625 140.082 64.4028 140.388C64.1217 147.872 63.5903 155.125 62.8271 162.356C50.42 162.329 38.2446 162.319 26.0692 162.332C25.4371 162.333 24.8051 162.535 23.9928 162.76C23.7139 164.822 23.6153 166.767 23.5168 168.712Z" fill="#C9EAF6"/>
<path d="M399.662 249.165C399.801 251.782 400.066 254.403 399.985 257.013C399.966 257.62 398.865 258.484 398.102 258.73C392.109 260.664 386.194 263.285 380.036 264.174C362.178 266.751 344.353 265.71 326.662 262.089C311.366 258.957 296.054 255.899 280.706 253.035C275.648 252.091 270.457 251.853 264.977 251.142C263.641 250.327 263.568 249.687 264.817 249.376C265.526 249.199 266.311 249.326 267.062 249.326C305.619 249.325 344.176 249.326 382.733 249.317C383.896 249.317 385.058 249.206 386.442 249.194C390.997 249.216 395.33 249.19 399.662 249.165Z" fill="#2D3F71"/>
<path d="M147.204 73.5695C140.42 68.1877 133.636 62.8058 126.763 57.2874C127.584 57.1007 128.495 57.0069 129.407 57.0066C153.234 56.9986 177.061 56.9713 200.888 57.069C202.386 57.0752 204.13 57.7428 205.334 58.6605C211.559 63.4017 217.645 68.3247 223.865 73.3306C211.616 73.5048 199.282 73.5417 186.948 73.5582C174.029 73.5754 161.11 73.5729 147.83 73.581C147.38 73.5784 147.292 73.574 147.204 73.5695Z" fill="#F3D421"/>
<path d="M386.221 249.147C385.058 249.206 383.896 249.317 382.733 249.318C344.176 249.327 305.619 249.325 267.062 249.326C266.311 249.326 265.526 249.199 264.817 249.376C263.568 249.687 263.641 250.327 264.755 251.116C252.334 250.765 239.784 250.292 226.995 249.781C226.64 245.448 226.454 241.152 226.428 236.856C226.396 231.5 226.487 226.143 226.556 220.787C226.56 220.461 226.835 220.138 227.124 219.812C231.707 223.425 236.121 227.077 240.598 230.649C247.495 236.153 254.469 241.561 261.331 247.108C262.845 248.331 264.32 248.91 266.284 248.909C306.139 248.87 345.994 248.892 386.06 248.981C386.271 249.061 386.221 249.147 386.221 249.147Z" fill="#A155A1"/>
<path d="M23.5555 168.943C23.6152 166.766 23.7138 164.821 24.1251 162.851C35.9771 171.986 47.4904 181.181 59.0968 190.257C60.2184 191.134 61.9139 191.682 63.3479 191.692C78.0997 191.796 92.8526 191.74 107.605 191.765C114.269 191.777 120.932 191.873 127.596 191.93C126.447 192.027 125.298 192.206 124.15 192.207C104.219 192.225 84.2877 192.22 64.3567 192.22C63.3763 192.22 62.3959 192.22 61.0598 192.22C61.0598 194.944 61.0598 197.417 61.0217 200.13C58.0669 196.706 54.9167 193.332 50.5914 191.251C40.8234 186.552 29.6483 190.163 24.4891 199.732C24.375 199.943 24.2073 200.126 23.5944 200.969C23.5944 189.927 23.5944 179.551 23.5555 168.943Z" fill="#A155A1"/>
<path d="M264.501 99.0667C264.177 98.3835 263.616 97.7143 263.575 97.0144C263.457 95.0316 263.553 93.0362 263.535 90.8126C264.076 77.8763 265.918 65.2217 264.974 52.0366C265.328 49.7563 265.664 47.8998 266.146 46.1611C267.045 46.489 267.793 46.8576 268.551 46.8801C271.111 46.956 273.674 46.909 276.159 46.909C276.446 47.7895 276.648 48.4105 276.766 49.2184C275.22 61.1677 273.758 72.9302 272.204 84.8355C270.735 89.8697 269.357 94.7609 267.781 99.632C266.556 99.4302 265.528 99.2485 264.501 99.0667Z" fill="#F36829"/>
<path d="M313.869 99.5291C313.435 96.6784 313.001 93.8277 312.504 90.7749C312.307 89.0001 312.013 87.4223 312.065 85.8557C312.49 72.8833 312.979 59.9129 313.701 46.7318C314.94 46.3163 316.275 46.4402 316.845 45.8392C318.161 44.4515 319.026 44.8056 320.041 46.0062C320.17 46.1596 320.431 46.2023 320.771 46.3622C320.896 45.633 321.003 45.0129 321.192 43.9043C322.688 44.3137 324.097 44.6997 325.554 45.2592C325.721 46.465 325.843 47.4972 325.809 48.545C325.029 49.2109 324.414 50.3855 323.777 50.3977C322.601 50.4202 321.411 49.7611 319.678 49.2119C318.85 49.1512 317.389 49.0439 315.908 48.9351C316.1 51.7836 316.187 54.8306 316.534 57.848C317.077 62.5797 317.795 67.2913 318.472 72.213C318.669 73.1674 318.833 73.9202 318.995 74.8923C319.5 78.6032 320.006 82.0947 320.507 85.5873C320.501 85.5884 320.497 85.5966 320.376 85.6312C320.111 85.791 320.071 85.9435 320.104 86.3337C319.849 88.3533 319.737 90.185 319.376 91.9666C318.828 94.676 318.109 97.3507 317.255 100.064C315.989 99.9017 314.929 99.7154 313.869 99.5291Z" fill="#2D3F71"/>
<path d="M272.296 84.6918C273.758 72.9294 275.22 61.1669 276.806 49.0342C277.574 47.9491 278.218 47.2343 278.862 46.5195C279.391 53.5773 280.205 60.6284 280.371 67.6947C280.547 75.1712 280.106 82.6622 279.96 90.3611C279.694 93.3256 279.401 96.0757 278.771 98.9726C277.357 99.1115 276.282 99.1037 275.003 99.0346C273.965 94.2128 273.13 89.4523 272.296 84.6918Z" fill="#33B16D"/>
<path d="M278.882 46.286C278.218 47.2347 277.574 47.9495 276.891 48.8477C276.649 48.4101 276.446 47.7891 276.159 46.9086C273.674 46.9086 271.111 46.9556 268.551 46.8797C267.793 46.8572 267.045 46.4886 266.119 45.9843C265.584 44.9847 265.222 44.2796 264.835 43.3982C265.459 40.6141 265.955 37.9551 266.803 35.4142C267.483 33.3792 268.912 31.5649 269.408 29.5078C269.796 27.9017 269.823 25.7167 269.004 24.4301C267.878 22.6626 265.677 22.9788 263.81 23.8941C265.159 22.9552 266.507 22.0163 268.247 21.0061C270.339 21.0339 272.039 21.1331 273.852 21.3079C275.216 22.8959 276.469 24.4083 277.773 26.1323C278.187 30.2117 278.549 34.0793 278.912 37.9469C278.908 40.6487 278.905 43.3504 278.882 46.286Z" fill="#70BD46"/>
<path d="M63.0588 162.377C63.5903 155.124 64.1217 147.871 64.6058 140.389C64.5922 136.12 64.6259 132.081 64.7956 127.95C66.6769 131.725 68.4224 135.59 70.1678 139.456C70.7394 138.022 70.9576 136.522 70.6974 135.11C69.9934 131.288 69.0861 127.503 68.4802 123.706C70.3615 123.699 72.022 123.689 73.692 123.881C73.8453 125.775 73.9892 127.467 74.0984 129.366C73.1713 137.015 72.279 144.457 71.3505 152.007C70.4293 155.518 69.5443 158.921 68.5958 162.501C67.8724 164.027 67.2123 165.378 66.3788 166.721C65.3724 166.875 64.5395 167.037 63.6987 167.008C63.4801 165.336 63.2695 163.857 63.0588 162.377Z" fill="#2D3F71"/>
<path d="M325.507 45.0857C324.097 44.6997 322.687 44.3137 321.192 43.9044C321.002 45.013 320.896 45.633 320.771 46.3622C320.431 46.2023 320.17 46.1597 320.04 46.0062C319.025 44.8057 318.161 44.4516 316.845 45.8393C316.275 46.4403 314.94 46.3163 313.737 46.5226C313.43 46.0377 313.338 45.5519 313.19 44.6945C313.055 40.0286 312.978 35.7344 312.9 31.4401C313.071 29.9653 313.395 28.4889 313.38 27.016C313.347 23.8861 314.787 21.857 317.906 20.8242C320.098 20.7968 322.001 20.6508 323.904 20.5048C327.412 22.0114 329.273 24.5642 328.829 28.6124C327.834 27.4127 327.104 25.9933 326.115 24.7858C324.631 22.9734 322.663 22.8556 320.706 23.9226C318.812 24.9554 318.779 26.8002 319.406 28.5089C320.054 30.2752 321.079 31.9032 321.969 33.7676C323.167 37.6576 324.337 41.3717 325.507 45.0857Z" fill="#3E8291"/>
<path d="M320.512 85.5866C320.006 82.0951 319.5 78.6035 319.224 74.8574C321.076 74.6029 322.697 74.6029 324.26 74.6029C324.378 73.9758 324.46 73.7368 324.461 73.4973C324.478 71.0073 324.482 68.5171 324.656 66.1619C324.823 69.0148 324.823 71.7327 324.823 74.4619C326.19 74.5854 327.096 74.6672 328.002 74.7491C328.345 79.867 328.687 84.9848 329.072 90.3324C328.963 93.6353 328.812 96.7087 328.399 100.011C326.984 100.145 325.83 100.051 324.593 99.7919C324.16 98.6156 323.757 97.6192 323.473 96.5898C322.464 92.9282 321.496 89.2552 320.512 85.5866Z" fill="#3E8291"/>
<path d="M325.554 45.2591C324.337 41.3714 323.168 37.6574 322.152 33.7068C324.567 32.599 326.828 31.7277 329.088 30.8564C331.868 35.4075 331.761 40.5151 331.612 45.5239C331.502 49.2221 330.705 52.8983 330.249 56.5886C329.996 58.6283 329.817 60.6769 329.511 63.0854C327.506 65.1624 326.73 65.0799 325.904 62.8645C326.978 59.8892 326.732 57.0769 326.341 54.2254C326.083 52.3448 326.081 50.4291 325.964 48.5292C325.843 47.497 325.721 46.4648 325.554 45.2591Z" fill="#F3D421"/>
<path d="M263.669 23.9863C265.677 22.9791 267.878 22.6628 269.004 24.4303C269.823 25.7169 269.796 27.9019 269.408 29.508C268.912 31.5651 267.483 33.3795 266.803 35.4144C265.955 37.9553 265.459 40.6143 264.69 43.5054C262.698 46.0633 260.508 45.1869 258.329 44.4222C257.821 37.0682 259.044 30.1568 263.669 23.9863Z" fill="#F36829"/>
<path d="M312.747 31.3872C312.978 35.7346 313.056 40.0289 313.102 44.5312C310.9 46.0123 308.863 45.7435 306.771 43.291C304.68 40.8399 302.722 38.1985 301.167 35.3858C299.051 31.5601 296.904 27.8973 292.908 25.7192C292.461 25.4751 292.176 24.9306 291.749 24.4501C296.273 23.4776 296.874 24.0971 299.579 27.3401C302.586 30.9455 306.231 34.019 309.9 37.619C310.457 35.7537 310.913 34.0463 311.501 32.3855C311.652 31.9594 312.219 31.6805 312.747 31.3872Z" fill="#F3D421"/>
<path d="M273.74 21.233C272.039 21.1338 270.339 21.0347 268.428 20.9484C268.483 16.7832 266.598 13.1233 265.437 9.283C264.703 6.85431 264.888 4.71244 267.62 3.48457C270.183 2.33244 273.736 2.54508 275.153 4.68966C276.448 6.65043 276.955 9.13254 277.453 11.4876C275.901 12.0811 274.705 12.5721 273.38 13.1162C272.628 11.2147 271.754 9.76988 269.534 10.7894C269.634 13.8601 271.256 15.9012 273.537 17.7453C273.605 19.0368 273.673 20.1349 273.74 21.233Z" fill="#4A5DA8"/>
<path d="M73.6824 123.68C72.0218 123.69 70.3613 123.699 68.3961 123.508C68.225 120.694 68.3586 118.08 68.4921 115.466C69.9346 114.09 71.0605 108.095 70.1781 106.49C69.1162 104.558 66.7994 104.493 65.619 106.606C64.5162 108.581 63.8685 110.809 62.5692 113.012C62.4043 111.469 62.2394 109.926 62.1348 108.01C63.6513 105.158 65.634 103.706 68.695 104.001C69.6378 104.092 70.6254 103.719 71.6545 103.543C71.7165 103.527 71.8367 103.571 71.9832 103.686C74.3208 105.507 75.2361 107.806 75.1629 110.517C75.0537 114.556 74.8907 118.594 74.6921 122.79C74.3166 123.191 73.9995 123.435 73.6824 123.68Z" fill="#70BD46"/>
<path d="M323.931 20.2748C322.001 20.6507 320.098 20.7968 318.063 20.7762C318.123 19.5735 318.315 18.5375 318.58 17.1067C314.924 17.5208 315.279 15.2841 314.734 12.8228C314.215 10.474 314.507 8.68101 315.575 6.48149C317.185 6.09531 318.523 5.92034 320.065 5.78015C320.54 5.86782 320.812 5.92071 321.077 6.16548C321.714 7.32718 322.686 9.21747 322.95 9.12322C325.363 8.26286 325.487 9.79654 325.683 11.3863C325.108 14.2725 324.532 17.1588 323.931 20.2748Z" fill="#F3D421"/>
<path d="M325.877 63.073C326.73 65.0804 327.506 65.163 329.493 63.3179C331.328 64.3125 333.283 65.2343 334.759 66.6546C335.461 67.33 335.339 68.9488 335.427 70.1521C335.528 71.5453 335.45 72.9516 335.45 74.6653C332.998 74.6653 330.718 74.6653 328.22 74.7072C327.096 74.6673 326.19 74.5854 324.823 74.4619C324.823 71.7327 324.823 69.0148 324.664 66.1712C324.505 66.0456 324.523 66.0632 324.503 65.9161C324.317 65.6886 324.151 65.6083 323.994 65.5371C324.003 65.5463 324.02 65.5655 324.096 65.4184C324.74 64.5385 325.309 63.8058 325.877 63.073Z" fill="#F36829"/>
<path d="M68.3524 115.362C68.3587 118.08 68.2251 120.694 68.1755 123.506C69.0861 127.504 69.9933 131.288 70.6974 135.11C70.9576 136.522 70.7394 138.022 70.1678 139.456C68.4223 135.591 66.6769 131.725 64.8368 127.714C63.0398 123.312 62.6537 118.917 63.2266 114.305C64.9763 114.639 66.5944 114.949 68.3524 115.362Z" fill="#F3D421"/>
<path d="M278.957 14.1836C279.218 14.9594 279.722 15.742 279.701 16.5098C279.584 20.6931 282.403 23.6319 284.028 27.0708C284.98 29.0853 286.079 31.0326 286.981 33.0679C287.782 34.8737 287.633 36.627 285.853 38.0866C283.502 34.5667 281.433 31.0596 279.362 27.4005C279.215 27.151 279.071 27.0535 278.924 26.9734C278.92 26.9909 278.954 27.0012 279.01 26.7958C278.192 23.7187 277.319 20.8469 276.606 17.9789C277.123 18.0402 277.48 18.0976 277.428 18.0892C278.004 16.6173 278.48 15.4005 278.957 14.1836Z" fill="#4A5DA8"/>
<path d="M329.069 30.6623C326.827 31.7282 324.566 32.5994 322.123 33.5313C321.079 31.9034 320.054 30.2755 319.406 28.5091C318.779 26.8004 318.812 24.9556 320.706 23.9229C322.663 22.8559 324.631 22.9737 326.115 24.786C327.104 25.9935 327.834 27.413 328.819 28.8228C328.988 29.428 329.019 29.9478 329.069 30.6623Z" fill="#C9EAF6"/>
<path d="M71.8369 103.571C71.8369 103.571 71.7167 103.527 71.5879 103.38C70.1838 102.831 68.9086 102.428 67.6333 102.026C67.6587 100.669 67.6841 99.3127 67.7997 97.6925C67.7899 96.4001 67.6899 95.3715 67.6469 94.9294C68.9351 93.976 69.85 93.2988 71.0297 92.4257C72.5967 92.6634 73.1626 92.3825 74.6935 90.3048C75.0615 91.1996 75.4295 92.0944 75.9128 93.1211C76.1699 94.0419 76.3117 94.8308 76.3053 95.8466C75.8466 96.4156 75.2343 96.7975 75.2732 97.0937C75.5929 99.5248 74.0818 100.237 72.071 100.476C71.986 101.6 71.9114 102.586 71.8369 103.571Z" fill="#F3D421"/>
<path d="M321.083 5.97381C320.812 5.92092 320.54 5.86802 319.942 5.68996C318.378 4.96271 317.142 4.36061 315.907 3.75851C316.661 0.315132 317.64 -0.365501 321.093 0.156751C321.586 0.231281 322.074 0.344424 322.568 0.399287C327.254 0.918991 327.508 1.22474 326.687 5.91815C324.63 6.04273 322.857 6.00827 321.083 5.97381Z" fill="#F36829"/>
<path d="M74.6299 90.1163C73.1626 92.3818 72.5967 92.6626 71.0297 92.425C69.85 93.2981 68.9351 93.9752 67.6469 94.9286C67.6899 95.3708 67.7899 96.3994 67.7273 97.5105C67.1592 96.9793 66.6636 96.4065 66.3641 95.7449C65.1386 93.0382 65.4869 90.1336 67.1242 88.8689C68.9608 87.4503 72.2776 87.9226 74.6299 90.1163Z" fill="#2D3F71"/>
<path d="M279.365 27.5517C281.433 31.0588 283.502 34.5659 285.691 38.2105C283.555 39.9908 281.414 38.9376 279.088 38.0055C278.549 34.0792 278.187 30.2115 277.938 26.1896C278.352 26.357 278.653 26.6787 278.954 27.0004C278.954 27.0004 278.92 26.9901 278.952 27.1021C279.111 27.3267 279.238 27.4392 279.365 27.5517Z" fill="#F36829"/>
<path d="M278.809 14.0781C278.48 15.4001 278.004 16.617 277.428 18.0889C277.48 18.0973 277.123 18.0398 276.426 17.9253C275.236 17.7627 274.386 17.6571 273.537 17.5516C271.256 15.9008 269.634 13.8596 269.534 10.789C271.754 9.76945 272.627 11.2142 273.379 13.1158C274.705 12.5717 275.901 12.0807 277.27 11.5595C277.85 12.3439 278.255 13.1585 278.809 14.0781Z" fill="#A155A1"/>
<path d="M67.4291 102.055C68.9085 102.428 70.1837 102.831 71.5258 103.396C70.6255 103.719 69.6379 104.092 68.6951 104.001C65.6341 103.706 63.6514 105.158 62.1239 107.781C61.0865 106.311 60.1203 104.697 59.1542 103.084C59.3676 102.751 59.581 102.418 59.7944 102.085C62.2712 102.085 64.748 102.085 67.4291 102.055Z" fill="#2D3F71"/>
<path d="M258.339 44.6127C260.508 45.187 262.698 46.0634 264.714 43.6816C265.222 44.2799 265.584 44.985 265.973 45.8667C265.664 47.8997 265.328 49.7562 264.938 51.8023C262.705 49.5955 260.526 47.1994 258.339 44.6127Z" fill="#4A5DA8"/>
<path d="M321.077 6.1654C322.857 6.00799 324.63 6.04245 326.619 6.11391C326.516 7.80373 326.197 9.45654 325.781 11.2478C325.487 9.79647 325.363 8.26279 322.95 9.12315C322.686 9.21739 321.714 7.3271 321.077 6.1654Z" fill="#2D3F71"/>
<path d="M315.68 3.78235C317.142 4.36042 318.378 4.96251 319.737 5.655C318.523 5.92035 317.185 6.09532 315.644 6.30739C314.044 6.18331 312.625 6.1249 311.26 5.8216C310.468 5.64559 309.763 5.07604 309.02 4.68358C309.068 4.39118 309.117 4.09877 309.165 3.80637C311.261 3.80637 313.357 3.80637 315.68 3.78235Z" fill="#A155A1"/>
<path d="M113.478 261.844C114.243 261.877 114.771 261.902 115.491 261.973C113.227 262.132 110.771 262.302 108.313 262.346C105.097 262.403 101.88 262.36 98.6611 261.836C103.521 261.836 108.381 261.836 113.478 261.844Z" fill="#C0D6D9"/>
<path d="M386.442 249.194C386.221 249.146 386.271 249.061 386.306 249.024C390.6 248.938 394.858 248.889 399.342 248.791C399.568 248.741 399.662 248.942 399.662 249.054C395.33 249.19 390.997 249.216 386.442 249.194Z" fill="#C0D6D9"/>
<path d="M325.165 232.489C324.779 229.179 324.397 225.869 324.006 222.559C323.911 221.756 323.788 220.956 323.599 219.964C323.683 211.213 323.771 202.65 324.041 194.093C324.166 190.113 324.642 186.144 324.99 181.758C325.481 178.754 326.176 176.109 323.422 174.239C324.26 170.577 325.277 166.944 325.88 163.244C326.368 160.256 327.816 158.256 330.824 156.903C332.562 156.707 333.97 156.64 335.379 156.573C336.551 157.172 337.724 157.771 338.762 158.539C334.437 158.889 333.188 160.278 334.114 164.126C334.515 165.793 335.531 167.302 336.108 168.94C337.114 171.798 337.997 174.699 338.848 177.685C338.47 178.705 338.174 179.622 337.758 180.733C336.814 181.176 335.997 181.606 335.164 181.637C332.671 181.732 330.172 181.672 327.508 181.672C327.427 182.462 327.255 183.113 327.311 183.744C327.781 189.054 328.169 194.375 328.822 199.663C329.646 206.336 330.696 212.981 331.581 219.845C331.011 223.054 330.571 226.068 329.977 229.053C329.75 230.195 329.175 231.268 328.559 232.346C327.294 232.376 326.23 232.432 325.165 232.489Z" fill="#F59526"/>
<path d="M331.648 219.638C330.696 212.981 329.646 206.336 328.822 199.663C328.169 194.375 327.78 189.054 327.311 183.744C327.255 183.113 327.426 182.462 327.508 181.671C330.172 181.671 332.671 181.732 335.164 181.637C335.996 181.606 336.814 181.175 337.858 180.906C339.379 187.183 339.075 193.391 336.698 199.712C337.371 199.325 337.687 199.144 337.915 199.013C338.084 200.003 338.243 200.937 338.402 201.87C338.903 207.686 339.403 213.503 339.923 219.543C339.95 223.642 339.957 227.518 339.702 231.604C338.175 232.148 336.909 232.481 335.538 232.652C335.179 231.61 334.928 230.73 334.669 229.853C333.663 226.448 332.655 223.043 331.648 219.638Z" fill="#11518D"/>
<path d="M273.903 200.753C275.192 197.079 276.482 193.404 278.057 189.588C280.714 189.492 283.087 189.538 285.603 189.459C285.748 184.679 285.748 180.023 285.748 175.24C286.83 175.096 288.115 174.926 289.577 174.766C289.869 174.742 289.984 174.708 290.098 174.675C290.88 180.256 291.783 185.824 292.401 191.423C292.81 195.14 292.811 198.902 292.759 202.855C286.317 202.296 280.11 201.525 273.903 200.753Z" fill="#33B16D"/>
<path d="M275.575 166.314C274.376 165.061 272.984 163.939 272.024 162.524C270.783 160.692 270.797 158.622 272.659 157.154C274.458 155.735 274.728 154.012 274.22 152.041C273.706 150.046 274.521 148.966 276.247 148.072C277.446 147.452 278.686 146.583 279.444 145.501C281.861 142.049 285.493 141.505 288.871 144.655C288.256 146.723 287.647 148.54 285.344 148.578C283.333 148.612 282.764 149.789 282.888 151.511C283.037 153.574 283.272 155.63 283.31 157.758C282.596 157.962 282.041 158.097 281.357 158.281C281.152 158.489 281.076 158.649 280.99 158.78C280.979 158.752 281.04 158.753 280.903 158.793C280.688 158.999 280.612 159.166 280.522 159.303C280.509 159.274 280.573 159.281 280.422 159.324C280.194 159.553 280.118 159.738 279.977 160.076C278.466 162.256 277.021 164.285 275.575 166.314Z" fill="#F36829"/>
<path d="M338.931 177.583C337.997 174.699 337.114 171.798 336.107 168.94C335.531 167.302 334.515 165.793 334.114 164.126C333.188 160.278 334.437 158.889 338.835 158.699C339.043 158.689 339.027 158.694 339.082 158.809C339.294 159 339.453 159.076 339.611 159.152C343.394 163.304 344.384 168.505 345.059 173.805C345.215 175.034 345.104 176.297 345.127 177.963C343.655 181.657 341.148 179.424 338.931 179.753C338.931 178.866 338.931 178.224 338.931 177.583Z" fill="#F3D421"/>
<path d="M335.423 156.365C333.97 156.641 332.562 156.707 330.954 156.783C330.623 155.696 330.492 154.6 330.459 153.188C331.69 151.511 332.954 150.233 333.886 148.746C334.224 148.206 333.77 147.168 333.678 146.357C332.825 146.783 331.94 147.157 331.135 147.661C330.857 147.835 330.781 148.331 330.6 148.706C329.36 148.424 328.244 148.17 327.128 147.915C326.788 147.57 326.193 147.257 326.146 146.876C325.518 141.753 331.216 137.569 335.945 139.615C339.312 141.072 338.737 143.231 337.662 147.317C336.89 150.253 336.197 153.21 335.423 156.365Z" fill="#C9EAF6"/>
<path d="M290.719 235.153C284.315 235.153 277.91 235.153 271.505 235.153C271.502 235.097 271.498 235.041 271.494 234.985C275.494 234.733 279.494 234.481 284.196 234.185C283.626 229.431 283.069 224.789 282.475 219.941C282.365 217.09 282.293 214.446 282.556 211.641C284.555 211.487 286.219 211.495 287.907 211.701C287.577 216.348 287.497 220.841 286.793 225.234C286.11 229.497 287.475 232.613 290.719 235.153Z" fill="#F36829"/>
<path d="M338.848 177.685C338.931 178.224 338.931 178.865 338.931 179.752C341.148 179.424 343.655 181.656 345.166 178.213C344.728 181.371 344.462 184.739 343.748 188.011C342.868 192.045 341.669 196.014 340.471 199.97C340.258 200.673 339.372 201.171 338.6 201.817C338.243 200.936 338.084 200.003 337.915 199.013C337.687 199.144 337.371 199.325 336.698 199.711C339.075 193.391 339.379 187.182 337.979 180.712C338.174 179.621 338.469 178.704 338.848 177.685Z" fill="#C9EAF6"/>
<path d="M323.253 174.22C326.176 176.108 325.481 178.754 324.972 181.55C323.533 181.079 321.891 180.677 320.804 179.674C318.252 177.316 315.991 174.644 313.56 172.15C312.192 170.746 310.576 169.561 309.354 168.05C308.617 167.139 308.422 165.79 307.995 164.405C308.006 164.172 308.061 164.118 308.061 164.118C308.422 164.195 308.784 164.273 309.313 164.276C309.481 164.203 309.469 164.188 309.416 164.336C309.705 164.576 310.046 164.669 310.456 164.711C310.525 164.661 310.66 164.557 310.66 164.557C313.936 168.887 319.001 170.912 323.253 174.22Z" fill="#C9EAF6"/>
<path d="M275.529 166.495C277.021 164.286 278.466 162.257 280.103 160.003C280.387 159.613 280.48 159.447 280.573 159.281C280.573 159.281 280.509 159.274 280.652 159.255C280.876 159.075 280.958 158.914 281.04 158.753C281.04 158.753 280.979 158.752 281.116 158.771C281.331 158.761 281.41 158.731 281.605 158.733C281.721 158.765 281.955 158.704 282.072 158.788C282.465 158.964 282.741 159.056 283.04 159.189C283.063 159.23 283.155 159.207 283.22 159.371C283.525 159.932 283.766 160.33 283.989 160.927C282.935 163.141 281.9 165.157 280.712 167.247C279.84 168.384 278.27 169.99 278.543 170.416C279.912 172.553 280.933 175.247 283.938 175.989C284.016 177.108 284.085 178.051 284.063 179.174C283.71 179.942 283.448 180.53 282.993 181.553C282.362 179.764 281.906 178.469 281.348 177.041C279.66 175.802 278.074 174.698 276.442 173.478C276.304 173.212 276.171 173.12 275.997 173.089C274.232 171.079 273.897 168.955 275.529 166.495Z" fill="#FEFEFE"/>
<path d="M283.155 159.207C283.155 159.207 283.063 159.23 282.936 159.077C282.524 158.851 282.239 158.777 281.955 158.703C281.955 158.703 281.721 158.764 281.593 158.615C281.465 158.466 281.485 158.232 281.485 158.232C282.04 158.097 282.596 157.962 283.484 157.804C284.522 157.914 285.227 158.046 285.933 158.178C287.87 160.368 289.807 162.557 291.804 165.073C291.183 166.818 290.504 168.237 289.825 169.657C289.919 171.223 290.013 172.79 290.102 174.516C289.984 174.708 289.87 174.742 289.359 174.76C286.58 175.062 285.117 174.697 285.336 171.607C285.561 168.43 285.249 165.192 284.893 162.012C284.782 161.024 283.76 160.139 283.155 159.207Z" fill="#F3D421"/>
<path d="M290.923 235.185C287.476 232.612 286.11 229.496 286.793 225.233C287.497 220.84 287.577 216.348 287.957 211.464C288.288 208.97 288.593 206.911 289.122 204.814C290.109 204.78 290.873 204.782 291.637 204.784C290.956 209.669 290.276 214.554 289.589 219.637C289.315 222.819 288.945 225.797 288.809 228.785C288.658 232.113 292.463 235.486 295.734 234.789C294.198 234.932 292.663 235.074 290.923 235.185Z" fill="#2D3F71"/>
<path d="M275.939 173.285C276.171 173.12 276.304 173.211 276.392 173.685C275.722 177.309 275.055 180.612 274.314 184.279C276.211 184.279 277.766 184.279 279.514 184.351C281.298 184.522 282.887 184.622 284.643 184.82C285.026 186.473 285.243 188.028 285.459 189.583C283.087 189.537 280.714 189.492 278.137 189.429C276.367 189.316 274.802 189.222 272.658 189.092C273.758 183.765 274.82 178.623 275.939 173.285Z" fill="#F36829"/>
<path d="M289.976 169.754C290.504 168.238 291.184 166.818 291.891 165.208C292.857 166.062 293.795 167.107 295.077 168.536C295.986 165.404 298.177 163.092 297.665 159.769C297.57 159.152 298.29 158.409 298.949 157.851C299.263 158.504 299.263 159.029 299.263 159.555C299.499 159.594 299.734 159.633 299.97 159.671C300.458 158.726 300.946 157.78 301.433 156.834C301.182 158.191 300.989 159.562 300.66 160.9C300.372 162.073 299.915 163.205 299.561 164.364C298.766 166.966 298.053 169.597 297.18 172.173C296.583 173.937 295.303 174.206 293.873 173.109C292.562 172.104 291.37 170.944 289.976 169.754Z" fill="#FEFEFE"/>
<path d="M285.928 157.973C285.228 158.046 284.522 157.914 283.643 157.736C283.272 155.631 283.037 153.574 282.888 151.511C282.764 149.789 283.333 148.612 285.344 148.579C287.647 148.54 288.256 146.723 288.959 144.813C289.34 145.43 290.023 146.262 289.943 147.014C289.594 150.322 290.193 154.086 286.201 155.94C285.892 156.083 286.006 157.137 285.928 157.973Z" fill="#FEFEFE"/>
<path d="M326.98 148.042C328.244 148.169 329.36 148.423 330.6 148.705C330.781 148.33 330.858 147.834 331.135 147.66C331.94 147.156 332.825 146.782 333.678 146.356C333.771 147.167 334.225 148.205 333.886 148.746C332.954 150.232 331.69 151.51 330.427 152.992C329.97 153.157 329.623 153.295 329.322 153.228C327.976 152.929 326.644 152.571 325.307 152.234C325.815 150.879 326.323 149.524 326.98 148.042Z" fill="#33B16D"/>
<path d="M288.899 204.85C288.594 206.91 288.288 208.97 287.933 211.266C286.22 211.494 284.556 211.486 282.663 211.489C282.428 209.082 282.421 206.665 282.622 204.043C284.852 204.175 286.875 204.513 288.899 204.85Z" fill="#FEFEFE"/>
<path d="M289.122 204.814C286.875 204.513 284.852 204.176 282.62 203.837C279.825 203.434 277.232 203.065 274.654 202.612C273.827 202.466 272.625 202.337 273.794 200.866C280.11 201.525 286.317 202.296 292.759 203.112C292.633 203.678 292.273 204.198 291.775 204.751C290.873 204.782 290.109 204.78 289.122 204.814Z" fill="#F36829"/>
<path d="M301.426 156.664C300.946 157.78 300.458 158.726 299.97 159.671C299.734 159.632 299.499 159.594 299.263 159.555C299.263 159.029 299.263 158.503 299.13 157.835C298.996 157.693 298.96 157.692 299.092 157.834C299.472 157.726 299.719 157.476 299.965 157.226C300.756 155.473 301.547 153.72 302.338 151.968C302.526 152.037 302.713 152.106 302.9 152.176C302.406 153.615 301.913 155.055 301.426 156.664Z" fill="#635D5C"/>
<path d="M299.891 157.129C299.718 157.475 299.472 157.725 299.09 157.851C299.243 157.495 299.529 157.264 299.891 157.129Z" fill="#FEFEFE"/>
<path d="M309.488 164.212C309.607 164.01 309.721 163.8 309.834 163.591C309.898 163.716 309.963 163.841 310.002 164.086C309.978 164.206 309.995 164.188 309.863 164.177C309.644 164.174 309.556 164.181 309.469 164.188C309.469 164.188 309.481 164.204 309.488 164.212Z" fill="#C9EAF6"/>
<path d="M309.97 164.214C310.139 164.254 310.316 164.285 310.576 164.437C310.66 164.557 310.525 164.661 310.342 164.657C310.104 164.497 310.049 164.342 309.995 164.188C309.995 164.188 309.978 164.205 309.97 164.214Z" fill="#C9EAF6"/>
<path d="M339.55 159.032C339.452 159.076 339.294 159 339.081 158.802C339.181 158.756 339.335 158.834 339.55 159.032Z" fill="#F59526"/>
<path d="M307.978 164.199C307.84 164.142 307.729 164.057 307.619 163.973C307.742 163.953 307.866 163.933 308.025 164.016C308.062 164.118 308.006 164.173 307.978 164.199Z" fill="#C9EAF6"/>
<path d="M62.8272 162.355C63.2695 163.857 63.4802 165.337 63.6186 167.177C63.4828 168.269 63.4194 169.001 63.1008 169.729C60.7529 169.725 58.66 169.725 56.5672 169.725C56.5762 169.919 56.5852 170.112 56.5942 170.306C65.7367 170.306 74.8792 170.306 84.0217 170.306C84.021 170.144 84.0203 169.983 84.0196 169.821C82.688 169.821 81.3564 169.821 79.976 169.657C78.9565 168.488 77.9859 167.482 77.0646 166.304C77.4357 164.878 77.7574 163.624 78.0791 162.37C84.225 162.362 90.3708 162.354 96.7917 162.565C97.2054 165.332 97.4758 167.924 94.4543 169.263C96.8635 171.17 97.837 168.787 98.9217 168.46C99.228 166.195 99.491 164.25 99.9799 162.308C102.599 162.174 104.991 162.038 107.464 162.033C108.255 164.109 108.966 166.053 109.832 168.421C110.568 167.494 111.394 166.453 112.014 165.673C111.282 164.308 110.759 163.332 110.235 162.357C115.401 162.336 120.566 162.316 125.964 162.253C133.046 162.221 139.896 162.232 147.111 162.263C147.564 162.266 147.652 162.249 147.74 162.233C151.243 162.266 154.747 162.246 158.246 162.369C159.18 162.402 160.292 162.628 160.996 163.181C172.918 172.558 184.79 182.002 196.71 191.594C173.861 191.794 150.974 191.831 127.841 191.899C120.932 191.873 114.269 191.777 107.605 191.766C92.8528 191.74 78.0999 191.796 63.3481 191.692C61.9141 191.682 60.2186 191.134 59.0969 190.257C47.4905 181.181 35.9772 171.987 24.3055 162.734C24.8051 162.535 25.4371 162.333 26.0693 162.332C38.2446 162.318 50.42 162.328 62.8272 162.355ZM116.584 169.735C112.917 169.772 109.249 169.81 105.581 169.847C105.591 169.996 105.601 170.146 105.611 170.295C110.387 170.295 115.162 170.295 119.937 170.295C119.931 170.171 119.925 170.046 119.919 169.922C118.947 169.876 117.976 169.829 116.584 169.735Z" fill="#F3D421"/>
<path d="M147.733 161.995C147.652 162.249 147.564 162.265 147.345 162.25C147.217 132.824 147.219 103.43 147.213 73.8028C147.292 73.5738 147.38 73.5782 147.598 73.614C147.727 103.016 147.726 132.387 147.733 161.995Z" fill="#AC6EAF"/>
<path d="M99.5249 118.564C102.149 119.621 103.357 121.869 104.271 124.316C106.326 129.823 108.333 135.348 110.498 141.242C108.308 141.837 105.958 142.476 103.229 143.149C102.118 143.351 101.385 143.519 100.438 143.681C98.67 143.853 97.1177 144.031 95.5654 144.209C95.1054 143.698 94.243 143.185 94.2456 142.677C94.2846 135.145 94.4383 127.614 94.5856 119.7C94.6018 119.082 94.5972 118.846 94.7724 118.624C96.4875 119.308 98.0421 121.173 99.5249 118.564Z" fill="#33B16D"/>
<path d="M78.0767 162.136C77.7573 163.624 77.4356 164.877 76.9027 166.337C75.8999 166.744 75.1082 166.945 74.2825 166.984C73.7673 165.288 73.2861 163.754 72.7801 161.994C72.299 158.479 71.8428 155.189 71.3865 151.899C72.2788 144.457 73.1712 137.015 74.2347 129.451C75.362 130.301 76.3182 131.273 77.2744 132.246C78.1949 142.113 79.2161 151.979 78.0767 162.136Z" fill="#33B16D"/>
<path d="M95.0345 91.7048C96.3882 89.7815 98.4708 89.9972 100.11 90.6389C101.332 91.1173 102.716 92.6088 102.946 93.8493C103.261 95.5561 103.959 96.339 105.431 96.7752C107.345 97.3422 108.021 98.6092 107.747 100.568C107.527 102.138 107.446 103.705 109.003 104.842C110.979 106.285 111.165 108.339 110.413 110.439C109.624 112.643 107.982 114.05 105.57 114.124C104.282 114.163 102.981 113.8 101.489 113.397C101.516 112.559 101.733 111.94 101.966 111.328C103.846 106.397 102.388 104.173 97.2059 104.069C97.0159 103.047 96.8259 102.026 96.6576 100.636C97.4165 98.9432 98.1537 97.619 98.6141 96.7921C97.3165 94.9479 96.1755 93.3263 95.0345 91.7048Z" fill="#F3D421"/>
<path d="M95.5861 144.424C97.1178 144.031 98.6701 143.853 100.431 143.881C99.6677 146.924 100.808 149.492 101.476 152.204C100.783 155.641 100.268 158.973 99.754 162.305C99.491 164.25 99.228 166.195 98.9217 168.46C97.837 168.787 96.8634 171.17 94.4542 169.263C97.4757 167.924 97.2053 165.332 97.0135 162.585C96.509 156.469 96.0578 150.554 95.5861 144.424Z" fill="#4A5DA8"/>
<path d="M71.9833 103.686C71.9114 102.586 71.9859 101.6 72.0709 100.476C74.0817 100.237 75.5929 99.5247 75.2732 97.0936C75.2342 96.7973 75.8466 96.4155 76.3378 96.0165C77.2116 103.86 77.998 111.753 78.544 119.663C78.7188 122.196 78.2577 124.772 77.9314 127.439C76.767 125.911 75.7589 124.272 74.7507 122.633C74.8908 118.594 75.0539 114.556 75.163 110.517C75.2362 107.806 74.3209 105.507 71.9833 103.686Z" fill="#FEFEFE"/>
<path d="M101.656 152.098C100.808 149.492 99.6677 146.923 100.646 143.887C101.386 143.519 102.118 143.351 103.042 143.197C102.908 145.185 103.803 146.673 104.665 148.428C106.805 152.783 108.325 157.441 110.165 162.167C110.759 163.332 111.282 164.308 112.014 165.672C111.394 166.452 110.568 167.493 109.832 168.42C108.966 166.053 108.255 164.109 107.381 161.854C105.363 158.394 103.509 155.246 101.656 152.098Z" fill="#2D3F71"/>
<path d="M99.5191 118.382C98.0422 121.173 96.4876 119.308 94.7033 118.473C92.8367 117.243 91.2729 116.082 89.5845 115.144C88.187 114.367 86.6426 113.855 85.1633 113.226C85.3904 112.604 85.4451 111.69 85.8856 111.431C86.5162 111.059 87.6053 110.829 88.1882 111.133C90.0687 112.114 91.8071 113.368 93.8263 114.661C93.9857 113.952 94.0828 113.52 94.3235 113.015C94.9012 113.919 95.3355 114.895 95.7698 115.872C96.0054 115.768 96.2409 115.664 96.4765 115.56C96.6308 115.033 96.785 114.507 97.0896 114.002C98.1574 114.229 99.0748 114.435 100.005 114.841C100.031 115.307 100.043 115.573 100.055 115.84C99.8742 116.627 99.6937 117.414 99.5191 118.382Z" fill="#4A5DA8"/>
<path d="M96.9393 113.981C96.785 114.507 96.6307 115.034 96.4765 115.56C96.2409 115.664 96.0053 115.768 95.7698 115.872C95.3355 114.896 94.9012 113.92 94.3185 112.846C92.8841 109.208 95.3311 106.87 97.0581 104.161C102.388 104.173 103.846 106.398 101.966 111.329C101.733 111.941 101.516 112.559 101.293 113.353C100.967 114.199 100.64 114.867 100.184 115.688C100.043 115.574 100.031 115.308 100.036 114.633C100.419 112.092 100.917 109.97 101.078 107.822C101.133 107.09 100.343 106.293 99.9395 105.526C99.2585 106.123 98.1553 106.615 97.9758 107.337C97.4368 109.503 97.2584 111.76 96.9393 113.981Z" fill="#F9F9F9"/>
<path d="M74.6922 122.79C75.7588 124.272 76.7669 125.912 77.9128 127.662C79.2028 129.764 80.4744 131.699 81.4636 133.769C82.0789 135.056 82.2667 136.548 82.6464 137.948C82.4307 138.056 82.2149 138.165 81.9992 138.274C80.5346 136.365 79.07 134.455 77.4399 132.396C76.3182 131.274 75.362 130.302 74.2693 129.244C73.989 127.467 73.8452 125.776 73.6919 123.882C73.9995 123.436 74.3166 123.191 74.6922 122.79Z" fill="#F3D421"/>
<path d="M84.9856 113.178C86.6426 113.856 88.187 114.368 89.5845 115.144C91.2728 116.082 92.8367 117.244 94.5235 118.46C94.5973 118.847 94.6019 119.082 94.5881 119.493C92.663 118.876 90.7439 118.111 88.8531 117.282C86.8748 116.414 85.1847 114.678 82.6648 115.516C82.248 115.654 81.5703 115.009 80.8821 114.659C82.0633 113.324 83.0376 112.18 84.9856 113.178Z" fill="#2D3F71"/>
<path d="M94.9025 91.79C96.1755 93.3267 97.3164 94.9483 98.6141 96.7925C98.1537 97.6194 97.4165 98.9436 96.6245 100.438C94.4605 100.489 93.2358 99.2072 93.4536 96.7945C93.6039 95.1286 94.3117 93.513 94.9025 91.79Z" fill="#4A5DA8"/>
<path d="M335.643 232.815C336.909 232.482 338.175 232.148 339.615 231.825C339.345 234.762 339.754 235.31 342.477 235.359C343.84 235.384 345.203 235.363 346.558 234.95C335.701 234.95 324.844 234.95 313.988 234.95C317.852 235.211 321.954 236.606 325.097 232.654C326.229 232.432 327.294 232.376 328.617 232.574C329.007 233.462 329.139 234.097 329.281 234.786C331.72 234.959 334.154 235.452 335.643 232.815Z" fill="#2D3F71"/>
<path d="M328.942 101.662C332.25 101.857 335.558 102.052 338.865 102.247C338.863 102.381 338.86 102.515 338.858 102.649C326.121 102.649 313.384 102.649 300.647 102.649C300.642 102.496 300.638 102.344 300.634 102.191C304.057 102.005 307.479 101.819 311.28 101.789C313.126 102 314.607 102.184 316.056 102.044C316.629 101.989 317.133 101.213 317.781 100.894C319.429 101.235 320.964 101.447 322.622 101.833C324.81 101.891 326.876 101.777 328.942 101.662Z" fill="#AC6EAF"/>
<path d="M281.052 101.148C284.958 101.398 288.863 101.647 292.769 101.896C292.77 101.988 292.771 102.079 292.772 102.171C282.549 102.171 272.327 102.171 262.104 102.171C262.102 102.165 262.1 102.159 262.098 102.153C262.688 102.153 263.278 102.153 264.243 102.081C266.479 101.867 268.341 101.726 270.322 101.51C271.912 101.338 273.382 101.239 274.987 101.311C277.099 101.37 279.076 101.259 281.052 101.148Z" fill="#A155A1"/>
<path d="M270.202 101.585C268.341 101.726 266.479 101.867 264.414 102.022C264.253 101.165 264.296 100.295 264.42 99.2454C265.528 99.248 266.556 99.4298 267.819 99.7847C268.77 100.5 269.486 101.042 270.202 101.585Z" fill="#F3D421"/>
<path d="M280.903 101.055C279.076 101.26 277.099 101.371 274.999 101.1C274.985 100.178 275.096 99.6374 275.206 99.0967C276.282 99.1045 277.357 99.1123 278.636 99.1336C279.476 99.7516 280.115 100.356 280.903 101.055Z" fill="#2D3F71"/>
<path d="M317.668 100.766C317.133 101.214 316.629 101.99 316.056 102.045C314.607 102.185 313.126 102 311.506 101.789C312.106 100.998 312.859 100.363 313.74 99.6287C314.929 99.7156 315.989 99.9019 317.316 100.243C317.612 100.52 317.64 100.643 317.668 100.766Z" fill="#F36829"/>
<path d="M328.918 101.506C326.876 101.777 324.81 101.891 322.789 101.775C323.448 101.015 324.062 100.486 324.677 99.9561C325.83 100.05 326.984 100.145 328.317 100.21C328.629 100.57 328.762 100.96 328.918 101.506Z" fill="#F36829"/>
<path d="M275.003 99.0351C275.096 99.6371 274.986 100.178 274.864 100.93C273.382 101.24 271.912 101.338 270.322 101.511C269.486 101.042 268.77 100.5 268.016 99.805C269.357 94.7606 270.735 89.8694 272.204 84.8352C273.13 89.4528 273.965 94.2133 275.003 99.0351Z" fill="#C9EAF6"/>
<path d="M325.904 62.8647C325.309 63.8054 324.74 64.5382 323.903 65.3813C319.925 64.4682 318.606 65.4627 318.549 69.3082C318.536 70.2096 318.477 71.1103 318.439 72.0114C317.795 67.2913 317.077 62.5797 316.534 57.848C316.187 54.8306 316.1 51.7836 315.908 48.9351C317.389 49.0439 318.851 49.1512 319.678 49.2119C321.411 49.7611 322.601 50.4202 323.777 50.3977C324.414 50.3855 325.029 49.2109 325.809 48.545C326.081 50.4293 326.083 52.345 326.341 54.2255C326.732 57.0771 326.978 59.8894 325.904 62.8647Z" fill="#3E8291"/>
<path d="M324.593 99.7911C324.062 100.485 323.448 101.015 322.667 101.602C320.964 101.447 319.429 101.234 317.78 100.893C317.64 100.642 317.612 100.52 317.523 100.218C318.108 97.3503 318.828 94.6756 319.376 91.9662C319.736 90.1846 319.849 88.3529 320.214 86.2863C320.509 85.9198 320.556 85.7755 320.497 85.5962C320.497 85.5962 320.501 85.588 320.506 85.5869C321.495 89.2545 322.464 92.9274 323.473 96.589C323.756 97.6184 324.16 98.6148 324.593 99.7911Z" fill="#C9EAF6"/>
<path d="M318.472 72.2131C318.477 71.1105 318.536 70.2097 318.549 69.3083C318.606 65.4629 319.925 64.4684 323.827 65.5285C324.02 65.5652 324.003 65.546 324.014 65.6872C324.19 65.9065 324.357 65.9848 324.523 66.063C324.523 66.063 324.505 66.0454 324.497 66.036C324.482 68.5169 324.478 71.007 324.461 73.4971C324.46 73.7366 324.378 73.9756 324.26 74.6027C322.697 74.6027 321.076 74.6027 319.225 74.6379C318.833 73.9203 318.669 73.1675 318.472 72.2131Z" fill="#F36829"/>
<path d="M320.376 85.6318C320.557 85.7766 320.509 85.9208 320.245 86.077C320.071 85.9442 320.111 85.7917 320.376 85.6318Z" fill="#3E8291"/>
<path d="M273.537 17.7445C274.386 17.6568 275.236 17.7623 276.265 17.9212C277.319 20.8462 278.192 23.718 279.01 26.7951C278.653 26.6788 278.352 26.3571 277.886 25.978C276.469 24.4082 275.216 22.8959 273.852 21.3079C273.672 20.1341 273.605 19.036 273.537 17.7445Z" fill="#F6F6F6"/>
<path d="M72.8049 162.219C73.2862 163.754 73.7674 165.288 74.2123 167.186C74.1613 168.256 74.1466 168.962 73.9077 169.686C72.2286 169.719 70.7736 169.735 69.1857 169.637C68.2192 168.592 67.3857 167.661 66.5521 166.729C67.2122 165.378 67.8723 164.028 68.8217 162.494C70.3423 162.281 71.5736 162.25 72.8049 162.219Z" fill="#F3D421"/>
<path d="M72.7801 161.995C71.5736 162.251 70.3422 162.282 68.885 162.319C69.5442 158.922 70.4292 155.519 71.3504 152.008C71.8428 155.19 72.2991 158.48 72.7801 161.995Z" fill="#C9EAF6"/>
<path d="M66.3787 166.721C67.3856 167.661 68.2191 168.592 69.0443 169.816C67.1426 169.983 65.2491 169.858 63.3557 169.733C63.4192 169.001 63.4827 168.269 63.6263 167.368C64.5394 167.037 65.3723 166.875 66.3787 166.721Z" fill="#F6F6F6"/>
<path d="M324.503 65.9156C324.357 65.9845 324.19 65.9063 324.005 65.6778C324.151 65.6078 324.317 65.6882 324.503 65.9156Z" fill="#3E8291"/>
<path d="M279.362 27.4002C279.238 27.4396 279.111 27.3271 278.955 27.0851C279.071 27.0531 279.215 27.1507 279.362 27.4002Z" fill="#F6F6F6"/>
<path d="M335.538 232.652C334.154 235.452 331.72 234.959 329.281 234.786C329.139 234.097 329.007 233.462 328.817 232.6C329.175 231.268 329.75 230.195 329.977 229.053C330.57 226.068 331.011 223.054 331.581 219.845C332.655 223.043 333.663 226.448 334.669 229.853C334.928 230.731 335.179 231.61 335.538 232.652Z" fill="#F3D421"/>
<path d="M285.603 189.459C285.243 188.028 285.026 186.473 284.681 184.597C284.419 182.514 284.287 180.754 284.155 178.993C284.085 178.05 284.016 177.107 284.003 175.816C284.076 175.225 284.093 174.982 284.217 174.561C284.218 169.831 284.113 165.279 284.007 160.727C283.766 160.329 283.525 159.931 283.219 159.37C283.76 160.139 284.782 161.024 284.893 162.012C285.249 165.192 285.561 168.43 285.336 171.607C285.117 174.697 286.58 175.061 289.181 174.751C288.115 174.926 286.83 175.096 285.748 175.239C285.748 180.023 285.748 184.679 285.603 189.459Z" fill="#F59526"/>
<path d="M281.357 158.28C281.485 158.231 281.465 158.466 281.477 158.582C281.41 158.729 281.331 158.76 281.126 158.799C281.076 158.648 281.152 158.488 281.357 158.28Z" fill="#F59526"/>
<path d="M280.902 158.793C280.958 158.914 280.876 159.074 280.665 159.284C280.612 159.166 280.688 158.999 280.902 158.793Z" fill="#F59526"/>
<path d="M280.422 159.324C280.48 159.447 280.387 159.613 280.168 159.852C280.118 159.739 280.194 159.553 280.422 159.324Z" fill="#F59526"/>
<path d="M309.863 164.176C310.05 164.342 310.104 164.497 310.273 164.707C310.046 164.669 309.705 164.576 309.416 164.336C309.556 164.18 309.644 164.173 309.863 164.176Z" fill="#A155A1"/>
<path d="M279.32 184.279C277.766 184.279 276.211 184.279 274.314 184.279C275.055 180.612 275.722 177.309 276.439 173.8C278.074 174.697 279.66 175.802 281.228 177.176C280.58 179.723 279.95 182.001 279.32 184.279Z" fill="#A155A1"/>
<path d="M279.515 184.35C279.95 182 280.58 179.722 281.33 177.309C281.906 178.468 282.362 179.763 282.993 181.552C283.448 180.529 283.71 179.941 284.063 179.173C284.287 180.753 284.419 182.514 284.514 184.498C282.887 184.622 281.298 184.522 279.515 184.35Z" fill="#38B26E"/>
<path d="M283.989 160.926C284.113 165.279 284.218 169.831 284.051 174.462C282.806 172.084 281.835 169.628 280.864 167.172C281.9 165.156 282.935 163.141 283.989 160.926Z" fill="#F3D421"/>
<path d="M280.712 167.246C281.835 169.627 282.806 172.083 283.944 174.639C284.093 174.982 284.076 175.225 283.994 175.64C280.933 175.246 279.912 172.552 278.543 170.415C278.27 169.989 279.84 168.383 280.712 167.246Z" fill="#A866AA"/>
<path d="M282.072 158.787C282.239 158.777 282.524 158.851 282.913 159.036C282.741 159.056 282.465 158.963 282.072 158.787Z" fill="#F59526"/>
<path d="M101.476 152.204C103.509 155.247 105.363 158.395 107.301 161.722C104.991 162.038 102.599 162.174 99.9799 162.308C100.268 158.974 100.783 155.642 101.476 152.204Z" fill="#C9EAF6"/>
<path d="M63.1007 169.729C65.2492 169.858 67.1426 169.983 69.1773 169.93C70.7735 169.735 72.2285 169.719 74.1045 169.747C76.3586 169.801 78.1917 169.811 80.0247 169.821C81.3563 169.821 82.6879 169.821 84.0195 169.821C84.0202 169.983 84.0209 170.144 84.0215 170.306C74.879 170.306 65.7365 170.306 56.594 170.306C56.585 170.112 56.576 169.918 56.567 169.725C58.6599 169.725 60.7527 169.725 63.1007 169.729Z" fill="#70BD46"/>
<path d="M79.9759 169.657C78.1917 169.811 76.3586 169.801 74.3287 169.729C74.1465 168.962 74.1613 168.256 74.2463 167.348C75.1082 166.945 75.9 166.744 76.8534 166.51C77.9858 167.481 78.9564 168.487 79.9759 169.657Z" fill="#F3F2F2"/>
<path d="M116.794 169.759C117.976 169.829 118.947 169.876 119.918 169.923C119.925 170.047 119.931 170.171 119.937 170.295C115.162 170.295 110.387 170.295 105.611 170.295C105.601 170.146 105.591 169.997 105.581 169.847C109.249 169.81 112.916 169.773 116.794 169.759Z" fill="#70BD46"/>
<path d="M97.0896 114.002C97.2584 111.759 97.4368 109.503 97.9757 107.336C98.1553 106.614 99.2585 106.122 99.9395 105.525C100.343 106.293 101.133 107.089 101.078 107.822C100.917 109.969 100.419 112.091 100.023 114.432C99.0747 114.435 98.1573 114.229 97.0896 114.002Z" fill="#F36829"/>
</svg>
