<svg width="32" height="32" viewBox="0 0 32 32" fill="none" xmlns="http://www.w3.org/2000/svg">
<rect y="0.00012207" width="32" height="32" rx="16" fill="#DBF0F2"/>
<path d="M13.6714 13.5998C13.8595 13.0651 14.2307 12.6143 14.7194 12.3271C15.208 12.0399 15.7825 11.9349 16.3411 12.0308C16.8998 12.1266 17.4064 12.417 17.7714 12.8506C18.1365 13.2842 18.3362 13.833 18.3354 14.3998C18.3354 15.9998 15.9354 16.7998 15.9354 16.7998M15.9995 19.9997H16.0075M23.9995 15.9997C23.9995 20.418 20.4178 23.9997 15.9995 23.9997C11.5812 23.9997 7.99951 20.418 7.99951 15.9997C7.99951 11.5814 11.5812 7.99973 15.9995 7.99973C20.4178 7.99973 23.9995 11.5814 23.9995 15.9997Z" stroke="#357F90" stroke-linecap="round" stroke-linejoin="round"/>
</svg>
