<svg width="400" height="295" viewBox="0 0 400 295" fill="none" xmlns="http://www.w3.org/2000/svg">
<path d="M259.383 138.896C261.372 136.091 263.522 133.385 265.32 130.463C272.465 118.851 278.133 106.56 281.089 93.203C282.889 85.0719 284.197 76.8271 285.567 68.6071C287.484 57.1175 288.874 45.5283 292.826 34.4679C297.975 20.0569 307.793 10.3538 322.16 5.22768C330.268 2.33484 338.622 0.728513 347.236 0.191712C364.791 -0.90227 381.392 2.739 397.376 9.75215C398.135 10.0848 398.919 10.3575 399.845 10.6683C400 41.8889 400 73.0994 399.889 104.422C390.599 93.6833 375.036 92.2235 364.662 101.644C355.029 110.393 345.727 119.509 336.387 128.575C333.63 131.25 331.75 134.593 330.648 138.44C323.655 140.848 316.748 143.084 309.923 145.549C302.195 148.34 294.541 151.335 286.755 154.135C281.81 151.318 276.603 150.443 270.972 150.936C270.419 150.656 269.932 150.483 269.624 150.147C266.194 146.411 262.792 142.65 259.383 138.896Z" fill="#B7DFBE"/>
<path d="M152.38 204.708C156.162 204.154 159.943 203.599 163.905 203.136C164.685 205.348 165.11 207.536 165.914 209.576C170.494 221.192 180.998 226.75 191.315 226.473C200.64 226.223 209.959 225.712 219.278 225.259C223.346 225.061 227.408 224.72 231.607 224.508C234.191 226.708 234.48 226.81 237.003 224.851C238.619 223.595 239.993 222.027 241.611 220.529C246.266 217.492 249.62 213.546 251.624 208.515C254.722 200.737 253.788 192.795 252.502 184.813C252.527 184.779 252.422 184.668 252.425 184.551C252.43 184.277 252.432 184.121 252.557 183.891C256.018 179.783 259.357 175.748 262.784 171.828C264.412 174.94 265.801 178.028 267.519 180.92C271.703 187.965 276.039 194.919 280.194 202C275.553 207.594 271.126 213.179 266.481 218.576C263.04 222.574 258.488 224.335 253.277 223.306C250.515 222.761 247.914 221.403 245.033 220.335C242.924 223.101 240.589 226.163 238.263 229.213C244.302 234.672 250.049 236.733 258.759 236.186C265.39 235.769 271.085 232.938 275.457 227.986C280.168 222.652 284.52 217.001 289.152 211.564C289.858 212.982 290.443 214.323 291.023 215.667C291.231 216.149 291.312 216.954 291.645 217.075C294.535 218.119 294.287 220.289 293.504 223.026C296.821 220.776 299.752 218.787 302.701 216.786C300.071 212.24 297.619 208.001 295.29 203.702C295.917 202.995 296.422 202.35 297.094 201.714C300.757 202.173 304.248 202.531 307.848 201.233C312.154 200.76 315.199 203.021 318.663 205.154C319.435 203.379 320.403 201.42 321.106 199.369C321.314 198.762 320.771 197.898 320.722 197.106C327.485 194.803 334.041 192.357 340.725 190.335C348.245 188.06 354.745 184.485 359.387 177.828C360.855 177.675 362.159 177.547 363.447 177.323C369.514 176.265 374.09 172.692 378.38 168.559C385.547 161.654 392.789 154.826 400 147.966C400 161.565 400 175.163 400 188.957C389.686 192.251 379.29 195.107 369.078 198.512C356.512 202.702 344.629 208.462 333.277 215.318C317.489 224.853 303.221 236.303 290.665 249.772C284.458 256.43 278.865 263.669 273.124 270.75C267.666 277.481 262.188 284.158 254.562 288.614C248.549 292.128 242.048 293.976 235.098 294.438C221.863 295.317 209.562 291.847 197.902 286.081C185.257 279.827 172.898 272.998 160.332 266.581C148.965 260.776 136.899 256.711 124.778 252.819C124.516 252.735 124.262 252.625 123.925 252.329C129.286 246.821 134.793 241.575 140.144 236.174C143.292 232.995 146.646 229.873 149.104 226.189C153.449 219.676 154.209 212.316 152.38 204.708Z" fill="#B7DFBE"/>
<path d="M400 147.771C392.789 154.826 385.547 161.654 378.38 168.559C374.09 172.692 369.514 176.265 363.447 177.323C362.159 177.548 360.854 177.675 359.407 177.688C361.713 173.407 362.947 168.933 363.246 164.121C364.778 163.209 366.363 162.524 367.548 161.414C375.941 153.549 384.196 145.539 392.604 137.691C400.728 130.106 399.837 118.381 389.193 111.247C383.668 107.544 377.017 108.611 372.042 113.319C364.847 120.126 357.641 126.922 350.488 133.774C348.704 135.483 347.108 137.387 345.27 139.192C340.416 137.453 335.608 137.668 330.771 138.37C331.75 134.592 333.63 131.25 336.387 128.574C345.727 119.509 355.028 110.392 364.662 101.644C375.036 92.2233 390.599 93.683 399.889 104.617C400 118.992 400 133.284 400 147.771Z" fill="#F5D520"/>
<path d="M152.276 204.587C154.209 212.317 153.449 219.677 149.104 226.189C146.646 229.873 143.292 232.996 140.144 236.174C134.793 241.575 129.286 246.821 123.786 252.261C121.052 254.893 118.483 257.523 115.683 259.878C104.586 269.212 88.5642 268.4 78.3805 258.076C76.6777 256.35 74.9993 254.6 73.2816 252.889C69.1813 248.804 66.7882 243.831 65.5526 237.88C64.8305 229.825 66.224 222.649 71.2755 216.562C73.4276 213.969 75.9204 211.659 78.3681 209.163C79.3344 208.285 80.1909 207.464 81.182 206.664C82.205 207.314 83.0852 207.954 83.9835 208.567C86.4954 210.283 86.4984 210.279 88.1892 207.75C86.9943 206.239 85.8131 204.745 84.7101 203.139C88.3508 199.524 91.9134 196.022 95.476 192.52C98.0038 190.158 100.429 187.674 103.078 185.456C112.876 177.251 127.168 177.045 137.287 184.871C138.381 185.718 139.428 186.627 140.497 187.506C141.85 188.618 141.881 189.849 140.71 191.069C139.032 192.817 137.268 194.484 135.583 196.226C134.128 197.73 132.702 197.872 131.06 196.482C128.162 194.029 124.856 192.608 120.977 192.734C116.216 192.889 112.275 194.743 108.979 198.522C107.198 200.216 105.608 201.746 104.001 203.258C100.592 206.464 97.1744 209.66 93.659 212.762C92.465 211.665 91.4847 210.469 90.2316 209.748C89.6276 209.4 88.4065 209.753 87.6609 210.153C87.1606 210.422 86.6737 211.378 86.7542 211.945C87.0361 213.931 89.0777 215.479 91.1206 215.708C88.2691 218.537 85.4509 221.179 82.8313 224.005C78.305 228.887 77.5618 235.855 80.8265 241.749C83.045 244.277 84.9582 246.999 87.4572 248.983C93.2045 253.547 101.7 252.879 107.146 247.77C108.079 246.949 108.89 246.196 109.681 245.424C117.795 237.503 125.909 229.583 134.015 221.655C138.774 217.002 140.141 210.463 137.608 204.569C135.616 200.424 135.597 200.401 139.171 197.399C140.385 196.379 141.679 195.439 143.011 194.576C145.097 193.225 146.543 193.288 147.781 195.38C149.487 198.265 150.73 201.424 152.276 204.587Z" fill="#F5D520"/>
<path d="M93.7605 212.86C97.1744 209.66 100.592 206.464 104.001 203.258C105.608 201.747 107.198 200.217 108.929 198.655C115.675 200.534 122.246 202.626 128.925 204.285C131.607 204.951 134.525 204.663 137.472 204.69C140.141 210.464 138.774 217.002 134.015 221.656C125.909 229.583 117.795 237.503 109.681 245.424C108.89 246.197 108.079 246.95 106.994 247.747C98.0693 245.723 89.4283 243.666 80.7873 241.608C77.5618 235.856 78.305 228.888 82.8313 224.005C85.451 221.18 88.2692 218.538 91.2384 215.732C91.7258 215.295 91.9728 214.939 92.3345 214.514C92.8998 213.909 93.3504 213.372 93.7968 212.852C93.7924 212.868 93.7605 212.86 93.7605 212.86Z" fill="#B7DFBE"/>
<path d="M252.478 184.848C253.788 192.795 254.722 200.737 251.624 208.516C249.62 213.547 246.266 217.493 241.627 220.349C242.309 218.32 242.713 216.45 241.167 214.648C240.59 213.976 240.096 213.204 239.707 212.409C238.676 210.303 237.719 208.159 238.668 205.648C239.661 203.063 240.539 200.552 241.449 197.841C241.483 196.603 241.523 195.564 241.479 194.529C241.276 189.694 239.759 185.481 235.618 182.377C233.594 181.135 231.984 179.459 229.193 180.527C227.955 181.002 226.121 179.911 224.553 179.547C224.169 179.458 223.767 179.37 223.378 179.386C221.376 179.464 219.376 179.575 217.376 179.675C208.122 180.068 198.861 180.349 189.616 180.892C183.336 181.261 178.082 185.948 176.74 192.071C176.286 194.147 175.067 194.982 173.093 195.006C171.083 195.03 169.073 195.053 167.064 195.036C164.114 195.01 163.156 194.017 163.641 191.021C164.769 184.062 167.561 177.915 173.007 173.216C177.913 168.981 183.655 166.945 190.119 166.69C201.266 166.251 212.406 165.634 223.554 165.252C226.636 165.146 229.736 165.605 232.97 165.984C232.14 168.113 231.168 170.061 230.186 172.028C231.586 173.059 233.076 174.156 234.572 175.256C236.091 173.321 237.507 171.444 239.015 169.645C239.391 169.196 240.063 168.994 240.692 168.791C242.095 169.813 243.405 170.722 244.783 171.76C248.414 175.265 250.799 179.379 252.434 183.965C252.432 184.121 252.43 184.278 252.414 184.585C252.4 184.735 252.478 184.848 252.478 184.848Z" fill="#F26526"/>
<path d="M24.4828 225.852C20.1044 222.398 15.4416 219.242 11.4273 215.407C7.36794 211.53 4.64941 206.647 4.77597 200.714C4.91527 194.187 8.49385 189.405 13.091 185.319C18.8311 180.218 25.4597 176.682 33.1418 175.653C37.0906 175.124 41.1241 175.228 45.3446 175.206C46.4648 177.579 46.9601 180.09 48.3423 181.938C50.8271 185.261 54.5227 185.731 58.4252 184.99C57.5189 188.142 56.6124 191.121 55.5404 194.134C52.3303 194.7 49.659 196.098 47.7054 198.407C43.9642 202.83 40.3316 207.358 36.8844 212.012C33.1733 217.023 29.4798 222.01 24.4828 225.852Z" fill="#B7DFBE"/>
<path d="M24.3977 225.968C29.4797 222.01 33.1732 217.023 36.8843 212.012C40.3315 207.357 43.9641 202.829 47.7052 198.407C49.6589 196.097 52.3302 194.699 55.6841 194.144C58.4675 195.345 60.9415 196.569 63.4569 197.987C63.409 199.771 63.4167 201.373 63.2153 202.948C61.7743 214.216 59.6256 225.333 56.0038 236.127C54.4539 240.875 52.9208 245.628 51.3369 250.364C51.0884 251.107 50.609 251.772 49.9349 252.42C47.6861 251.688 45.7387 251.009 43.7913 250.33C37.7883 247.38 31.7853 244.43 25.5313 241.345C22.9266 239.668 20.5729 238.127 18.2192 236.585C17.0904 235.394 15.9616 234.203 14.7468 232.922C18.0424 230.566 21.1775 228.326 24.3977 225.968Z" fill="#F79525"/>
<path d="M320.572 197.151C320.771 197.898 321.314 198.762 321.106 199.37C320.403 201.42 319.435 203.379 318.663 205.155C315.199 203.021 312.154 200.76 307.697 201.189C300.91 199.178 294.946 196.298 289.728 191.967C288.529 190.972 287.236 190.091 285.997 189.154C286.009 189.152 286.005 189.176 285.996 189.05C285.746 188.732 285.506 188.54 285.172 188.239C276.988 178.89 268.896 169.65 260.754 160.353C260.142 160.584 259.135 160.965 257.983 161.308C256.739 160.64 255.639 160.009 254.487 159.256C253.297 158.417 252.159 157.7 250.915 156.906C250.038 156.33 249.266 155.831 248.524 155.188C251.017 149.895 252.166 144.472 251.915 138.768C251.792 135.959 250.277 133.78 248.091 133.153C246.062 132.571 243.177 133.687 242.01 136.104C241.049 138.094 240.803 140.427 240.231 142.606C239.981 143.557 239.709 144.502 239.448 145.45C238.357 142.319 237.556 139.165 238.832 135.595C240.344 134.007 241.724 132.684 243.105 131.361C246.333 129.648 249.427 130.535 252.081 132.405C254.647 134.214 256.807 136.599 259.264 138.814C262.792 142.65 266.194 146.411 269.624 150.147C269.932 150.483 270.419 150.656 271.039 151.043C274.115 154.276 276.975 157.371 279.879 160.597C282.75 164.681 285.577 168.634 288.45 172.721C289.87 174.823 291.244 176.79 292.671 178.89C295.395 183.615 299.873 185.975 304.376 188.516C309.826 191.472 315.199 194.311 320.572 197.151Z" fill="#A155A1"/>
<path d="M217.297 179.787C219.376 179.575 221.376 179.463 223.378 179.385C223.767 179.37 224.169 179.457 224.553 179.547C226.121 179.911 227.955 181.002 229.193 180.527C231.984 179.458 233.594 181.135 235.548 182.498C234.724 183.76 233.909 184.79 233.063 185.796C229.852 189.613 226.771 193.476 225.38 198.434C224.117 202.938 224.333 207.439 224.718 211.985C215.253 212.4 205.989 212.853 196.72 213.192C193.757 213.301 190.68 213.577 187.833 212.96C180.99 211.476 177.297 206.793 176.157 199.988C190.51 195.595 203.801 188.988 216.293 180.721C216.634 180.495 216.912 180.176 217.297 179.787Z" fill="#B8DEBE"/>
<path d="M176.041 199.904C177.296 206.793 180.99 211.476 187.833 212.96C190.68 213.577 193.757 213.301 196.72 213.192C205.989 212.853 215.253 212.4 224.823 212.086C226.556 216.624 228.44 220.831 231.472 224.444C227.408 224.72 223.346 225.061 219.278 225.259C209.959 225.712 200.64 226.223 191.315 226.474C180.997 226.751 170.494 221.193 165.914 209.576C165.11 207.537 164.684 205.348 164.043 203.065C163.609 200.574 164.282 199.342 166.396 198.672C169.738 197.613 173.033 197.083 176.041 199.904Z" fill="#F26526"/>
<path d="M58.4249 184.815C54.5225 185.731 50.8269 185.261 48.3421 181.938C46.9599 180.09 46.4646 177.578 45.5366 175.207C45.6337 173.152 45.3789 171.125 45.9696 169.386C47.4533 165.016 52.0652 162.695 56.8473 163.545C57.9332 163.738 59.0114 163.975 60.0922 164.196C63.7129 164.939 66.6054 163.385 69.5416 161.508C72.414 159.672 75.437 157.976 78.5885 156.699C81.7785 155.406 85.5565 157.068 87.3981 160.232C85.1421 162.237 83.0634 164.122 80.8787 165.875C79.7347 166.793 78.4779 167.96 77.1426 168.163C74.9017 168.503 73.6921 169.633 72.8625 171.535C72.5347 172.287 72.0921 172.988 71.5735 173.645C68.093 172.113 65.1617 172.713 62.9438 176.01C61.1152 178.728 59.9077 181.864 58.4249 184.815Z" fill="#F5D520"/>
<path d="M239.48 145.578C239.709 144.503 239.981 143.557 240.231 142.606C240.803 140.428 241.049 138.094 242.01 136.105C243.177 133.688 246.062 132.572 248.091 133.154C250.277 133.781 251.792 135.96 251.915 138.768C252.166 144.473 251.017 149.896 248.41 155.278C246.022 159.081 243.754 162.634 241.554 166.229C241.103 166.965 240.91 167.858 240.598 168.679C240.062 168.994 239.391 169.196 239.015 169.645C237.507 171.445 236.091 173.321 234.572 175.257C233.076 174.156 231.586 173.059 230.186 172.029C231.168 170.061 232.14 168.113 233.132 166.016C234.348 163.685 235.712 161.723 235.968 158.974C236.198 156.499 237.979 154.208 238.707 151.727C239.271 149.807 239.265 147.719 239.48 145.578Z" fill="#C9EAF6"/>
<path d="M56.1719 236.139C59.6258 225.333 61.7746 214.216 63.2155 202.949C63.4169 201.374 63.4092 199.772 63.5613 197.901C64.5223 196.383 65.4204 195.145 66.1058 194.201C70.2399 199.31 74.2492 204.265 78.2585 209.22C75.9205 211.659 73.4277 213.969 71.2756 216.563C66.2241 222.649 64.8306 229.825 65.4935 237.737C62.4256 237.345 59.3827 236.748 56.1719 236.139Z" fill="#B8DEBE"/>
<path d="M78.368 209.163C74.249 204.265 70.2397 199.31 66.1056 194.201C65.4203 195.145 64.5221 196.382 63.5198 197.706C60.9416 196.569 58.4675 195.345 55.8496 194.11C56.6123 191.12 57.5188 188.141 58.4252 184.989C59.9078 181.864 61.1153 178.728 62.9439 176.01C65.1618 172.713 68.0931 172.113 71.6853 173.704C72.4289 174.234 72.9327 174.636 73.4365 175.038C73.72 175.885 74.0036 176.732 74.1954 177.738C74.1037 177.896 73.9034 177.897 73.8565 177.759C73.1256 176.159 72.1605 174.902 70.3895 175.151C68.6472 175.396 67.7985 176.881 67.6544 178.419C67.3539 181.626 66.9086 184.914 67.3039 188.071C68.0291 193.862 70.4095 198.896 75.5797 202.264C77.5268 203.533 79.2319 205.172 81.0473 206.643C80.1908 207.464 79.3343 208.285 78.368 209.163Z" fill="#2E4071"/>
<path d="M243.038 131.208C241.724 132.684 240.344 134.007 238.879 135.426C237.867 134.926 236.94 134.33 235.942 133.688C235.194 134.471 234.527 135.253 233.774 135.941C231.606 137.921 229.611 137.966 227.602 135.827C224.249 132.255 222.385 128.055 222.997 122.809C225.139 121.868 227.132 121.147 228.969 120.483C229.908 122.205 230.74 123.731 231.7 125.491C233.791 122.719 233.779 122.732 236.059 124.738C236.398 125.036 236.904 125.145 237.333 125.342C239.212 127.247 241.092 129.151 243.038 131.208Z" fill="#F79525"/>
<path d="M95.3252 192.49C91.9133 196.023 88.3508 199.525 84.5881 203.082C79.8369 198.126 75.9832 192.745 75.2576 185.644C75.4271 185.057 75.505 184.58 75.5829 184.103C78.6521 185.323 81.7479 186.482 84.7834 187.781C88.275 189.276 91.7132 190.895 95.3252 192.49Z" fill="#B8DEBE"/>
<path d="M18.0972 236.682C20.5731 238.127 22.9268 239.669 25.3842 241.281C21.9707 242.329 18.4129 243.182 14.9449 244.31C7.85315 246.618 5.59613 248.305 0 255.185C0 251.92 0 249.198 0 246.285C5.00132 246.177 8.15953 242.026 12.3247 239.759C14.1948 238.741 16.0908 237.77 18.0972 236.682Z" fill="#2E4071"/>
<path d="M43.7253 250.489C45.7388 251.009 47.6863 251.688 49.7902 252.436C48.6053 255.98 47.0885 259.399 45.9666 262.944C44.5612 267.384 44.6863 271.902 46.3453 276.341C46.175 276.506 46.0048 276.671 45.8346 276.835C43.6659 275.17 41.4971 273.505 39.1838 271.728C42.4578 267.714 41.2652 262.82 42.1383 258.348C42.6396 255.78 43.1519 253.214 43.7253 250.489Z" fill="#2E4071"/>
<path d="M73.5731 174.956C72.9327 174.636 72.4289 174.234 71.8135 173.772C72.0922 172.988 72.5348 172.287 72.8626 171.535C73.6922 169.633 74.9018 168.503 77.1427 168.163C78.478 167.96 79.7348 166.793 80.8788 165.875C83.0635 164.122 85.1422 162.237 87.4113 160.371C87.6955 161.988 88.3769 163.841 87.8544 165.248C86.8674 167.905 85.3682 170.431 83.7299 172.765C82.7234 174.198 80.9863 174.483 79.2514 173.526C76.1494 171.816 75.9999 171.873 73.5731 174.956Z" fill="#495DA7"/>
<path d="M237.33 125.194C236.904 125.145 236.398 125.036 236.059 124.737C233.779 122.731 233.791 122.718 231.7 125.49C230.74 123.731 229.908 122.204 228.969 120.483C227.132 121.147 225.138 121.867 222.999 122.62C224.24 118.106 228.823 116.816 231.772 117.259C233.666 117.543 234.924 118.86 235.638 120.629C236.228 122.091 236.766 123.573 237.33 125.194Z" fill="#C9EAF6"/>
<path d="M75.5254 183.944C75.5049 184.58 75.427 185.057 75.2134 185.488C74.6863 182.927 74.2948 180.412 73.9033 177.898C73.9033 177.898 74.1037 177.896 74.2034 177.906C74.6914 179.872 75.0797 181.829 75.5254 183.944Z" fill="#6C6363"/>
<path d="M288.405 172.587C285.577 168.634 282.75 164.681 279.993 160.521C282.327 158.29 284.591 156.265 286.855 154.241C294.541 151.335 302.195 148.34 309.923 145.549C316.748 143.084 323.655 140.848 330.648 138.44C335.608 137.668 340.416 137.453 345.412 139.259C348.791 141.252 352.204 142.794 354.888 145.162C360.507 150.118 362.964 156.697 363.115 164.152C362.948 168.933 361.713 173.407 359.237 177.669C354.745 184.485 348.245 188.061 340.725 190.335C334.041 192.357 327.485 194.803 320.722 197.106C315.199 194.311 309.826 191.472 304.492 188.479C304.733 188.202 304.934 188.077 305.3 187.95C317.199 184.144 328.949 180.388 340.652 176.488C342.287 175.943 343.685 174.689 345.312 173.703C348.765 170.689 350.663 167.097 350.404 162.36C350.298 157.749 347.178 155.647 343.714 153.632C339.094 151.445 334.591 151.521 329.951 153.704C327.621 154.445 325.445 155.138 323.288 155.885C315.322 158.641 307.362 161.414 299.239 164.194C295.118 165.592 291.276 167.144 289.133 171.304C288.816 171.78 288.61 172.183 288.405 172.587Z" fill="#F26526"/>
<path d="M286.755 154.134C284.591 156.265 282.327 158.289 279.949 160.39C276.975 157.371 274.115 154.276 271.188 151.073C276.603 150.442 281.81 151.318 286.755 154.134Z" fill="#F5D520"/>
<path d="M289.028 211.489C284.52 217.002 280.168 222.652 275.457 227.986C271.085 232.938 265.39 235.769 258.759 236.186C250.049 236.734 244.302 234.673 238.263 229.213C240.589 226.164 242.924 223.101 245.033 220.336C247.914 221.404 250.515 222.762 253.277 223.307C258.487 224.335 263.04 222.575 266.48 218.577C271.126 213.179 275.553 207.595 280.305 202.088C283.367 205.22 286.198 208.355 289.028 211.489Z" fill="#F5D520"/>
<path d="M289.152 211.565C286.198 208.355 283.367 205.22 280.425 201.998C276.039 194.92 271.703 187.966 267.519 180.921C265.801 178.029 264.412 174.941 262.772 171.677C261.156 168.056 259.642 164.701 258.127 161.346C259.135 160.966 260.142 160.585 260.754 160.354C268.896 169.651 276.988 178.891 285.209 188.355C285.561 188.779 285.783 188.977 286.005 189.176C286.005 189.176 286.009 189.153 285.975 189.305C288.432 193.254 290.923 197.05 293.451 200.985C294.046 202.004 294.607 202.884 295.167 203.763C297.619 208.002 300.071 212.24 302.701 216.786C299.752 218.788 296.821 220.776 293.504 223.027C294.287 220.29 294.535 218.12 291.645 217.075C291.312 216.955 291.231 216.15 291.022 215.667C290.443 214.324 289.858 212.982 289.152 211.565Z" fill="#2E4071"/>
<path d="M231.607 224.509C228.44 220.832 226.556 216.625 225.022 212.081C224.333 207.44 224.117 202.938 225.38 198.434C226.771 193.477 229.852 189.613 233.063 185.796C233.909 184.791 234.724 183.76 235.624 182.62C239.758 185.481 241.275 189.694 241.479 194.529C241.523 195.564 241.483 196.603 241.344 197.911C239.682 200.469 238.384 202.837 238.552 205.722C237.719 208.16 238.676 210.303 239.707 212.409C240.096 213.205 240.59 213.977 241.167 214.648C242.713 216.45 242.309 218.32 241.491 220.419C239.993 222.028 238.619 223.596 237.003 224.852C234.48 226.811 234.191 226.709 231.607 224.509Z" fill="#F5D520"/>
<path d="M257.983 161.309C259.642 164.701 261.156 168.056 262.682 171.562C259.356 175.749 256.018 179.783 252.557 183.892C250.799 179.38 248.414 175.265 244.854 171.635C246.113 169.621 247.369 167.862 248.756 166.1C250.771 163.858 252.655 161.618 254.54 159.379C255.639 160.01 256.739 160.641 257.983 161.309Z" fill="#F5D520"/>
<path d="M293.415 200.845C290.923 197.049 288.432 193.253 285.963 189.307C287.236 190.09 288.529 190.972 289.728 191.967C294.946 196.298 300.91 199.178 307.508 201.18C304.248 202.531 300.757 202.173 296.93 201.678C295.537 201.369 294.476 201.107 293.415 200.845Z" fill="#F26628"/>
<path d="M293.451 200.984C294.476 201.108 295.537 201.37 296.762 201.669C296.422 202.351 295.917 202.996 295.29 203.702C294.607 202.883 294.046 202.003 293.451 200.984Z" fill="#F1D224"/>
<path d="M252.502 184.813C252.478 184.848 252.4 184.735 252.411 184.701C252.422 184.668 252.527 184.779 252.502 184.813Z" fill="#F5D520"/>
<path d="M363.246 164.122C362.964 156.697 360.506 150.118 354.888 145.162C352.204 142.794 348.791 141.252 345.567 139.269C347.108 137.388 348.704 135.483 350.488 133.774C357.641 126.922 364.847 120.126 372.042 113.319C377.017 108.612 383.668 107.544 389.193 111.247C399.837 118.381 400.728 130.106 392.604 137.691C384.196 145.539 375.941 153.55 367.548 161.414C366.363 162.525 364.778 163.209 363.246 164.122Z" fill="#B8DEBE"/>
<path d="M73.8566 177.76C74.2949 180.413 74.6864 182.928 75.1219 185.598C75.9833 192.745 79.8369 198.126 84.5099 203.194C85.8131 204.745 86.9943 206.239 88.1892 207.75C86.4984 210.279 86.4954 210.284 83.9835 208.568C83.0852 207.954 82.205 207.314 81.1819 206.665C79.232 205.173 77.5268 203.533 75.5798 202.265C70.4095 198.897 68.0291 193.862 67.3039 188.071C66.9086 184.914 67.3539 181.626 67.6545 178.419C67.7986 176.882 68.6472 175.396 70.3895 175.152C72.1606 174.903 73.1257 176.16 73.8566 177.76Z" fill="#F79525"/>
<path d="M92.2197 214.583C91.9727 214.939 91.7257 215.295 91.3609 215.626C89.0776 215.48 87.036 213.931 86.7541 211.946C86.6736 211.378 87.1605 210.422 87.6608 210.153C88.4064 209.753 89.6275 209.4 90.2315 209.748C91.4846 210.47 92.4649 211.665 93.6589 212.763C93.7603 212.86 93.7923 212.867 93.6483 212.793C92.9383 212.683 92.3724 212.648 91.7156 212.606C91.8974 213.319 92.0586 213.951 92.2197 214.583Z" fill="#495DA7"/>
<path d="M92.3344 214.514C92.0586 213.951 91.8975 213.319 91.7157 212.607C92.3724 212.648 92.9383 212.684 93.6526 212.777C93.3503 213.372 92.8997 213.909 92.3344 214.514Z" fill="#F5D520"/>
<path d="M248.626 166.103C247.369 167.862 246.113 169.621 244.785 171.506C243.404 170.722 242.095 169.812 240.692 168.791C240.91 167.858 241.103 166.964 241.554 166.228C243.754 162.633 246.022 159.081 248.381 155.423C249.266 155.831 250.038 156.33 250.878 157.08C250.174 160.255 249.4 163.179 248.626 166.103Z" fill="#2E4071"/>
<path d="M238.668 205.648C238.384 202.837 239.682 200.469 241.311 198.11C240.538 200.552 239.661 203.063 238.668 205.648Z" fill="#B8DEBE"/>
<path d="M289.245 171.232C291.276 167.145 295.118 165.593 299.295 164.318C305.315 171.331 306.943 179.232 305.136 187.953C304.934 188.078 304.733 188.202 304.416 188.363C299.873 185.976 295.395 183.615 292.683 178.727C291.51 176.031 290.377 173.632 289.245 171.232Z" fill="#F5D520"/>
<path d="M248.756 166.1C249.4 163.179 250.174 160.255 250.984 157.157C252.159 157.7 253.297 158.417 254.487 159.256C252.655 161.618 250.771 163.857 248.756 166.1Z" fill="#B8DEBE"/>
<path d="M289.133 171.304C290.377 173.631 291.51 176.031 292.631 178.593C291.244 176.789 289.87 174.823 288.45 172.721C288.61 172.183 288.816 171.78 289.133 171.304Z" fill="#B8DEBE"/>
<path d="M285.996 189.05C285.783 188.977 285.561 188.778 285.302 188.464C285.506 188.54 285.746 188.732 285.996 189.05Z" fill="#F26628"/>
<path d="M305.3 187.95C306.943 179.231 305.315 171.331 299.455 164.305C307.362 161.414 315.322 158.641 323.288 155.885C325.445 155.139 327.621 154.445 330.04 153.834C331.765 156.947 333.198 159.976 334.731 162.954C335.468 164.386 336.741 164.314 337.908 163.572C339.239 162.725 340.468 161.717 341.727 160.761C345.286 158.058 345.33 157.897 343.805 153.744C347.178 155.647 350.298 157.749 350.295 162.288C349.502 161.782 348.897 161.117 348.185 160.598C347.8 160.317 347.234 160.283 346.652 160.152C346.416 160.219 346.342 160.321 346.335 160.457C346.336 160.445 346.356 160.459 346.203 160.427C344.078 162.28 342.096 164.158 340.149 166.07C340.031 166.187 340.18 166.577 340.128 166.953C339.343 167.612 339.074 168.114 339.914 168.858C341.712 170.451 343.438 172.124 345.193 173.764C343.685 174.689 342.287 175.943 340.652 176.488C328.949 180.388 317.199 184.145 305.3 187.95Z" fill="#B8DEBE"/>
<path d="M343.714 153.633C345.33 157.897 345.286 158.059 341.727 160.761C340.468 161.718 339.239 162.726 337.908 163.572C336.741 164.315 335.468 164.386 334.731 162.954C333.199 159.977 331.765 156.948 330.202 153.811C334.591 151.522 339.094 151.446 343.714 153.633Z" fill="#F5D520"/>
<path d="M345.311 173.702C343.438 172.123 341.712 170.451 339.914 168.858C339.074 168.113 339.343 167.611 340.251 166.893C342.419 164.633 344.387 162.546 346.356 160.459C346.356 160.459 346.336 160.445 346.432 160.445C346.647 160.375 346.72 160.272 346.75 160.138C347.234 160.283 347.8 160.317 348.185 160.598C348.897 161.117 349.502 161.781 350.261 162.458C350.663 167.096 348.765 170.688 345.311 173.702Z" fill="#F5D520"/>
<path d="M346.203 160.427C344.387 162.546 342.419 164.634 340.328 166.781C340.18 166.577 340.03 166.187 340.149 166.07C342.096 164.158 344.077 162.28 346.203 160.427Z" fill="#608797"/>
<path d="M346.652 160.152C346.721 160.273 346.647 160.376 346.431 160.458C346.342 160.321 346.416 160.22 346.652 160.152Z" fill="#608797"/>
</svg>
