<svg width="402" height="280" viewBox="0 0 402 280" fill="none" xmlns="http://www.w3.org/2000/svg">
<path d="M210.258 46.1647C224.872 48.6769 236.912 48.2594 253.118 43.5821C256.666 42.558 258.929 40.5238 262.088 40.5238C267.188 40.5238 272.372 41.1355 277.538 41.1355C286.866 41.1355 297.2 42.3519 306.007 38.2131C317.564 32.782 328.229 27.109 341.515 27.883C369.826 29.5322 394.183 54.8474 399.388 84.529C403.935 110.453 402.045 135.979 397.551 161.564C396.313 168.609 396.037 175.617 396.087 182.768C396.132 189.3 396.647 195.802 396.647 202.341C396.647 206.097 396.723 208.625 394.716 211.753C390.918 217.672 383.224 216.728 377.398 219.093C373.25 220.777 369.283 222.642 364.939 223.714C353.439 226.552 340.889 225.244 329.181 225.244C319.621 225.244 310.057 222.851 303.048 231.156C292.882 243.203 289.341 265.156 273.675 270.03C237.122 281.404 198.983 266.245 164.782 253.04C136.16 241.989 110.479 269.572 83.3304 275.705C68.8149 278.984 46.1307 286.177 36.5774 268.807C28.8158 254.695 20.8422 242.193 15.3852 227C7.4726 204.971 1.37906 178.837 0.165468 154.903C-0.559478 140.607 1.00481 128.865 6.70653 116.097C10.7841 106.966 18.2318 96.5296 12.5623 86.0921C9.95627 81.2944 4.86417 77.2627 4.74421 71.2425C4.66832 67.4339 4.52862 63.3849 5.6475 59.723C7.27563 54.3944 10.3508 50.0141 10.3508 44.1938C10.3508 40.7739 9.66484 38.0541 9.26066 34.7471C8.69535 30.1217 5.30487 26.749 5.30487 21.9023V14.2227C5.30487 6.78765 7.14744 0.440538 15.2722 0.154611C25.1573 -0.193264 35.0977 0.154611 44.9873 0.154611C56.9832 0.154611 68.1376 3.00566 79.9353 5.35368C92.647 7.88364 105.212 11.1322 117.936 13.611C129.748 15.9123 141.51 19.272 152.572 24.4169C158.929 27.3732 165.008 30.9781 171.292 34.1015C183.885 40.3597 196.619 43.82 210.258 46.1647Z" fill="#AACC81"/>
</svg>
