<svg width="32" height="32" viewBox="0 0 32 32" fill="none" xmlns="http://www.w3.org/2000/svg">
<path d="M9.61311 20.0001L3.54645 9.52008C3.28485 9.06791 3.16182 8.54887 3.19263 8.02739C3.22345 7.50591 3.40675 7.00496 3.71978 6.58675L5.86645 3.73341C6.11484 3.40223 6.43693 3.13342 6.80721 2.94828C7.17749 2.76313 7.58579 2.66675 7.99978 2.66675H23.9998C24.4138 2.66675 24.8221 2.76313 25.1923 2.94828C25.5626 3.13342 25.8847 3.40223 26.1331 3.73341L28.2664 6.58675C28.5815 7.00362 28.7672 7.50387 28.8004 8.02537C28.8336 8.54688 28.7128 9.06663 28.4531 9.52008L22.3864 20.0001M14.6667 16L6.82666 2.93335M17.3332 16L25.1732 2.93335M10.6665 9.33341H21.3332M15.9998 24.0001V21.3334H15.3332M22.6665 22.6667C22.6665 26.3486 19.6817 29.3334 15.9998 29.3334C12.3179 29.3334 9.33317 26.3486 9.33317 22.6667C9.33317 18.9848 12.3179 16.0001 15.9998 16.0001C19.6817 16.0001 22.6665 18.9848 22.6665 22.6667Z" stroke="#020617" stroke-width="1.33333" stroke-linecap="round" stroke-linejoin="round"/>
</svg>
