<svg width="32" height="32" viewBox="0 0 32 32" fill="none" xmlns="http://www.w3.org/2000/svg">
<rect width="32" height="32" rx="16" fill="#DBF0F2"/>
<path d="M9.6 24H22.4C22.8243 24 23.2313 23.8314 23.5314 23.5314C23.8314 23.2313 24 22.8243 24 22.4V9.6C24 9.17565 23.8314 8.76869 23.5314 8.46863C23.2313 8.16857 22.8243 8 22.4 8H12.8C12.3757 8 11.9687 8.16857 11.6686 8.46863C11.3686 8.76869 11.2 9.17565 11.2 9.6V22.4C11.2 22.8243 11.0314 23.2313 10.7314 23.5314C10.4313 23.8314 10.0243 24 9.6 24ZM9.6 24C9.17565 24 8.76869 23.8314 8.46863 23.5314C8.16857 23.2313 8 22.8243 8 22.4V15.2C8 14.32 8.72 13.6 9.6 13.6H11.2M20.8 17.6H14.4M18.4 20.8H14.4M14.4 11.2H20.8V14.4H14.4V11.2Z" stroke="#357F90" stroke-linecap="round" stroke-linejoin="round"/>
</svg>
