<svg width="411" height="302" viewBox="0 0 411 302" fill="none" xmlns="http://www.w3.org/2000/svg">
<path d="M244.919 19.348C255.758 16.3764 259.622 11.7812 269.873 10.8833C277.801 10.1889 283.32 12.862 290.156 12.862C297.57 12.862 306.169 10.1724 313.186 8.13497C321.653 5.67681 330.498 4.12881 339.185 2.52844C353.93 -0.187731 368.713 4.64493 381.454 11.6528C387.1 14.7581 393.218 17.0868 396.075 23.3056C397.527 26.4651 396.515 31.6589 396.515 35.0683C396.515 45.3383 393.407 55.2509 394.756 65.7394C396.405 78.5663 404.105 86.8866 411.301 96.9601C415.149 102.347 420.343 108.933 421.14 115.703C421.702 120.485 421.25 125.569 421.25 130.379C421.25 138.034 419.018 144.619 417.732 152.036C416.391 159.767 416.757 169.241 417.842 176.991C419.432 188.353 424.03 199.389 426.142 210.74C428.357 222.651 429.635 236.157 426.966 248.117C422.808 266.751 408.436 279.008 389.534 279.008C381.345 279.008 373.501 278.515 365.734 281.536C356.672 285.06 347.858 288.553 339.13 292.859C318.699 302.938 296.977 295.136 275.974 290.935C264.513 288.643 253.519 285.669 241.785 284.999C232.697 284.479 223.825 286.178 214.907 287.692C195.335 291.016 177.374 294.664 157.358 293.793C150.124 293.479 143.551 290.519 136.745 288.407C128.199 285.754 118.259 286.725 109.427 286.978C97.4417 287.32 87.0383 289.358 75.6232 292.804C67.893 295.138 60.0991 300.484 51.9878 300.774C43.0019 301.095 30.2516 303.181 24.5598 294.288C20.7017 288.26 23.5253 284.141 25.2744 278.238C28.7405 266.54 15.1198 260.749 9.664 253.283C2.46537 243.433 -5.90807 235.351 -11.1681 224.041C-14.2764 217.359 -19.5186 210.428 -19.9627 202.88C-20.2135 198.615 -19.121 194.448 -19.0283 190.182C-18.8457 181.783 -15.077 173.053 -9.62907 166.767C-2.07766 158.054 -0.854218 149.866 1.63896 137.91C3.61613 128.428 5.8629 119.09 4.1674 109.382C3.88425 107.761 -0.0479965 92.8079 -0.339811 91.6833C-2.58699 83.0234 -5.11108 74.3074 -6.8258 65.5195C-10.6199 46.0745 -16.0697 15.32 6.25611 5.4966C13.9288 2.12062 21.4875 0 29.8915 0C42.4509 0 54.5534 0.0695027 66.9936 2.03374C86.0133 5.03685 105.248 9.30293 123.993 13.8514C142.824 18.4207 162.165 22.7559 181.598 22.7559H220.294C229.044 22.7559 236.356 21.6956 244.919 19.348Z" fill="#8EA0C7" fill-opacity="0.5"/>
</svg>
