<svg width="411" height="342" viewBox="0 0 411 342" fill="none" xmlns="http://www.w3.org/2000/svg">
<path d="M-28.958 23.28C-22.7491 26.1035 -17.9433 29.4247 -10.4301 32.2943C8.8788 39.6693 29.2133 39.5058 41.9588 39.5058C46.9698 39.5058 50.5037 38.3004 55.1839 37.2522C59.0337 36.39 63.8009 35.4771 67.501 34.1454C85.9476 27.5058 113.061 31.6544 131.148 37.1878C142.936 40.7942 155.208 43.5164 167.437 45.3651C182.436 47.6325 195.635 52.2546 211.009 52.2546C246.248 52.2546 282.016 41.1617 316.426 34.226C338.052 29.867 360.622 28.3474 382.615 31.3929C391.726 32.6545 401.87 34.3921 410.343 38.0892C415.606 40.3858 422.214 42.4327 427.848 47.8762C438.043 57.7266 437.064 71.1425 439.348 82.3237C441.296 91.8559 444.921 101.089 445.546 110.848C445.975 117.563 446.204 125.143 444.715 131.709C443.933 135.156 442.76 138.597 442.159 142.076C441.464 146.105 438.611 148.691 437.623 152.506C434.634 164.057 433.263 178.514 437.304 189.916C439.341 195.663 443.583 200.285 446.185 205.82C450.024 213.989 453.677 221.047 454.873 230.094C456.899 245.407 457.153 264.315 447.271 277.226C438.82 288.265 437.141 286.369 425.017 286.369H395.208C371.129 286.369 340.239 283.715 319.159 296.901C307.118 304.433 290.449 308.39 276.048 308.39C258.411 308.39 225.952 295.17 208.607 292.673C183.865 289.111 174.19 297.28 150.123 290.425C139.044 287.27 128.836 282.825 117.603 279.994C98.9398 275.292 77.7863 273.878 62.595 287.657C53.6136 295.803 51.6375 307.949 45.4088 317.919C42.8276 322.051 41.9347 326.682 37.9338 330.99C33.1759 336.112 22.6644 340.326 22.6644 340.326C22.6644 340.326 7.92926 342 1.90042 342H-24.933C-42.9983 342 -60.6718 341.495 -77.5136 333.952C-89.1215 328.752 -102.414 324.632 -111.63 315.343C-118.932 307.984 -122.535 298.727 -127.666 289.975C-135.659 276.342 -139.561 259.216 -134.247 243.744C-128.101 225.85 -126.046 206.445 -131.436 188.113C-133.251 181.939 -133.237 167.068 -131.436 160.941C-128.828 152.071 -125.65 143.939 -122.491 135.186C-115.399 115.53 -128.368 96.5107 -134.503 78.8468C-138.669 66.8509 -147.408 47.1545 -140.316 34.2904C-136.347 27.0901 -134.776 18.1347 -129.391 11.6902C-126.881 8.68588 -125.009 6.14221 -121.341 3.64173C-109.973 -4.10815 -96.8666 2.6735 -86.2025 4.28561C-66.5221 7.26072 -47.0969 15.0315 -28.958 23.28Z" fill="#126D3B" fill-opacity="0.63"/>
</svg>
