<svg width="33" height="33" viewBox="0 0 33 33" fill="none" xmlns="http://www.w3.org/2000/svg">
<rect width="32.8" height="32.8" rx="16.4" fill="#DBF0F2"/>
<path d="M13.6615 18.0667H10.5699C10.3951 18.0668 10.2249 18.1218 10.0831 18.2239C9.94134 18.3261 9.83526 18.4702 9.77987 18.6359L8.10987 23.6359C8.06801 23.7611 8.05651 23.8946 8.07634 24.0251C8.09616 24.1557 8.14673 24.2797 8.22389 24.3869C8.30105 24.4941 8.40258 24.5814 8.52011 24.6416C8.63764 24.7019 8.7678 24.7333 8.89987 24.7334H23.8999C24.0318 24.7333 24.1619 24.7018 24.2794 24.6416C24.3968 24.5814 24.4983 24.4942 24.5754 24.3871C24.6525 24.28 24.7031 24.1562 24.723 24.0257C24.7429 23.8952 24.7316 23.7619 24.6899 23.6367L23.0232 18.6367C22.9679 18.4707 22.8618 18.3263 22.7198 18.224C22.5779 18.1217 22.4073 18.0667 22.2324 18.0667H19.139M21.3998 13.0667C21.3998 16.0775 18.1757 19.2575 16.9057 20.3959C16.7604 20.5068 16.5826 20.567 16.3998 20.567C16.217 20.567 16.0393 20.5068 15.894 20.3959C14.6248 19.2575 11.3998 16.0775 11.3998 13.0667C11.3998 11.7406 11.9266 10.4689 12.8643 9.53118C13.802 8.5935 15.0737 8.06671 16.3998 8.06671C17.7259 8.06671 18.9977 8.5935 19.9354 9.53118C20.873 10.4689 21.3998 11.7406 21.3998 13.0667ZM18.0665 13.0667C18.0665 13.9872 17.3203 14.7334 16.3998 14.7334C15.4793 14.7334 14.7332 13.9872 14.7332 13.0667C14.7332 12.1462 15.4793 11.4 16.3998 11.4C17.3203 11.4 18.0665 12.1462 18.0665 13.0667Z" stroke="#357F90" stroke-linecap="round" stroke-linejoin="round"/>
</svg>
