<svg width="409" height="448" viewBox="0 0 409 448" fill="none" xmlns="http://www.w3.org/2000/svg">
<path d="M0.978808 204.343C0.980433 204.342 0.778425 204.346 0.677643 204.347C0.606947 204.193 0.636975 204.037 0.772337 203.817C0.877671 203.753 0.960661 203.846 0.980285 203.995C0.999939 204.145 0.97331 204.35 0.97331 204.35C0.97331 204.35 0.977212 204.345 0.978808 204.343Z" fill="#465AA9"/>
<path d="M1.05076 204.316C0.973682 204.349 1.00031 204.144 1.01961 204.043C1.10461 204.015 1.17536 204.085 1.22998 204.166C1.2374 204.177 1.16387 204.243 1.05076 204.316Z" fill="#1C6FB7"/>
<path d="M2.12121 213.236C2.23813 214.219 2.26343 215.356 2.25072 216.703C2.15165 215.739 2.09062 214.565 2.12121 213.236Z" fill="#465AA9"/>
<path d="M6.32167 254.349C6.41643 256.705 6.51122 259.061 6.68568 261.673C6.76535 261.928 6.66554 262.116 6.57222 262.244C6.43328 263.406 6.38769 264.441 6.38604 265.635C6.38961 266.118 6.34932 266.442 6.30903 266.766C5.60679 265.125 4.90457 263.483 4.13243 261.679C4.63916 259.208 5.21587 256.899 5.96839 254.462C6.14422 254.335 6.32167 254.349 6.32167 254.349Z" fill="#1C6FB7"/>
<path d="M341.147 394.642C370.532 387.298 397.878 375.309 423.309 358.602C421.372 380.112 419.298 401.661 417.205 423.409C416.467 423.792 415.711 423.888 415.036 424.176C393.157 433.511 370.314 438.364 346.55 439.02C331.437 439.436 316.486 438.139 301.695 435.011C291.096 432.769 281.355 428.272 271.788 423.398C251.421 413.02 232.955 399.992 217.469 383.082C211.562 376.633 206.326 369.57 200.907 362.609C201.84 362.826 202.67 363.182 203.453 363.622C206.074 365.097 208.648 366.659 211.312 368.051C211.944 368.382 212.854 368.183 213.788 368.281C217.004 370.063 219.167 369.694 220.76 367.148C222.755 365.878 223.407 364.057 223.574 362.055C239.992 373.177 257.533 381.601 276.303 387.42C286.489 390.578 296.834 393.101 307.458 394.483C307.519 395.426 307.663 396.192 307.634 396.952C307.395 403.265 307.097 409.575 306.873 415.888C306.75 419.353 308.278 420.805 311.77 420.7C314.936 420.605 317.055 418.867 317.326 415.895C317.58 413.119 317.597 410.323 317.754 407.538C317.948 404.105 318.179 400.675 318.487 397.164C320.096 394.895 322.279 393.878 324.805 394.361C327.259 394.831 329.612 395.826 332.161 396.633C335.186 398.794 338.059 400.912 341.022 403.136C341.258 403.345 341.405 403.448 341.538 403.549C341.524 403.547 341.525 403.518 341.536 403.638C341.678 403.842 341.808 403.926 341.923 404.008C341.909 404.007 341.908 403.978 341.95 404.119C342.233 404.35 342.473 404.439 342.717 404.516C342.719 404.503 342.695 404.512 342.616 404.649C343.577 406.359 344.618 407.931 345.643 409.494C345.627 409.485 345.637 409.449 345.648 409.536C345.741 409.758 345.823 409.894 345.96 410.191C346.684 412.06 347.353 413.767 348.18 415.879C350.26 411.056 350.865 406.731 348.263 402.319C348.228 402.133 348.162 402.056 348.058 402.027C348.057 402.045 348.089 402.058 348.124 401.907C346.829 398.887 344.986 396.531 341.873 395.466C341.885 395.477 341.91 395.494 341.874 395.467C341.837 395.441 341.697 395.336 341.589 395.233C341.37 394.967 341.259 394.805 341.147 394.642Z" fill="#4559A9"/>
<path d="M198.105 -0.866492C198.581 4.00963 216.656 66.1074 216.102 109.946C215.931 123.417 215.721 132.981 213.834 144.368C208.623 175.817 195.175 203.615 175.62 228.503C163.369 244.094 148.135 256.502 131.639 267.395C123.558 272.732 115.593 278.298 106.413 281.65C89.5738 287.799 72.3703 292.434 54.3526 293.305C42.0621 293.9 30.1107 292.412 18.8227 287.093C8.97507 282.452 4.61779 274.244 3.47223 263.885C3.42668 263.473 3.53983 263.043 3.71111 262.596C4.54174 264.202 5.24022 265.835 6.01255 267.596C8.247 269.134 10.2416 270.985 12.5988 271.873C20.1634 274.722 28.1494 275.038 36.3195 275.091C38.5961 275.108 40.6933 275.096 42.9815 275.07C48.2158 274.621 53.259 274.185 58.4782 273.783C61.0359 273.498 63.4175 273.179 65.9562 272.846C69.9835 272.059 73.8846 271.415 77.7188 270.493C93.829 266.618 108.975 260.401 123.166 251.524C126.098 249.612 128.888 247.751 131.677 245.89C134.241 243.983 136.805 242.076 139.567 240.008C140.037 239.606 140.309 239.367 140.704 239.077C141.354 238.556 141.881 238.084 142.523 237.574C143.078 237.147 143.517 236.759 143.956 236.371C152.045 229.573 159.514 222.162 166.308 213.718C167.457 212.326 168.426 211.122 169.395 209.918C178.058 199.328 183.394 189.363 188.5 174.5C196.203 152.079 195.301 137.639 193.5 114C189.791 65.2881 144.01 5.939 143.956 -0.866492C146.618 -0.781435 195.223 -1.14383 198.105 -0.866492Z" fill="#F36526"/>
<path d="M196.692 358.098C195.23 355.698 193.805 353.274 192.299 350.903C190.102 347.445 187.925 343.971 185.589 340.608C184.154 338.542 182.381 336.714 180.866 334.7C179.728 333.186 177.922 331.568 177.877 329.956C177.764 325.913 174.839 323.464 173.316 320.267C171.619 316.707 169.449 313.374 167.505 309.93C165.596 306.548 163.796 303.101 161.795 299.774C159.301 295.628 156.65 291.576 154.081 287.141C154.196 283.367 154.298 279.934 154.291 276.39C150.848 272.944 149.859 272.983 147.077 276.559C144.822 273.451 142.567 270.342 140.345 266.977C142.659 264.731 144.94 262.742 147.221 260.753C151.93 266.446 156.889 271.955 161.276 277.887C165.457 283.54 169 289.662 172.913 295.518C174.157 297.38 175.734 299.016 177.081 300.813C182.125 307.541 185.102 315.15 186.854 323.566C187.077 324.662 186.974 325.575 187.002 326.483C187.122 330.399 187.064 334.337 187.493 338.22C187.845 341.406 191.861 342.625 194.235 340.419C194.705 339.982 194.976 339.103 194.974 338.43C194.968 336.197 194.794 333.965 194.685 331.732C197.994 335.484 201.321 339.219 204.607 342.991C208.361 347.301 212.078 351.643 215.918 356.183C215.962 356.556 215.9 356.717 215.695 356.856C214.558 358.183 213.564 359.533 212.42 360.845C207.554 358.799 202.837 356.792 197.731 354.618C197.297 356.071 196.995 357.084 196.692 358.098Z" fill="#465AA9"/>
<path d="M307.976 380.214C308.196 376.352 308.417 372.49 308.641 368.252C308.77 366.526 308.897 365.175 309.078 363.642C309.232 362.423 309.332 361.385 309.46 360.051C313.034 362.76 316.632 362.497 320.303 361.001C320.304 361.201 320.305 361.4 320.172 361.84C320.045 362.691 320.05 363.302 320.056 363.912C320.05 364.247 320.044 364.582 319.938 365.11C319.755 365.442 319.789 365.551 319.941 365.631C319.848 368.223 319.755 370.815 319.64 373.788C319.415 378.495 319.214 382.822 318.972 387.316C318.752 390.735 318.573 393.988 318.394 397.241C318.179 400.672 317.948 404.103 317.754 407.536C317.597 410.321 317.58 413.117 317.327 415.892C317.055 418.864 314.936 420.602 311.77 420.697C308.279 420.802 306.75 419.35 306.873 415.886C307.097 409.573 307.395 403.262 307.635 396.95C307.664 396.19 307.52 395.423 307.493 394.285C307.678 389.345 307.827 384.779 307.976 380.214ZM315.182 385.348C315.182 383.325 315.182 381.303 315.183 379.281C314.322 388.336 313.176 397.375 314.31 406.485C315.497 399.608 315.378 392.673 315.182 385.348Z" fill="#2E3F71"/>
<path d="M131.952 245.551C129.23 247.532 126.44 249.393 123.367 251.246C111.29 242.986 98.3924 237.622 83.9762 236.134C84.3451 235.313 84.6898 234.643 85.0419 233.977C85.9426 232.274 86.1099 230.725 84.0745 229.478C82.4854 228.693 80.9726 228.015 79.4306 227.41C76.7478 226.359 74.0471 225.354 71.3538 224.33C83.7195 224.02 95.7213 226.031 107.133 230.746C116.051 234.43 124.881 238.44 131.952 245.551Z" fill="#465AA9"/>
<path d="M24.9451 237.951C34.8302 231.689 45.6715 227.889 57.0969 225.732C61.153 224.966 65.3112 224.741 69.6336 224.45C69.5522 225.499 69.2601 226.368 68.9623 227.253C71.6526 229.558 74.5195 232.013 77.3447 234.61C77.1001 235.083 76.8972 235.414 76.5205 235.727C62.3359 235.751 48.4629 236.78 35.0367 241.337C34.1512 238.178 34.062 238.11 30.7755 238.127C28.7055 238.046 26.8253 237.998 24.9451 237.951Z" fill="#465AA9"/>
<path d="M301.107 309.702C301.645 309.538 302.173 309.283 302.722 309.226C306.114 308.875 309.51 308.569 313.102 308.229C312.473 304.633 311.886 301.273 311.347 297.767C316.928 299.621 321.175 303.299 325.034 307.642C328.404 311.435 332.113 314.926 335.753 318.623C331.837 320.554 327.868 319.646 323.936 318.496C320.901 317.609 318.35 315.901 316.259 313.516C315.911 313.12 315.506 312.774 314.723 312.584C315.053 314.106 315.383 315.629 315.686 317.312C312.372 316.74 309.086 316.008 305.588 315.096C303.954 313.179 302.531 311.44 301.107 309.702ZM314.955 312.098C314.878 312.035 314.801 311.972 314.725 311.908C314.727 312.035 314.729 312.162 314.955 312.098Z" fill="#2E3F71"/>
<path d="M276.207 192.602C271.35 187.23 266.494 181.858 261.637 176.486C260.642 175.385 259.658 174.274 258.651 173.183C256.097 170.418 256.118 167.244 258.722 164.528C261.248 161.895 263.149 161.76 265.609 164.384C272.106 171.313 278.508 178.329 284.934 185.541C283.639 187.213 282.52 188.859 281.031 190.037C279.625 191.148 277.831 191.766 276.207 192.602Z" fill="#465AA9"/>
<path d="M295.541 197.278C300.151 202.395 304.748 207.525 309.375 212.627C312.561 216.141 311.797 220.383 307.553 222.68C306.178 223.425 304.96 223.398 303.846 222.224C299.922 218.088 295.988 213.961 292.072 209.817C290.604 208.263 289.175 206.671 287.803 204.938C291.726 203.601 293.985 200.798 295.541 197.278Z" fill="#465AA9"/>
<path d="M295.499 197.174C293.985 200.797 291.726 203.6 287.754 204.827C283.852 200.845 280.073 196.815 276.251 192.694C277.83 191.767 279.625 191.148 281.03 190.037C282.52 188.86 283.639 187.214 284.983 185.654C288.518 189.382 291.988 193.227 295.499 197.174Z" fill="#F5D520"/>
<path d="M325.911 132.138C321.055 135.701 316.2 139.264 311.344 142.826C310.349 143.556 309.346 144.276 308.359 145.017C305.855 146.895 303.231 146.608 301.205 144.224C299.24 141.912 299.289 140.327 301.669 138.514C307.951 133.727 314.298 129.025 320.809 124.32C322.083 125.533 323.35 126.598 324.198 127.93C324.998 129.187 325.357 130.724 325.911 132.138Z" fill="#F5D520"/>
<path d="M331.418 116.538C336.042 113.158 340.675 109.79 345.289 106.395C348.466 104.056 351.911 105.048 353.451 108.753C353.95 109.954 353.825 110.96 352.76 111.782C349.005 114.678 345.258 117.583 341.498 120.471C340.087 121.554 338.649 122.601 337.099 123.589C336.326 120.231 334.199 118.124 331.418 116.538Z" fill="#F5D520"/>
<path d="M331.329 116.566C334.198 118.126 336.325 120.232 337.003 123.621C333.379 126.512 329.725 129.297 325.991 132.11C325.358 130.725 324.999 129.188 324.198 127.931C323.35 126.599 322.083 125.534 320.908 124.289C324.291 121.681 327.766 119.136 331.329 116.566Z" fill="#465AA9"/>
<path d="M295.969 77.0224C297.837 81.2216 299.705 85.4208 301.573 89.6199C301.956 90.4806 302.348 91.3373 302.721 92.202C303.669 94.3947 305.516 95.1982 307.762 94.3858C309.939 93.5979 310.506 92.5293 309.616 90.4269C307.266 84.8761 304.842 79.3572 302.309 73.7745C301.006 74.0959 299.764 74.322 298.697 74.8833C297.691 75.4129 296.871 76.2952 295.969 77.0224Z" fill="#F36526"/>
<path d="M298.227 64.6014C296.443 60.6107 294.649 56.6244 292.878 52.6278C291.659 49.8754 289.001 49.2279 286.577 51.0998C285.791 51.7064 285.493 52.4199 285.888 53.3681C287.279 56.7086 288.662 60.0523 290.06 63.3898C290.584 64.6415 291.14 65.8795 291.793 67.1213C293.577 65.189 295.784 64.5991 298.227 64.6014Z" fill="#F36526"/>
<path d="M298.276 64.6533C295.785 64.6006 293.578 65.1905 291.845 67.1794C293.152 70.4672 294.518 73.696 295.926 76.9738C296.871 76.2957 297.691 75.4133 298.697 74.8837C299.763 74.3224 301.006 74.0963 302.256 73.7169C301.002 70.7078 299.664 67.7058 298.276 64.6533Z" fill="#F5D520"/>
<path d="M45.9079 335.643C38.2685 339.618 30.6289 343.592 22.9896 347.567C21.4238 348.381 19.8664 349.213 18.2921 350.011C14.2999 352.034 13.0085 355.581 14.7851 359.687C16.508 363.669 18.5715 364.607 22.4015 362.702C32.5135 357.672 42.5575 352.505 52.7084 347.13C51.9581 344.73 51.3929 342.431 50.221 340.501C49.1154 338.68 47.3712 337.247 45.9079 335.643Z" fill="#465AA9"/>
<path d="M69.3944 338.447C76.6536 334.654 83.9035 330.842 91.1751 327.072C96.1831 324.476 97.0896 319.432 93.3113 315.113C92.0869 313.713 90.7183 313.237 88.9902 314.084C82.902 317.068 76.8069 320.037 70.725 323.033C68.4442 324.157 66.1925 325.34 63.9448 326.702C67.7629 329.818 69.119 333.878 69.3944 338.447Z" fill="#465AA9"/>
<path d="M69.3062 338.543C69.1195 333.878 67.7634 329.818 63.8453 326.804C57.846 329.625 51.9639 332.55 45.995 335.559C47.3714 337.247 49.1155 338.681 50.2212 340.501C51.3931 342.431 51.9583 344.73 52.811 347.025C58.295 344.335 63.7562 341.488 69.3062 338.543Z" fill="#F5D520"/>
<path d="M233.544 321.657C234.857 324.674 236.059 327.801 237.171 331.224C234.592 336.804 232.102 342.087 229.429 347.34C226.541 347.122 224.067 346.352 222.045 344.447C225.373 337.58 228.691 330.709 232.043 323.853C232.407 323.109 232.965 322.46 233.544 321.657Z" fill="#F36526"/>
<path d="M194.681 331.551C194.793 333.963 194.967 336.195 194.973 338.428C194.975 339.102 194.704 339.98 194.234 340.417C191.86 342.624 187.844 341.404 187.492 338.218C187.063 334.335 187.121 330.397 187.001 326.482C186.973 325.573 187.076 324.661 187.013 323.614C186.899 321.864 186.891 320.249 186.88 318.353C189.259 318.079 191.593 317.81 194.047 317.527C194.263 322.253 194.47 326.812 194.681 331.551Z" fill="#2E3F71"/>
<path d="M147.039 276.71C149.859 272.983 150.849 272.944 154.291 276.556C153.344 278.95 152.288 281.065 151.233 283.181C148.65 287.034 146.012 290.853 143.516 294.762C142.731 295.991 141.896 296.328 140.564 295.943C139.086 295.516 137.581 295.186 135.531 294.676C139.466 288.564 143.234 282.712 147.039 276.71Z" fill="#F5D520"/>
<path d="M215.838 356.878C215.9 356.717 215.961 356.557 216.033 356.266C216.954 354.399 217.866 352.662 218.952 350.888C221.546 352.017 223.964 353.183 226.321 354.504C225.24 357.059 224.221 359.46 223.062 361.92C222.157 363.718 221.391 365.457 220.625 367.196C219.167 369.695 217.004 370.064 213.708 368.163C211.853 366.52 211.478 364.899 212.784 362.997C213.088 362.555 213.172 361.961 213.465 361.325C214.328 359.767 215.083 358.323 215.838 356.878Z" fill="#F36526"/>
<path d="M6.25324 254.375C9.44958 248.507 14.5511 244.543 19.8536 240.784C20.541 240.297 21.2876 239.894 22.1515 239.564C24.5265 241.077 26.7568 242.477 29.0184 243.93C29.0497 243.981 29.0624 244.102 28.9055 244.123C23.6628 247.001 18.4128 249.608 13.5482 252.801C10.2342 254.977 7.88678 258.278 6.64994 262.077C6.48199 259.585 6.3877 257.241 6.29191 254.898C6.29037 254.9 6.28656 254.904 6.35657 254.881C6.46139 254.827 6.53104 254.776 6.52549 254.765C6.48464 254.69 6.42879 254.623 6.34776 254.508C6.31786 254.463 6.25324 254.375 6.25324 254.375Z" fill="#465AA9"/>
<path d="M223.646 274.615C216.927 277.328 210.209 280.042 203.49 282.754C202.01 283.351 200.844 283.037 200.236 281.485C199.694 280.104 200.016 279.078 201.514 278.447C208.196 275.63 214.857 272.762 221.804 269.974C222.603 271.562 223.124 273.089 223.646 274.615Z" fill="#F5D520"/>
<path d="M223.818 274.582C223.123 273.09 222.602 271.564 221.959 269.925C223.647 268.949 225.433 268.03 227.273 267.233C230.183 265.972 233.13 264.793 236.061 263.579C237.81 262.855 238.827 263.358 239.735 265.394C240.505 267.123 239.977 268.797 238.322 269.406C233.559 271.157 228.77 272.838 223.818 274.582Z" fill="#465AA9"/>
<path d="M157.626 385.43C160.264 392.179 162.902 398.927 165.538 405.676C166.119 407.163 165.792 408.325 164.233 408.916C162.846 409.442 161.824 409.108 161.209 407.604C158.467 400.89 155.675 394.197 152.965 387.22C154.562 386.439 156.094 385.935 157.626 385.43Z" fill="#F5D520"/>
<path d="M157.594 385.254C156.095 385.932 154.563 386.436 152.917 387.061C151.959 385.362 151.061 383.565 150.285 381.717C149.056 378.793 147.91 375.833 146.729 372.889C146.025 371.132 146.539 370.12 148.585 369.235C150.323 368.484 151.991 369.031 152.581 370.693C154.279 375.475 155.906 380.283 157.594 385.254Z" fill="#465AA9"/>
<path d="M213.357 361.436C213.172 361.96 213.089 362.553 212.785 362.995C211.479 364.897 211.853 366.518 213.557 368.109C212.855 368.183 211.945 368.381 211.312 368.051C208.649 366.658 206.075 365.096 203.453 363.622C202.67 363.182 201.84 362.826 200.863 362.472C200.695 362.512 200.71 362.501 200.766 362.365C200.593 362.084 200.364 361.939 200.135 361.794C199.015 360.652 197.895 359.509 196.734 358.231C196.995 357.083 197.298 356.069 197.731 354.617C202.838 356.79 207.554 358.798 212.491 360.945C212.927 361.202 213.142 361.319 213.357 361.436Z" fill="#1C6FB7"/>
<path d="M77.3866 234.466C74.5197 232.01 71.6529 229.555 68.9625 227.251C69.2604 226.365 69.5525 225.497 69.8164 224.494C69.9647 224.343 70.1413 224.326 70.4896 224.433C70.8025 224.496 70.9437 224.436 71.0849 224.377C71.0849 224.377 71.2084 224.285 71.2812 224.307C74.0474 225.353 76.7481 226.358 79.4309 227.41C80.9729 228.014 82.4857 228.692 83.9045 229.447C81.7353 229.086 80.2021 229.878 79.0933 231.584C78.4854 232.519 77.953 233.504 77.3866 234.466Z" fill="#1C6FB7"/>
<path d="M226.382 354.35C223.964 353.184 221.545 352.017 219.034 350.737C219.926 348.65 220.91 346.677 221.969 344.577C224.067 346.354 226.54 347.124 229.429 347.484C228.536 349.887 227.459 352.119 226.382 354.35Z" fill="#465AA9"/>
<path d="M144.204 236.027C143.859 236.538 143.42 236.926 142.73 237.27C139.982 235.82 137.504 234.376 134.982 233.015C130.784 230.752 126.558 228.541 122.343 226.308C123.419 224.898 124.716 225.048 126.074 225.806C132.089 229.167 138.099 232.536 144.204 236.027Z" fill="#465AA9"/>
<path d="M320.366 360.862C316.632 362.5 313.034 362.762 309.46 360.053C309.332 361.388 309.232 362.425 309.019 363.649C308.906 363.835 308.788 363.826 308.788 363.826C308.88 362.916 309.056 362.005 309.049 361.096C309.031 358.735 310.141 357.412 312.61 357.056C314.541 357.25 316.458 357.211 318.099 357.865C319.097 358.263 319.667 359.732 320.366 360.862Z" fill="#4559A9"/>
<path d="M122.352 226.317C126.558 228.546 130.784 230.757 134.982 233.021C137.505 234.381 139.982 235.825 142.615 237.314C142.223 237.869 141.696 238.34 140.979 238.725C140.514 238.32 140.303 237.879 139.956 237.7C136.2 235.755 132.408 233.879 128.656 231.927C126.181 230.64 123.754 229.262 121.306 227.924C121.431 227.594 121.557 227.265 121.904 226.825C122.199 226.584 122.272 226.453 122.346 226.322C122.346 226.322 122.36 226.321 122.352 226.317Z" fill="#354095"/>
<path d="M121.197 228.029C123.754 229.261 126.181 230.64 128.655 231.927C132.408 233.878 136.199 235.755 139.956 237.699C140.302 237.879 140.513 238.319 140.854 238.775C140.65 239.151 140.379 239.39 139.979 239.676C133.869 236.482 127.873 233.268 121.932 229.956C121.46 229.692 121.361 228.758 121.197 228.029Z" fill="#1C6FB7"/>
<path d="M28.9876 243.877C26.7573 242.476 24.5271 241.076 22.2928 239.527C23.0831 238.917 23.8774 238.454 24.8087 237.97C26.826 237.996 28.7062 238.043 30.674 238.223C28.9984 239.011 28.3481 240.234 28.7961 242.078C28.9373 242.659 28.928 243.276 28.9876 243.877Z" fill="#1C6FB7"/>
<path d="M151.317 283.295C152.287 281.066 153.342 278.95 154.398 276.669C154.297 279.935 154.196 283.368 154.046 287.008C153.132 285.946 152.267 284.677 151.317 283.295Z" fill="#1C6FB7"/>
<path d="M147.173 260.623C144.94 262.739 142.659 264.728 140.299 266.839C139.703 266.419 139.185 265.878 138.54 265.204C141.036 263.478 143.369 261.824 145.763 260.264C146.046 260.079 146.663 260.407 147.173 260.623Z" fill="#1C6FB7"/>
<path d="M147.048 260.658C144.815 262.773 141.59 263.653 139.23 265.764C138.634 265.344 137.721 264.334 137.076 263.659C139.572 261.933 141.769 260.18 144.163 258.619C144.447 258.435 146.538 260.441 147.048 260.658Z" fill="#1C6FB7"/>
<path d="M320.114 363.755C320.049 363.305 320.044 362.695 320.134 361.989C320.211 362.46 320.192 363.027 320.114 363.755Z" fill="#4559A9"/>
<path d="M200.16 361.914C200.363 361.941 200.593 362.086 200.758 362.365C200.525 362.344 200.355 362.188 200.16 361.914Z" fill="#4559A9"/>
<path d="M122.233 226.351C122.272 226.449 122.199 226.58 122.015 226.746C121.977 226.649 122.049 226.516 122.233 226.351Z" fill="#465AA9"/>
<path d="M70.9555 224.35C70.9423 224.436 70.8015 224.495 70.6173 224.469C70.6586 224.363 70.7432 224.343 70.9555 224.35Z" fill="#465AA9"/>
<path d="M319.978 365.537C319.788 365.552 319.754 365.443 319.9 365.275C319.963 365.246 320.016 365.442 319.978 365.537Z" fill="#4559A9"/>
<path d="M318.972 387.318C322.057 389.146 325.102 391.139 328.291 393.152C329.629 394.211 330.823 395.251 332.014 396.441C329.612 395.826 327.259 394.831 324.805 394.362C322.279 393.878 320.097 394.895 318.488 397.164C318.573 393.991 318.752 390.738 318.972 387.318Z" fill="#F7F7F9"/>
<path d="M347.839 401.878C346.619 400.412 340.348 395.113 341.898 395.262C344.967 396.206 346.544 398.858 347.839 401.878Z" fill="#4559A9"/>
<path d="M223.062 361.918C223.201 361.859 223.37 361.899 223.409 361.917C223.407 364.057 222.755 365.877 220.759 367.147C221.391 365.455 222.157 363.717 223.062 361.918Z" fill="#F7F7F9"/>
<path d="M342.615 404.646C344.599 405.486 345.312 407.228 345.676 409.342C344.617 407.929 343.577 406.356 342.615 404.646Z" fill="#4559A9"/>
<path d="M345.647 409.535C345.725 409.587 345.814 409.726 345.904 409.946C345.823 409.893 345.741 409.757 345.647 409.535Z" fill="#D7DFEF"/>
<path d="M341.95 404.118C342.154 404.068 342.401 404.16 342.681 404.389C342.473 404.438 342.232 404.348 341.95 404.118Z" fill="#D7DFEF"/>
<path d="M341.875 395.467C341.912 395.494 341.771 395.376 341.734 395.356C341.697 395.336 341.837 395.44 341.875 395.467Z" fill="#F7F7F9"/>
<path d="M348.262 402.319C348.198 402.325 348.148 402.241 348.088 402.079C348.162 402.056 348.228 402.133 348.262 402.319Z" fill="#F7F7F9"/>
<path d="M341.022 403.134C341.116 403.104 341.299 403.18 341.518 403.403C341.405 403.447 341.258 403.344 341.022 403.134Z" fill="#D7DFEF"/>
<path d="M341.537 403.636C341.679 403.592 341.833 403.667 341.962 403.875C341.809 403.924 341.679 403.84 341.537 403.636Z" fill="#D7DFEF"/>
<path d="M58.82 273.564C63.2093 264.087 67.7915 254.651 72.3303 245.195C73.7884 242.157 75.1321 239.064 76.6111 235.87C76.897 235.412 77.0999 235.081 77.3444 234.608C77.9525 233.504 78.4849 232.52 79.0928 231.585C80.2016 229.879 81.7348 229.086 83.9672 229.588C86.1097 230.725 85.9424 232.274 85.0417 233.977C84.6896 234.643 84.3449 235.313 83.976 236.133C79.8753 244.447 75.7816 252.602 71.7213 260.773C69.8165 264.607 67.9762 268.472 66.1238 272.482C63.7593 272.96 61.3776 273.278 58.82 273.564Z" fill="#2E3F71"/>
<path d="M36.6621 274.873C34.057 264.7 31.6314 254.555 29.1343 244.256C29.0629 244.102 29.0502 243.981 29.0189 243.93C28.928 243.277 28.9373 242.66 28.796 242.079C28.348 240.235 28.9983 239.012 30.8637 238.257C34.0626 238.109 34.1518 238.177 35.0373 241.336C36.5065 247.645 37.8609 253.841 39.3362 260.008C40.4995 264.871 41.8118 269.698 43.0955 274.703C41.0359 274.877 38.9387 274.889 36.6621 274.873Z" fill="#F5D520"/>
<path d="M233.656 321.548C233.177 319.781 232.617 318.032 232.242 316.244C231.773 314.011 232.507 312.831 234.713 312.463C243.84 310.945 252.992 309.642 262.284 309.781C265.174 309.825 268.065 309.819 271.276 309.829C276.755 310.447 281.913 311.072 287.272 311.744C290.303 312.331 293.133 312.873 295.964 313.408C299.136 314.008 302.308 314.602 305.64 315.237C309.086 316.009 312.373 316.74 315.659 317.472C318.579 325.48 319.202 333.705 317.307 341.972C316.167 346.948 314.325 351.763 312.639 356.883C310.141 357.412 309.031 358.735 309.049 361.096C309.056 362.005 308.88 362.916 308.684 363.928C306.635 366.335 306.63 366.791 308.588 368.428C308.417 372.492 308.196 376.354 307.819 380.213C304.014 378.077 300.313 376.027 296.737 373.781C294.728 372.52 292.929 370.759 292.97 368.21C293.084 361.234 293.423 354.262 293.836 347.301C295.664 347.065 297.328 346.811 298.993 346.568C305.392 345.638 310.695 343.034 313.641 336.897C314.398 335.32 315.026 333.68 315.713 332.068C314.758 332.597 314.164 333.282 313.502 333.892C308.14 338.831 301.714 339.814 294.657 338.73C278.925 336.745 264.676 329.708 249.148 326.428C252.202 331.835 252.785 337.402 252.929 343.052C250.26 344.24 247.732 345.415 245.072 346.516C243.19 342.745 241.476 339.03 239.671 335.36C238.972 333.939 238.064 332.621 237.256 331.091C236.059 327.801 234.857 324.674 233.656 321.548Z" fill="#F5D520"/>
<path d="M284.764 259.066C286.259 257.198 288.226 257.969 289.818 258.541C291.697 259.218 293.487 260.353 295.064 261.606C296.935 263.092 298.557 264.898 300.255 266.597C303.341 269.682 306.928 270.215 310.985 268.916C314.733 267.715 318.458 266.214 322.313 265.626C328.6 264.665 334.616 268.749 336.716 274.736C337.3 276.4 337.917 278.054 338.456 279.733C339.514 283.033 341.77 284.86 345.159 285.417C346.341 285.612 347.511 285.917 348.662 286.256C356.949 288.7 360.879 297.425 357.025 305.415C354.474 310.704 350.456 314.727 344.884 316.96C344.112 317.27 343.257 317.369 342.161 317.481C339.328 313.764 336.967 309.975 334.184 306.526C326.069 296.472 316.527 288.131 304.47 283.052C302.291 282.133 299.946 281.61 297.487 280.822C297.171 280.684 297.045 280.627 296.828 280.48C293.484 278.942 290.683 276.94 289.802 273.295C289.201 270.805 288.837 268.205 288.785 265.646C288.712 262.017 287.99 260.542 284.764 259.066Z" fill="#2E3F71"/>
<path d="M297.677 280.904C299.946 281.609 302.291 282.133 304.47 283.051C316.527 288.131 326.069 296.472 334.184 306.526C336.968 309.974 339.328 313.764 341.995 317.488C343.784 320.685 345.442 323.81 349.35 325.219C350.924 326.062 352.245 326.757 353.567 327.451C352.769 328.214 352.057 328.66 351.372 328.623C348.658 328.476 346.413 329.018 345.426 331.919C344.194 326.227 340.188 322.541 335.862 318.75C332.114 314.927 328.404 311.436 325.034 307.643C321.175 303.3 316.928 299.622 311.255 297.541C306.631 294.279 302.071 291.198 297.689 287.883C294.543 285.504 294.653 283.345 297.677 280.904Z" fill="#F36526"/>
<path d="M297.486 280.825C294.652 283.348 294.542 285.506 297.688 287.886C302.071 291.201 306.63 294.281 311.206 297.69C311.886 301.277 312.473 304.637 313.102 308.233C309.509 308.573 306.113 308.879 302.722 309.23C302.173 309.287 301.645 309.542 300.979 309.636C298.491 307.929 296.13 306.293 293.704 304.544C291.778 302.972 289.918 301.513 288.058 300.053C283.946 295.145 285.778 290.602 289.088 285.94C291.814 284.019 294.367 282.296 296.919 280.572C297.045 280.629 297.17 280.686 297.486 280.825Z" fill="#CAEAF5"/>
<path d="M345.354 332.072C346.412 329.016 348.657 328.474 351.371 328.62C352.056 328.657 352.768 328.212 353.566 327.449C352.244 326.754 350.923 326.06 349.507 325.247C352.479 319.743 355.504 314.334 358.631 308.984C359.839 306.918 361.917 306.755 363.41 308.542C363.76 308.961 363.95 309.915 363.716 310.365C357.578 322.163 351.374 333.928 344.991 345.652C343.864 343.754 342.374 342.698 340.304 342.476C341.964 339.06 343.624 335.643 345.354 332.072Z" fill="#465AA9"/>
<path d="M341.041 394.543C341.259 394.806 341.37 394.968 341.626 395.254C341.77 395.378 341.911 395.495 341.911 395.495C341.911 395.495 341.885 395.478 341.929 395.6C344.012 397.834 346.051 399.947 348.089 402.059C348.089 402.059 348.057 402.046 348.087 402.097C348.149 402.242 348.199 402.326 348.267 402.399C350.865 406.732 350.26 411.058 348.181 415.88C347.353 413.768 346.684 412.061 345.96 410.11C345.815 409.728 345.726 409.589 345.637 409.451C345.637 409.451 345.627 409.486 345.661 409.336C345.313 407.232 344.6 405.49 342.695 404.514C342.695 404.514 342.719 404.505 342.684 404.379C342.402 404.163 342.155 404.071 341.908 403.98C341.908 403.98 341.909 404.009 341.947 403.877C341.832 403.671 341.678 403.595 341.525 403.52C341.525 403.52 341.525 403.548 341.504 403.404C341.299 403.183 341.116 403.107 340.933 403.031C338.059 400.913 335.186 398.796 332.165 396.485C330.823 395.252 329.629 394.212 328.524 393.062C330.236 390.381 331.859 387.809 333.482 385.237C335.966 388.305 338.45 391.373 341.041 394.543Z" fill="#F36526"/>
<path d="M287.98 300.17C289.918 301.509 291.778 302.969 293.606 304.643C293.044 305.602 292.605 306.436 291.97 307.073C290.385 308.662 288.71 310.161 287.072 311.696C281.913 311.071 276.754 310.447 271.453 309.802C269.282 307.093 267.343 304.329 265.192 301.741C263.924 300.216 262.321 298.969 261.176 297.888C261.306 297.014 261.408 296.262 261.532 295.514C261.615 295.015 261.731 294.523 261.832 294.027C262.279 294.281 262.875 294.428 263.149 294.807C266.404 299.298 270.755 302.492 275.435 305.304C276.038 305.666 276.658 306.007 277.297 306.3C280.911 307.96 282.316 307.634 284.755 304.524C285.84 303.141 286.855 301.703 287.98 300.17Z" fill="#F36526"/>
<path d="M333.448 385.1C331.858 387.807 330.235 390.379 328.38 393.042C325.101 391.139 322.056 389.145 319.011 387.151C319.213 382.824 319.415 378.497 319.667 373.984C325.309 376.264 329.982 379.854 333.448 385.1Z" fill="#F5D520"/>
<path d="M296.829 280.476C294.368 282.289 291.815 284.012 289.138 285.778C288.882 282.535 288.902 279.233 288.565 275.968C288.345 273.842 286.975 272.24 285.054 271.206C278.972 267.932 278.745 263.115 284.627 259.117C287.99 260.538 288.713 262.013 288.786 265.641C288.838 268.201 289.201 270.801 289.803 273.291C290.683 276.936 293.484 278.937 296.829 280.476Z" fill="#F36526"/>
<path d="M340.206 342.594C342.375 342.698 343.864 343.755 344.868 345.729C343.551 348.509 342.168 351.165 340.598 353.834C339.181 352.223 337.832 350.833 335.508 351.384C337.041 348.493 338.575 345.602 340.206 342.594Z" fill="#2E3F71"/>
<path d="M335.467 351.532C337.831 350.834 339.18 352.224 340.497 353.959C338.487 354.747 336.746 353.94 335.467 351.532Z" fill="#1C6FB7"/>
<path d="M252.929 343.053C253.655 346.863 254.134 350.708 254.869 354.503C255.235 356.397 255.881 358.294 256.745 360.017C257.578 361.679 257.614 362.929 256.421 364.436C255.437 365.677 254.867 367.239 254.059 368.628C253.27 369.985 252.539 371.474 250.193 371.378C250.435 368.865 250.694 366.513 250.88 364.155C251.14 360.882 250.033 357.917 248.734 354.998C247.533 352.3 246.367 349.586 245.195 346.736C247.732 345.417 250.26 344.242 252.929 343.053Z" fill="#F36526"/>
<path d="M293.836 347.301C293.964 344.604 294.256 341.92 294.665 339.062C301.714 339.813 308.14 338.83 313.502 333.891C314.164 333.281 314.758 332.596 315.713 332.068C315.026 333.679 314.398 335.319 313.641 336.897C310.695 343.033 305.392 345.637 298.993 346.568C297.328 346.81 295.664 347.064 293.836 347.301Z" fill="#F36526"/>
<path d="M308.683 363.928C308.787 363.826 308.905 363.835 308.964 363.831C308.896 365.178 308.769 366.528 308.59 368.052C306.63 366.791 306.634 366.335 308.683 363.928Z" fill="#F7F7F9"/>
<path d="M213.464 361.325C213.141 361.321 212.534 360.909 212.249 360.69C213.172 359.239 214.557 358.183 215.694 356.856C215.083 358.323 214.328 359.767 213.464 361.325Z" fill="#465AA9"/>
<path d="M315.173 385.544C315.377 392.676 315.496 399.61 314.31 406.488C313.176 397.378 314.321 388.339 315.182 379.284C315.182 381.306 315.181 383.328 315.173 385.544Z" fill="#638B9A"/>
<path d="M314.842 312.195C314.728 312.164 314.727 312.037 314.725 311.91C314.801 311.973 314.877 312.037 314.842 312.195Z" fill="#FFFFFE"/>
<path d="M346.388 400.391L345.136 397.141L348.605 399.039L348.307 402.141L346.388 400.391Z" fill="#4559A9"/>
<path d="M223.152 361.738L220.904 366.804L219.864 368.464L223.831 368.406L225.601 363.734L223.152 361.738Z" fill="#4559A9"/>
<path d="M115.922 166.103C116.237 164.939 116.606 163.787 116.853 162.608C117.162 161.137 116.679 160.359 115.225 160.117C109.21 159.117 103.18 158.258 97.0569 158.35C95.1524 158.378 93.2474 158.375 91.1316 158.381C87.5213 158.789 84.122 159.2 80.5907 159.643C78.5936 160.03 76.7288 160.387 74.8633 160.74C72.7734 161.135 70.6828 161.526 68.4874 161.945C66.2165 162.453 64.0507 162.936 61.8849 163.418C59.961 168.695 59.5505 174.115 60.799 179.562C61.5506 182.841 62.7645 186.014 63.8752 189.388C65.5214 189.736 66.2527 190.608 66.241 192.164C66.2365 192.763 66.3522 193.363 66.4817 194.03C67.8317 195.616 67.8347 195.917 66.5446 196.995C66.6575 199.674 66.803 202.218 67.0516 204.761C69.559 203.354 71.9972 202.003 74.3541 200.523C75.6779 199.692 76.8632 198.532 76.8359 196.852C76.7612 192.255 76.5377 187.661 76.2653 183.074C75.0607 182.918 73.9644 182.751 72.867 182.591C68.6509 181.978 65.1565 180.262 63.215 176.218C62.7159 175.179 62.3023 174.098 61.8495 173.036C62.4792 173.384 62.8701 173.836 63.3064 174.237C66.8398 177.492 71.0744 178.14 75.7245 177.426C86.0914 176.118 95.4803 171.481 105.713 169.319C103.7 172.882 103.316 176.551 103.221 180.273C104.98 181.057 106.646 181.831 108.399 182.557C109.639 180.072 110.768 177.623 111.958 175.205C112.419 174.269 113.017 173.4 113.549 172.392C114.338 170.224 115.13 168.164 115.922 166.103Z" fill="#CAEAF5"/>
<path d="M82.2429 124.93C81.2575 123.699 79.9615 124.207 78.9124 124.585C77.674 125.03 76.4951 125.778 75.4559 126.604C74.2226 127.583 73.1541 128.773 72.0347 129.893C70.0014 131.926 67.6378 132.277 64.9645 131.421C62.4945 130.63 60.0398 129.641 57.4999 129.253C53.3569 128.62 49.3925 131.311 48.009 135.256C47.6243 136.353 47.2174 137.442 46.8626 138.549C46.1652 140.723 44.6784 141.927 42.4454 142.295C41.6666 142.423 40.8955 142.624 40.1374 142.847C34.6762 144.457 32.0864 150.207 34.626 155.472C36.3074 158.958 38.9546 161.608 42.6267 163.08C43.135 163.284 43.6988 163.349 44.4209 163.423C46.2877 160.973 47.8433 158.477 49.6773 156.204C55.025 149.579 61.3126 144.083 69.2574 140.736C70.6934 140.131 72.2388 139.785 73.8591 139.267C74.0673 139.175 74.1501 139.138 74.293 139.041C76.497 138.027 78.3429 136.708 78.9229 134.307C79.3193 132.666 79.5589 130.952 79.5929 129.266C79.6412 126.875 80.1172 125.903 82.2429 124.93Z" fill="#2E3F71"/>
<path d="M73.7341 139.321C72.2392 139.786 70.6938 140.131 69.2578 140.736C61.313 144.084 55.0254 149.58 49.6777 156.205C47.8437 158.477 46.2881 160.974 44.5311 163.428C43.3517 165.535 42.2597 167.594 39.6842 168.522C38.6471 169.078 37.7764 169.536 36.9057 169.994C37.4316 170.496 37.9005 170.79 38.3522 170.766C40.1404 170.669 41.6199 171.026 42.27 172.937C43.0816 169.187 45.7219 166.758 48.5719 164.26C51.042 161.741 53.4867 159.441 55.7074 156.941C58.2501 154.079 61.0487 151.656 64.787 150.284C67.834 148.134 70.8387 146.105 73.7266 143.92C75.7994 142.352 75.7271 140.93 73.7341 139.321Z" fill="#FFC4B7"/>
<path d="M73.8597 139.269C75.7273 140.932 75.7997 142.354 73.7268 143.922C70.839 146.106 67.8343 148.136 64.8189 150.382C64.3713 152.746 63.9843 154.96 63.5699 157.33C65.9372 157.554 68.175 157.755 70.4098 157.987C70.7714 158.024 71.1195 158.192 71.558 158.254C73.1978 157.129 74.7533 156.051 76.3522 154.899C77.6213 153.863 78.8469 152.901 80.0725 151.94C82.7822 148.705 81.5751 145.711 79.394 142.64C77.5974 141.373 75.9155 140.238 74.2335 139.103C74.1507 139.14 74.0679 139.178 73.8597 139.269Z" fill="#F36526"/>
<path d="M42.3171 173.038C41.6204 171.024 40.1408 170.667 38.3526 170.764C37.901 170.788 37.4321 170.494 36.9061 169.992C37.7769 169.534 38.6476 169.076 39.5805 168.541C37.6224 164.914 35.6289 161.349 33.568 157.824C32.7722 156.463 31.4027 156.356 30.4194 157.533C30.1884 157.809 30.0636 158.438 30.2177 158.734C34.2625 166.509 38.3504 174.261 42.5562 181.986C43.2992 180.736 44.2806 180.04 45.6449 179.894C44.5511 177.643 43.4574 175.391 42.3171 173.038Z" fill="#465AA9"/>
<path d="M45.1591 214.204C45.0155 214.378 44.942 214.485 44.7735 214.673C44.6785 214.755 44.5861 214.832 44.5861 214.832C44.5861 214.832 44.6031 214.82 44.5739 214.901C43.2013 216.373 41.858 217.765 40.5146 219.157C40.5146 219.157 40.536 219.149 40.5164 219.182C40.4755 219.278 40.4425 219.333 40.3977 219.381C38.6854 222.236 39.0843 225.087 40.4545 228.265C40.9998 226.873 41.4407 225.748 41.9179 224.462C42.0131 224.21 42.0718 224.119 42.1306 224.028C42.1306 224.028 42.1371 224.051 42.1148 223.952C42.3443 222.566 42.8142 221.418 44.0693 220.775C44.0693 220.775 44.0532 220.769 44.0766 220.686C44.2625 220.543 44.4251 220.483 44.5876 220.423C44.5876 220.423 44.5871 220.442 44.5618 220.355C44.6378 220.219 44.7391 220.169 44.8404 220.12C44.8404 220.12 44.8405 220.138 44.8543 220.043C44.989 219.898 45.1098 219.847 45.2306 219.797C47.1239 218.402 49.0172 217.007 51.0077 215.484C51.8922 214.672 52.6794 213.986 53.4075 213.229C52.279 211.462 51.2097 209.767 50.1404 208.072C48.5033 210.094 46.8662 212.116 45.1591 214.204Z" fill="#FFC4B7"/>
<path d="M80.1235 152.015C78.8465 152.898 77.6208 153.86 76.4168 154.963C76.7866 155.595 77.0758 156.145 77.4948 156.564C78.5392 157.611 79.6426 158.599 80.7223 159.61C84.1216 159.199 87.5209 158.787 91.0141 158.363C92.4446 156.577 93.7227 154.756 95.1402 153.05C95.9756 152.045 97.0322 151.224 97.7866 150.512C97.7009 149.936 97.6337 149.44 97.5516 148.947C97.4969 148.619 97.4207 148.294 97.3541 147.968C97.0597 148.135 96.6669 148.231 96.4859 148.481C94.3411 151.441 91.4741 153.545 88.3903 155.399C87.9931 155.637 87.5843 155.862 87.1636 156.055C84.7822 157.149 83.8562 156.934 82.2488 154.884C81.534 153.973 80.8648 153.026 80.1235 152.015Z" fill="#FFC4B7"/>
<path d="M50.1623 207.981C51.2101 209.765 52.2794 211.46 53.5023 213.214C55.6625 211.96 57.669 210.646 59.6755 209.332C59.5427 206.481 59.4098 203.63 59.2432 200.656C55.5255 202.158 52.4461 204.524 50.1623 207.981Z" fill="#CAEAF5"/>
<path d="M74.2928 139.037C75.9146 140.232 77.5965 141.368 79.3608 142.531C79.5297 140.394 79.516 138.218 79.7386 136.067C79.8835 134.666 80.7863 133.611 82.0522 132.929C86.0596 130.772 86.209 127.597 82.3335 124.963C80.1169 125.899 79.6409 126.871 79.5927 129.262C79.5587 130.949 79.319 132.662 78.9226 134.303C78.3426 136.705 76.4967 138.024 74.2928 139.037Z" fill="#FFC4B7"/>
<path d="M45.7086 179.972C44.2795 180.041 43.2981 180.737 42.6366 182.038C43.5044 183.87 44.4158 185.62 45.4504 187.379C46.3846 186.317 47.2734 185.401 48.8049 185.765C47.7944 183.86 46.7839 181.955 45.7086 179.972Z" fill="#2E3F71"/>
<path d="M48.8322 185.862C47.2742 185.402 46.3855 186.318 45.5175 187.461C46.8421 187.981 47.9898 187.449 48.8322 185.862Z" fill="#1C6FB7"/>
<path d="M103.221 180.275C102.743 182.786 102.427 185.319 101.943 187.82C101.701 189.068 101.276 190.318 100.707 191.453C100.157 192.549 100.134 193.373 100.92 194.365C101.568 195.183 101.944 196.213 102.476 197.128C102.996 198.022 103.478 199.003 105.024 198.94C104.864 197.284 104.694 195.734 104.571 194.18C104.4 192.024 105.129 190.07 105.985 188.146C106.777 186.368 107.545 184.58 108.317 182.702C106.645 181.833 104.98 181.059 103.221 180.275Z" fill="#FFC4B7"/>
<path d="M76.2646 183.074C76.1802 181.297 75.988 179.528 75.7187 177.645C71.0737 178.14 66.8391 177.492 63.3057 174.237C62.8694 173.835 62.4785 173.384 61.8488 173.036C62.3016 174.098 62.7152 175.178 63.2143 176.218C65.1558 180.262 68.6502 181.978 72.8663 182.591C73.9637 182.75 75.06 182.918 76.2646 183.074Z" fill="#516192"/>
<path d="M66.883 196.815L58.9756 200.769V209.665L67.542 204.393L66.883 196.815Z" fill="#CAEAF5"/>
<path d="M71.4515 158.333C71.0972 158.225 70.7491 158.057 70.3874 158.019C68.1526 157.788 65.9148 157.586 63.5475 157.362C63.9619 154.992 64.3489 152.779 64.7042 150.468C61.0266 151.69 58.228 154.114 55.6852 156.976C53.4646 159.475 51.0199 161.775 48.6214 164.211C51.2024 165.484 53.8172 164.885 56.4086 164.128C58.4086 163.543 60.0893 162.418 61.4673 160.846C61.6964 160.585 61.9634 160.357 62.4792 160.232C62.262 161.235 62.0448 162.238 61.8451 163.347C64.0283 162.97 66.1942 162.488 68.4988 161.888C69.5755 160.624 70.5135 159.478 71.4515 158.333ZM62.3268 159.912C62.3773 159.87 62.4277 159.828 62.4782 159.787C62.4769 159.87 62.4756 159.954 62.3268 159.912Z" fill="#2E3F71"/>
</svg>
